<svg version="1.1" xmlns="http://www.w3.org/2000/svg" style="display: block;" viewBox="0 0 2048 2048" width="1024" height="1024" preserveAspectRatio="none">
<defs>
	<linearGradient id="Gradient1" gradientUnits="userSpaceOnUse" x1="850.137" y1="1012.63" x2="847.66" y2="1017.8">
		<stop class="stop0" offset="0" stop-opacity="1" stop-color="rgb(44,73,242)"/>
		<stop class="stop1" offset="1" stop-opacity="1" stop-color="rgb(26,44,182)"/>
	</linearGradient>
</defs>
<path transform="translate(0,0)" fill="rgb(0,0,0)" d="M 1106.33 736.437 C 1179.92 804.955 1216.65 813.077 1309.17 841.784 L 1308.99 843.076 C 1307.03 857.57 1306.49 879.106 1305.24 894.515 L 1296.86 989.526 C 1294.99 1009.97 1293.62 1035.32 1289.1 1055.33 C 1270.47 1137.86 1203.99 1204.11 1139.26 1254.44 C 1129.53 1262 1116.86 1270.78 1108.38 1279.09 C 1104.83 1279.78 1106.44 1279.98 1103.33 1278.98 L 1101.86 1276.96 C 1096.16 1273.42 1088.75 1267.1 1083.22 1262.85 C 1012.29 1208.33 936.022 1136.85 921.215 1044.36 C 916.397 1014.27 913.622 981.389 911.973 951.275 C 898.699 945.546 889.352 939.548 877.212 931.898 C 874.884 912.247 876.346 903.353 868.299 884.237 C 866.396 880.004 863.32 875.409 860.839 871.404 C 875.315 876.462 898.007 892.367 908.094 903.685 C 905.516 889.454 903.074 856.878 902.783 841.694 C 960.531 826.438 1016.56 808.397 1065.19 772.08 C 1080.69 760.511 1092.06 748.688 1106.33 736.437 z M 930.212 952.26 L 928.817 953.017 C 927.557 958.756 934.761 1022.91 935.979 1032 C 949.088 1129.83 1030.39 1202.96 1105.88 1258.91 C 1177.39 1204.17 1258.61 1134.5 1274.91 1040.62 C 1277.16 1027.66 1278.4 1007.74 1279.67 993.89 L 1288.61 894.45 C 1289.81 881.255 1290.21 867.84 1291.96 854.758 C 1277.75 851.33 1260.56 845.421 1246.57 840.72 C 1189.85 821.651 1150.38 800.275 1106.25 759.658 C 1055.42 809.418 987.743 836.726 919.973 854.318 C 922.553 874.092 922.253 896.865 925.263 916.071 L 920.718 917.006 C 913.923 913.105 910.192 909.214 903.291 910.988 C 899.587 913.702 890.06 928.684 885.878 934.021 C 899.298 942.465 914.049 951.767 930.637 949.65 L 930.212 952.26 z M 957.256 922.851 L 956.529 920.196 C 952.066 918.584 947.105 919.527 944.772 923.909 C 946.738 926.202 945.539 925.238 949.228 925.95 C 951.789 924.689 954.551 923.822 957.256 922.851 z"/>
<path transform="translate(0,0)" fill="rgb(19,20,22)" d="M 1106.08 791.875 C 1143.46 823.899 1179.8 842.214 1225.76 858.893 C 1234.29 861.988 1261.13 870.135 1267.18 873.07 C 1259.91 922.272 1259.17 980.268 1251.74 1030.64 C 1238.93 1117.56 1171.74 1178.2 1106.17 1229.74 C 1096.25 1224.23 1081.23 1210.2 1072.28 1202.47 C 1027.9 1164.16 981.64 1114.28 965.261 1056.73 C 956.15 1024.72 955.073 980.776 951.349 947.327 C 943.207 950.228 938.97 951.401 930.212 952.26 L 930.637 949.65 C 914.049 951.767 899.298 942.465 885.878 934.021 C 890.06 928.684 899.587 913.702 903.291 910.988 C 910.192 909.214 913.923 913.105 920.718 917.006 L 925.263 916.071 C 933.081 915.371 940.819 913.947 948.375 911.819 C 946.832 898.486 945.895 885.031 944.844 871.646 C 1000.33 856.821 1063.58 831.196 1106.08 791.875 z M 949.228 925.95 C 945.539 925.238 946.738 926.202 944.772 923.909 C 947.105 919.527 952.066 918.584 956.529 920.196 L 957.256 922.851 C 954.551 923.822 951.789 924.689 949.228 925.95 z M 992.038 927.162 L 992.48 926.083 C 996.1 924.569 1000.24 925.632 1005.02 924.907 L 1006.18 923.139 C 1006 920.123 1006.47 919.836 1005.06 917.62 C 1003.64 917.72 1002.22 917.827 1000.8 917.943 L 1000.84 915.815 C 1005.48 914.801 1003.58 915.868 1006.88 912.736 C 1005.37 910.409 1003.79 913.263 1000.21 910.927 C 1001.58 909.789 1005.06 910.443 1007.46 910.525 L 1007.87 909.362 C 1005.75 908.053 1005.16 907.987 1002.75 907.218 L 1002.99 904.881 C 1006 904.207 1008.13 904.543 1009.71 901.739 C 1005.53 897.356 987.816 904.117 982.33 905.889 C 972.091 908.943 959.216 913.054 948.91 915.258 C 945.127 916.049 935.097 917.982 931.803 919.279 L 924.539 918.388 C 924.349 924.108 926.765 926.493 926.289 930.371 L 923.41 933.788 C 927.874 939.911 941.222 940.393 948.056 938.743 C 949.916 937.732 951.788 936.743 953.671 935.775 C 964.894 930.042 966.861 939.134 978.248 931.308 C 981.955 928.76 985.64 928.143 990.06 927.851 L 992.038 927.162 z M 1017.78 897.351 C 1014.8 897.787 1012.29 897.802 1009.9 899.514 C 1013.12 901.453 1019.55 900.501 1023.23 900.145 C 1026.16 899.567 1026.05 899.757 1028.78 898.603 L 1028.48 897.699 C 1023.62 896.618 1022.87 896.873 1017.78 897.351 z M 954.216 946.24 C 957.534 977.113 959.554 1009.98 964.998 1040.45 C 974.337 1092.73 1013.21 1144.24 1052.36 1180.01 C 1069.39 1196.24 1087.38 1211.43 1106.23 1225.5 C 1151.48 1187.91 1189.04 1158.01 1220.36 1106.69 C 1250.02 1058.1 1251.81 1013.75 1256.63 959.227 C 1259.1 931.264 1261.81 902.502 1263.37 874.562 C 1215.29 860.193 1173.97 844.693 1131.77 816.898 C 1123.41 811.397 1112.41 800.831 1106.01 796.822 C 1058.18 836.676 1008.1 857.47 948.84 874.421 C 949.294 887.186 950.322 898.308 951.568 911.022 C 970.954 905.129 1016.83 890.158 1034.44 893.591 C 1037.24 896.182 1036.36 894.621 1037.03 898.533 C 1034.51 903.862 1028.44 902.978 1022.89 903.731 C 1024.48 912.597 1023.87 915.806 1018.74 923.21 C 1018.02 924.247 1017.29 925.276 1016.54 926.298 C 1007 928.663 1004.02 929.496 993.953 928.684 C 983.649 935.487 965.987 942.217 954.216 946.24 z"/>
<path transform="translate(0,0)" fill="rgb(253,251,252)" fill-opacity="0.313725" d="M 973.78 913.025 L 985.835 912.264 C 988.354 914.93 987.753 913.44 988.288 916.59 C 983.293 920.615 977.297 917.518 974.837 920.754 C 979.745 925.873 985.194 927.041 992.038 927.162 L 990.06 927.851 C 985.64 928.143 981.955 928.76 978.248 931.308 C 966.861 939.134 964.894 930.042 953.671 935.775 C 951.788 936.743 949.916 937.732 948.056 938.743 L 946.552 938.027 C 945.744 932.988 946.787 930.144 949.228 925.95 C 951.789 924.689 954.551 923.822 957.256 922.851 L 959.704 921.562 L 959.434 919.988 C 956.156 918.179 954.766 918.462 951.049 918.393 L 950.816 917.964 C 959.498 914.506 962.203 919.231 973.78 913.025 z"/>
<path transform="translate(0,0)" fill="rgb(253,251,252)" fill-opacity="0.486275" d="M 924.539 918.388 L 931.803 919.279 L 927.44 920.751 C 930.806 924.602 946.466 919.797 951.049 918.393 C 954.766 918.462 956.156 918.179 959.434 919.988 L 959.704 921.562 L 957.256 922.851 L 956.529 920.196 C 952.066 918.584 947.105 919.527 944.772 923.909 C 946.738 926.202 945.539 925.238 949.228 925.95 C 946.787 930.144 945.744 932.988 946.552 938.027 L 948.056 938.743 C 941.222 940.393 927.874 939.911 923.41 933.788 L 926.289 930.371 C 926.765 926.493 924.349 924.108 924.539 918.388 z"/>
<path transform="translate(0,0)" fill="rgb(253,251,252)" fill-opacity="0.262745" d="M 998.871 910.086 C 1000.41 906.281 999.695 906.248 1002.99 904.881 L 1002.75 907.218 C 1005.16 907.987 1005.75 908.053 1007.87 909.362 L 1007.46 910.525 C 1005.06 910.443 1001.58 909.789 1000.21 910.927 C 1003.79 913.263 1005.37 910.409 1006.88 912.736 C 1003.58 915.868 1005.48 914.801 1000.84 915.815 C 995.301 911.641 989.327 917.678 988.055 923.277 L 988.807 925.868 C 990.745 926.146 990.553 926.222 992.48 926.083 L 992.038 927.162 C 985.194 927.041 979.745 925.873 974.837 920.754 C 977.297 917.518 983.293 920.615 988.288 916.59 C 987.753 913.44 988.354 914.93 985.835 912.264 L 973.78 913.025 C 983.105 907.873 987.439 913.893 998.871 910.086 z"/>
<path transform="translate(0,0)" fill="rgb(253,251,252)" fill-opacity="0.0980392" d="M 948.91 915.258 C 959.216 913.054 972.091 908.943 982.33 905.889 C 989.167 910.043 990.793 909.705 998.871 910.086 C 987.439 913.893 983.105 907.873 973.78 913.025 C 962.203 919.231 959.498 914.506 950.816 917.964 C 948.898 916.83 949.615 917.668 948.91 915.258 z"/>
<path transform="translate(0,0)" fill="rgb(253,251,252)" fill-opacity="0.356863" d="M 931.803 919.279 C 935.097 917.982 945.127 916.049 948.91 915.258 C 949.615 917.668 948.898 916.83 950.816 917.964 L 951.049 918.393 C 946.466 919.797 930.806 924.602 927.44 920.751 L 931.803 919.279 z"/>
<path transform="translate(0,0)" fill="rgb(253,251,252)" d="M 885.878 934.021 C 890.06 928.684 899.587 913.702 903.291 910.988 C 910.192 909.214 913.923 913.105 920.718 917.006 L 924.539 918.388 C 924.349 924.108 926.765 926.493 926.289 930.371 L 923.41 933.788 C 927.874 939.911 941.222 940.393 948.056 938.743 C 949.916 937.732 951.788 936.743 953.671 935.775 C 964.894 930.042 966.861 939.134 978.248 931.308 C 981.955 928.76 985.64 928.143 990.06 927.851 C 974.855 935.737 946.901 946.848 930.637 949.65 C 914.049 951.767 899.298 942.465 885.878 934.021 z"/>
<path transform="translate(0,0)" fill="rgb(43,71,247)" d="M 1176.85 930.711 C 1183.87 935.488 1193.46 945.557 1199.3 951.875 C 1192.7 960.808 1172.35 978.888 1163.97 987.358 C 1138.72 1012.88 1110.11 1038.56 1086.09 1065.07 C 1075.3 1053.39 1063.4 1041.74 1052.15 1030.42 C 1045.96 1023.62 1036.53 1014.84 1029.85 1008.11 C 1033.66 1002.42 1045.96 991.374 1051.41 986.176 C 1063.21 997.671 1074.9 1009.28 1086.48 1021 C 1101.35 1004.26 1121.88 985.484 1137.9 969.294 C 1148.91 958.179 1165.49 940.527 1176.85 930.711 z"/>
<path transform="translate(0,0)" fill="rgb(253,251,252)" fill-opacity="0.0117647" d="M 1017.78 897.351 C 1022.87 896.873 1023.62 896.618 1028.48 897.699 L 1028.78 898.603 C 1026.05 899.757 1026.16 899.567 1023.23 900.145 C 1019.55 900.501 1013.12 901.453 1009.9 899.514 C 1012.29 897.802 1014.8 897.787 1017.78 897.351 z"/>
<path transform="translate(0,0)" fill="rgb(253,251,252)" fill-opacity="0.870588" d="M 949.228 925.95 C 945.539 925.238 946.738 926.202 944.772 923.909 C 947.105 919.527 952.066 918.584 956.529 920.196 L 957.256 922.851 C 954.551 923.822 951.789 924.689 949.228 925.95 z"/>
<path transform="translate(0,0)" fill="rgb(19,20,22)" fill-opacity="0.980392" d="M 420.746 820.565 C 427.77 819.35 480.397 821.743 491.093 821.565 C 494.42 821.51 500.235 823.864 503.41 825.879 C 509.782 834.235 507.904 867.971 507.917 879.738 L 507.971 953.445 L 507.788 1027.46 C 507.743 1040.69 508.318 1056.96 507.198 1069.88 C 499.899 1081.6 494.148 1079.69 481.086 1079.59 C 461.64 1079.43 442.187 1079.61 422.754 1079.53 C 400.638 1077.92 373.23 1081.4 350.877 1078.86 C 344.172 1078.1 341.965 1075.41 338.258 1070.2 C 334.426 994.386 340.276 914.146 337.839 837.921 C 337.591 830.143 342.508 822.791 350.603 821.785 C 373.135 818.985 397.078 822.49 419.752 820.654 L 420.746 820.565 z M 504.584 833.408 C 501.287 829.645 500.204 828.262 496.324 825.249 C 471.524 825.059 445.017 825.112 420.3 826.043 C 401.928 826.734 360.876 822.432 345.472 827.559 C 343.172 830.062 341.537 841.203 341.507 844.95 C 340.929 915.942 341.011 987.01 341.407 1058.01 C 341.519 1078.05 350.81 1076.12 367.808 1076.02 C 407.973 1075.8 448.264 1076.82 488.396 1075.68 C 510.2 1075.04 503.825 1060.07 505.065 1044.48 C 506.199 1037.77 506.339 1031.17 505.183 1024.46 C 504.299 967.823 505.566 910.96 505.068 854.307 C 505.006 847.245 504.994 840.475 504.584 833.408 z"/>
<path transform="translate(0,0)" fill="rgb(19,20,22)" fill-opacity="0.988235" d="M 349.577 840.5 C 365.831 839.509 386.183 839.953 402.728 839.922 C 434.058 839.756 465.388 839.874 496.715 840.274 C 497.619 853.099 497.01 873.576 497.014 886.94 L 497.026 976.203 L 497.063 1021.8 C 497.089 1026.58 497.508 1040.82 496.791 1044.93 L 494.995 1046.02 C 446.175 1045.79 397.354 1045.86 348.535 1046.21 C 349.729 996.813 347.524 945.053 348.635 895.384 C 348.865 885.122 347.851 847.28 349.577 840.5 z M 351.585 1041.9 C 386.799 1041.5 422.017 1041.49 457.232 1041.86 C 467.511 1042.01 482.364 1041.19 492.008 1042.02 L 493.82 1040.83 C 495.223 1024.31 494.268 990.348 494.214 973.205 C 494.051 929.976 494.121 886.746 494.425 843.518 C 447.089 844.61 399.328 843.198 352.079 843.786 C 349.847 902.119 352.825 961.307 351.24 1019.75 C 351.046 1026.9 351.186 1034.76 351.585 1041.9 z"/>
<path transform="translate(0,0)" fill="rgb(19,20,22)" d="M 375.241 906.575 C 370.838 906.548 367.686 906.907 363.615 905.248 L 363.628 904.113 C 367.775 902.307 372.286 902.943 376.958 903.057 C 379.843 909.158 381.086 913.786 383.007 920.242 C 404.539 919.89 456.45 918.932 476.298 921.054 C 474.674 926.745 466.057 958.59 463.82 960.482 C 453.039 969.606 400.74 957.176 391.869 970.717 C 391.828 974.356 391.377 972.679 393.495 975.857 C 396.588 977.992 399.043 977.698 402.842 977.917 L 404.38 980.064 C 401.138 981.398 396.514 980.943 392.866 980.896 C 392.459 980.826 392.024 980.85 391.645 980.686 C 386.132 978.309 387.95 970.672 389.599 966.58 C 393.296 957.406 378.583 918.019 375.241 906.575 z M 450.007 940.707 C 455.257 940.955 461.12 941.589 466.166 940.542 L 467.312 938.68 L 471.91 923.986 C 465.277 923.992 457.747 924.168 451.205 923.827 C 450.934 929.671 450.72 934.89 450.007 940.707 z M 408.593 943.862 C 408.982 949.472 409.292 955.383 409.794 960.955 C 414.839 960.958 421.066 961.136 426.006 960.816 L 425.936 943.953 L 408.593 943.862 z M 446.636 940.613 C 447.258 935.28 448.111 929.145 448.506 923.869 C 442.296 923.888 435.254 924.074 429.12 923.855 L 429.059 939.97 C 434.622 940.221 441.171 940.668 446.636 940.613 z M 406.939 960.75 C 406.383 955.337 405.888 949.323 405.175 943.981 L 390.042 943.921 C 391.567 950.201 392.98 955.958 394.84 962.158 L 406.939 960.75 z M 429.634 943.492 C 429.06 948.605 427.913 953.724 429.941 958.25 C 434.682 962.44 438.025 960.573 443.853 959.328 C 445.471 952.848 445.753 950.473 446.34 943.928 C 441.864 943.891 433.736 944.04 429.634 943.492 z M 448.2 959.994 C 453.243 960.025 457.319 960.507 461.967 958.723 C 463.268 953.831 464.635 948.88 465.875 943.981 L 449.642 943.917 C 449.242 948.832 448.91 955.232 448.2 959.994 z M 403.668 923.876 C 397.235 923.906 390.438 924.052 384.041 923.916 C 385.883 930.275 387.254 934.268 389.715 940.414 L 404.568 940.036 L 403.668 923.876 z M 407 923.787 C 407.098 928.837 407.042 935.202 407.523 940.123 L 426.363 940.318 L 425.916 923.873 C 420.341 923.885 412.374 924.134 407 923.787 z"/>
<path transform="translate(0,0)" fill="rgb(73,72,75)" d="M 402.842 977.917 C 413.524 977.107 460.067 975.547 468.088 978.835 L 468.731 980.723 C 464.81 983.581 460.417 980.069 458.735 983.027 L 459.629 984.383 C 454.358 984.651 455.67 982.965 447.837 984.833 C 448.27 983.382 448.208 984.155 447.911 982.508 C 442.146 981.359 411.481 981.639 404.936 981.951 L 404.345 983.199 C 400.213 984.569 397.552 985.15 394.046 987.71 C 395.914 984.793 397.156 984.945 397.095 982.202 L 392.866 980.896 C 396.514 980.943 401.138 981.398 404.38 980.064 L 402.842 977.917 z"/>
<path transform="translate(0,0)" fill="rgb(44,55,86)" d="M 404.345 983.199 C 405.728 984.352 408.369 986.414 409.541 987.593 C 416.63 992.694 410.643 1000.96 403.503 1002.37 C 394.855 1004.08 389.799 992.735 394.046 987.71 C 397.552 985.15 400.213 984.569 404.345 983.199 z"/>
<path transform="translate(0,0)" fill="rgb(19,20,22)" d="M 404.345 983.199 C 405.728 984.352 408.369 986.414 409.541 987.593 L 408.461 988.222 C 404.337 987.459 401.491 988.246 397.4 989.085 L 395.933 989.395 L 394.046 987.71 C 397.552 985.15 400.213 984.569 404.345 983.199 z"/>
<path transform="translate(0,0)" fill="rgb(19,20,22)" d="M 447.837 984.833 C 455.67 982.965 454.358 984.651 459.629 984.383 C 462.583 986.753 464.72 991.183 464.794 994.961 C 458.154 1007.91 434.974 998.619 447.837 984.833 z"/>
<path transform="translate(0,0)" fill="rgb(19,20,22)" d="M 420.222 1050.69 C 425.462 1049.4 430.77 1052.53 432.195 1057.73 C 433.62 1062.93 430.645 1068.32 425.483 1069.89 C 422.016 1070.95 418.25 1070.03 415.65 1067.51 C 413.05 1064.98 412.026 1061.25 412.976 1057.75 C 413.927 1054.25 416.702 1051.55 420.222 1050.69 z M 425.41 1066.28 C 427.522 1065.21 428.858 1063.05 428.873 1060.68 C 428.888 1058.32 427.578 1056.14 425.48 1055.05 C 423.382 1053.95 420.848 1054.12 418.916 1055.49 C 416.216 1057.4 415.446 1061.07 417.152 1063.9 C 418.857 1066.73 422.459 1067.77 425.41 1066.28 z"/>
<path transform="translate(0,0)" fill="rgb(19,20,22)" d="M 439.791 829.744 L 440.924 830.441 L 439.711 833.452 C 436.689 834.543 409.415 834.042 404.296 834.033 L 404.56 831.37 C 409.351 828.879 432.3 830.603 439.791 829.744 z"/>
<path transform="translate(0,0)" fill="rgb(19,20,22)" fill-opacity="0.882353" d="M 501.248 836.702 C 502.657 842.866 502.111 860.707 501.491 867.206 C 498.403 861.553 499.798 843.149 501.248 836.702 z"/>
<path transform="translate(0,0)" fill="rgb(52,44,57)" fill-opacity="0.882353" d="M 505.183 1024.46 C 506.339 1031.17 506.199 1037.77 505.065 1044.48 C 504.799 1038.41 505.102 1030.66 505.183 1024.46 z"/>
<path transform="translate(0,0)" fill="rgb(43,71,247)" d="M 825.625 865.703 C 827.267 875.493 832.018 876.408 840.223 879.962 C 846.807 878.469 846.686 878.293 849.233 872.537 L 850.814 869.925 C 854.674 870.248 857.163 870.271 860.839 871.404 C 863.32 875.409 866.396 880.004 868.299 884.237 C 876.346 903.353 874.884 912.247 877.212 931.898 C 878.805 948.543 882.999 984.953 885.088 1003.73 C 884.756 1004.26 884.425 1004.79 884.093 1005.31 L 882.036 1006.27 C 881.142 1010.43 884.14 1034.92 885.337 1047.37 C 891.503 1111.49 898.565 1178.2 903.639 1242.69 C 903.068 1243.09 902.498 1243.5 901.927 1243.9 L 900.49 1243.98 L 899.957 1242.47 C 896.832 1240.54 885.158 1241.29 881.073 1241.57 C 887.702 1241.28 888.998 1241.48 895.291 1243.07 L 896.873 1243.48 C 891.656 1244.2 873.096 1242.27 871.315 1245.07 L 869.501 1241.55 L 863.051 1236.84 C 858.33 1208.97 852.664 1179.39 848.712 1151.62 C 844.563 1127.97 836.383 1089.39 833.877 1066.61 L 832.04 1065.73 C 829.234 1068.52 814.712 1132.47 812.807 1141.19 C 807.083 1167.39 798.775 1194.65 792.712 1220.68 L 791.243 1224.57 C 790.366 1229.05 789.244 1238.63 785.817 1241.02 C 780.755 1244.69 781.541 1245.3 781.304 1251.52 L 780.794 1245.3 L 779.944 1244.58 C 773.941 1253.02 764.693 1253.75 755.169 1251.65 C 763.558 1249.3 766.723 1250.54 774.177 1248.51 C 776.584 1246.53 776.397 1245.81 777.169 1242.74 C 765.809 1247.09 767.06 1242.45 757.888 1243.8 C 755 1246.24 755.894 1246.61 755.169 1251.65 C 754.857 1249.35 754.585 1247.04 754.355 1244.73 L 752.487 1243.98 C 752.365 1243.84 752.243 1243.7 752.122 1243.56 C 751.29 1243.01 750.457 1242.46 749.625 1241.91 C 749.303 1241.4 748.981 1240.9 748.659 1240.4 C 750.07 1231.62 751.305 1222.8 752.763 1214.03 C 757.087 1188.01 761.088 1161.88 764.802 1135.77 C 768.805 1107.63 772.121 1079.4 776.706 1051.35 C 780.812 996.684 703.023 966.438 748.444 915.286 C 750.849 912.577 754.305 908.259 755.235 904.837 C 755.236 903.221 754.923 902.358 755.853 901.319 C 768.392 887.321 784.733 873.559 802.367 868.569 C 811.265 866.385 816.532 866.152 825.625 865.703 z M 758.419 994.352 L 764.913 1003.31 L 767.337 1005.94 C 769.056 1008.91 770.596 1011.73 772.611 1014.53 C 773.934 1017.93 775.445 1021.43 776.216 1024.97 C 778.589 1026.01 778.411 1026.03 780.981 1025.91 C 782.705 1024.5 783.726 1023.64 785.622 1022.45 L 786.976 1021.61 L 787.056 1020.61 L 791.698 1015.94 L 792.719 1015.84 L 793.027 1013.34 C 796.391 1010.04 796.858 1013.67 802.931 1012.03 C 802.026 1009.45 800.012 1008.03 797.966 1006.11 C 788.705 1000.51 787.733 998.201 782.625 988.847 L 782.453 987.036 C 774.945 978.384 765.953 955.797 768.102 943.963 C 771.221 938.341 775.153 935.207 779.804 930.704 C 772.343 924.295 763.635 917.093 758.001 909.001 L 751.35 916.91 C 746.274 919.96 740.63 932.049 738.865 937.706 C 737.936 941.872 736.656 946.128 737.662 950.314 C 739.337 967.014 749.269 980.664 758.419 994.352 z M 768.971 949.581 C 771.803 958.305 775.36 966.776 779.604 974.907 L 780.581 974.497 C 782.438 960.941 783.774 946.217 785.266 932.538 L 780.216 933.697 C 776.306 938.789 771.976 943.964 768.971 949.581 z"/>
<path transform="translate(0,0)" fill="rgb(253,251,252)" fill-opacity="0.772549" d="M 738.865 937.706 C 740.63 932.049 746.274 919.96 751.35 916.91 C 757.937 918.561 758.043 922.644 761.96 928.068 C 766.386 934.197 766.347 937.456 766.714 944.637 L 768.102 943.963 C 765.953 955.797 774.945 978.384 782.453 987.036 C 774.173 988.75 771.743 990.291 764.976 995.432 C 763.077 992.485 762.174 990.29 759.041 988.873 C 757.149 991.374 757.866 989.932 758.419 994.352 C 749.269 980.664 739.337 967.014 737.662 950.314 L 739.24 952.014 L 740.519 950.98 C 741.941 946.803 742.563 941.759 740.971 937.588 L 738.865 937.706 z M 749.808 932.715 C 752.71 929.39 756.024 924.625 752.892 920.098 C 749.066 923.706 745.688 927.739 749.808 932.715 z"/>
<path transform="translate(0,0)" fill="rgb(253,251,252)" fill-opacity="0.823529" d="M 752.892 920.098 C 756.024 924.625 752.71 929.39 749.808 932.715 C 745.688 927.739 749.066 923.706 752.892 920.098 z"/>
<path transform="translate(0,0)" fill="rgb(253,251,252)" fill-opacity="0.443137" d="M 764.913 1003.31 L 766.095 1000.94 C 773.054 998.142 778.885 989.722 782.625 988.847 C 787.733 998.201 788.705 1000.51 797.966 1006.11 C 800.012 1008.03 802.026 1009.45 802.931 1012.03 C 796.858 1013.67 796.391 1010.04 793.027 1013.34 L 792.719 1015.84 L 791.698 1015.94 C 791.928 1011.54 792.586 1011.96 790.815 1008.68 C 781.985 1004.25 779.504 1014.1 769.441 1003.12 L 767.972 1003.54 L 767.337 1005.94 L 764.913 1003.31 z"/>
<path transform="translate(0,0)" fill="rgb(253,251,252)" fill-opacity="0.0156863" d="M 751.35 916.91 L 758.001 909.001 C 763.635 917.093 772.343 924.295 779.804 930.704 C 775.153 935.207 771.221 938.341 768.102 943.963 L 766.714 944.637 C 766.347 937.456 766.386 934.197 761.96 928.068 C 758.043 922.644 757.937 918.561 751.35 916.91 z"/>
<path transform="translate(0,0)" fill="rgb(19,20,22)" d="M 779.804 930.704 L 780.216 933.697 C 776.306 938.789 771.976 943.964 768.971 949.581 C 771.803 958.305 775.36 966.776 779.604 974.907 C 783.213 987.169 788.769 997.407 799.521 1004.54 L 797.966 1006.11 C 788.705 1000.51 787.733 998.201 782.625 988.847 L 782.453 987.036 C 774.945 978.384 765.953 955.797 768.102 943.963 C 771.221 938.341 775.153 935.207 779.804 930.704 z"/>
<path transform="translate(0,0)" fill="rgb(253,251,252)" fill-opacity="0.215686" d="M 767.337 1005.94 L 767.972 1003.54 L 769.441 1003.12 C 779.504 1014.1 781.985 1004.25 790.815 1008.68 C 792.586 1011.96 791.928 1011.54 791.698 1015.94 L 787.056 1020.61 C 782.912 1015.17 780.34 1014.84 773.607 1012.68 L 772.611 1014.53 C 770.596 1011.73 769.056 1008.91 767.337 1005.94 z"/>
<path transform="translate(0,0)" fill="rgb(253,251,252)" fill-opacity="0.552941" d="M 764.976 995.432 C 771.743 990.291 774.173 988.75 782.453 987.036 L 782.625 988.847 C 778.885 989.722 773.054 998.142 766.095 1000.94 L 764.913 1003.31 L 758.419 994.352 C 757.866 989.932 757.149 991.374 759.041 988.873 C 762.174 990.29 763.077 992.485 764.976 995.432 z"/>
<path transform="translate(0,0)" fill="rgb(253,251,252)" fill-opacity="0.00784314" d="M 772.611 1014.53 L 773.607 1012.68 C 780.34 1014.84 782.912 1015.17 787.056 1020.61 L 786.976 1021.61 L 785.622 1022.45 C 783.726 1023.64 782.705 1024.5 780.981 1025.91 C 778.411 1026.03 778.589 1026.01 776.216 1024.97 C 775.445 1021.43 773.934 1017.93 772.611 1014.53 z"/>
<path transform="translate(0,0)" fill="rgb(253,251,252)" fill-opacity="0.643137" d="M 738.865 937.706 L 740.971 937.588 C 742.563 941.759 741.941 946.803 740.519 950.98 L 739.24 952.014 L 737.662 950.314 C 736.656 946.128 737.936 941.872 738.865 937.706 z"/>
<path transform="translate(0,0)" fill="rgb(43,71,247)" d="M 825.625 865.703 C 827.267 875.493 832.018 876.408 840.223 879.962 C 846.807 878.469 846.686 878.293 849.233 872.537 L 850.814 869.925 C 854.674 870.248 857.163 870.271 860.839 871.404 C 863.32 875.409 866.396 880.004 868.299 884.237 C 876.346 903.353 874.884 912.247 877.212 931.898 C 878.805 948.543 882.999 984.953 885.088 1003.73 C 884.756 1004.26 884.425 1004.79 884.093 1005.31 L 882.036 1006.27 C 877.266 1003.94 825.707 1017.33 799.521 1004.54 C 788.769 997.407 783.213 987.169 779.604 974.907 L 780.581 974.497 C 782.438 960.941 783.774 946.217 785.266 932.538 L 780.216 933.697 L 779.804 930.704 C 772.343 924.295 763.635 917.093 758.001 909.001 C 755.715 908.058 756.739 908.424 755.235 904.837 C 755.236 903.221 754.923 902.358 755.853 901.319 C 768.392 887.321 784.733 873.559 802.367 868.569 C 811.265 866.385 816.532 866.152 825.625 865.703 z"/>
<path transform="translate(0,0)" fill="rgb(0,0,0)" d="M 755.235 904.837 C 755.236 903.221 754.923 902.358 755.853 901.319 C 768.392 887.321 784.733 873.559 802.367 868.569 C 836 884.69 799.915 916.689 785.266 932.538 L 780.216 933.697 L 779.804 930.704 C 772.343 924.295 763.635 917.093 758.001 909.001 C 755.715 908.058 756.739 908.424 755.235 904.837 z"/>
<path transform="translate(0,0)" fill="rgb(44,67,223)" d="M 850.814 869.925 C 854.674 870.248 857.163 870.271 860.839 871.404 C 863.32 875.409 866.396 880.004 868.299 884.237 C 864.647 881.403 861.146 875.254 857.743 876.706 C 851.315 879.448 847.292 881.292 840.223 879.962 C 846.807 878.469 846.686 878.293 849.233 872.537 L 850.814 869.925 z"/>
<path transform="translate(0,0)" fill="rgb(44,67,223)" d="M 810.694 1088.16 C 814.054 1080.85 816.344 1081.45 822.416 1082.82 C 824.407 1080.8 823.942 1082.01 824.262 1079.32 C 822.707 1078.12 823.475 1078.61 821.455 1077.59 L 819.907 1076.83 L 819.746 1074.57 L 821.14 1073.01 C 823.831 1073.12 822.688 1072.68 824.537 1074.58 C 827.854 1069.93 831.91 1045.34 842.67 1034.37 L 843.824 1034.81 C 844.061 1043.56 832.698 1046.11 834.991 1062.84 L 833.877 1066.61 L 832.04 1065.73 C 829.234 1068.52 814.712 1132.47 812.807 1141.19 C 807.083 1167.39 798.775 1194.65 792.712 1220.68 L 791.243 1224.57 C 790.366 1229.05 789.244 1238.63 785.817 1241.02 C 780.755 1244.69 781.541 1245.3 781.304 1251.52 L 780.794 1245.3 L 779.944 1244.58 C 773.941 1253.02 764.693 1253.75 755.169 1251.65 C 763.558 1249.3 766.723 1250.54 774.177 1248.51 C 776.584 1246.53 776.397 1245.81 777.169 1242.74 C 765.809 1247.09 767.06 1242.45 757.888 1243.8 C 755 1246.24 755.894 1246.61 755.169 1251.65 C 754.857 1249.35 754.585 1247.04 754.355 1244.73 L 752.487 1243.98 C 752.365 1243.84 752.243 1243.7 752.122 1243.56 C 751.29 1243.01 750.457 1242.46 749.625 1241.91 C 749.303 1241.4 748.981 1240.9 748.659 1240.4 C 750.07 1231.62 751.305 1222.8 752.763 1214.03 C 757.087 1188.01 761.088 1161.88 764.802 1135.77 C 768.805 1107.63 772.121 1079.4 776.706 1051.35 L 779.938 1047.2 C 780.049 1054.36 778.66 1053.9 784.327 1058.26 C 779.964 1061.76 778.503 1059.52 777.942 1066.52 C 776.967 1071.89 775.619 1080.68 774.051 1085.63 L 774.639 1086.89 C 785.603 1093.43 779.833 1083.35 790.605 1098.42 C 793.795 1099.79 797.688 1099.98 801.168 1100.03 L 806.075 1099.75 C 808.68 1097.4 807.865 1097.42 808.527 1092.88 L 810.694 1088.16 z"/>
<path transform="translate(0,0)" fill="rgb(24,30,121)" d="M 779.938 1047.2 C 780.049 1054.36 778.66 1053.9 784.327 1058.26 C 779.964 1061.76 778.503 1059.52 777.942 1066.52 C 776.967 1071.89 775.619 1080.68 774.051 1085.63 L 774.639 1086.89 C 773.582 1095.06 770.962 1113.24 771.164 1120.78 L 770.947 1121.5 C 768.672 1129.49 767.687 1140.71 766.555 1149.26 C 762.927 1165.49 760.742 1196.62 756.485 1210.93 C 766.01 1214.33 763.875 1226.91 771.111 1228.79 C 773.131 1229.32 778.716 1229.42 782.379 1230.62 L 781.107 1230.15 L 782.855 1231.39 L 780.484 1233.17 C 781.578 1233.83 782.678 1234.49 783.783 1235.14 C 785.816 1231.93 788.591 1227.04 791.243 1224.57 C 790.366 1229.05 789.244 1238.63 785.817 1241.02 C 780.755 1244.69 781.541 1245.3 781.304 1251.52 L 780.794 1245.3 L 779.944 1244.58 C 773.941 1253.02 764.693 1253.75 755.169 1251.65 C 763.558 1249.3 766.723 1250.54 774.177 1248.51 C 776.584 1246.53 776.397 1245.81 777.169 1242.74 C 765.809 1247.09 767.06 1242.45 757.888 1243.8 C 755 1246.24 755.894 1246.61 755.169 1251.65 C 754.857 1249.35 754.585 1247.04 754.355 1244.73 L 752.487 1243.98 C 752.365 1243.84 752.243 1243.7 752.122 1243.56 C 751.29 1243.01 750.457 1242.46 749.625 1241.91 C 749.303 1241.4 748.981 1240.9 748.659 1240.4 C 750.07 1231.62 751.305 1222.8 752.763 1214.03 C 757.087 1188.01 761.088 1161.88 764.802 1135.77 C 768.805 1107.63 772.121 1079.4 776.706 1051.35 L 779.938 1047.2 z"/>
<path transform="translate(0,0)" fill="rgb(40,61,216)" d="M 756.485 1210.93 C 766.01 1214.33 763.875 1226.91 771.111 1228.79 C 773.131 1229.32 778.716 1229.42 782.379 1230.62 L 781.107 1230.15 L 782.855 1231.39 L 780.484 1233.17 C 781.578 1233.83 782.678 1234.49 783.783 1235.14 C 785.816 1231.93 788.591 1227.04 791.243 1224.57 C 790.366 1229.05 789.244 1238.63 785.817 1241.02 C 779.843 1238.55 764.396 1239.47 757.999 1240.87 C 755.591 1241.4 755.159 1240.44 753.626 1239.06 C 751.379 1230.29 755.27 1222.04 756.334 1212.38 L 756.485 1210.93 z"/>
<path transform="translate(0,0)" fill="rgb(40,61,216)" d="M 792.165 1117.97 C 793.256 1117.71 794.82 1117.09 795.923 1116.7 C 798.444 1109.25 801.35 1109.19 808.512 1109.21 C 811.653 1110.73 810.536 1109.6 812.075 1112.61 C 810.997 1116.32 809.907 1117.35 806.058 1118.72 L 804.414 1120.97 C 803.439 1125.87 805.574 1128.18 804.676 1131.34 C 800.514 1132.57 799.487 1131.64 795.766 1133.89 C 790.673 1139.01 792.264 1133.57 785.799 1139.81 C 778.587 1134.77 774.696 1123.37 770.947 1121.5 L 771.164 1120.78 C 773.323 1119.65 773.163 1119.92 774.641 1117.9 L 777.571 1117.56 C 779.148 1119.8 778.923 1119.54 780.063 1122.06 C 782.563 1123.58 784.41 1123.14 787.38 1123.02 L 790.557 1122.78 C 792.729 1120.76 791.825 1121.99 792.165 1117.97 z"/>
<path transform="translate(0,0)" fill="rgb(43,71,247)" d="M 808.512 1109.21 C 811.653 1110.73 810.536 1109.6 812.075 1112.61 C 810.997 1116.32 809.907 1117.35 806.058 1118.72 L 804.414 1120.97 C 802.104 1124.68 798.495 1130.33 793.784 1129.57 C 792.089 1126.57 792.117 1127.99 792.782 1125.25 C 794.457 1124.48 795.694 1123.93 797.436 1123.28 L 798.769 1122.8 C 799.211 1120.45 799.219 1120.15 798.95 1117.85 L 798.718 1115.99 L 800.379 1114.87 L 804.886 1116.06 C 807.932 1113.94 807.115 1113.77 808.512 1109.21 z"/>
<path transform="translate(0,0)" fill="rgb(43,71,247)" d="M 770.947 1121.5 C 774.696 1123.37 778.587 1134.77 785.799 1139.81 C 786.116 1145.25 782.597 1150.79 777.505 1152.29 C 776.424 1151.9 776.582 1151.54 775.661 1150.16 C 776.42 1147.09 775.995 1147.16 777.837 1144.97 L 775.258 1143.85 C 773.218 1146 769.674 1149.28 766.555 1149.26 C 767.687 1140.71 768.672 1129.49 770.947 1121.5 z"/>
<path transform="translate(0,0)" fill="rgb(40,61,216)" d="M 775.258 1143.85 C 773.945 1140.48 773.761 1141.96 774.877 1139.2 C 778.874 1138.12 776.858 1138.18 781.137 1139.49 L 782.841 1141.41 L 782.441 1143.35 C 780.251 1144.72 780.357 1144.9 777.837 1144.97 L 775.258 1143.85 z"/>
<path transform="translate(0,0)" fill="rgb(40,61,216)" d="M 780.357 1106.39 C 780.329 1102.64 780.08 1101.96 784.037 1099.98 L 785.649 1100.6 C 786.771 1103.92 786.701 1104.06 786.958 1107.4 C 789.09 1109.21 789.202 1109.05 791.926 1109.92 C 793.043 1112.44 793.031 1112.24 792.693 1114.97 C 790.86 1114.98 787.911 1115.37 785.992 1115.55 C 781.611 1114.57 783.31 1115.64 780.485 1112.61 C 779.667 1109.43 779.321 1109.39 780.357 1106.39 z"/>
<path transform="translate(0,0)" fill="rgb(43,71,247)" d="M 780.357 1106.39 C 784.637 1107.46 784.323 1106.61 786.153 1109.34 L 785.992 1115.55 C 781.611 1114.57 783.31 1115.64 780.485 1112.61 C 779.667 1109.43 779.321 1109.39 780.357 1106.39 z"/>
<path transform="translate(0,0)" fill="rgb(43,71,247)" d="M 785.992 1115.55 C 787.911 1115.37 790.86 1114.98 792.693 1114.97 L 792.165 1117.97 C 791.825 1121.99 792.729 1120.76 790.557 1122.78 L 787.38 1123.02 L 785.992 1115.55 z"/>
<path transform="translate(0,0)" fill="rgb(40,61,216)" d="M 795.718 1100.51 C 799.428 1101.2 799.874 1101.76 801.52 1105.16 L 800.738 1106.63 L 799.027 1106.99 C 794.568 1107.14 794.974 1107.86 791.951 1105.87 C 792.691 1102.48 792.669 1103.39 795.718 1100.51 z"/>
<path transform="translate(0,0)" fill="rgb(40,61,216)" d="M 848.712 1151.62 C 853.484 1136.03 838.941 1115.15 865.32 1114.64 C 865.745 1116.15 866.125 1117.66 866.462 1119.19 L 868.84 1120.67 C 870.462 1115.59 872.067 1112.57 877.933 1116.12 C 879.177 1118.61 879.045 1118.46 878.855 1121.28 C 882.248 1123.55 881.076 1117.32 888.447 1115.58 C 888.179 1114.94 890.067 1131.23 890.224 1133.53 C 891.853 1157.33 897.032 1180.45 896.844 1204.39 C 896.793 1210.81 903.212 1235.15 899.467 1239.24 C 892.704 1240.59 877.855 1240.72 869.501 1241.55 L 863.051 1236.84 C 858.33 1208.97 852.664 1179.39 848.712 1151.62 z"/>
<path transform="translate(0,0)" fill="rgb(15,18,53)" d="M 755.235 904.837 C 756.739 908.424 755.715 908.058 758.001 909.001 L 751.35 916.91 C 746.274 919.96 740.63 932.049 738.865 937.706 C 737.936 941.872 736.656 946.128 737.662 950.314 C 739.337 967.014 749.269 980.664 758.419 994.352 L 764.913 1003.31 L 767.337 1005.94 C 769.056 1008.91 770.596 1011.73 772.611 1014.53 C 773.934 1017.93 775.445 1021.43 776.216 1024.97 C 778.589 1026.01 778.411 1026.03 780.981 1025.91 C 782.705 1024.5 783.726 1023.64 785.622 1022.45 L 786.976 1021.61 L 787.056 1020.61 L 791.698 1015.94 L 792.719 1015.84 L 793.027 1013.34 C 796.391 1010.04 796.858 1013.67 802.931 1012.03 C 802.026 1009.45 800.012 1008.03 797.966 1006.11 L 799.521 1004.54 C 825.707 1017.33 877.266 1003.94 882.036 1006.27 C 881.142 1010.43 884.14 1034.92 885.337 1047.37 C 891.503 1111.49 898.565 1178.2 903.639 1242.69 C 903.068 1243.09 902.498 1243.5 901.927 1243.9 L 900.49 1243.98 L 899.957 1242.47 C 896.832 1240.54 885.158 1241.29 881.073 1241.57 C 887.702 1241.28 888.998 1241.48 895.291 1243.07 L 896.873 1243.48 C 891.656 1244.2 873.096 1242.27 871.315 1245.07 L 869.501 1241.55 C 877.855 1240.72 892.704 1240.59 899.467 1239.24 C 903.212 1235.15 896.793 1210.81 896.844 1204.39 C 897.032 1180.45 891.853 1157.33 890.224 1133.53 C 890.067 1131.23 888.179 1114.94 888.447 1115.58 C 888.308 1110.95 888.581 1106.12 888.747 1101.47 C 888.43 1098.5 888.623 1098.28 887.268 1095.69 C 884.115 1094.47 885.235 1094.79 881.105 1096.38 L 879.617 1095.56 L 880.715 1093.46 C 883.38 1092.01 884.33 1091.73 886.445 1089.54 C 885.753 1086.53 883.363 1085.18 880.859 1083.09 C 890.908 1075.01 882.363 1075.67 882.906 1073.59 C 883.597 1070.94 884.699 1065.19 884.62 1060.96 C 882.858 1058.77 883.915 1059.73 879.905 1059.19 L 879.308 1057.54 C 880.549 1056.38 881.871 1055.4 883.269 1054.44 C 882.819 1048.92 882.489 1044.14 881.493 1038.66 C 878.279 1037.23 879.006 1037.98 876.697 1035.67 C 880.139 1031.55 883.318 1026.63 878.516 1021.98 C 870.847 1014.68 871.842 1020.22 861.553 1018.74 C 859.397 1018.43 860.338 1018.31 858.301 1019.7 C 854.858 1015.08 852.5 1014.58 847.183 1012.93 L 845.856 1012.49 C 834.711 1013.34 813.682 1011.24 807.373 1012.45 C 805.616 1015.25 806.198 1014.25 805.583 1017.77 L 804.223 1018.82 C 799.231 1017.66 798.831 1015.56 795.889 1016.59 C 798.21 1024.61 806.808 1032.74 802.516 1040.82 C 799.217 1042.79 795.496 1042.74 791.587 1042.87 C 789.187 1041.71 786.27 1041.14 783.461 1040.12 C 778.927 1041.29 779.744 1042.61 779.938 1047.2 L 776.706 1051.35 C 780.812 996.684 703.023 966.438 748.444 915.286 C 750.849 912.577 754.305 908.259 755.235 904.837 z"/>
<path transform="translate(0,0)" fill="rgb(44,67,223)" d="M 847.183 1012.93 C 857.645 1011.75 868.085 1010.38 878.5 1008.84 L 878.516 1021.98 C 870.847 1014.68 871.842 1020.22 861.553 1018.74 C 859.397 1018.43 860.338 1018.31 858.301 1019.7 C 854.858 1015.08 852.5 1014.58 847.183 1012.93 z"/>
<path transform="translate(0,0)" fill="rgb(232,231,231)" d="M 776.216 1024.97 C 778.589 1026.01 778.411 1026.03 780.981 1025.91 C 782.705 1024.5 783.726 1023.64 785.622 1022.45 L 786.976 1021.61 C 789.421 1028 792.665 1033.26 794.615 1039.36 L 793.905 1039.76 C 789.649 1036.12 786.608 1032.54 782.905 1028.4 C 782.425 1029.68 787.006 1039.41 787.92 1041.57 C 783.156 1037.52 777.335 1031.38 776.216 1024.97 z"/>
<path transform="translate(0,0)" fill="rgb(232,231,231)" d="M 791.698 1015.94 L 792.719 1015.84 C 795.158 1022.24 799.141 1031.46 800.715 1037.71 L 799.908 1038.39 C 793.783 1032.63 790.433 1023.73 786.976 1021.61 L 787.056 1020.61 L 791.698 1015.94 z"/>
<path transform="translate(0,0)" fill="rgb(44,67,223)" d="M 834.991 1062.84 C 835.589 1066.49 837.514 1079.29 839.754 1081.34 C 843.395 1082.71 842.254 1081.53 843.776 1084.49 C 841.46 1089.33 838.601 1083.93 842.307 1094.23 C 843.283 1096.88 844.291 1099.51 845.331 1102.13 L 846.584 1102.27 C 848.679 1098.62 847.941 1098.46 850.965 1097.29 C 854.24 1098.5 854.786 1099.83 856.865 1102.64 C 857.578 1103.63 857.026 1103.1 858.977 1103.53 C 860.35 1100.95 860.356 1101.07 862.49 1099.03 C 866.67 1098.62 866.721 1098.51 870.769 1099.25 L 871.276 1103.78 C 871.594 1100.45 870.854 1101.74 872.863 1099.51 C 877.883 1098.4 883.988 1099.67 888.747 1101.47 C 888.581 1106.12 888.308 1110.95 888.447 1115.58 C 881.076 1117.32 882.248 1123.55 878.855 1121.28 C 879.045 1118.46 879.177 1118.61 877.933 1116.12 C 872.067 1112.57 870.462 1115.59 868.84 1120.67 L 866.462 1119.19 C 866.125 1117.66 865.745 1116.15 865.32 1114.64 C 838.941 1115.15 853.484 1136.03 848.712 1151.62 C 844.563 1127.97 836.383 1089.39 833.877 1066.61 L 834.991 1062.84 z"/>
<path transform="translate(0,0)" fill="rgb(44,67,223)" d="M 777.942 1066.52 L 780.344 1068.66 C 780.47 1075.08 785.117 1079.2 781.997 1084.79 C 779.327 1084.34 780.286 1084.55 777.828 1082.94 C 775.221 1084.17 776.071 1083.6 774.051 1085.63 C 775.619 1080.68 776.967 1071.89 777.942 1066.52 z"/>
<path transform="translate(0,0)" fill="rgb(44,67,223)" d="M 779.938 1047.2 C 779.744 1042.61 778.927 1041.29 783.461 1040.12 C 786.27 1041.14 789.187 1041.71 791.587 1042.87 L 789.118 1043.6 C 788.108 1046.57 788.454 1046 789.147 1049.43 C 785.18 1050.99 783.924 1048.53 779.938 1047.2 z"/>
<path transform="translate(0,0)" fill="url(#Gradient1)" d="M 845.856 1012.49 L 847.183 1012.93 C 852.5 1014.58 854.858 1015.08 858.301 1019.7 C 855.922 1022.22 856.996 1021.64 854.025 1022.92 C 852.029 1019.29 852.686 1019.18 849.649 1017.31 C 847.647 1018.63 848.303 1018.32 845.986 1019.14 C 844.344 1016.6 845.136 1016.52 845.856 1012.49 z"/>
<path transform="translate(0,0)" fill="rgb(40,61,216)" d="M 808.527 1092.88 C 807.865 1097.42 808.68 1097.4 806.075 1099.75 L 801.168 1100.03 L 801.456 1094.34 L 808.527 1092.88 z"/>
<path transform="translate(0,0)" fill="rgb(0,0,0)" d="M 171.042 1006.09 L 172.969 1006.19 C 190.107 1007.32 203.042 1013.05 225.493 1013.17 C 235.176 1013.15 244.844 1012.42 254.421 1010.99 C 257.627 1010.54 271.992 1008.24 273.637 1008.37 C 282.959 1063.2 285.57 1130.53 286.408 1185.94 C 286.657 1202.39 289.789 1234.18 285.913 1249.36 C 287.842 1252.51 289.592 1255.63 292.176 1258.36 C 297.586 1264.09 315.185 1265.95 316.091 1273.55 L 317.966 1278.94 L 311.546 1279.85 C 298.825 1280.87 110.447 1279.89 108.893 1279.07 L 108.733 1277.58 C 113.506 1275.43 140.729 1276.5 147.329 1276.63 C 150.317 1248.04 153.822 1219.51 157.841 1191.05 C 164.101 1147.36 171.572 1104.03 170.505 1059.77 C 170.084 1042.32 170.472 1023.56 171.042 1006.09 z M 224.18 1062.02 C 223.247 1066.81 222.43 1072.13 221.745 1076.96 C 214.508 1128.03 200.243 1177.66 188.412 1227.75 C 186.676 1235.11 183.946 1242.78 181.397 1249.93 C 182.756 1260.55 192.605 1263.67 201.585 1265.7 C 206.671 1269.22 208.187 1271.45 211.46 1276.8 C 224.594 1275.94 242.788 1275.13 255.725 1276.77 C 258.329 1255.55 252.245 1235.33 249.656 1213.95 C 243.039 1159.33 239.406 1115.37 224.18 1062.02 z M 177.448 1250.49 C 178.251 1246.36 178.919 1246.74 177.357 1243.96 C 170.69 1241.43 162.861 1243.21 154.996 1243.02 C 154.079 1247.33 153.534 1246.56 154.947 1249.87 C 160.758 1252.65 169.573 1250.25 177.448 1250.49 z M 283.932 1250.93 L 283.543 1245.94 C 278.436 1241.78 266.321 1244.29 258.293 1243.67 C 263.286 1252.97 274.305 1250.84 283.932 1250.93 z"/>
<path transform="translate(0,0)" fill="rgb(253,251,252)" fill-opacity="0.415686" d="M 154.996 1243.02 C 162.861 1243.21 170.69 1241.43 177.357 1243.96 C 178.919 1246.74 178.251 1246.36 177.448 1250.49 C 169.573 1250.25 160.758 1252.65 154.947 1249.87 C 153.534 1246.56 154.079 1247.33 154.996 1243.02 z"/>
<path transform="translate(0,0)" fill="rgb(43,71,247)" d="M 1603.82 900.609 C 1608.97 909.903 1620.53 936.793 1627.76 941.879 C 1632.81 941.594 1631.6 940.782 1635.48 944.622 C 1645.7 958.668 1658.36 969.316 1675.98 972.344 C 1688.69 974.528 1691.32 971.865 1701.36 971.518 C 1702.61 979.775 1706.27 998.753 1704.39 1006.01 C 1703.89 1006.61 1702.41 1008.47 1701.9 1008.92 C 1703.77 1018.97 1708.3 1036.4 1709.44 1045.12 C 1715.69 1073.64 1721.35 1100.72 1722.59 1129.98 C 1723.98 1162.77 1726.32 1195.78 1725.97 1228.61 C 1725.58 1231.86 1725.45 1237.21 1723.59 1239.57 C 1715.73 1242.04 1689.82 1241.67 1682.23 1239.68 C 1682.95 1232.74 1679.86 1204.18 1678.95 1196.76 C 1676.64 1177.79 1675.49 1158.17 1673.12 1139.3 C 1671.36 1125.24 1668.14 1109.74 1666.1 1095.21 C 1663.2 1082.98 1660.47 1070.72 1657.92 1058.41 C 1654.54 1078.63 1652.1 1098.44 1645.59 1117.86 C 1631.22 1156.87 1597.52 1186.06 1570.96 1217.21 C 1568.03 1220.64 1557.29 1232.78 1554.48 1233.88 C 1552.25 1232.72 1552.32 1232.88 1551.12 1230.7 C 1542.21 1228.96 1540.54 1238.93 1538.99 1245.94 C 1541.12 1253.12 1544.04 1259.79 1545.98 1266.31 L 1542.04 1276.6 L 1537.64 1275.94 C 1531.9 1266.97 1524.44 1259.02 1518.09 1250.38 C 1514.86 1245.98 1515.11 1244.94 1514.79 1239.2 L 1514.71 1237.52 C 1511.96 1238.91 1512.06 1239.13 1509.06 1239.02 C 1505.96 1237.18 1501.69 1230.98 1499.27 1227.84 C 1507.22 1220.76 1520.19 1213.18 1525.32 1205.01 C 1524.87 1202.97 1523.92 1199.72 1525.26 1198.03 C 1530.32 1191.62 1537.06 1185.26 1542.37 1179 C 1559.59 1158.73 1579.12 1135.25 1590.79 1111.43 C 1597.84 1097.05 1601.87 1073.24 1602.32 1057.54 C 1602.29 1049.31 1602.7 1014.96 1601.35 1008.5 L 1598.97 1007.21 L 1596.93 1006.66 C 1594.28 1002.58 1602.54 911.465 1603.82 900.609 z M 1542.56 1232.4 C 1543.66 1230.88 1545.69 1228.87 1545.21 1227.55 C 1542.75 1220.79 1532.64 1211.83 1527.66 1206.67 C 1526.43 1209.45 1525.25 1210.5 1526.17 1213.15 C 1527.89 1218.11 1537.96 1230.36 1541.86 1232.53 L 1542.56 1232.4 z"/>
<path transform="translate(0,0)" fill="rgb(43,71,247)" d="M 1603.82 900.609 C 1608.97 909.903 1620.53 936.793 1627.76 941.879 C 1632.81 941.594 1631.6 940.782 1635.48 944.622 C 1645.7 958.668 1658.36 969.316 1675.98 972.344 C 1688.69 974.528 1691.32 971.865 1701.36 971.518 C 1702.61 979.775 1706.27 998.753 1704.39 1006.01 C 1703.89 1006.61 1702.41 1008.47 1701.9 1008.92 C 1701.34 1008.1 1701.05 1007.44 1700.4 1007.51 C 1693.95 1008.19 1670.52 1011.87 1665.13 1013.03 C 1651.54 1015.95 1605.25 1004.49 1598.97 1007.21 L 1596.93 1006.66 C 1594.28 1002.58 1602.54 911.465 1603.82 900.609 z"/>
<path transform="translate(0,0)" fill="rgb(0,0,0)" d="M 1602.32 1057.54 C 1602.61 1054.69 1602.4 1054.45 1603.38 1051.89 C 1603.49 1055.13 1603.44 1060.25 1604.09 1063.23 L 1606.24 1066.75 L 1605.86 1067.93 C 1602.96 1077.04 1601.96 1087.53 1598.65 1096.74 C 1596.12 1103.8 1593.83 1110.95 1591.04 1117.93 C 1590.58 1119.07 1592.57 1122.86 1593.1 1123.87 L 1592.69 1125.33 L 1591.44 1125.81 C 1588.87 1126.81 1583.8 1128.69 1582.23 1131.04 C 1568.54 1151.54 1553.03 1170.3 1536.92 1188.93 C 1533.36 1193.05 1529.57 1197.3 1526.64 1201.91 C 1532.3 1207.69 1549.14 1223.9 1551.12 1230.7 C 1542.21 1228.96 1540.54 1238.93 1538.99 1245.94 C 1541.12 1253.12 1544.04 1259.79 1545.98 1266.31 L 1542.04 1276.6 L 1537.64 1275.94 C 1531.9 1266.97 1524.44 1259.02 1518.09 1250.38 C 1514.86 1245.98 1515.11 1244.94 1514.79 1239.2 L 1514.71 1237.52 C 1511.96 1238.91 1512.06 1239.13 1509.06 1239.02 C 1505.96 1237.18 1501.69 1230.98 1499.27 1227.84 C 1507.22 1220.76 1520.19 1213.18 1525.32 1205.01 C 1524.87 1202.97 1523.92 1199.72 1525.26 1198.03 C 1530.32 1191.62 1537.06 1185.26 1542.37 1179 C 1559.59 1158.73 1579.12 1135.25 1590.79 1111.43 C 1597.84 1097.05 1601.87 1073.24 1602.32 1057.54 z M 1542.56 1232.4 C 1543.66 1230.88 1545.69 1228.87 1545.21 1227.55 C 1542.75 1220.79 1532.64 1211.83 1527.66 1206.67 C 1526.43 1209.45 1525.25 1210.5 1526.17 1213.15 C 1527.89 1218.11 1537.96 1230.36 1541.86 1232.53 L 1542.56 1232.4 z"/>
<path transform="translate(0,0)" fill="rgb(15,18,53)" d="M 1598.97 1007.21 C 1605.25 1004.49 1651.54 1015.95 1665.13 1013.03 C 1670.52 1011.87 1693.95 1008.19 1700.4 1007.51 C 1701.05 1007.44 1701.34 1008.1 1701.9 1008.92 C 1703.77 1018.97 1708.3 1036.4 1709.44 1045.12 C 1704.04 1037.92 1702.93 1020.92 1699.55 1010.25 C 1661.56 1019.52 1642.01 1016.34 1603.89 1008.98 C 1603.77 1020.17 1605.33 1055.9 1604.09 1063.23 C 1603.44 1060.25 1603.49 1055.13 1603.38 1051.89 C 1602.4 1054.45 1602.61 1054.69 1602.32 1057.54 C 1602.29 1049.31 1602.7 1014.96 1601.35 1008.5 L 1598.97 1007.21 z"/>
<path transform="translate(0,0)" fill="rgb(15,18,53)" d="M 1645.59 1117.86 C 1643.84 1113.96 1641.16 1109.27 1642.59 1105.42 C 1645.14 1104.92 1644.36 1105.18 1646.81 1104.02 C 1649.46 1098.08 1652.5 1079.9 1651.76 1073.67 C 1649.04 1072.84 1648.98 1072.75 1646.53 1071.26 C 1646.01 1068.29 1645.79 1069.7 1647.48 1066.94 L 1651.87 1066.66 C 1656.48 1063.26 1657.06 1049.65 1658.74 1042.66 C 1658.86 1046.54 1659.12 1056.89 1659.95 1060.47 C 1662.74 1072.52 1667.71 1082.18 1666.1 1095.21 C 1663.2 1082.98 1660.47 1070.72 1657.92 1058.41 C 1654.54 1078.63 1652.1 1098.44 1645.59 1117.86 z"/>
<path transform="translate(0,0)" fill="rgb(253,251,252)" d="M 237.972 848.385 L 239.607 849.18 C 248.627 853.516 253.027 853.213 260.457 860.992 C 271.374 871.525 279.566 891.293 282.342 905.843 L 283.073 905.783 C 286.321 907.224 285.185 906.104 286.757 909.086 L 285.07 913.052 C 302.175 919.273 294.186 899.844 314.561 904.966 L 322.22 889.152 C 319.09 889.056 315.737 889.085 312.587 889.06 L 302.714 886.896 C 307.385 886.515 310.079 886.305 314.642 885.255 L 315.603 885.026 C 319.215 884.662 320.174 884.317 323.623 885.609 C 327.454 891.288 320.417 901.657 317.508 907.525 C 319.68 910.886 321.22 913.308 323.076 916.839 C 317.598 932.732 318.251 928.35 308.822 940.548 C 297.076 955.743 298.171 969.182 275.864 975.07 C 276.744 982.358 279.685 1001.03 277.6 1007.18 C 275.686 1008.25 275.83 1008.2 273.637 1008.37 C 271.992 1008.24 257.627 1010.54 254.421 1010.99 C 244.844 1012.42 235.176 1013.15 225.493 1013.17 C 203.042 1013.05 190.107 1007.32 172.969 1006.19 L 171.042 1006.09 C 168.592 1006.17 168.737 1006.11 166.434 1005.2 C 164.039 999.372 168.13 976.355 169.124 968.484 C 156.595 956.415 154.677 939.718 156.84 923.286 C 157.03 921.707 157.282 920.085 156.545 918.714 C 153.258 912.597 157.502 898.206 159.864 891.258 C 165.497 874.689 169.569 865.953 185.496 857.835 C 196.132 851.187 199.194 850.29 211.219 849.749 C 218.987 866.497 240.237 867.349 237.972 848.385 z M 312.587 889.06 C 315.737 889.085 319.09 889.056 322.22 889.152 L 314.561 904.966 C 294.186 899.844 302.175 919.273 285.07 913.052 C 283.369 914.653 283.854 914.099 282.515 916.228 C 291.739 920.643 288.561 931.998 286.341 940.07 C 282.912 940.474 269.302 941.64 266.745 942.774 C 237.803 955.609 170.962 1000.55 159.712 943.543 C 158.712 938.472 158.81 929.213 158.72 923.776 L 156.84 923.286 C 154.677 939.718 156.595 956.415 169.124 968.484 C 173.922 969.694 179.681 973.591 184.775 974.055 C 207.209 976.1 231.203 963.561 250.578 953.615 C 257.808 949.903 266.102 944.108 273.663 943.819 C 274.549 952.263 274.889 964.487 275.939 971.859 L 275.864 975.07 C 298.171 969.182 297.076 955.743 308.822 940.548 C 318.251 928.35 317.598 932.732 323.076 916.839 C 321.22 913.308 319.68 910.886 317.508 907.525 C 320.417 901.657 327.454 891.288 323.623 885.609 C 320.174 884.317 319.215 884.662 315.603 885.026 L 314.642 885.255 C 310.079 886.305 307.385 886.515 302.714 886.896 L 312.587 889.06 z"/>
<path transform="translate(0,0)" fill="rgb(43,71,247)" d="M 237.972 848.385 L 239.607 849.18 C 248.627 853.516 253.027 853.213 260.457 860.992 C 271.374 871.525 279.566 891.293 282.342 905.843 L 283.073 905.783 C 286.321 907.224 285.185 906.104 286.757 909.086 L 285.07 913.052 C 283.369 914.653 283.854 914.099 282.515 916.228 C 278.005 916.027 273.499 915.76 268.998 915.428 C 268.59 914.075 267.776 913.337 266.833 912.087 C 264.661 913.895 258.454 919.058 256.258 919.875 C 243.665 924.563 206.189 941.363 194.575 938.229 C 191.507 933.999 192.655 930.66 193.221 925.057 C 181.586 923.419 171.868 921.848 160.458 918.492 C 158.835 920.739 159.082 920.945 158.72 923.776 L 156.84 923.286 C 157.03 921.707 157.282 920.085 156.545 918.714 C 153.258 912.597 157.502 898.206 159.864 891.258 C 165.497 874.689 169.569 865.953 185.496 857.835 C 196.132 851.187 199.194 850.29 211.219 849.749 C 218.987 866.497 240.237 867.349 237.972 848.385 z"/>
<path transform="translate(0,0)" fill="rgb(0,0,0)" d="M 185.496 857.835 C 223.226 866.34 196.35 913.692 195.54 936.957 C 220.377 932.483 250.088 922.497 270.079 907.082 C 268.665 897.105 267.418 888.512 265.108 878.683 C 263.858 873.365 261.316 865.812 260.457 860.992 C 271.374 871.525 279.566 891.293 282.342 905.843 L 283.073 905.783 C 286.321 907.224 285.185 906.104 286.757 909.086 L 285.07 913.052 C 283.369 914.653 283.854 914.099 282.515 916.228 C 278.005 916.027 273.499 915.76 268.998 915.428 C 268.59 914.075 267.776 913.337 266.833 912.087 C 264.661 913.895 258.454 919.058 256.258 919.875 C 243.665 924.563 206.189 941.363 194.575 938.229 C 191.507 933.999 192.655 930.66 193.221 925.057 C 181.586 923.419 171.868 921.848 160.458 918.492 C 158.835 920.739 159.082 920.945 158.72 923.776 L 156.84 923.286 C 157.03 921.707 157.282 920.085 156.545 918.714 C 153.258 912.597 157.502 898.206 159.864 891.258 C 165.497 874.689 169.569 865.953 185.496 857.835 z"/>
<path transform="translate(0,0)" fill="rgb(73,72,75)" d="M 282.342 905.843 L 283.073 905.783 C 286.321 907.224 285.185 906.104 286.757 909.086 L 285.07 913.052 C 283.369 914.653 283.854 914.099 282.515 916.228 C 278.005 916.027 273.499 915.76 268.998 915.428 C 273.395 912.726 278.329 912.194 280.79 908.282 L 282.342 905.843 z"/>
<path transform="translate(0,0)" fill="rgb(232,231,231)" d="M 280.79 908.282 C 278.329 912.194 273.395 912.726 268.998 915.428 C 268.59 914.075 267.776 913.337 266.833 912.087 C 271.311 909.063 275.578 908.723 280.79 908.282 z"/>
<path transform="translate(0,0)" fill="rgb(43,71,247)" d="M 169.124 968.484 C 173.922 969.694 179.681 973.591 184.775 974.055 C 207.209 976.1 231.203 963.561 250.578 953.615 C 257.808 949.903 266.102 944.108 273.663 943.819 C 274.549 952.263 274.889 964.487 275.939 971.859 L 275.864 975.07 C 276.744 982.358 279.685 1001.03 277.6 1007.18 C 275.686 1008.25 275.83 1008.2 273.637 1008.37 C 271.992 1008.24 257.627 1010.54 254.421 1010.99 C 244.844 1012.42 235.176 1013.15 225.493 1013.17 C 203.042 1013.05 190.107 1007.32 172.969 1006.19 L 171.042 1006.09 C 168.592 1006.17 168.737 1006.11 166.434 1005.2 C 164.039 999.372 168.13 976.355 169.124 968.484 z"/>
<path transform="translate(0,0)" fill="rgb(19,20,22)" d="M 315.603 885.026 C 319.215 884.662 320.174 884.317 323.623 885.609 C 327.454 891.288 320.417 901.657 317.508 907.525 C 319.68 910.886 321.22 913.308 323.076 916.839 C 317.598 932.732 318.251 928.35 308.822 940.548 C 297.076 955.743 298.171 969.182 275.864 975.07 L 275.939 971.859 C 291.671 967.433 295.426 956.935 302.211 943.324 C 290.724 941.379 285.364 944.244 273.663 943.819 C 266.102 944.108 257.808 949.903 250.578 953.615 C 231.203 963.561 207.209 976.1 184.775 974.055 C 179.681 973.591 173.922 969.694 169.124 968.484 C 156.595 956.415 154.677 939.718 156.84 923.286 L 158.72 923.776 C 158.81 929.213 158.712 938.472 159.712 943.543 C 170.962 1000.55 237.803 955.609 266.745 942.774 C 269.302 941.64 282.912 940.474 286.341 940.07 C 288.561 931.998 291.739 920.643 282.515 916.228 C 283.854 914.099 283.369 914.653 285.07 913.052 C 302.175 919.273 294.186 899.844 314.561 904.966 L 322.22 889.152 C 319.09 889.056 315.737 889.085 312.587 889.06 L 302.714 886.896 C 307.385 886.515 310.079 886.305 314.642 885.255 L 315.603 885.026 z M 309.672 935.418 C 318.506 923.089 326.093 911.803 305.792 906.644 C 298.678 913.544 299.851 915.405 298.353 925.484 C 301.611 930.331 303.776 931.721 308.23 935.402 L 309.672 935.418 z M 299.355 937.96 C 297.976 932.689 296.051 928.615 292.423 924.436 C 291.954 928.532 290.783 933.292 292.605 936.738 C 295.042 938.202 296.507 937.928 299.355 937.96 z"/>
<path transform="translate(0,0)" fill="rgb(19,20,22)" d="M 1755.76 743.286 C 1772.5 743.6 1789.25 743.755 1806 743.753 C 1818.83 743.662 1873.75 742.267 1883.39 745.475 C 1889.42 752.914 1887.98 784.047 1888.09 794.921 C 1888.39 827.338 1889.45 827.951 1858.25 827.21 C 1835.89 827.072 1810.74 826.785 1788.55 827.723 L 1766.01 845.426 C 1766.67 838.218 1767.7 834.121 1769.38 827.089 C 1764.59 827.245 1748.11 828.448 1746.62 822.192 C 1742.96 804.981 1744.41 785.768 1744.47 768.105 C 1744.52 755.258 1741.76 746.517 1755.76 743.286 z M 1773.6 823.755 C 1772.8 827.257 1771.55 830.302 1772.84 833.443 C 1776.84 833.404 1782.88 827.039 1786.82 824.13 C 1809.8 823.199 1853.32 822.654 1875.25 824.159 C 1877.54 823.918 1880.9 823.782 1882.12 821.672 C 1887.03 813.154 1883.86 790.78 1884.18 779.75 C 1855.42 778.923 1826.07 779.903 1797.26 779.743 C 1782.91 779.664 1761.7 780.716 1747.97 778.834 C 1748.41 788.179 1748.5 797.56 1747.75 806.889 C 1746.2 826.068 1759.44 824.302 1773.6 823.755 z M 1855.25 775.944 C 1865.45 775.9 1873.79 776.147 1883.95 776.674 L 1884.4 760.967 C 1849.12 759.995 1816.72 760.352 1781.62 760.491 C 1770.42 760.768 1759.22 760.89 1748.02 760.855 C 1748.14 765.802 1748.15 771.198 1748.47 776.095 L 1855.25 775.944 z M 1882.19 757.014 L 1884.12 756.475 C 1884.36 752.936 1884.54 753.115 1882.79 750.084 C 1876.77 745.157 1868.13 746.933 1860.81 747.01 C 1824.67 747.389 1788.35 746.459 1752.21 747.142 C 1750.41 749.736 1749.25 750.889 1748.87 754.027 L 1749.75 755.799 C 1757.79 757.466 1782.13 757.126 1791.74 757.167 L 1882.19 757.014 z"/>
<path transform="translate(0,0)" fill="rgb(0,0,0)" d="M 1847.18 791.829 C 1854.73 793.975 1870.12 790.657 1873.42 797.169 C 1878.55 807.285 1872.49 813.089 1863.72 817.578 C 1864.07 817.574 1846.32 816.449 1847.76 817.07 C 1831.44 810.009 1836.29 797.776 1847.18 791.829 z M 1857.19 810.15 C 1861.19 813.319 1864.21 814.288 1868.75 812.135 C 1873.03 806.345 1871.77 794.836 1863.19 794.938 C 1858.41 797.908 1859.99 796.251 1857.28 801.289 C 1857.76 805.479 1857.98 806.109 1857.19 810.15 z"/>
<path transform="translate(0,0)" fill="rgb(40,61,216)" d="M 1857.19 810.15 C 1855.65 811.909 1854.74 812.738 1852.99 814.31 C 1849.41 815.361 1849.47 815.58 1845.75 814.486 C 1839.71 809.742 1840.31 802.19 1844.4 796.377 C 1851.11 792.708 1853.19 795.975 1857.28 801.289 C 1857.76 805.479 1857.98 806.109 1857.19 810.15 z"/>
<path transform="translate(0,0)" fill="rgb(19,20,22)" d="M 1789.79 795.472 C 1793.58 794.293 1817.12 795.761 1821.11 797.154 C 1816.07 800.347 1796.08 799.949 1790.47 796.674 C 1782.26 800.347 1765.08 800.165 1756.65 797.514 C 1758.76 795.155 1784.46 796.052 1789.79 795.472 z"/>
<path transform="translate(0,0)" fill="rgb(0,0,0)" d="M 1772.17 807.537 C 1779.91 806.789 1794.99 806.658 1802.42 808.948 L 1801.3 808.947 L 1800.46 810.1 C 1797.46 810.943 1792.51 810.801 1789.25 810.865 C 1785.15 810.908 1760.79 811.686 1758.66 809.007 C 1763.8 807.406 1766.83 807.649 1772.17 807.537 z"/>
<path transform="translate(0,0)" fill="rgb(19,20,22)" d="M 1336.42 1044.03 C 1348.06 1044.46 1363.4 1044.22 1374.87 1043.49 L 1374.24 1195.27 C 1374.23 1212.52 1375.63 1244.51 1374.6 1260.36 C 1362.88 1259.74 1348.76 1259.98 1336.86 1259.94 C 1337.94 1242.44 1335.84 1217.08 1336.19 1198.5 C 1337.16 1147.51 1335.31 1094.78 1336.42 1044.03 z M 1339.88 1257.08 L 1371 1256.92 C 1370.66 1187.83 1370.13 1116.35 1371.03 1047.3 C 1363.09 1047.21 1346.19 1047.84 1339.35 1047.1 C 1339.86 1094.3 1338.62 1142.24 1339.21 1189.45 C 1339.45 1208.51 1338.1 1239.1 1339.88 1257.08 z"/>
<path transform="translate(0,0)" fill="rgb(19,20,22)" d="M 1815.11 859.12 C 1823.84 861.669 1847.35 869.031 1853.62 874.27 L 1855.16 878.131 C 1854.99 882.604 1855.12 883.586 1853.78 887.75 C 1851.07 895.287 1845.11 910.458 1844.53 917.644 C 1846.07 920.061 1846.19 920.015 1848.4 921.91 C 1850.97 932.528 1843.59 945.746 1834.99 951.886 C 1832.53 959.217 1826.89 981.098 1820.52 983.251 C 1811.88 986.172 1801.08 980.199 1793.06 978.529 C 1785.67 976.141 1778.26 973.816 1770.83 971.553 C 1766.79 970.079 1759.15 967.629 1755.52 964.997 C 1756.48 965.694 1753.57 961.136 1752.28 959.848 C 1731.98 956.452 1719.62 968.388 1701.36 971.518 C 1691.32 971.865 1688.69 974.528 1675.98 972.344 C 1658.36 969.316 1645.7 958.668 1635.48 944.622 L 1636.21 942.852 L 1634.63 939.89 C 1636.92 935.503 1656.7 923.83 1662.07 920.429 L 1664.43 920.983 C 1666.7 927.134 1671.53 932.849 1677.42 936.174 C 1688.31 942.318 1699.64 935.31 1708.88 935.542 L 1708.82 936.767 C 1718.46 935.927 1721.55 934.255 1730.09 930.236 C 1735.3 928.153 1742.45 926.341 1748.86 923.788 L 1751.17 926.048 C 1751 929.981 1746.15 935.263 1742.15 936.212 C 1745.14 940.998 1752.94 935.937 1756.04 933.844 C 1757.06 933.86 1758.62 933.822 1759.57 933.963 C 1762.82 935.076 1762.67 934.897 1766.12 934.405 C 1767.82 936.143 1769.55 937.857 1771.3 939.544 C 1774.6 938.927 1776.22 937.761 1778.75 935.001 L 1776.63 930.251 C 1777.48 927.537 1778.58 925.527 1779.84 923.001 C 1786.27 922.853 1787.75 921.719 1792.95 917.831 C 1792.05 923.593 1791.52 931.095 1790.96 937.051 C 1783.21 941.234 1777.9 943.153 1769.25 944.688 L 1767.86 944.922 L 1767.39 945.885 C 1771.75 949.146 1814.68 962.35 1822.5 964.86 C 1827.83 951.207 1826.04 941.327 1829.79 929.911 C 1833.76 917.828 1841.51 900.879 1846.12 888.482 C 1830.78 883.065 1814.54 877.679 1799.51 871.666 C 1804.17 871.21 1804.81 871.256 1809.37 872.361 C 1811.52 871.237 1810.58 871.719 1812.12 869.008 C 1812.77 867.297 1813.12 865.682 1813.58 863.911 C 1812.35 860.376 1813.41 861.87 1809.77 859.68 L 1815.11 859.12 z M 1844.59 933.73 C 1842.33 927.629 1838.53 926.421 1832.34 926.701 C 1835.02 932.513 1837.9 934.739 1844.59 933.73 z"/>
<path transform="translate(0,0)" fill="rgb(253,251,252)" d="M 1636.21 942.852 L 1634.63 939.89 C 1636.92 935.503 1656.7 923.83 1662.07 920.429 L 1664.43 920.983 C 1666.7 927.134 1671.53 932.849 1677.42 936.174 C 1688.31 942.318 1699.64 935.31 1708.88 935.542 L 1708.82 936.767 C 1718.46 935.927 1721.55 934.255 1730.09 930.236 C 1735.3 928.153 1742.45 926.341 1748.86 923.788 L 1751.17 926.048 C 1751 929.981 1746.15 935.263 1742.15 936.212 C 1745.14 940.998 1752.94 935.937 1756.04 933.844 C 1757.06 933.86 1758.62 933.822 1759.57 933.963 C 1762.82 935.076 1762.67 934.897 1766.12 934.405 C 1767.82 936.143 1769.55 937.857 1771.3 939.544 C 1774.6 938.927 1776.22 937.761 1778.75 935.001 C 1782.13 934.506 1783.63 933.668 1786.28 934.783 C 1783.15 939.081 1763.83 941.514 1757.86 944.494 C 1727.74 959.504 1686.72 984.58 1654.5 960.641 C 1648.42 956.125 1641.65 948.33 1636.21 942.852 z"/>
<path transform="translate(0,0)" fill="rgb(24,30,121)" d="M 1815.11 859.12 C 1823.84 861.669 1847.35 869.031 1853.62 874.27 L 1855.16 878.131 C 1854.99 882.604 1855.12 883.586 1853.78 887.75 C 1848.53 887.023 1834.79 881.605 1829.17 879.539 C 1823.5 877.059 1815.38 874.466 1809.37 872.361 C 1811.52 871.237 1810.58 871.719 1812.12 869.008 C 1812.77 867.297 1813.12 865.682 1813.58 863.911 C 1812.35 860.376 1813.41 861.87 1809.77 859.68 L 1815.11 859.12 z"/>
<path transform="translate(0,0)" fill="rgb(44,67,223)" d="M 1832.33 875.148 L 1833.33 870.57 C 1841.97 866.954 1848.62 876.704 1855.16 878.131 C 1854.99 882.604 1855.12 883.586 1853.78 887.75 C 1848.53 887.023 1834.79 881.605 1829.17 879.539 C 1830.41 877.319 1830.65 877.085 1832.33 875.148 z"/>
<path transform="translate(0,0)" fill="rgb(40,61,216)" d="M 1812.12 869.008 C 1816.25 869.869 1828.73 873.415 1832.33 875.148 C 1830.65 877.085 1830.41 877.319 1829.17 879.539 C 1823.5 877.059 1815.38 874.466 1809.37 872.361 C 1811.52 871.237 1810.58 871.719 1812.12 869.008 z"/>
<path transform="translate(0,0)" fill="rgb(44,67,223)" d="M 1755.39 961.9 L 1756.99 957.011 C 1758.35 952.792 1758.12 952.1 1761.19 949.037 C 1766.33 947.386 1783.3 953.446 1786.23 957.908 L 1784.78 960.96 C 1782.69 965.222 1783.63 967.446 1784.07 972.667 C 1781.18 971.878 1774.42 969.824 1771.78 969.378 C 1765.11 966.814 1761.55 965.539 1755.39 961.9 z"/>
<path transform="translate(0,0)" fill="rgb(44,67,223)" d="M 1795.2 970.546 C 1795.6 966.62 1795.85 964.265 1796.69 960.435 C 1803.13 960.324 1816.76 966.125 1822.99 968.538 C 1818.61 987.919 1812.11 981.58 1796.17 976.914 C 1794.18 973.923 1794.54 973.614 1795.2 970.546 z"/>
<path transform="translate(0,0)" fill="rgb(40,61,216)" d="M 1784.07 972.667 C 1783.63 967.446 1782.69 965.222 1784.78 960.96 C 1789.78 959.995 1787.81 959.76 1792.59 961.301 L 1794.09 963.323 L 1793.63 965.908 C 1790.94 964.567 1790.21 963.938 1787.83 962.184 L 1786.34 962.581 C 1785.95 965.665 1785.62 964.32 1787.07 966.809 C 1790.33 967.978 1788.7 967.854 1792.13 967.149 L 1793.01 970.076 L 1795.2 970.546 C 1794.54 973.614 1794.18 973.923 1796.17 976.914 L 1793.06 978.529 C 1785.67 976.141 1778.26 973.816 1770.83 971.553 L 1771.78 969.378 C 1774.42 969.824 1781.18 971.878 1784.07 972.667 z"/>
<path transform="translate(0,0)" fill="rgb(232,231,231)" fill-opacity="0.984314" d="M 1832.34 926.701 C 1838.53 926.421 1842.33 927.629 1844.59 933.73 C 1837.9 934.739 1835.02 932.513 1832.34 926.701 z"/>
<path transform="translate(0,0)" fill="rgb(232,231,231)" d="M 1754.96 949.361 C 1755.16 951.927 1754.83 951.905 1753.47 954.197 C 1750.36 956.219 1747.68 955.998 1743.93 956.282 C 1745.13 953.567 1751.59 951.11 1754.96 949.361 z"/>
<path transform="translate(0,0)" fill="rgb(43,71,247)" d="M 1669.12 853.836 C 1671.25 863.297 1677.33 861.151 1685.5 870.171 C 1694.31 878.943 1703.09 894.678 1709.97 905.277 C 1712.64 909.387 1713.36 913.17 1716.66 916.467 C 1744.64 928.464 1752.67 908.093 1772.58 897.805 L 1773.85 897.163 C 1773.49 899.292 1772.39 902.516 1772.2 904.163 L 1770.02 904.016 C 1754.82 919.859 1747.43 920.518 1728.46 928.722 C 1721.31 931.631 1716.29 933.313 1708.88 935.542 C 1699.64 935.31 1688.31 942.318 1677.42 936.174 C 1671.53 932.849 1666.7 927.134 1664.43 920.983 L 1662.07 920.429 C 1656.7 923.83 1636.92 935.503 1634.63 939.89 L 1636.21 942.852 L 1635.48 944.622 C 1631.6 940.782 1632.81 941.594 1627.76 941.879 C 1620.53 936.793 1608.97 909.903 1603.82 900.609 C 1603.73 899.741 1603.65 898.873 1603.58 898.004 C 1602.41 883.667 1603.52 879.157 1612.23 868.742 C 1622.81 858.692 1628.69 856.082 1642.81 855.997 C 1646.56 864.27 1657.41 873.406 1666.57 865.946 C 1669.76 863.35 1669.16 857.714 1669.12 853.836 z M 1700.93 933.232 C 1709.33 930.114 1716.46 928.915 1725.85 925.023 C 1721.32 922.755 1717.51 921.162 1713.61 917.928 C 1710.66 913.89 1711.72 913.906 1708.16 913.349 C 1702.81 915.428 1701.64 918.423 1696.13 921.467 C 1697.07 925.038 1698.08 931.356 1700.93 933.232 z"/>
<path transform="translate(0,0)" fill="rgb(0,0,0)" d="M 1612.23 868.742 C 1621.06 868.457 1628.94 866.516 1635.6 873.552 C 1645.23 883.737 1658.78 904.667 1665.93 916.8 C 1665.4 918.932 1665.59 919.381 1664.43 920.983 L 1662.07 920.429 C 1656.7 923.83 1636.92 935.503 1634.63 939.89 L 1636.21 942.852 L 1635.48 944.622 C 1631.6 940.782 1632.81 941.594 1627.76 941.879 C 1620.53 936.793 1608.97 909.903 1603.82 900.609 C 1603.73 899.741 1603.65 898.873 1603.58 898.004 C 1602.41 883.667 1603.52 879.157 1612.23 868.742 z"/>
<path transform="translate(0,0)" fill="rgb(73,72,75)" d="M 1716.66 916.467 C 1744.64 928.464 1752.67 908.093 1772.58 897.805 L 1773.85 897.163 C 1773.49 899.292 1772.39 902.516 1772.2 904.163 L 1770.02 904.016 C 1754.82 919.859 1747.43 920.518 1728.46 928.722 C 1721.31 931.631 1716.29 933.313 1708.88 935.542 C 1699.64 935.31 1688.31 942.318 1677.42 936.174 C 1671.53 932.849 1666.7 927.134 1664.43 920.983 C 1665.59 919.381 1665.4 918.932 1665.93 916.8 C 1667.41 930.727 1690.4 943.285 1700.93 933.232 C 1709.33 930.114 1716.46 928.915 1725.85 925.023 C 1721.32 922.755 1717.51 921.162 1713.61 917.928 L 1716.66 916.467 z"/>
<path transform="translate(0,0)" fill="rgb(0,0,0)" d="M 1685.5 870.171 C 1694.31 878.943 1703.09 894.678 1709.97 905.277 C 1712.64 909.387 1713.36 913.17 1716.66 916.467 L 1713.61 917.928 C 1710.66 913.89 1711.72 913.906 1708.16 913.349 C 1702.81 915.428 1701.64 918.423 1696.13 921.467 C 1694.82 918.328 1692.1 897.298 1691.17 892.22 C 1689.52 883.241 1688.36 879.209 1685.5 870.171 z"/>
<path transform="translate(0,0)" fill="rgb(19,20,22)" d="M 1278.76 1116.89 C 1290.01 1116.33 1305 1116.83 1316.55 1116.92 C 1315.16 1134.32 1315.95 1160.59 1315.97 1178.63 C 1315.99 1204.96 1315.41 1234.09 1317.11 1260.08 L 1278.87 1259.85 L 1278.76 1116.89 z"/>
<path transform="translate(0,0)" fill="rgb(43,71,247)" d="M 1282.11 1119.94 L 1313.78 1119.95 C 1312.91 1164.37 1313.82 1212.15 1313.9 1256.84 C 1305.16 1257.39 1291.13 1257 1281.99 1257 C 1283.15 1212.67 1282.27 1164.38 1282.11 1119.94 z"/>
<path transform="translate(0,0)" fill="rgb(0,0,0)" d="M 225.682 776.8 C 228.966 772.926 233.301 768.336 238.134 766.155 C 246.293 762.471 251.679 777.19 257.877 779.302 C 260.167 780.083 260.46 780.388 262.441 782.131 C 263.666 784.648 265.519 791.886 264.239 793.408 C 253.887 805.711 254.925 824.503 249.344 839.464 C 247.34 844.833 242.469 845.946 237.972 848.385 C 240.237 867.349 218.987 866.497 211.219 849.749 C 211.213 848.765 211.063 843.487 210.772 843.14 C 205.249 836.524 196.445 831.494 191.942 824.405 C 189.693 820.864 190.823 816.563 192.119 812.941 C 193.912 807.929 186.473 804.691 186.08 799.933 C 183.143 789.587 198.304 785.207 198.456 784.521 C 201.097 772.612 206.469 760.066 225.682 776.8 z M 244.617 813.895 C 244.381 817.638 244.204 821.18 243.705 824.903 L 244.893 825.718 C 248.785 820.993 249.509 808.454 244.75 803.484 C 238.499 800.944 228.249 802.006 221.203 802.204 C 219.712 808.118 219.65 816.883 221.492 822.744 C 225.592 827.694 236.252 828.296 241.252 824.674 L 241.084 823.481 C 240.42 818.442 240.007 819.162 241.962 815.138 L 244.617 813.895 z M 218.82 841.357 L 215.234 834.936 C 213.004 849.702 213.113 863.133 233.382 857.666 C 234.547 854.65 235.457 853.301 234.698 850.188 C 231.981 847.611 223.299 843.877 218.82 841.357 z M 212.851 826.243 C 215.533 822.106 214.739 817.973 213.203 813.451 L 210.54 812.21 C 207.128 816.024 207.838 814.277 206.838 819.047 C 207.954 823.005 209.301 824.014 212.851 826.243 z"/>
<path transform="translate(0,0)" fill="rgb(253,251,252)" fill-opacity="0.0117647" d="M 215.234 834.936 L 218.82 841.357 C 223.299 843.877 231.981 847.611 234.698 850.188 C 235.457 853.301 234.547 854.65 233.382 857.666 C 213.113 863.133 213.004 849.702 215.234 834.936 z"/>
<path transform="translate(0,0)" fill="rgb(19,20,22)" d="M 280.163 752.41 C 280.066 750.124 279.188 739.242 281.686 738.449 C 293.93 734.562 344.022 733.489 353.582 739.089 C 356.3 744.664 358.909 786.746 348.122 788.445 C 335.659 790.408 320.547 788.995 307.501 789.109 C 302.913 793.583 297.127 799.531 292.386 803.6 C 292.625 799.302 293.416 794.161 291.763 790.379 C 287.264 787.255 284.825 789.587 280.799 784.187 C 281.793 777.462 281.891 758.713 280.163 752.41 z M 336.069 739.286 C 324.75 739.034 317.373 740.634 304.64 739.279 C 299.01 738.978 288.841 737.568 284.649 741.073 C 281.127 751.447 282.768 769.204 283.065 780.389 C 283.236 786.843 292.716 783.728 295.344 786.954 L 296.055 793.567 L 296.875 794.212 C 301.016 790.959 302.468 789.11 305.89 785.207 L 307.445 784.921 C 321.191 782.492 340.734 787.738 349.422 783.902 C 354.042 776.084 352.457 751.765 351.24 742.458 C 350.674 738.135 339.546 739.166 336.069 739.286 z M 307.514 745.15 C 311.25 744.248 315.04 743.235 318.772 742.282 C 327.797 746.516 330.47 747.658 333.288 757.367 C 334.532 767.67 333.131 769.257 326.597 776.785 C 319.263 779.133 312.238 781.339 305.854 775.797 C 294.679 766.097 300.165 753.962 307.514 745.15 z"/>
<path transform="translate(0,0)" fill="rgb(43,71,247)" d="M 318.772 742.282 C 327.797 746.516 330.47 747.658 333.288 757.367 C 334.532 767.67 333.131 769.257 326.597 776.785 C 319.263 779.133 312.238 781.339 305.854 775.797 C 294.679 766.097 300.165 753.962 307.514 745.15 C 311.25 744.248 315.04 743.235 318.772 742.282 z"/>
<path transform="translate(0,0)" fill="rgb(0,0,0)" d="M 826.792 853.575 C 819.473 844.84 807.226 832.508 813.664 819.79 C 814.219 818.693 819.19 815.427 819.533 814.574 C 824.745 801.638 823.896 802.492 837.393 803.721 C 840.948 798.71 844.453 792.568 851.258 793.216 C 869.822 794.982 877.499 810.341 863.717 823.996 C 870.092 841.489 865.713 852.282 851.836 863.352 C 850.67 866.391 850.855 866.74 850.814 869.925 L 849.233 872.537 C 846.686 878.293 846.807 878.469 840.223 879.962 C 832.018 876.408 827.267 875.493 825.625 865.703 L 826.792 853.575 z M 830.327 844.941 C 829.729 851.059 828.831 858.384 828.766 864.422 C 829.209 868.627 828.851 870.611 832.497 873.423 C 837.672 877.415 844.126 877.326 848.237 872.248 C 848.543 868.526 848.73 867.797 847.936 864.025 C 845.177 861.017 845.701 861.9 841.158 860.535 L 838.683 856.878 L 839.226 855.856 C 866.402 863.858 864.412 842.521 860.808 823.25 C 855.411 822.918 845.519 821.618 841.058 823.315 L 839.955 824.754 L 840.798 825.722 L 845.081 825.164 C 841.871 828.043 840.223 830.283 836.089 830.81 C 829.063 834.013 830.741 837.209 830.327 844.941 z"/>
<path transform="translate(0,0)" fill="rgb(253,251,252)" fill-opacity="0.988235" d="M 836.089 830.81 C 840.223 830.283 841.871 828.043 845.081 825.164 L 840.798 825.722 L 839.955 824.754 L 841.058 823.315 C 845.519 821.618 855.411 822.918 860.808 823.25 C 864.412 842.521 866.402 863.858 839.226 855.856 L 838.683 856.878 L 841.158 860.535 C 831.248 856.637 835.874 859.521 828.766 864.422 C 828.831 858.384 829.729 851.059 830.327 844.941 C 830.741 837.209 829.063 834.013 836.089 830.81 z"/>
<path transform="translate(0,0)" fill="rgb(19,20,22)" d="M 860.808 823.25 L 863.717 823.996 C 870.092 841.489 865.713 852.282 851.836 863.352 C 850.67 866.391 850.855 866.74 850.814 869.925 L 849.233 872.537 L 848.237 872.248 C 848.543 868.526 848.73 867.797 847.936 864.025 C 845.177 861.017 845.701 861.9 841.158 860.535 L 838.683 856.878 L 839.226 855.856 C 866.402 863.858 864.412 842.521 860.808 823.25 z"/>
<path transform="translate(0,0)" fill="rgb(232,231,231)" d="M 830.327 844.941 C 826.434 843.43 824.064 842.109 822.471 838.144 C 823.324 830.145 829.954 830.759 836.089 830.81 C 829.063 834.013 830.741 837.209 830.327 844.941 z"/>
<path transform="translate(0,0)" fill="rgb(0,0,0)" d="M 1663.75 794.425 C 1681.72 776.75 1697.17 795.192 1683.55 812.38 C 1685.1 823.04 1686.51 836.034 1679.75 845.328 C 1676.68 849.544 1673.14 849.281 1669.39 852.3 L 1669.12 853.836 C 1669.16 857.714 1669.76 863.35 1666.57 865.946 C 1657.41 873.406 1646.56 864.27 1642.81 855.997 L 1643.59 848.787 C 1645.89 832.843 1629.06 827.954 1632.27 816.439 C 1638.56 793.899 1646.07 792.049 1663.75 794.425 z M 1656.56 813.649 C 1655.27 817.362 1653.07 822.636 1652.77 826.325 L 1651.8 827.346 L 1652.83 825.857 L 1652.16 828.338 C 1650.65 824.534 1651.4 824.618 1648.61 822.785 C 1644.62 823.657 1646.29 822.746 1643.39 825.578 C 1640.95 835.27 1650.28 830.214 1647.62 843.483 C 1647.11 846.496 1646.52 850.74 1645.82 853.624 C 1646.89 862.878 1659.05 869.179 1665.6 861.09 C 1666.53 857.037 1666.53 857.261 1665.63 853.206 L 1664.19 852.565 C 1658.62 850.057 1656.7 849.866 1655.06 843.536 L 1663.43 847.402 C 1681.31 852.215 1683.87 829.709 1680.99 817.661 L 1680.64 812.945 C 1674.25 814.384 1663.43 813.851 1656.56 813.649 z"/>
<path transform="translate(0,0)" fill="rgb(253,251,252)" fill-opacity="0.701961" d="M 1663.43 847.402 C 1666.91 846.585 1671.5 845.33 1673.84 842.65 L 1673.11 840.84 L 1671.02 840.159 C 1668.96 841.614 1669.68 841.362 1667.36 842.09 C 1666.12 834.929 1661.64 823.443 1668.88 820.207 C 1667.29 821.644 1665.65 823.103 1665.67 825.265 C 1665.69 827.743 1666.64 830.122 1668.34 831.928 C 1670.3 833.988 1669.69 833.595 1672.21 833.583 C 1673.42 830.543 1672.25 825.474 1672.04 821.871 C 1674.01 819.274 1677.7 818.67 1680.99 817.661 C 1683.87 829.709 1681.31 852.215 1663.43 847.402 z"/>
<path transform="translate(0,0)" fill="rgb(19,20,22)" d="M 1677.01 829.577 L 1677.53 830.065 C 1678.35 833.408 1678.46 831.77 1676.84 835.11 C 1673.33 837.97 1673.08 837.905 1668.43 838.477 L 1668.41 835.786 C 1674.85 834.599 1674.57 835.168 1677.01 829.577 z"/>
<path transform="translate(0,0)" fill="rgb(253,251,252)" fill-opacity="0.0901961" d="M 1647.62 843.483 L 1648.39 847.629 L 1649.87 847.868 C 1652.19 845.973 1652.46 845.811 1654.43 843.511 L 1655.06 843.536 C 1656.7 849.866 1658.62 850.057 1664.19 852.565 L 1665.63 853.206 C 1666.53 857.261 1666.53 857.037 1665.6 861.09 C 1659.05 869.179 1646.89 862.878 1645.82 853.624 C 1646.52 850.74 1647.11 846.496 1647.62 843.483 z"/>
<path transform="translate(0,0)" fill="rgb(19,20,22)" d="M 1680.64 812.945 L 1683.55 812.38 C 1685.1 823.04 1686.51 836.034 1679.75 845.328 C 1676.68 849.544 1673.14 849.281 1669.39 852.3 L 1669.12 853.836 C 1669.16 857.714 1669.76 863.35 1666.57 865.946 C 1657.41 873.406 1646.56 864.27 1642.81 855.997 L 1643.59 848.787 L 1644.65 853.298 L 1645.82 853.624 C 1646.89 862.878 1659.05 869.179 1665.6 861.09 C 1666.53 857.037 1666.53 857.261 1665.63 853.206 L 1664.19 852.565 C 1658.62 850.057 1656.7 849.866 1655.06 843.536 L 1663.43 847.402 C 1681.31 852.215 1683.87 829.709 1680.99 817.661 L 1680.64 812.945 z"/>
<path transform="translate(0,0)" fill="rgb(0,0,0)" d="M 863.051 1236.84 L 869.501 1241.55 L 871.315 1245.07 L 873.22 1249.36 C 877.961 1252.44 889.94 1251.61 895.47 1250.89 C 897.421 1248.48 896.723 1247.39 896.873 1243.48 L 895.291 1243.07 C 888.998 1241.48 887.702 1241.28 881.073 1241.57 C 885.158 1241.29 896.832 1240.54 899.957 1242.47 L 900.49 1243.98 C 898.065 1267.87 922.938 1257.7 932.058 1276.79 C 928.007 1280.43 900.828 1277.92 891.625 1279.12 C 883.885 1279.55 879.031 1279.56 871.267 1279.23 C 860.722 1280.52 831.732 1279.82 820.363 1279.9 C 809.244 1279.98 779.345 1280.58 769.659 1279.15 L 765.258 1279.15 C 759.021 1278.38 754.293 1279.56 747.845 1278.16 L 747.38 1275.99 C 749.314 1264.78 750.117 1255.78 752.487 1243.98 L 754.355 1244.73 C 754.585 1247.04 754.857 1249.35 755.169 1251.65 C 764.693 1253.75 773.941 1253.02 779.944 1244.58 L 780.794 1245.3 L 781.304 1251.52 C 783.801 1268.97 800.995 1258.48 809.05 1275.7 C 811.723 1276.84 866.487 1276.4 869.414 1275.27 C 868.775 1265.83 871.661 1255.08 868.984 1246.19 C 867.342 1240.74 865.629 1245.11 863.051 1236.84 z"/>
<path transform="translate(0,0)" fill="rgb(43,71,247)" d="M 1237.1 1202.1 C 1244.02 1200.66 1251.89 1200.92 1259 1200.87 C 1258.13 1221.38 1258.47 1239.65 1259.01 1260.09 L 1220.81 1259.98 C 1220.02 1240.73 1220.4 1220.27 1220.45 1200.92 C 1226.26 1200.91 1230.34 1200.65 1236.04 1202.11 L 1237.1 1202.1 z"/>
<path transform="translate(0,0)" fill="rgb(19,20,22)" d="M 1237.1 1202.1 C 1244.02 1200.66 1251.89 1200.92 1259 1200.87 C 1258.13 1221.38 1258.47 1239.65 1259.01 1260.09 L 1220.81 1259.98 C 1220.02 1240.73 1220.4 1220.27 1220.45 1200.92 C 1226.26 1200.91 1230.34 1200.65 1236.04 1202.11 C 1231.59 1202.56 1228.48 1202.83 1224.03 1202.88 C 1223.78 1220.92 1223.72 1238.97 1223.85 1257.01 L 1256.06 1257.17 L 1255.93 1203.78 C 1249.59 1203.49 1243.28 1203.44 1237.1 1202.1 z"/>
<path transform="translate(0,0)" fill="rgb(0,0,0)" d="M 1682.23 1239.68 C 1689.82 1241.67 1715.73 1242.04 1723.59 1239.57 C 1725.45 1237.21 1725.58 1231.86 1725.97 1228.61 C 1726.22 1230.4 1727.27 1237.34 1726.77 1238.27 C 1721.28 1248.37 1717.68 1250.41 1728.69 1261.33 C 1740.41 1265.08 1746.37 1264.82 1752.08 1275.8 C 1750.97 1279.23 1751.98 1278.02 1749.48 1279.92 C 1739.27 1280.02 1717.66 1280.61 1708.27 1279.3 C 1701.58 1277.67 1696.93 1279.66 1689.43 1278.11 L 1688.77 1275.8 C 1688.15 1265.81 1690.38 1255.06 1687.69 1245.12 C 1683.7 1242.48 1683.64 1244.04 1682.23 1239.68 z M 1694.23 1247.09 C 1700.48 1248.07 1713.28 1251.48 1717.61 1248.5 L 1718.08 1244.46 L 1717.07 1243.41 C 1710.27 1245.3 1693.44 1244.53 1691.74 1245.52 C 1692.89 1247.18 1692.09 1246.61 1694.23 1247.09 z"/>
<path transform="translate(0,0)" fill="rgb(253,251,252)" fill-opacity="0.0392157" d="M 1717.07 1243.41 L 1718.08 1244.46 L 1717.61 1248.5 C 1713.28 1251.48 1700.48 1248.07 1694.23 1247.09 C 1692.09 1246.61 1692.89 1247.18 1691.74 1245.52 C 1693.44 1244.53 1710.27 1245.3 1717.07 1243.41 z"/>
<path transform="translate(0,0)" fill="rgb(19,20,22)" d="M 1233.21 763.806 C 1250.07 763.451 1241.21 772.408 1254.33 772.382 C 1277.74 772.336 1301.31 772.075 1324.71 772.186 C 1332.3 772.221 1344.22 771.921 1351.5 773 C 1356.88 779.209 1350.01 852.341 1354.23 863.737 C 1356.07 868.704 1362.5 871.681 1362.41 882.394 C 1358.89 889.151 1349.63 888.562 1343.87 885.047 C 1338.55 875.226 1340.47 871.311 1349.97 865.975 C 1351.04 838.441 1350.67 803.756 1349.97 776.08 C 1316.76 775.403 1281.7 775.973 1248.35 775.973 C 1247.44 777.692 1246 780.343 1244.61 781.687 C 1242.28 783.946 1239.11 785.12 1235.87 784.922 C 1232.72 784.703 1229.95 783.319 1228.01 780.786 C 1226.3 778.578 1225.58 775.757 1226.04 773.001 C 1226.81 768.074 1229.41 766.457 1233.21 763.806 z M 1234.21 767.478 C 1231.76 768.436 1230.03 770.673 1229.72 773.293 C 1229.42 775.913 1230.58 778.487 1232.75 779.986 C 1234.92 781.484 1237.74 781.66 1240.09 780.444 C 1243.45 778.699 1244.86 774.629 1243.29 771.179 C 1241.73 767.729 1237.74 766.103 1234.21 767.478 z M 1353.93 883.598 C 1357.54 882.298 1359.42 878.343 1358.17 874.723 C 1356.92 871.103 1352.99 869.162 1349.35 870.366 C 1346.96 871.16 1345.18 873.181 1344.69 875.656 C 1344.2 878.132 1345.08 880.679 1346.99 882.323 C 1348.91 883.967 1351.56 884.454 1353.93 883.598 z"/>
<path transform="translate(0,0)" fill="rgb(19,20,22)" d="M 696.88 884.914 C 711.699 884.004 715.436 898.175 701.98 906.267 L 702.134 979.502 C 702.111 994.841 701.553 1010.79 702.151 1026.01 C 710.627 1025.91 728.843 1024.19 735.198 1028.66 C 729.893 1031.23 705.787 1030.15 698.086 1030.07 L 697.642 905.743 C 686.252 900.173 686.117 891.301 696.88 884.914 z M 702.516 900.896 C 704.695 899.874 706.125 897.724 706.222 895.319 C 706.32 892.915 705.07 890.656 702.981 889.461 C 700.891 888.266 698.311 888.335 696.288 889.639 C 693.436 891.477 692.497 895.21 694.139 898.179 C 695.782 901.147 699.444 902.335 702.516 900.896 z"/>
<path transform="translate(0,0)" fill="rgb(0,0,0)" d="M 1021.75 738.511 C 1028.26 738.398 1027.12 743.36 1027.41 748.661 C 1027.76 755.022 1027.45 765.583 1024.35 770.965 C 1023.38 768.652 1023.86 747.276 1023.77 742.769 C 1006.09 743.213 987.754 741.974 969.942 742.038 L 803.75 742.387 C 796.939 742.405 772.856 744.013 768.141 741.867 L 767.855 740.408 C 769.38 739.063 768.872 738.971 770.568 738.978 C 789.386 739.048 808.374 739.438 827.179 739.521 C 868.454 739.644 909.729 739.493 951.002 739.07 C 973.683 738.964 999.431 739.714 1021.75 738.511 z"/>
<path transform="translate(0,0)" fill="rgb(44,55,86)" d="M 1773.85 897.163 C 1781.03 886.241 1780.62 860.93 1792.59 854.704 C 1798.72 851.51 1808.98 856.554 1815.11 859.12 L 1809.77 859.68 C 1813.41 861.87 1812.35 860.376 1813.58 863.911 C 1813.12 865.682 1812.77 867.297 1812.12 869.008 C 1810.58 871.719 1811.52 871.237 1809.37 872.361 C 1804.81 871.256 1804.17 871.21 1799.51 871.666 C 1797.74 871.414 1793.67 869.771 1791.79 869.089 C 1787.7 881.764 1782.82 895.35 1780.56 908.393 C 1783.38 909.597 1784.32 909.957 1787.38 910.814 L 1779.81 911.415 C 1777.79 911.793 1778.2 911.306 1777.22 912.401 C 1772.69 912.932 1769.28 915.013 1765.13 917.025 L 1763.83 914.799 C 1765.47 908.394 1769.79 911.848 1772.2 904.163 C 1772.39 902.516 1773.49 899.292 1773.85 897.163 z"/>
<path transform="translate(0,0)" fill="rgb(40,61,216)" d="M 1791.79 869.089 C 1789.82 851.618 1798.6 855.167 1809.77 859.68 C 1813.41 861.87 1812.35 860.376 1813.58 863.911 C 1813.12 865.682 1812.77 867.297 1812.12 869.008 C 1810.58 871.719 1811.52 871.237 1809.37 872.361 C 1804.81 871.256 1804.17 871.21 1799.51 871.666 C 1797.74 871.414 1793.67 869.771 1791.79 869.089 z"/>
<path transform="translate(0,0)" fill="rgb(0,0,0)" d="M 1130.48 1277.08 L 1291.5 1276.65 C 1308.05 1276.5 1411.79 1274.05 1419.22 1278.19 C 1407.33 1281.77 1366.65 1279.79 1351.74 1279.64 L 1257.66 1279.19 L 1177.1 1279.11 C 1167.16 1279.07 1148.02 1279.58 1138.6 1278.77 C 1136.26 1278.16 1132.93 1277.58 1130.48 1277.08 z"/>
<path transform="translate(0,0)" fill="rgb(19,20,22)" d="M 1537.64 1275.94 L 1542.04 1276.6 C 1550.37 1277.79 1576.07 1276.18 1585.97 1275.95 C 1619.85 1275.16 1655.11 1277.56 1688.77 1275.8 L 1689.43 1278.11 C 1696.93 1279.66 1701.58 1277.67 1708.27 1279.3 C 1700.31 1280.58 1686.83 1280.03 1678.39 1280.08 L 1621.78 1280.21 L 1537.58 1279.91 C 1531.13 1279.9 1502.77 1281.51 1498.89 1278.43 L 1499.62 1276.87 C 1509.12 1276.99 1528.96 1277.77 1537.64 1275.94 z"/>
<path transform="translate(0,0)" fill="rgb(19,20,22)" d="M 1101.86 1276.96 L 1103.33 1278.98 C 1057.02 1280.03 1009.26 1279.41 962.865 1279.78 C 948.069 1279.9 903.594 1280.95 891.625 1279.12 C 900.828 1277.92 928.007 1280.43 932.058 1276.79 C 950.567 1275.28 974.916 1276 993.973 1276.07 C 1029.94 1276.07 1065.9 1276.37 1101.86 1276.96 z"/>
<path transform="translate(0,0)" fill="rgb(73,72,75)" d="M 316.091 1273.55 C 317.775 1275.52 317.825 1276.36 319.567 1276.77 C 333.472 1274.88 432.499 1274.08 439.85 1278.16 C 440.002 1278.24 440.112 1278.39 440.243 1278.5 L 438.861 1278.98 L 438.883 1277.98 L 437.557 1279.19 C 423.56 1280.57 404.729 1280.03 390.269 1280.05 C 364.028 1280.23 337.786 1280.16 311.546 1279.85 L 317.966 1278.94 L 316.091 1273.55 z"/>
<path transform="translate(0,0)" fill="rgb(19,20,22)" d="M 316.091 1273.55 C 317.775 1275.52 317.825 1276.36 319.567 1276.77 C 323.724 1276.96 332.385 1276.98 335.641 1278.59 C 328.677 1279.38 324.956 1279.19 317.966 1278.94 L 316.091 1273.55 z"/>
<path transform="translate(0,0)" fill="rgb(0,0,0)" d="M 804.648 754.413 C 828.056 752.514 863.157 755.019 887.605 753.969 C 895.054 753.649 940.952 753.653 946.478 754.769 L 947.873 757.148 C 913.916 758.619 877.989 756.27 843.834 757.146 C 832.475 757.437 816.766 757.696 805.608 756.769 L 804.648 754.413 z"/>
<path transform="translate(0,0)" fill="rgb(19,20,22)" d="M 765.258 1279.15 C 758.647 1280.55 668.258 1280.66 665.805 1279.07 L 666.036 1277.31 C 671.008 1274.98 738.059 1275.55 747.38 1275.99 L 747.845 1278.16 C 754.293 1279.56 759.021 1278.38 765.258 1279.15 z"/>
<path transform="translate(0,0)" fill="rgb(0,0,0)" fill-opacity="0.960784" d="M 805.929 747.552 C 814.291 745.949 857.077 746.127 867.205 746.462 C 883.654 747.006 918.124 745.62 933.418 747.519 L 933.99 748.647 C 920.133 749.874 812.572 750.987 805.929 747.552 z"/>
<path transform="translate(0,0)" fill="rgb(253,251,252)" fill-opacity="0.0745098" d="M 1728.46 928.722 C 1747.43 920.518 1754.82 919.859 1770.02 904.016 L 1772.2 904.163 C 1769.79 911.848 1765.47 908.394 1763.83 914.799 L 1765.13 917.025 L 1763.4 917.937 C 1760.85 926.512 1766.87 924.753 1767.88 931.662 C 1771.66 932.588 1772.05 930.605 1776.63 930.251 L 1778.75 935.001 C 1776.22 937.761 1774.6 938.927 1771.3 939.544 C 1769.55 937.857 1767.82 936.143 1766.12 934.405 C 1762.67 934.897 1762.82 935.076 1759.57 933.963 C 1757.95 930.326 1758.45 927.256 1756.84 923.181 C 1753.52 921.64 1753.39 922.449 1748.86 923.788 C 1742.45 926.341 1735.3 928.153 1730.09 930.236 L 1728.46 928.722 z"/>
<path transform="translate(0,0)" fill="rgb(73,72,75)" d="M 1363.62 981.454 C 1372.07 980.847 1411.2 981.56 1418.53 982.581 L 1419.36 983.855 L 1417.86 985.544 C 1413.96 986.693 1399.45 986.09 1394.56 986.025 C 1386.25 985.978 1337.37 988.12 1335.76 983.24 C 1339.29 980.934 1357.84 981.652 1363.62 981.454 z"/>
<path transform="translate(0,0)" fill="rgb(19,20,22)" d="M 1752.08 1275.8 C 1761.88 1279.92 1818.28 1271.74 1829.12 1277.73 L 1829.35 1279.4 C 1826.07 1280.81 1758.89 1279.94 1749.48 1279.92 C 1751.98 1278.02 1750.97 1279.23 1752.08 1275.8 z"/>
<path transform="translate(0,0)" fill="rgb(19,20,22)" d="M 1780.56 908.393 C 1787.12 905.556 1798.31 902.3 1803.57 908.86 C 1803.05 913.964 1798.79 915.066 1794.21 915.883 L 1792.95 917.831 C 1787.75 921.719 1786.27 922.853 1779.84 923.001 L 1778.68 921.435 C 1775.68 920.182 1777.15 920.304 1774.13 920.789 L 1773.93 921.876 L 1773.55 921.059 C 1775.67 918.208 1775.99 915.746 1777.22 912.401 C 1778.2 911.306 1777.79 911.793 1779.81 911.415 L 1780.04 914.477 C 1782.36 915.74 1781.12 915.404 1783.75 915.491 C 1788.35 914.024 1789.18 914.221 1791.46 910.714 L 1790.17 909.756 L 1787.38 910.814 C 1784.32 909.957 1783.38 909.597 1780.56 908.393 z"/>
<path transform="translate(0,0)" fill="rgb(232,231,231)" d="M 1777.22 912.401 C 1778.2 911.306 1777.79 911.793 1779.81 911.415 L 1780.04 914.477 C 1782.36 915.74 1781.12 915.404 1783.75 915.491 C 1780.11 916.54 1781.22 915.501 1779.18 917.851 C 1783.1 919.178 1790.29 916.978 1794.21 915.883 L 1792.95 917.831 C 1787.75 921.719 1786.27 922.853 1779.84 923.001 L 1778.68 921.435 C 1775.68 920.182 1777.15 920.304 1774.13 920.789 L 1773.93 921.876 L 1773.55 921.059 C 1775.67 918.208 1775.99 915.746 1777.22 912.401 z"/>
<path transform="translate(0,0)" fill="rgb(0,0,0)" d="M 1309.05 997.432 C 1318.19 996.598 1389.15 996.384 1393.18 998.562 L 1393.41 1000.99 C 1382.66 1000.57 1372.62 1000.23 1361.94 1000.14 C 1347.96 1000.04 1322.99 1002.31 1310.26 999.439 L 1309.05 997.432 z"/>
<path transform="translate(0,0)" fill="rgb(0,0,0)" d="M 664.442 1084.43 C 683.594 1086.33 732.982 1081.94 754.856 1084.59 C 755.526 1085.22 756.195 1085.85 756.865 1086.48 C 752.589 1087.29 666.388 1087.79 664.748 1087.13 L 664.442 1084.43 z"/>
<path transform="translate(0,0)" fill="rgb(19,20,22)" d="M 704.687 817.406 C 717.091 816.575 734.343 817.619 747.46 817.823 C 757.434 817.978 776.705 817.334 785.797 818.359 L 786.534 820.552 C 777.927 821.578 712.522 822.175 705.406 820.807 L 704.687 817.406 z"/>
<path transform="translate(0,0)" fill="rgb(0,0,0)" d="M 676.37 1098.5 C 683.501 1098.72 717.745 1098.54 721.994 1099.81 L 721.034 1100.86 C 715.157 1102.92 697.904 1102.08 690.75 1102.02 C 680.362 1102.03 655.598 1103.43 646.366 1101.62 L 646.799 1100.37 C 650.767 1098.28 669.903 1098.72 676.37 1098.5 z"/>
<path transform="translate(0,0)" fill="rgb(0,0,0)" d="M 914.926 769.464 C 936.097 767.104 961.996 770.092 983.647 768.833 C 987.344 768.618 989.245 768.789 991.626 771.357 C 980.442 773.752 938.105 771.109 924.341 772.058 C 919.101 772.42 917.8 772.415 914.926 769.464 z"/>
<path transform="translate(0,0)" fill="rgb(0,0,0)" fill-opacity="0.988235" d="M 731.815 803.479 C 747.305 802.021 773.764 802.94 789.866 803.083 C 793.243 803.113 793.097 803.903 794.58 805.986 C 786.936 806.415 739.421 806.65 732.718 805.377 L 731.815 803.479 z"/>
<path transform="translate(0,0)" fill="rgb(73,72,75)" d="M 283.073 905.783 C 292.707 885.132 292.211 884.019 315.603 885.026 L 314.642 885.255 C 310.079 886.305 307.385 886.515 302.714 886.896 L 312.587 889.06 C 308.173 889.046 303.278 889.144 298.914 888.98 C 296.877 892.183 287.658 906.244 286.757 909.086 C 285.185 906.104 286.321 907.224 283.073 905.783 z"/>
<path transform="translate(0,0)" fill="rgb(0,0,0)" d="M 1345.95 1012.43 C 1366.03 1012.72 1386.44 1012.19 1406.53 1012.65 C 1411.45 1012.76 1411.29 1012.58 1413.74 1015.26 C 1403.96 1016.23 1355.51 1015.97 1346.62 1014.54 L 1345.95 1012.43 z"/>
<path transform="translate(0,0)" fill="rgb(253,251,252)" fill-opacity="0.470588" d="M 1748.86 923.788 C 1753.39 922.449 1753.52 921.64 1756.84 923.181 C 1758.45 927.256 1757.95 930.326 1759.57 933.963 C 1758.62 933.822 1757.06 933.86 1756.04 933.844 C 1752.94 935.937 1745.14 940.998 1742.15 936.212 C 1746.15 935.263 1751 929.981 1751.17 926.048 L 1748.86 923.788 z"/>
<path transform="translate(0,0)" fill="rgb(0,0,0)" d="M 690.033 1069.4 C 699.626 1068.58 721.734 1068.7 731.875 1069.49 C 732.701 1070.15 733.528 1070.81 734.355 1071.47 C 726.233 1073.26 695.874 1074.14 690.033 1069.4 z"/>
<path transform="translate(0,0)" fill="rgb(0,0,0)" fill-opacity="0.909804" d="M 741.479 810.538 C 747.383 810.428 780.743 810.055 784.443 811.261 C 782.758 813.496 783.856 812.563 780.25 813.212 C 770.256 813.324 741.986 814.194 734.135 812.129 C 736.272 810.612 738.762 810.767 741.479 810.538 z"/>
<path transform="translate(0,0)" fill="rgb(0,0,0)" d="M 742.795 833.449 C 748.36 832.664 781.527 832.223 786.521 833.547 L 786.924 835.543 C 777.07 836.413 756.22 835.613 745.319 835.325 C 744.478 834.7 743.636 834.074 742.795 833.449 z"/>
<path transform="translate(0,0)" fill="rgb(253,251,252)" fill-opacity="0.2" d="M 1708.88 935.542 C 1716.29 933.313 1721.31 931.631 1728.46 928.722 L 1730.09 930.236 C 1721.55 934.255 1718.46 935.927 1708.82 936.767 L 1708.88 935.542 z"/>
<path transform="translate(0,0)" fill="rgb(253,251,252)" fill-opacity="0.0352941" d="M 1787.38 910.814 L 1790.17 909.756 L 1791.46 910.714 C 1789.18 914.221 1788.35 914.024 1783.75 915.491 C 1781.12 915.404 1782.36 915.74 1780.04 914.477 L 1779.81 911.415 L 1787.38 910.814 z"/>
<path transform="translate(0,0)" fill="rgb(19,20,22)" fill-opacity="0.866667" d="M 1138.6 1278.77 C 1129.53 1279.14 1123.91 1279.3 1114.85 1277.58 C 1119.76 1276.56 1125.38 1276.98 1130.48 1277.08 C 1132.93 1277.58 1136.26 1278.16 1138.6 1278.77 z"/>
<path transform="translate(0,0)" fill="rgb(73,72,75)" fill-opacity="0.831373" d="M 280.163 752.41 C 281.891 758.713 281.793 777.462 280.799 784.187 C 279.381 778.132 280.05 759.481 280.163 752.41 z"/>
</svg>