<svg version="1.1" xmlns="http://www.w3.org/2000/svg" style="display: block;" viewBox="0 0 2048 2048" width="1024" height="1024" preserveAspectRatio="none">
<defs>
	<linearGradient id="Gradient1" gradientUnits="userSpaceOnUse" x1="806.883" y1="1141.8" x2="820.424" y2="1132.69">
		<stop class="stop0" offset="0" stop-opacity="0.266667" stop-color="rgb(255,255,255)"/>
		<stop class="stop1" offset="1" stop-opacity="0.305882" stop-color="rgb(255,255,255)"/>
	</linearGradient>
	<linearGradient id="Gradient2" gradientUnits="userSpaceOnUse" x1="814.563" y1="923.473" x2="802.849" y2="888.75">
		<stop class="stop0" offset="0" stop-opacity="0" stop-color="rgb(255,255,255)"/>
		<stop class="stop1" offset="1" stop-opacity="0.0431373" stop-color="rgb(255,255,255)"/>
	</linearGradient>
	<linearGradient id="Gradient3" gradientUnits="userSpaceOnUse" x1="992.328" y1="1066.48" x2="970.58" y2="1063.12">
		<stop class="stop0" offset="0" stop-opacity="0.776471" stop-color="rgb(255,255,255)"/>
		<stop class="stop1" offset="1" stop-opacity="0.929412" stop-color="rgb(255,255,255)"/>
	</linearGradient>
	<linearGradient id="Gradient4" gradientUnits="userSpaceOnUse" x1="830.046" y1="822.854" x2="921.276" y2="841.399">
		<stop class="stop0" offset="0" stop-opacity="0" stop-color="rgb(255,255,255)"/>
		<stop class="stop1" offset="1" stop-opacity="0.231373" stop-color="rgb(255,255,255)"/>
	</linearGradient>
	<linearGradient id="Gradient5" gradientUnits="userSpaceOnUse" x1="866.037" y1="1122.71" x2="957.975" y2="1006.75">
		<stop class="stop0" offset="0" stop-opacity="0.968627" stop-color="rgb(255,255,255)"/>
		<stop class="stop1" offset="1" stop-opacity="1" stop-color="rgb(255,254,255)"/>
	</linearGradient>
</defs>
<path transform="translate(0,0)" fill="rgb(0,0,0)" d="M 1363.88 799.918 L 1363.82 797.022 C 1357.24 791.046 1345.82 782.974 1347.11 774.034 C 1351.98 740.241 1371.47 750.683 1393.3 760.256 C 1399.9 763.149 1425.2 752.723 1433.22 764.033 C 1439.01 772.881 1438.17 772.54 1447.24 778.089 C 1452.16 781.103 1453.29 801.078 1451.52 806.649 C 1449.47 821.005 1442.4 835.726 1431.98 845.695 C 1431.69 855.132 1433.1 865.321 1434.12 874.775 C 1505.34 881.109 1526.37 907.017 1519.8 977.938 C 1518.99 986.58 1516.84 995.048 1515.5 1003.61 C 1512.4 1025.47 1509.76 1041.18 1497.78 1059.96 C 1498.96 1067.79 1504.29 1112.89 1502.08 1117.5 L 1498.98 1118.87 C 1497.98 1126.11 1501.75 1146.18 1501.78 1155.34 C 1502.14 1266.4 1513.18 1376.95 1522.51 1487.51 C 1522.79 1490.83 1523.81 1495.82 1521.42 1498.19 L 1517.82 1498.8 C 1513.57 1511.22 1525.4 1536.46 1528.03 1549.13 C 1536.05 1549.1 1583.73 1548.11 1587.77 1550.43 C 1582.49 1553.62 1516.48 1552 1506.13 1551.98 L 1349.24 1551.99 L 740.152 1552.14 L 595.057 1552.17 C 582.436 1552.25 531.624 1554.05 522.45 1551.22 C 526.015 1547.55 581.034 1548.96 589.7 1548.94 C 589.706 1535.24 601.629 1511.05 598.719 1499.78 C 598.28 1498.08 597.088 1496.78 596.23 1495.31 C 593.237 1490.15 600.637 1416.5 601.337 1406.77 C 602.834 1385.99 603.906 1365.16 605.788 1344.41 C 607.382 1326.85 610.046 1309.21 610.529 1291.59 C 611.733 1247.63 608.803 1203.17 611.349 1159.33 C 611.828 1150.75 612.887 1142.21 614.521 1133.77 C 615.47 1128.76 617.105 1120.82 617.954 1115.32 C 618.339 1112.83 613.895 1112.92 613.801 1112.26 C 613.174 1107.84 618.274 1090.06 619.049 1086.44 C 545.702 1075.52 595.928 990.668 587.535 970.669 C 591.522 958.026 596.454 946.433 602.171 934.483 C 573.073 896.419 605.005 876.55 634.168 862.34 C 654.953 852.213 642.346 791.502 672.517 777.165 C 732.111 748.846 769.823 796.452 754.242 854.543 C 753.24 858.26 740.828 896.359 741.02 897.388 L 742.556 898.905 C 751.637 899.953 771.431 917.729 774.361 926.077 L 774.922 928.75 C 780.347 929.065 788.102 928.751 793.74 928.666 L 794.94 926.114 C 792.497 919.997 792.819 811.337 795.663 804.84 C 798.498 798.364 803.951 792.919 810.784 790.773 C 820.816 787.623 962.947 788.216 982.26 789.561 C 986.6 789.863 990.453 790.214 994.336 792.359 C 1000.7 795.876 1004.33 800.907 1006.18 807.871 C 1008.57 816.903 1007.88 826.703 1007.88 835.979 L 1007.77 886.372 C 1007.76 890.601 1007.04 908.626 1008.46 911.018 C 1016.09 923.854 1019.54 916.466 1016.47 934.486 C 1019.62 936.058 1022.87 937.333 1023.69 940.974 C 1024.04 942.502 1027.16 951.502 1026.78 952.519 C 1020.32 969.666 1029.42 982.643 1008.52 987.785 C 1007.1 997.123 1007.93 1023.09 1007.95 1034.18 L 1008.07 1125.93 C 1008.13 1142.18 1011.74 1172.63 998.485 1182.87 C 994.417 1186 989.555 1187.94 984.446 1188.47 C 977.041 1189.26 963.701 1188.92 955.844 1188.93 L 901.748 1188.93 L 847.593 1188.89 C 795.082 1188.8 793.651 1186.6 793.628 1133.81 C 793.575 1114.51 793.716 1095.21 794.053 1075.9 L 770.98 1075.76 C 772.388 1087.36 774.796 1104.75 774.707 1115.99 C 771.294 1119.62 769.117 1116.2 769.06 1120 C 768.829 1135.67 769.249 1153.61 768.966 1169.01 C 767.945 1211.55 766.632 1254.08 765.027 1296.6 C 763.205 1346.5 761.108 1396.39 758.735 1446.27 C 758.175 1458.51 757.739 1470.8 757.136 1483.04 C 756.774 1490.38 755.408 1498.37 755.347 1505.75 C 755.312 1510.02 758.323 1514.07 761.454 1516.71 C 772.548 1526.05 787.439 1530.47 799.923 1537.72 C 801.558 1538.67 807.324 1548.31 807.414 1548.32 C 822.403 1549.78 868.843 1549.12 880.774 1549.11 L 1163.74 1549.04 L 1249.04 1549.03 C 1264.49 1549.07 1285.2 1549.81 1300.09 1548.78 L 1301.39 1548.68 C 1302.29 1547.08 1303.84 1544.19 1304.68 1542.79 C 1314.61 1526.29 1358.77 1528.19 1355.95 1500.45 C 1354.32 1498.76 1355.27 1499.31 1353.16 1498.69 C 1349.47 1496.3 1350.88 1467.24 1349.96 1461.67 C 1349.46 1458.59 1349.5 1450.01 1349.35 1446.44 L 1344.8 1329.53 C 1343.88 1307.34 1341.98 1281.33 1342.18 1259.25 C 1339.12 1214.85 1341.44 1164.97 1338.29 1121.95 C 1336.86 1120.44 1333.96 1117.41 1333.57 1115.52 C 1329.92 1097.84 1339.6 1057.2 1336.58 1040.66 C 1333.91 1038.15 1317.93 1039.66 1312.13 1038.78 C 1312.6 1067.49 1312.83 1096.22 1312.81 1124.94 C 1312.83 1134.09 1313.5 1160.68 1311.49 1168.4 C 1309.7 1175.04 1305.22 1180.64 1299.14 1183.85 C 1295.3 1185.89 1291.14 1186.58 1286.85 1186.88 C 1258.82 1188.84 1229.57 1187.07 1201.43 1186.99 C 1177.27 1186.92 1152.42 1188.42 1128.35 1187.05 C 1124.1 1186.8 1119.92 1186.19 1115.9 1184.76 C 1108.37 1182.08 1103.75 1177.33 1101.13 1169.79 C 1096.64 1156.88 1099.02 1038.49 1099 1016.45 C 1099 1008.69 1100.74 993.701 1097.74 987.032 C 1095.48 986.525 1089.92 985.519 1088.53 983.845 C 1082.63 976.703 1081.13 961.664 1080.61 952.893 C 1080.12 944.76 1081.91 939.478 1088 934.794 C 1092.46 930.646 1084.37 923.235 1092.4 915.302 C 1102.25 912.225 1099.1 904.57 1099.04 894.827 L 1098.77 840.51 C 1098.65 816.206 1094.01 788.166 1127.38 787.678 C 1172.95 787.01 1218.5 787.494 1264.07 787.243 C 1277.11 787.17 1295.26 785.043 1305.18 794.723 C 1308.57 798.016 1310.86 802.287 1311.71 806.94 C 1313.58 816.677 1312.63 837.638 1312.62 848.371 C 1312.49 875.529 1312.55 902.688 1312.82 929.845 C 1339.76 898.253 1349.6 886.541 1389.08 876.17 C 1389.06 872.302 1389.2 869.213 1388.48 865.405 C 1385.54 861.766 1385.33 862.595 1380.23 860.623 C 1360.35 853.088 1359.35 817.187 1363.88 799.918 z M 1419.83 1266.84 C 1420.72 1278.98 1419.3 1299.53 1418.46 1311.89 L 1413.36 1382.2 C 1411.66 1410.97 1409.74 1439.73 1407.59 1468.47 C 1407.21 1473.96 1406.34 1495.13 1405.24 1498.71 C 1403.87 1498.96 1402.91 1499.1 1401.51 1499.25 L 1400.34 1499.36 C 1398.77 1506.01 1403.01 1534.89 1402.05 1549.1 L 1467.67 1548.97 C 1470.51 1530.52 1484.83 1510.95 1471.02 1496.36 C 1469.38 1494.63 1466.16 1477.34 1465.46 1473.96 C 1451.5 1406.71 1436.76 1339.56 1423.72 1272.13 C 1423.22 1269.57 1423.59 1267.24 1424.1 1264.74 C 1423.04 1261.96 1420.31 1247.57 1419.56 1243.9 C 1414.53 1218.12 1409.76 1190.84 1404.15 1165.33 C 1400.84 1162.17 1399.27 1160.16 1395.02 1158.58 L 1393.93 1159.25 C 1395.47 1162.79 1398.19 1164.18 1401.38 1166.53 C 1407.13 1192.9 1412.26 1227.35 1419.03 1252.33 C 1419.49 1257.09 1420.19 1262.11 1419.83 1266.84 z M 811.26 1075.02 L 803.823 1075.12 C 812.617 1078.23 807.273 1083.88 806.496 1091.97 L 805.289 1092.4 C 803.49 1089.22 804.614 1080.25 803.823 1075.12 C 802.301 1082.35 802.326 1137.57 803.775 1144.12 C 807.461 1144.16 812.923 1144.41 816.426 1144.03 C 820.245 1144.11 826.316 1144.43 829.929 1144.03 C 839.878 1141.75 835.212 1139.81 839.422 1136.76 C 849.926 1129.15 880.087 1131.73 892.324 1131.97 C 905.833 1133.62 907.764 1132.02 920.892 1130.94 C 936.432 1131.74 961.835 1131.1 978.035 1130.96 C 979.666 1130.94 981.543 1129.24 982.796 1128.12 C 966.976 1128.2 949.404 1127.93 933.74 1128.75 C 921.614 1129.3 905.646 1128.45 893.101 1128.29 C 874.312 1127.59 854.992 1128.56 836.152 1128.13 C 829.982 1127.99 823.214 1128.02 817.11 1128.83 C 823.033 1128.72 829.788 1128.39 835.632 1128.79 C 831.223 1131.17 829.7 1132.75 826.284 1136.4 L 825.356 1137.41 C 819.871 1136.73 819.795 1134.56 814.761 1133.95 C 812.095 1131.56 810.493 1119.23 810.068 1115.45 C 810.419 1108.33 813.532 1096.14 815.096 1088.62 C 815.816 1096.11 816.113 1103.89 816.797 1111.52 C 817.025 1106 816.9 1099.52 816.918 1093.92 C 862.677 1093.92 916.076 1095.19 961.269 1093.7 C 966.762 1093.64 977.826 1092.96 982.429 1094.82 C 982.731 1095.59 983.357 1097 983.503 1097.74 C 983.409 1103.99 982.301 1121.59 984.427 1126.26 L 985.043 1125.94 C 987.081 1123.05 985.996 1101.89 985.87 1096.7 C 987.19 1092.17 989.398 1094.15 989.926 1091.06 C 990.783 1086.02 989.961 1081.85 991.036 1076.57 C 995.091 1072.32 997.229 1060.79 997.989 1054.98 C 998.27 1050.33 998.02 1043.55 997.971 1038.71 C 998.982 1029.64 998.292 990.598 997.644 981.74 L 995.448 975.874 L 996.067 973.05 C 996.666 971.634 997.166 971.11 996.24 970.058 C 993.192 966.595 996.279 959.954 994.01 956.241 C 992.851 954.344 993.076 954.637 993.418 952.199 C 991.5 943.451 989.704 934.454 987.072 925.913 C 985.441 921.331 985.85 914.568 985.891 909.579 C 986.836 902.74 986.242 890.937 984.351 884.295 C 983.06 897.615 983.727 920.886 983.88 934.689 C 983.255 944.645 984.48 954.964 983.684 964.282 L 984.015 964.761 L 984.011 967.697 L 982.015 969.302 C 972.514 965.142 975.434 969.752 965.181 973.151 C 967.51 974.246 968.946 974.375 971.464 974.935 C 975.677 974.984 979.446 974.455 982.812 976.804 C 974.514 980.019 930.026 977.914 917.657 978.306 L 917.896 979.088 C 909.395 982.933 898.108 979.618 894.875 981.683 L 895.19 982.013 C 900.903 983.546 911.897 983.579 917.415 982.088 C 923.268 982.093 927.779 982.388 933.507 981.07 C 937.836 981.235 944.457 980.633 947.728 982.407 L 948.186 984.384 C 947.562 985.31 946.864 986.482 946.132 987.265 L 944.878 989.451 L 941.846 990.122 C 935.049 989.938 927.476 990.108 920.612 990.111 L 907.258 990.143 L 840.574 989.956 L 838.884 995.421 L 837.777 999.055 L 892.877 998.93 C 892.629 1019.85 892.587 1040.77 892.753 1061.7 C 881.245 1061.79 833.024 1062.82 823.715 1061.48 C 821.402 1058.79 821.468 1058.34 820.286 1055.07 C 818.197 1061.4 816.05 1070.77 811.26 1075.02 z M 934.779 1039.84 L 921.2 1040.15 C 916.746 1040.9 911.324 1042.58 907.377 1041.37 L 906.715 1038.09 C 905.194 1034.23 905.017 1035.79 905.571 1032.42 C 913.551 1031.56 926.395 1031.95 934.681 1031.94 C 950.551 1031.84 966.421 1031.92 982.29 1032.18 C 981.84 1034.14 982.144 1034.42 981.096 1035.56 L 982.404 1038.07 L 981.657 1039.66 C 980.169 1039.8 973.401 1040.4 972.218 1040.39 C 960.283 1039.03 947.854 1041.78 934.779 1039.84 z M 906.046 1020.51 L 908.8 1017.43 L 906.731 1015.07 C 905.541 1011.63 904.495 1010.86 905.594 1008.44 L 909.084 1007.81 C 927.427 1008.28 966.994 1006.63 982.256 1008.3 L 982.359 1006.85 L 983.672 1005.28 C 985.274 1006.11 986.916 1006.62 988.645 1007.12 L 988.459 1006.06 L 989.898 1007.31 L 990.11 1012.21 C 990.297 1016.22 990.917 1019.17 989.121 1022.66 C 986.375 1024.89 986.544 1024.76 983.171 1025.89 L 982.618 1023.28 C 960.593 1024.48 937.132 1023.12 914.956 1023.79 C 911.485 1023.89 907.226 1024.18 904.993 1021.96 L 906.046 1020.51 z M 957.497 1006.77 C 959.595 991.221 963.65 991.279 977.181 986.694 C 980.306 985.636 981.09 981.858 982.263 978.948 C 981.808 990.329 976.702 993.708 978.348 1003.9 L 976.965 1006.93 C 973.666 1007.21 962.066 1006.69 957.497 1006.77 z M 803.315 926.107 C 806.888 926.828 812.031 926.871 815.783 927.036 C 814.244 919.761 813.93 896.923 814.284 889.329 L 813.207 885.506 C 809.727 886.543 803.985 908.211 803.558 911.885 C 803.59 916.537 803.772 921.509 803.315 926.107 z M 878.977 1053.09 C 873.97 1052.96 868.619 1053.07 863.581 1053.08 L 832.57 1053.03 C 832.589 1047.8 832.412 1043.17 832.159 1037.98 C 831.759 1042.85 831.395 1047.72 831.068 1052.59 C 828.726 1051.66 829.374 1050.38 826.943 1047.42 L 825.105 1048.8 C 825.052 1052.43 824.551 1055.59 826.196 1058.7 C 837.148 1060.09 875.789 1058.59 889.684 1058.79 C 889.635 1052.06 889.232 1045.33 888.898 1038.61 L 888.059 1038.89 L 888.08 1031.56 L 886.699 1009.6 C 884.652 1018.98 883.393 1025.78 883.946 1035.5 L 883.933 1037.88 L 883.319 1037.66 C 883.343 1042.28 884.106 1048.61 882.239 1052.46 C 880.955 1052.77 880.283 1053.04 878.977 1053.09 z M 837.555 839.825 C 853.197 840.073 868.843 840.073 884.485 839.823 C 893.475 840.092 902.472 840.093 911.462 839.827 C 940.311 840.075 969.162 840.114 998.012 839.945 L 997.842 839.247 L 998.03 826.734 C 992.375 825.729 971.684 825.968 964.998 825.963 C 943.866 825.926 922.734 825.996 901.602 826.173 C 888.906 825.31 868.474 826.024 855.523 826.186 C 838.017 825.961 820.509 825.947 803.002 826.143 C 804.382 828.294 805.689 830.324 806.973 832.542 C 821.447 839.792 820.581 840.796 837.555 839.825 z M 755.359 1011.98 L 761.447 1008.86 L 761.626 1007.55 L 760.805 1006.92 C 757.561 1008.69 755.774 1008.82 754.665 1011.47 L 755.359 1011.98 z M 1092.41 960.131 C 1087.75 961.38 1088.26 960.459 1085.75 963.493 L 1085.4 966.153 C 1089.14 970.428 1099.2 968.826 1105.25 968.984 C 1109.22 968.027 1107.61 968.959 1110.44 966.4 C 1106.37 958.926 1099.83 959.774 1092.41 960.131 z M 1104.76 956.706 C 1108.94 956.646 1107.27 957.346 1110.24 955.392 C 1110.69 946.15 1096.24 947.776 1090.27 948.125 C 1087.69 950.529 1086.83 951.002 1085.56 954.347 L 1086.45 956.009 C 1092.56 957.687 1097.91 955.865 1104.76 956.706 z M 1209.5 989.912 C 1215.38 990.035 1231.03 990.876 1235.62 989.226 L 1236.59 987.072 C 1233.41 984.067 1226.34 985.208 1221.98 985.464 C 1216.59 985.569 1196.77 984.791 1193.68 987.843 L 1194.55 989.553 C 1200.23 990.053 1203.89 990.021 1209.5 989.912 z M 1214.91 1063.39 L 1214.61 1059.6 C 1209.77 1058.24 1165.41 1058.6 1158.43 1059.31 L 1159.38 1062.65 C 1174.93 1063.32 1199.77 1059.2 1214.91 1063.39 z M 1016.24 957.553 C 1020.65 958.342 1018.94 958.895 1021.92 957.148 C 1023.92 949.168 1013.9 948.709 1008.61 949.247 C 1004.19 950.065 1000.29 950.104 997.655 953.553 C 1000.82 956.523 1010.81 956.463 1016.24 957.553 z M 1152.23 879.669 C 1178.64 880.005 1205.07 879.274 1231.41 879.54 C 1249.52 879.497 1273.16 880.074 1290.89 879.38 C 1290.76 909.306 1288.74 954.487 1290.27 982.951 C 1294.36 983.466 1298.46 983.921 1302.56 984.317 C 1303.68 956.242 1303.13 920.904 1302.78 892.511 L 1302.95 878.657 L 1303.2 863.471 C 1282.32 862.324 1241.9 862.669 1220.94 863.229 C 1183.61 863.053 1146.27 863.073 1108.93 863.29 C 1108.92 885.33 1108.73 907.86 1109.14 929.906 C 1109.25 935.941 1113.77 946.787 1114.09 953.585 C 1114.23 956.705 1112.48 957.341 1110.88 959.203 C 1110.66 959.461 1112.78 965.665 1112.8 965.497 C 1112.03 971.12 1109.13 978.937 1109.1 984.42 C 1108.81 1037.25 1109.02 1090.24 1109.1 1143.06 C 1173.72 1143.56 1238.34 1143.5 1302.95 1142.89 L 1303.11 1038.57 C 1299.23 1036.81 1294.66 1034.88 1290.97 1032.88 C 1289.46 1058.99 1290.78 1097.64 1290.89 1124.67 C 1239.9 1122.84 1172.1 1123.24 1121.04 1124.94 L 1121.06 879.605 C 1131.36 879.629 1141.95 879.774 1152.23 879.669 z M 1150.26 1070.28 C 1150.51 1072.13 1150.27 1073.83 1151.51 1074.19 C 1160.7 1076.82 1176.93 1074.9 1186.76 1075.68 L 1185.69 1071.91 C 1179.16 1069.22 1159.39 1071.28 1150.26 1070.28 z M 751.584 1496.37 C 739.636 1496.53 727.352 1496.87 715.434 1496.55 L 716.384 1514.7 C 730.053 1520.21 757.338 1530.93 771.351 1531.22 L 773.578 1530.81 L 773.57 1529.6 C 770.266 1527.4 767.767 1525.93 764.297 1523.99 C 758.574 1519.3 756.482 1517.49 752.512 1511.22 C 751.57 1505.01 751.548 1502.45 751.584 1496.37 z M 1096.75 936.21 C 1091.66 937.201 1090.98 937.116 1086.74 939.824 L 1086.14 941.374 C 1089.83 945.188 1096.24 944.213 1101.25 944.099 C 1106.27 944.163 1105.43 944.927 1108.87 942.615 L 1109.2 940.493 C 1105.22 935.275 1102.91 935.975 1096.75 936.21 z M 1012.15 983.686 C 1014.95 981.69 1016.66 980.972 1017.73 977.753 C 1016.27 971.469 1008.58 972.101 1003.34 972.151 C 999.179 973.877 1000.58 972.505 998.457 975.775 C 1000.29 980.414 1007.54 982.734 1012.15 983.686 z M 999.835 960.315 C 998.124 963.044 997.695 963.028 997.951 966.109 C 1002.21 970.04 1012.6 967.744 1018.77 968.122 C 1020.4 965.449 1020 966.849 1020.09 963.795 C 1016.21 959.675 1005.16 959.822 999.835 960.315 z M 1202.01 909.035 L 1203.75 907.836 L 1203.22 905.941 C 1197 904.08 1171.67 905.318 1163.89 905.571 L 1161.87 906.228 L 1162.22 907.383 C 1169.75 909.255 1193.33 909.017 1202.01 909.035 z M 1102.74 981.687 C 1105.48 980.128 1106.28 980.069 1107.67 977.29 C 1105.87 971.106 1097.46 972.025 1092.17 972.158 C 1088.43 975.028 1089.4 973.27 1088.24 977.035 C 1091.64 981.976 1097.2 982.089 1102.74 981.687 z M 719.119 1073.08 C 721.139 1067.46 728.273 1048.65 727.635 1043.66 L 724.837 1043.08 C 721.409 1047.52 716.556 1063.24 716.672 1069.46 C 716.701 1071.02 717.779 1071.58 719.119 1073.08 z M 1157.02 1013.96 C 1155.66 1004.8 1154.16 1001.81 1146.74 995.875 L 1147.31 997.151 C 1149.38 1001.93 1151.24 1011.78 1152.88 1013.23 L 1157.02 1013.96 z M 1108.86 838.062 L 1195.22 838.132 C 1212.34 838.108 1233.02 838.552 1249.82 837.449 C 1261.32 837.666 1287.09 838.689 1297.69 837.435 L 1303.36 838.373 C 1303.17 834.226 1304.05 828.853 1301.89 825.761 C 1298.93 824.001 1294.82 824.689 1291.18 824.854 C 1282.23 824.676 1272.96 824.267 1264.06 825.082 C 1212.32 824.688 1160.57 824.63 1108.82 824.908 L 1108.86 838.062 z M 1163.08 997.306 L 1163.51 1000.14 C 1169.14 1002.13 1194.25 1000.92 1201.58 1000.54 L 1200.75 998.535 C 1197.44 998.057 1166.51 997.006 1163.08 997.306 z M 1249.21 997.241 C 1253.11 1003.8 1259.76 1002.03 1266.76 1001.49 L 1265.75 998.082 C 1260.73 995.811 1254.79 996.84 1249.21 997.241 z M 1164.61 942.405 L 1165.72 944.394 C 1176.32 944.963 1208.99 942.723 1216.31 944.487 L 1216.06 943.038 C 1200.39 944.53 1180.79 939.682 1164.61 942.405 z M 1154.76 1063.41 L 1153.48 1060.59 C 1149.06 1059.02 1143.12 1059.02 1138.4 1059.21 C 1141.86 1064.83 1143.12 1063.9 1149.5 1063.61 L 1154.76 1063.41 z M 1012.32 934.166 C 1014.17 928.857 1015.57 925.476 1013.48 920.285 C 1011.45 918.464 1011.42 918.701 1008.65 918.291 C 1008.47 923.391 1007.93 927.376 1009.36 932.244 C 1010.98 933.634 1010.38 933.296 1012.32 934.166 z M 1019.69 945.105 L 1020.98 943.081 C 1019.31 936.61 1006.26 937.772 1000.92 938.098 C 998.988 941.53 998.924 940.044 999.64 942.832 C 1006.77 945.038 1011.03 942.659 1019.69 945.105 z M 1140.61 1081.47 L 1140.11 1085.07 C 1143.63 1088.72 1151.88 1086.75 1157.06 1086.95 C 1156.21 1084.33 1156.52 1083.23 1154.78 1082.58 C 1151.32 1081.29 1144.54 1081.54 1140.61 1081.47 z M 1453.97 978.54 C 1455.04 970.148 1459.73 947.94 1458.21 941.572 L 1455.9 940.199 C 1455.08 944.596 1451.48 975.847 1452.86 978.567 L 1453.97 978.54 z M 1184.62 988.422 L 1184.47 987.031 C 1179.29 986.518 1162.7 986.285 1157.8 987.464 C 1163.17 990.673 1177.11 988.18 1184.62 988.422 z M 1225.22 941.5 L 1225.3 944.853 C 1229.66 947.207 1241.49 945.988 1246.96 945.843 C 1245.7 943.586 1245.73 942.471 1244.01 942.076 C 1237.83 940.661 1231.66 942.353 1225.22 941.5 z M 899.416 1152.78 C 892.107 1154.13 887.297 1161.18 888.697 1168.48 C 890.097 1175.78 897.172 1180.54 904.463 1179.09 C 911.689 1177.66 916.402 1170.66 915.014 1163.43 C 913.627 1156.19 906.659 1151.44 899.416 1152.78 z M 1198.18 918.497 L 1198.43 920.587 C 1200.68 920.962 1230.67 920.151 1237.27 920.327 L 1236.57 918.64 C 1230.77 917.721 1203.85 917.585 1198.18 918.497 z M 1162.36 917.297 C 1158.57 918.633 1159.37 917.493 1158.16 919.953 C 1163.37 921.497 1179.84 920.152 1186.25 920.091 L 1189.74 919.59 L 1189.35 918.554 C 1180.77 917.516 1171.08 917.512 1162.36 917.297 z M 1361.89 1498.89 C 1361.35 1501.29 1360.71 1502.34 1360.17 1504.11 C 1359.52 1506.35 1359.96 1508.77 1361.36 1510.63 C 1365.69 1516.33 1383.18 1514.44 1389.45 1512.99 C 1390.65 1513.01 1393.21 1512.72 1394.52 1512.62 C 1397.88 1509.5 1398.54 1505.79 1396.04 1501.86 L 1395.44 1499.25 C 1390.73 1496.87 1367.76 1498.18 1361.89 1498.89 z M 1270.03 1087.17 C 1269.56 1085.28 1269.53 1083.37 1268.33 1082.54 C 1251.62 1082.82 1234.91 1082.91 1218.21 1082.78 C 1210.06 1082.7 1194.55 1081.99 1187.02 1082.57 L 1187.28 1086.03 C 1191.01 1087.6 1224.08 1085.91 1230.51 1085.96 C 1242.96 1086.05 1257.66 1087.28 1270.03 1087.17 z M 1223.54 1059.43 L 1225.21 1062 C 1231.88 1063.06 1244.34 1062.04 1252.9 1062.6 L 1252.65 1059.81 C 1246.76 1058.23 1229.74 1058.78 1223.54 1059.43 z M 1234.31 997.579 L 1232.34 997.796 C 1225.01 998.544 1218.89 997.951 1210.77 998.955 L 1210.43 999.768 C 1213.24 1000.39 1214.21 1000.7 1217.11 1000.81 C 1222.11 1000.94 1239.51 1001.99 1243.53 1001.11 L 1243.74 997.538 C 1241.01 996.059 1237.63 997.1 1234.31 997.579 z M 1198.75 1099.05 L 1198.77 1095.53 C 1195.79 1093.05 1147.3 1094.26 1139.11 1094.01 C 1139.43 1097.74 1138.75 1097.72 1140.8 1099.67 C 1155.67 1100.71 1181.96 1099 1198.75 1099.05 z M 1172.13 928.467 C 1167.11 928.559 1167.34 927.799 1163.57 929.975 L 1163.28 931.473 C 1168.29 934.74 1191.36 933.474 1198.25 933.398 C 1202.87 933.294 1201.04 934.137 1204.11 931.244 L 1203.66 929.738 C 1196.33 927.262 1180.58 928.711 1172.13 928.467 z M 1164.39 1009.42 L 1164.29 1013.04 C 1166.73 1015 1214.59 1014.83 1218.62 1012.83 C 1217.22 1010.81 1217.3 1009.98 1215.57 1009.84 C 1198.83 1008.5 1181.2 1010.68 1164.39 1009.42 z M 1146.34 971.907 C 1145.61 979.209 1144.53 981.644 1141.55 988.348 L 1141.96 986.947 L 1143.63 986.324 L 1150.74 977.794 C 1157.43 977.451 1164.34 977.002 1171.01 976.944 C 1177.18 976.949 1183.45 977.114 1189.58 976.532 L 1190.06 975.106 C 1184.72 970.403 1154.93 971.919 1146.34 971.907 z M 1193.43 1071.2 L 1195.39 1075.04 C 1200.64 1076.5 1247.65 1074.76 1259.08 1075.35 L 1257.46 1071.48 C 1253.42 1070.17 1200.27 1070.64 1193.43 1071.2 z M 1175.53 805.206 C 1176.57 807.116 1177.01 808.971 1178.53 809.093 C 1195.69 810.466 1218.55 809.528 1235.62 809.764 L 1234.7 805.584 C 1231.78 804.343 1181.38 804.612 1175.53 805.206 z M 931.605 811.742 L 929.898 807.564 C 926.439 806.131 877.856 806.527 871.343 807.173 L 873.292 811.394 C 879.124 812.736 923.293 812.146 931.605 811.742 z M 1312.39 944.801 C 1312.95 952.953 1311.24 960.956 1312.36 969.084 C 1312.85 972.671 1313.98 972.636 1316.78 974.575 C 1323.55 976.505 1330.3 982.715 1336.38 983.849 C 1337.87 976.907 1317.32 952.336 1312.39 944.801 z M 1271.49 960.728 L 1269.51 957.446 C 1260.07 956.477 1242.27 958.008 1231.47 957.896 C 1200.32 957.573 1168.67 956.619 1137.55 956.875 L 1139.35 962.104 C 1141.52 962.693 1184.93 962.272 1189 961.89 C 1202.92 960.582 1263.92 964.418 1271.49 960.728 z M 1478.9 1498.14 L 1480.25 1514.69 C 1491.02 1507.64 1500.83 1506.75 1512.51 1512.81 L 1513.92 1513.79 C 1515.19 1510.72 1514.02 1502.04 1513.97 1498.09 L 1478.9 1498.14 z M 716.301 1158.73 C 712.598 1160.69 707.628 1162.63 706.953 1166.56 C 704.259 1182.28 688.977 1250.23 690.238 1261.66 C 691.104 1262.57 691.313 1263.02 692.35 1263.54 C 698.811 1234.81 706.055 1196.67 710.634 1167.52 C 713.569 1164.97 717.334 1162.73 717.834 1159.64 L 716.301 1158.73 z M 662.5 1548.98 L 710.938 1548.94 C 710.411 1543.37 710.057 1538.4 710.079 1532.76 C 710.129 1519.67 717.552 1505.32 708.747 1494.29 C 705.164 1459.01 703.649 1419.34 700.081 1384.43 C 698.602 1369.97 693.321 1269.57 690.463 1265.76 C 684.834 1294.57 646.583 1489.75 640.634 1496.61 C 640.217 1497.09 639.815 1497.58 639.397 1498.06 C 639.07 1498.43 638.73 1498.8 638.397 1499.17 C 635.807 1514.23 642.913 1533.38 645.722 1549.04 L 662.5 1548.98 z M 1138.56 1044.24 L 1140.18 1048.44 C 1143.08 1049.24 1171.79 1047.84 1177.65 1047.92 C 1198.08 1048.17 1219 1047.64 1239.52 1047.8 C 1248.84 1047.87 1263.08 1049.97 1271.29 1049.33 L 1270.73 1044.62 C 1263.95 1042.31 1154.44 1044.66 1138.56 1044.24 z M 1201.36 1151.73 C 1194.36 1154.51 1190.96 1162.45 1193.76 1169.44 C 1196.57 1176.42 1204.51 1179.81 1211.49 1176.98 C 1218.44 1174.17 1221.81 1166.26 1219.02 1159.3 C 1216.22 1152.34 1208.32 1148.95 1201.36 1151.73 z"/>
<path transform="translate(0,0)" fill="url(#Gradient5)" d="M 907.273 990.995 L 909.58 991.808 C 906.638 997.364 906.433 993.365 905.401 999.267 C 906.74 1002.28 907.114 1002.51 909.167 1004.99 C 909.162 1005.75 909.211 1007.12 909.084 1007.81 L 905.594 1008.44 C 904.495 1010.86 905.541 1011.63 906.731 1015.07 L 908.8 1017.43 L 906.046 1020.51 L 904.993 1021.96 C 907.226 1024.18 911.485 1023.89 914.956 1023.79 C 937.132 1023.12 960.593 1024.48 982.618 1023.28 L 983.171 1025.89 C 983.008 1027.21 982.624 1031.12 982.29 1032.18 C 966.421 1031.92 950.551 1031.84 934.681 1031.94 C 926.395 1031.95 913.551 1031.56 905.571 1032.42 C 905.017 1035.79 905.194 1034.23 906.715 1038.09 L 907.377 1041.37 C 911.324 1042.58 916.746 1040.9 921.2 1040.15 L 934.779 1039.84 C 947.854 1041.78 960.283 1039.03 972.218 1040.39 C 977.639 1047.99 968.711 1068.32 969.415 1074.61 L 972.837 1075.88 C 973.296 1075.2 974.786 1072.79 975.471 1072.25 C 979.151 1080.29 977.622 1081.23 982.035 1088.05 C 982.132 1091.13 982.566 1090.18 981.289 1092.55 C 977.44 1092.55 963.714 1092.08 961.269 1093.7 C 916.076 1095.19 862.677 1093.92 816.918 1093.92 C 816.517 1084.67 817.616 1081.39 811.26 1075.02 C 816.05 1070.77 818.197 1061.4 820.286 1055.07 C 821.468 1058.34 821.402 1058.79 823.715 1061.48 C 833.024 1062.82 881.245 1061.79 892.753 1061.7 C 892.587 1040.77 892.629 1019.85 892.877 998.93 L 837.777 999.055 L 838.884 995.421 C 845.803 1001.08 861.793 997.316 870.119 997.673 C 882.471 998.201 896.803 991.481 907.273 990.995 z"/>
<path transform="translate(0,0)" fill="rgb(77,104,226)" d="M 904.087 1044.32 C 911.374 1043.63 924.761 1043.65 932.333 1044.34 C 934.543 1044.55 934.109 1044.95 935.654 1047.18 C 930.346 1048.44 911.11 1048.71 905.547 1047.29 L 904.087 1044.32 z"/>
<path transform="translate(0,0)" fill="rgb(37,69,246)" d="M 961.269 1093.7 C 966.762 1093.64 977.826 1092.96 982.429 1094.82 C 982.731 1095.59 983.357 1097 983.503 1097.74 C 983.409 1103.99 982.301 1121.59 984.427 1126.26 L 982.796 1128.12 C 966.976 1128.2 949.404 1127.93 933.74 1128.75 C 921.614 1129.3 905.646 1128.45 893.101 1128.29 C 874.312 1127.59 854.992 1128.56 836.152 1128.13 C 829.982 1127.99 823.214 1128.02 817.11 1128.83 L 816.797 1111.52 C 817.025 1106 816.9 1099.52 816.918 1093.92 C 862.677 1093.92 916.076 1095.19 961.269 1093.7 z"/>
<path transform="translate(0,0)" fill="rgb(254,254,254)" d="M 819.932 1096.88 C 873.134 1096.79 927.11 1096.25 980.236 1096.84 C 980.414 1106.39 980.413 1115.95 980.232 1125.51 L 819.86 1125.75 L 819.932 1096.88 z"/>
<path transform="translate(0,0)" fill="rgb(254,254,254)" fill-opacity="0.819608" d="M 982.812 976.804 L 982.263 978.948 C 981.09 981.858 980.306 985.636 977.181 986.694 C 963.65 991.279 959.595 991.221 957.497 1006.77 C 962.066 1006.69 973.666 1007.21 976.965 1006.93 L 982.359 1006.85 L 982.256 1008.3 C 966.994 1006.63 927.427 1008.28 909.084 1007.81 C 909.211 1007.12 909.162 1005.75 909.167 1004.99 C 907.114 1002.51 906.74 1002.28 905.401 999.267 C 906.433 993.365 906.638 997.364 909.58 991.808 L 907.273 990.995 L 907.258 990.143 L 920.612 990.111 L 919.922 991.52 C 925.28 1000.06 940.348 996.796 941.846 990.122 L 944.878 989.451 L 946.132 987.265 C 946.864 986.482 947.562 985.31 948.186 984.384 L 947.728 982.407 C 944.457 980.633 937.836 981.235 933.507 981.07 C 935.272 980.584 938.12 980.156 940.006 979.807 L 939.762 980.016 L 939.658 978.785 C 932.405 978.949 925.151 979.05 917.896 979.088 L 917.657 978.306 C 930.026 977.914 974.514 980.019 982.812 976.804 z"/>
<path transform="translate(0,0)" fill="url(#Gradient4)" d="M 855.523 826.186 C 868.474 826.024 888.906 825.31 901.602 826.173 C 917.758 827.772 933.668 826.122 948.6 827.485 C 935.267 829.791 921.989 825.855 909.652 833.23 C 909.208 833.496 907.71 833.784 907.103 833.913 L 909.426 834.596 C 908.383 837.528 908.606 836.349 907.529 838.156 C 900.057 838.916 891.136 839.024 884.485 839.823 C 868.843 840.073 853.197 840.073 837.555 839.825 C 834.459 839.186 830.737 838.989 827.523 838.707 L 827.413 827.373 L 827.371 827.379 C 836.369 827.183 846.692 827.216 855.523 826.186 z"/>
<path transform="translate(0,0)" fill="url(#Gradient3)" d="M 990.11 1012.21 L 990.952 1012.03 C 991.755 1022.46 989.464 1029.89 989.894 1035.43 C 991.29 1053.42 992.66 1057.93 991.036 1076.57 C 989.961 1081.85 990.783 1086.02 989.926 1091.06 C 989.398 1094.15 987.19 1092.17 985.87 1096.7 L 984.155 1095.51 L 983.503 1097.74 C 983.357 1097 982.731 1095.59 982.429 1094.82 C 977.826 1092.96 966.762 1093.64 961.269 1093.7 C 963.714 1092.08 977.44 1092.55 981.289 1092.55 C 982.566 1090.18 982.132 1091.13 982.035 1088.05 C 977.622 1081.23 979.151 1080.29 975.471 1072.25 C 974.786 1072.79 973.296 1075.2 972.837 1075.88 L 969.415 1074.61 C 968.711 1068.32 977.639 1047.99 972.218 1040.39 C 973.401 1040.4 980.169 1039.8 981.657 1039.66 L 982.404 1038.07 L 981.096 1035.56 C 982.144 1034.42 981.84 1034.14 982.29 1032.18 C 982.624 1031.12 983.008 1027.21 983.171 1025.89 C 986.544 1024.76 986.375 1024.89 989.121 1022.66 C 990.917 1019.17 990.297 1016.22 990.11 1012.21 z"/>
<path transform="translate(0,0)" fill="rgb(254,254,254)" fill-opacity="0.4" d="M 901.602 826.173 C 922.734 825.996 943.866 825.926 964.998 825.963 C 971.684 825.968 992.375 825.729 998.03 826.734 C 993.352 826.819 981.479 826.509 977.889 827.858 L 978.577 827.55 L 977.727 828.895 C 979.19 833.117 979.949 835.272 977.072 839.22 C 972.503 839.137 971.297 839.921 968.144 837.845 C 966.985 834.077 966.83 833.31 964.052 830.544 C 958.008 830.936 930.274 832.179 926.494 833.99 C 922.124 840.296 918.609 838.754 911.462 839.827 C 902.472 840.093 893.475 840.092 884.485 839.823 C 891.136 839.024 900.057 838.916 907.529 838.156 C 908.606 836.349 908.383 837.528 909.426 834.596 L 907.103 833.913 C 907.71 833.784 909.208 833.496 909.652 833.23 C 921.989 825.855 935.267 829.791 948.6 827.485 C 933.668 826.122 917.758 827.772 901.602 826.173 z"/>
<path transform="translate(0,0)" fill="rgb(254,254,254)" fill-opacity="0.439216" d="M 803.823 1075.12 L 811.26 1075.02 C 817.616 1081.39 816.517 1084.67 816.918 1093.92 C 816.9 1099.52 817.025 1106 816.797 1111.52 C 816.113 1103.89 815.816 1096.11 815.096 1088.62 C 813.532 1096.14 810.419 1108.33 810.068 1115.45 C 810.056 1131.05 804.206 1127.52 804.174 1139.97 C 804.171 1141.03 803.884 1143.07 803.775 1144.12 C 802.326 1137.57 802.301 1082.35 803.823 1075.12 C 804.614 1080.25 803.49 1089.22 805.289 1092.4 L 806.496 1091.97 C 807.273 1083.88 812.617 1078.23 803.823 1075.12 z"/>
<path transform="translate(0,0)" fill="rgb(254,254,254)" fill-opacity="0.517647" d="M 984.015 964.761 C 987.327 964.03 985.791 963.826 988.786 965.355 C 991.647 969.926 991.402 971.373 996.067 973.05 L 995.448 975.874 C 989.272 980.367 992.73 991.69 991.881 998.529 C 991.597 1000.82 990.781 1005.76 990.85 1007.58 L 990.952 1012.03 L 990.11 1012.21 L 989.898 1007.31 L 988.459 1006.06 L 988.645 1007.12 C 986.916 1006.62 985.274 1006.11 983.672 1005.28 L 982.359 1006.85 L 976.965 1006.93 L 978.348 1003.9 C 976.702 993.708 981.808 990.329 982.263 978.948 L 982.812 976.804 C 982.321 973.339 983.22 971.281 984.011 967.697 L 984.015 964.761 z"/>
<path transform="translate(0,0)" fill="rgb(254,254,254)" fill-opacity="0.972549" d="M 840.574 989.956 L 907.258 990.143 L 907.273 990.995 C 896.803 991.481 882.471 998.201 870.119 997.673 C 861.793 997.316 845.803 1001.08 838.884 995.421 L 840.574 989.956 z M 863.377 994.671 L 863.056 993.267 C 858.151 992.656 857.259 992.884 852.247 993.516 L 851.681 994.663 C 855.037 995.666 859.745 994.946 863.377 994.671 z"/>
<path transform="translate(0,0)" fill="rgb(254,254,254)" fill-opacity="0.690196" d="M 852.247 993.516 C 857.259 992.884 858.151 992.656 863.056 993.267 L 863.377 994.671 C 859.745 994.946 855.037 995.666 851.681 994.663 L 852.247 993.516 z"/>
<path transform="translate(0,0)" fill="rgb(254,254,254)" fill-opacity="0.592157" d="M 911.462 839.827 C 918.609 838.754 922.124 840.296 926.494 833.99 C 930.274 832.179 958.008 830.936 964.052 830.544 C 966.83 833.31 966.985 834.077 968.144 837.845 C 971.297 839.921 972.503 839.137 977.072 839.22 C 983.344 839.257 991.747 839.553 997.842 839.247 L 998.012 839.945 C 969.162 840.114 940.311 840.075 911.462 839.827 z"/>
<path transform="translate(0,0)" fill="url(#Gradient2)" d="M 803.558 911.885 C 803.985 908.211 809.727 886.543 813.207 885.506 L 814.284 889.329 C 813.93 896.923 814.244 919.761 815.783 927.036 C 812.031 926.871 806.888 926.828 803.315 926.107 C 803.772 921.509 803.59 916.537 803.558 911.885 z"/>
<path transform="translate(0,0)" fill="rgb(254,254,254)" fill-opacity="0.960784" d="M 883.319 1037.66 L 883.933 1037.88 C 884.02 1044.8 883.825 1054.73 885.035 1061.26 C 887.296 1052.01 888.248 1048.61 888.059 1038.89 L 888.898 1038.61 C 889.232 1045.33 889.635 1052.06 889.684 1058.79 C 875.789 1058.59 837.148 1060.09 826.196 1058.7 C 824.551 1055.59 825.052 1052.43 825.105 1048.8 L 826.943 1047.42 C 829.374 1050.38 828.726 1051.66 831.068 1052.59 C 831.395 1047.72 831.759 1042.85 832.159 1037.98 C 832.412 1043.17 832.589 1047.8 832.57 1053.03 L 863.581 1053.08 L 862.675 1053.31 C 859.602 1054.09 848.282 1055.61 847.319 1055.99 C 853.176 1056.69 877.72 1058.96 878.977 1053.09 C 880.283 1053.04 880.955 1052.77 882.239 1052.46 C 884.106 1048.61 883.343 1042.28 883.319 1037.66 z"/>
<path transform="translate(0,0)" fill="rgb(254,254,254)" fill-opacity="0.407843" d="M 985.783 926.353 L 987.072 925.913 C 989.704 934.454 991.5 943.451 993.418 952.199 C 993.076 954.637 992.851 954.344 994.01 956.241 C 996.279 959.954 993.192 966.595 996.24 970.058 C 997.166 971.11 996.666 971.634 996.067 973.05 C 991.402 971.373 991.647 969.926 988.786 965.355 C 985.791 963.826 987.327 964.03 984.015 964.761 L 983.684 964.282 C 984.48 954.964 983.255 944.645 983.88 934.689 C 985.146 931.904 985.32 929.378 985.783 926.353 z"/>
<path transform="translate(0,0)" fill="url(#Gradient1)" d="M 810.068 1115.45 C 810.493 1119.23 812.095 1131.56 814.761 1133.95 C 819.795 1134.56 819.871 1136.73 825.356 1137.41 L 826.284 1136.4 C 829.7 1132.75 831.223 1131.17 835.632 1128.79 L 843.099 1129.3 L 841.813 1128.94 C 832.509 1135.32 833.448 1130.86 828.823 1142.66 C 824.506 1142.89 820.578 1142.87 816.426 1144.03 C 812.923 1144.41 807.461 1144.16 803.775 1144.12 C 803.884 1143.07 804.171 1141.03 804.174 1139.97 C 804.206 1127.52 810.056 1131.05 810.068 1115.45 z"/>
<path transform="translate(0,0)" fill="rgb(254,254,254)" fill-opacity="0.929412" d="M 992.215 1005.64 C 997.829 1014.48 992.85 1034.97 995.947 1044.95 L 996.792 1044.58 L 997.971 1038.71 C 998.02 1043.55 998.27 1050.33 997.989 1054.98 C 997.229 1060.79 995.091 1072.32 991.036 1076.57 C 992.66 1057.93 991.29 1053.42 989.894 1035.43 C 989.464 1029.89 991.755 1022.46 990.952 1012.03 L 990.85 1007.58 L 992.215 1005.64 z"/>
<path transform="translate(0,0)" fill="rgb(254,254,254)" fill-opacity="0.52549" d="M 817.11 1128.83 C 823.214 1128.02 829.982 1127.99 836.152 1128.13 C 854.992 1128.56 874.312 1127.59 893.101 1128.29 L 876.356 1129.39 C 881.911 1129.96 886.977 1130.27 892.324 1131.97 C 880.087 1131.73 849.926 1129.15 839.422 1136.76 C 835.212 1139.81 839.878 1141.75 829.929 1144.03 C 826.316 1144.43 820.245 1144.11 816.426 1144.03 C 820.578 1142.87 824.506 1142.89 828.823 1142.66 C 833.448 1130.86 832.509 1135.32 841.813 1128.94 L 843.099 1129.3 L 835.632 1128.79 C 829.788 1128.39 823.033 1128.72 817.11 1128.83 z"/>
<path transform="translate(0,0)" fill="rgb(1,0,8)" fill-opacity="0.984314" d="M 1401.38 1166.53 C 1398.19 1164.18 1395.47 1162.79 1393.93 1159.25 L 1395.02 1158.58 C 1399.27 1160.16 1400.84 1162.17 1404.15 1165.33 C 1409.76 1190.84 1414.53 1218.12 1419.56 1243.9 L 1419.03 1252.33 C 1412.26 1227.35 1407.13 1192.9 1401.38 1166.53 z"/>
<path transform="translate(0,0)" fill="rgb(254,254,254)" fill-opacity="0.215686" d="M 803.002 826.143 C 820.509 825.947 838.017 825.961 855.523 826.186 C 846.692 827.216 836.369 827.183 827.371 827.379 L 827.413 827.373 L 827.523 838.707 C 830.737 838.989 834.459 839.186 837.555 839.825 C 820.581 840.796 821.447 839.792 806.973 832.542 C 805.689 830.324 804.382 828.294 803.002 826.143 z"/>
<path transform="translate(0,0)" fill="rgb(254,254,254)" fill-opacity="0.776471" d="M 997.644 981.74 C 998.292 990.598 998.982 1029.64 997.971 1038.71 L 996.792 1044.58 L 995.947 1044.95 C 992.85 1034.97 997.829 1014.48 992.215 1005.64 C 993.192 994.912 997.882 1000.39 997.644 981.74 z"/>
<path transform="translate(0,0)" fill="rgb(254,254,254)" fill-opacity="0.635294" d="M 990.85 1007.58 C 990.781 1005.76 991.597 1000.82 991.881 998.529 C 992.73 991.69 989.272 980.367 995.448 975.874 L 997.644 981.74 C 997.882 1000.39 993.192 994.912 992.215 1005.64 L 990.85 1007.58 z"/>
<path transform="translate(0,0)" fill="rgb(250,248,249)" fill-opacity="0.67451" d="M 933.74 1128.75 C 949.404 1127.93 966.976 1128.2 982.796 1128.12 C 981.543 1129.24 979.666 1130.94 978.035 1130.96 C 961.835 1131.1 936.432 1131.74 920.892 1130.94 C 929.832 1128.98 948.022 1131.04 954.307 1129.36 C 949.525 1128.74 938.986 1128.84 933.74 1128.75 z"/>
<path transform="translate(0,0)" fill="rgb(254,254,254)" fill-opacity="0.654902" d="M 920.612 990.111 C 927.476 990.108 935.049 989.938 941.846 990.122 C 940.348 996.796 925.28 1000.06 919.922 991.52 L 920.612 990.111 z"/>
<path transform="translate(0,0)" fill="rgb(250,248,249)" fill-opacity="0.027451" d="M 883.946 1035.5 L 885.732 1026.19 L 886.612 1026.24 L 888.08 1031.56 L 888.059 1038.89 C 888.248 1048.61 887.296 1052.01 885.035 1061.26 C 883.825 1054.73 884.02 1044.8 883.933 1037.88 L 883.946 1035.5 z"/>
<path transform="translate(0,0)" fill="rgb(254,254,254)" fill-opacity="0.760784" d="M 971.464 974.935 C 968.946 974.375 967.51 974.246 965.181 973.151 C 975.434 969.752 972.514 965.142 982.015 969.302 L 984.011 967.697 C 983.22 971.281 982.321 973.339 982.812 976.804 C 979.446 974.455 975.677 974.984 971.464 974.935 z"/>
<path transform="translate(0,0)" fill="rgb(250,248,249)" fill-opacity="0.87451" d="M 863.581 1053.08 C 868.619 1053.07 873.97 1052.96 878.977 1053.09 C 877.72 1058.96 853.176 1056.69 847.319 1055.99 C 848.282 1055.61 859.602 1054.09 862.675 1053.31 L 863.581 1053.08 z"/>
<path transform="translate(0,0)" fill="rgb(254,254,254)" fill-opacity="0.301961" d="M 983.88 934.689 C 983.727 920.886 983.06 897.615 984.351 884.295 C 986.242 890.937 986.836 902.74 985.891 909.579 C 984.436 915.89 984.751 919.951 985.783 926.353 C 985.32 929.378 985.146 931.904 983.88 934.689 z"/>
<path transform="translate(0,0)" fill="rgb(254,254,254)" fill-opacity="0.231373" d="M 917.896 979.088 C 925.151 979.05 932.405 978.949 939.658 978.785 L 939.762 980.016 L 940.006 979.807 C 938.12 980.156 935.272 980.584 933.507 981.07 C 927.779 982.388 923.268 982.093 917.415 982.088 C 910.008 981.948 902.598 981.923 895.19 982.013 L 894.875 981.683 C 898.108 979.618 909.395 982.933 917.896 979.088 z"/>
<path transform="translate(0,0)" fill="rgb(254,254,254)" fill-opacity="0.219608" d="M 983.503 1097.74 L 984.155 1095.51 L 985.87 1096.7 C 985.996 1101.89 987.081 1123.05 985.043 1125.94 L 984.427 1126.26 C 982.301 1121.59 983.409 1103.99 983.503 1097.74 z"/>
<path transform="translate(0,0)" fill="rgb(250,248,249)" fill-opacity="0.384314" d="M 886.699 1009.6 L 888.08 1031.56 L 886.612 1026.24 L 885.732 1026.19 L 883.946 1035.5 C 883.393 1025.78 884.652 1018.98 886.699 1009.6 z"/>
<path transform="translate(0,0)" fill="rgb(254,254,254)" fill-opacity="0.627451" d="M 895.19 982.013 C 902.598 981.923 910.008 981.948 917.415 982.088 C 911.897 983.579 900.903 983.546 895.19 982.013 z"/>
<path transform="translate(0,0)" fill="rgb(254,254,254)" fill-opacity="0.505882" d="M 985.783 926.353 C 984.751 919.951 984.436 915.89 985.891 909.579 C 985.85 914.568 985.441 921.331 987.072 925.913 L 985.783 926.353 z"/>
<path transform="translate(0,0)" fill="rgb(37,69,246)" d="M 1342.15 1120.48 C 1392.38 1129.87 1445.71 1131.02 1495.7 1119.47 C 1497.36 1138.53 1500.51 1159.62 1500.36 1178.64 C 1499.49 1284.13 1511.14 1390.45 1520.22 1495.43 C 1504.89 1495.21 1487.22 1496.01 1472.54 1495.41 C 1469.98 1479.55 1466.03 1463 1462.74 1447.15 C 1456.93 1418.66 1450.95 1390.21 1444.81 1361.79 C 1438.43 1332.18 1431.56 1293.22 1424.1 1264.74 C 1423.04 1261.96 1420.31 1247.57 1419.56 1243.9 C 1414.53 1218.12 1409.76 1190.84 1404.15 1165.33 C 1400.84 1162.17 1399.27 1160.16 1395.02 1158.58 L 1393.93 1159.25 C 1395.47 1162.79 1398.19 1164.18 1401.38 1166.53 C 1407.13 1192.9 1412.26 1227.35 1419.03 1252.33 C 1419.49 1257.09 1420.19 1262.11 1419.83 1266.84 C 1415.13 1299.35 1413.44 1344.4 1411.03 1377.99 C 1408.33 1415.58 1404.24 1458.91 1403.82 1496.02 C 1388.2 1495.98 1370.32 1495.49 1354.89 1495.96 L 1353.16 1498.69 C 1349.47 1496.3 1350.88 1467.24 1349.96 1461.67 C 1349.46 1458.59 1349.5 1450.01 1349.35 1446.44 L 1344.8 1329.53 C 1343.88 1307.34 1341.98 1281.33 1342.18 1259.25 C 1344.67 1254.45 1343.08 1241.68 1344.13 1233.8 C 1344.96 1199.6 1342.71 1155.59 1342.15 1120.48 z"/>
<path transform="translate(0,0)" fill="rgb(1,0,8)" d="M 1344.13 1233.8 C 1346.29 1256.02 1346.32 1290.24 1347.14 1314.01 C 1348.62 1358 1350.39 1401.98 1352.45 1445.94 C 1352.69 1452.38 1353.56 1492.82 1354.89 1495.96 L 1353.16 1498.69 C 1349.47 1496.3 1350.88 1467.24 1349.96 1461.67 C 1349.46 1458.59 1349.5 1450.01 1349.35 1446.44 L 1344.8 1329.53 C 1343.88 1307.34 1341.98 1281.33 1342.18 1259.25 C 1344.67 1254.45 1343.08 1241.68 1344.13 1233.8 z"/>
<path transform="translate(0,0)" fill="rgb(254,254,254)" d="M 803.149 865.188 C 803.016 852.174 802.967 839.158 803.002 826.143 C 804.382 828.294 805.689 830.324 806.973 832.542 C 821.447 839.792 820.581 840.796 837.555 839.825 C 853.197 840.073 868.843 840.073 884.485 839.823 C 893.475 840.092 902.472 840.093 911.462 839.827 C 940.311 840.075 969.162 840.114 998.012 839.945 C 998.338 848.303 998.413 856.668 998.235 865.031 C 998.299 885.571 998.384 906.194 998.388 926.743 C 998.389 934.545 995.979 942.831 996.09 948.485 L 993.418 952.199 C 991.5 943.451 989.704 934.454 987.072 925.913 C 985.441 921.331 985.85 914.568 985.891 909.579 C 986.836 902.74 986.242 890.937 984.351 884.295 C 983.06 897.615 983.727 920.886 983.88 934.689 C 983.255 944.645 984.48 954.964 983.684 964.282 L 984.015 964.761 L 984.011 967.697 L 982.015 969.302 C 972.514 965.142 975.434 969.752 965.181 973.151 C 967.51 974.246 968.946 974.375 971.464 974.935 C 975.677 974.984 979.446 974.455 982.812 976.804 C 974.514 980.019 930.026 977.914 917.657 978.306 L 917.896 979.088 C 909.395 982.933 898.108 979.618 894.875 981.683 L 895.19 982.013 C 900.903 983.546 911.897 983.579 917.415 982.088 C 923.268 982.093 927.779 982.388 933.507 981.07 C 937.836 981.235 944.457 980.633 947.728 982.407 L 948.186 984.384 C 947.562 985.31 946.864 986.482 946.132 987.265 L 944.878 989.451 L 941.846 990.122 C 935.049 989.938 927.476 990.108 920.612 990.111 L 907.258 990.143 L 840.574 989.956 L 841.489 986.686 L 844.309 978.146 L 845.367 974.289 L 848.102 964.937 L 849.221 962.146 C 855.597 944.098 866.456 928.692 840.325 929.266 C 825.916 929.582 808.013 929.608 793.74 928.666 L 794.94 926.114 C 798.398 925.514 799.883 925.806 803.315 926.107 C 806.888 926.828 812.031 926.871 815.783 927.036 C 814.244 919.761 813.93 896.923 814.284 889.329 L 813.207 885.506 C 809.727 886.543 803.985 908.211 803.558 911.885 C 802.471 904.172 803.101 874.69 803.149 865.188 z"/>
<path transform="translate(0,0)" fill="rgb(37,69,246)" d="M 903.503 883.038 C 913.901 883.019 980.071 882.078 984.351 884.295 C 983.06 897.615 983.727 920.886 983.88 934.689 C 983.255 944.645 984.48 954.964 983.684 964.282 C 978.741 965.267 961.354 965.028 955.645 965.025 L 903.821 964.912 C 903.013 957.562 903.387 943.79 903.396 936.043 L 903.503 883.038 z"/>
<path transform="translate(0,0)" fill="rgb(254,254,254)" d="M 907.017 888.992 C 917.857 898.745 931.474 913.48 941.937 924.177 C 936.487 930.194 929.42 937.045 923.655 942.947 C 917.665 949.259 912.463 954.306 906.073 960.23 C 907.396 936.342 905.923 912.546 907.017 888.992 z"/>
<path transform="translate(0,0)" fill="rgb(254,254,254)" d="M 908.573 886.128 C 931.823 886.264 955.073 886.197 978.322 885.927 C 972.872 891.963 966.927 898.09 961.334 904.041 C 955.565 910.21 949.725 916.313 943.817 922.35 C 933.361 910.585 919.691 897.369 908.573 886.128 z"/>
<path transform="translate(0,0)" fill="rgb(254,254,254)" d="M 978.815 889.758 C 978.874 889.817 978.94 889.871 978.993 889.936 C 983.026 894.857 980.219 949.865 980.06 958.818 L 964.168 943.104 C 958.388 936.899 951.887 930.514 945.914 924.424 C 957.008 912.99 967.975 901.434 978.815 889.758 z"/>
<path transform="translate(0,0)" fill="rgb(254,254,254)" d="M 943.714 926.693 C 955.195 936.883 966.905 950.385 979.051 961.63 C 967.981 961.887 956.599 961.855 945.5 961.949 L 908.183 962.116 C 918.868 953.363 933.669 937.061 943.714 926.693 z"/>
<path transform="translate(0,0)" fill="rgb(37,69,246)" d="M 928.071 950.374 C 935.131 950.413 954.688 950.028 960.289 951.373 L 961.575 953.632 C 955.332 954.269 933.429 955.289 928.639 953.033 L 928.071 950.374 z"/>
<path transform="translate(0,0)" fill="rgb(37,69,246)" d="M 814.284 889.329 C 814.999 885.35 814.281 885.234 816.68 883.251 C 834.695 881.872 876.061 882.844 895.036 883.316 C 895.106 910.284 895.498 937.979 895.148 964.889 C 879.466 965.013 863.784 965.029 848.102 964.937 L 849.221 962.146 C 855.597 944.098 866.456 928.692 840.325 929.266 C 825.916 929.582 808.013 929.608 793.74 928.666 L 794.94 926.114 C 798.398 925.514 799.883 925.806 803.315 926.107 C 806.888 926.828 812.031 926.871 815.783 927.036 C 814.244 919.761 813.93 896.923 814.284 889.329 z"/>
<path transform="translate(0,0)" fill="rgb(254,254,254)" d="M 817.649 887.498 C 827.063 898.085 840.711 912.607 851.72 922.44 C 851.875 923.186 852.029 923.932 852.183 924.678 L 850.931 927.44 C 855.192 929.322 853.66 926.168 855.311 927.567 C 864.837 935.633 882.185 954.062 890.513 961.866 L 849.221 962.146 C 855.597 944.098 866.456 928.692 840.325 929.266 C 825.916 929.582 808.013 929.608 793.74 928.666 L 794.94 926.114 C 798.398 925.514 799.883 925.806 803.315 926.107 C 806.888 926.828 812.031 926.871 815.783 927.036 C 819.812 922.279 818.159 894.961 817.649 887.498 z"/>
<path transform="translate(0,0)" fill="rgb(254,254,254)" d="M 890.875 888.887 C 893.279 892.584 892.074 950.315 892.016 959.873 C 887.304 954.74 881.152 948.908 876.139 943.908 L 857.003 923.947 C 865.669 913.722 881.264 898.692 890.875 888.887 z"/>
<path transform="translate(0,0)" fill="rgb(254,254,254)" d="M 821.044 886.384 C 842.385 885.482 867.872 885.927 889.524 885.827 L 872.4 903.71 L 855.076 921.577 C 847.941 914.691 826.001 894.146 821.044 886.384 z"/>
<path transform="translate(0,0)" fill="rgb(37,69,246)" d="M 803.149 865.188 C 803.016 852.174 802.967 839.158 803.002 826.143 C 804.382 828.294 805.689 830.324 806.973 832.542 C 821.447 839.792 820.581 840.796 837.555 839.825 C 853.197 840.073 868.843 840.073 884.485 839.823 C 893.475 840.092 902.472 840.093 911.462 839.827 C 940.311 840.075 969.162 840.114 998.012 839.945 C 998.338 848.303 998.413 856.668 998.235 865.031 C 933.705 864.748 867.649 864.472 803.149 865.188 z"/>
<path transform="translate(0,0)" fill="rgb(254,254,254)" d="M 844.309 978.146 L 861.385 978.268 C 858.926 979.062 852.989 980.481 851.722 982.045 C 859.689 981.429 866.537 980.383 874.383 978.986 L 865.126 978.533 C 882.089 978.352 900.76 977.846 917.657 978.306 L 917.896 979.088 C 909.395 982.933 898.108 979.618 894.875 981.683 L 895.19 982.013 C 900.903 983.546 911.897 983.579 917.415 982.088 C 923.268 982.093 927.779 982.388 933.507 981.07 C 937.836 981.235 944.457 980.633 947.728 982.407 L 948.186 984.384 C 947.562 985.31 946.864 986.482 946.132 987.265 L 944.878 989.451 L 941.846 990.122 C 935.049 989.938 927.476 990.108 920.612 990.111 L 907.258 990.143 L 840.574 989.956 L 841.489 986.686 L 844.309 978.146 z"/>
<path transform="translate(0,0)" fill="rgb(37,69,246)" d="M 841.489 986.686 L 908.291 986.899 C 918.434 986.897 936.609 986.367 946.132 987.265 L 944.878 989.451 L 941.846 990.122 C 935.049 989.938 927.476 990.108 920.612 990.111 L 907.258 990.143 L 840.574 989.956 L 841.489 986.686 z"/>
<path transform="translate(0,0)" fill="rgb(37,69,246)" d="M 845.367 974.289 C 850.406 975.566 877.983 975.033 885.342 975.032 L 971.464 974.935 C 975.677 974.984 979.446 974.455 982.812 976.804 C 974.514 980.019 930.026 977.914 917.657 978.306 C 900.76 977.846 882.089 978.352 865.126 978.533 L 874.383 978.986 C 866.537 980.383 859.689 981.429 851.722 982.045 C 852.989 980.481 858.926 979.062 861.385 978.268 L 844.309 978.146 L 845.367 974.289 z"/>
<path transform="translate(0,0)" fill="rgb(37,69,246)" d="M 591.085 970.171 C 596.355 950.635 610.703 918.763 627.993 906.5 C 640.439 897.672 664.289 891.301 678.844 893.313 C 685.552 913.906 719.409 918.346 720.115 900.221 C 720.77 897.721 720.414 896.674 721.987 895.909 C 725.952 893.98 734.738 898.161 739.03 899.806 C 740.202 899.492 741.377 899.192 742.556 898.905 C 751.637 899.953 771.431 917.729 774.361 926.077 L 769.834 924.28 C 763.453 926.524 760.496 928.005 757.712 934.638 C 751.698 948.964 747.606 965.193 742.619 980.081 C 724.587 983.913 720.648 994.859 712.866 1000.09 C 699.11 1009.34 653.601 1020.98 636.736 1025.91 C 638.158 1017.75 639.177 1009.37 641.733 1001.37 C 644.255 993.467 660.03 957.164 655.747 952.508 C 653.963 954.985 646.178 982.654 644.433 988.086 C 629.405 981.697 607.687 976.463 591.085 970.171 z"/>
<path transform="translate(0,0)" fill="rgb(1,0,8)" d="M 742.556 898.905 C 751.637 899.953 771.431 917.729 774.361 926.077 L 769.834 924.28 C 761.068 912.634 751.858 906.112 739.03 899.806 C 740.202 899.492 741.377 899.192 742.556 898.905 z"/>
<path transform="translate(0,0)" fill="rgb(250,248,249)" d="M 769.834 924.28 L 774.361 926.077 L 774.922 928.75 C 769.623 929.306 767.96 929.212 764.222 933.111 C 754.936 942.8 748.849 991.249 738.815 995.896 C 737.791 993.301 737.978 994.278 738.063 991.528 C 734.065 992.488 733.278 995.462 728.373 998.913 C 737.161 998.164 741.872 997.59 750.283 995.838 C 756.726 994.496 772.713 989.091 777.963 989.351 L 778.296 990.404 L 777.283 991.8 C 778.897 991.39 778.158 991.798 779.417 990.438 L 780.055 991.699 C 775.548 998.608 753.526 1003.2 748.357 1007.51 L 749.581 1008.81 C 755.886 1008.79 759.056 1004 764.094 1004.96 C 767.52 1012.52 749.215 1017.77 743.745 1021.15 C 750.564 1019.79 755.138 1018.81 761.781 1016.8 L 752.108 1023.14 L 758.981 1022.52 C 757.945 1024.72 758.564 1023.8 757.249 1025.37 C 754.574 1026.28 751.694 1026.81 750.072 1028.91 C 753.341 1029.92 755.994 1028.82 759.423 1028 C 753.123 1045.1 729.124 1037.56 716.25 1042.08 C 709.337 1044.51 701.157 1050.23 694.149 1053.9 C 667.049 1068.08 612.557 1103.09 588.71 1067.53 C 574.392 1044.14 586.493 999.656 593.006 974.144 C 609.081 979.439 625.855 984.18 641.701 989.966 C 637.718 1003.44 635.812 1012.52 634.303 1026.49 C 631.135 1027.54 626.32 1028.62 624.284 1030.97 L 625.504 1031.87 C 644.49 1026.82 663.354 1021.32 682.08 1015.38 C 689.878 1012.99 703.966 1009.05 710.956 1005.48 C 715.352 1003.24 723.807 990.882 730.456 987.841 C 734.992 985.766 737.057 985.813 741.094 984.214 L 742.619 980.081 C 747.606 965.193 751.698 948.964 757.712 934.638 C 760.496 928.005 763.453 926.524 769.834 924.28 z M 755.359 1011.98 L 761.447 1008.86 L 761.626 1007.55 L 760.805 1006.92 C 757.561 1008.69 755.774 1008.82 754.665 1011.47 L 755.359 1011.98 z"/>
<path transform="translate(0,0)" fill="rgb(254,254,254)" fill-opacity="0.607843" d="M 760.805 1006.92 L 761.626 1007.55 L 761.447 1008.86 L 755.359 1011.98 L 754.665 1011.47 C 755.774 1008.82 757.561 1008.69 760.805 1006.92 z"/>
<path transform="translate(0,0)" fill="rgb(254,254,254)" d="M 1365.56 801.195 L 1366.74 797.754 C 1369.12 796.808 1409.64 795.121 1415.21 795.838 C 1421.82 796.689 1420.03 812.129 1423.06 817.915 C 1425.53 818.541 1430.07 815.085 1435.18 815.071 C 1436.77 815.811 1438.4 816.357 1438.61 818.456 C 1439.64 828.779 1436.07 832.182 1427.39 835.168 C 1428.84 844.764 1433.19 876.771 1427.38 884.466 C 1418.12 896.728 1384.29 898.489 1392.75 873.405 C 1402.7 866.042 1408.36 862.789 1416.25 853.208 C 1404.48 858.945 1397.07 862.806 1383.46 858.988 L 1380.23 860.623 C 1360.35 853.088 1359.35 817.187 1363.88 799.918 L 1365.56 801.195 z"/>
<path transform="translate(0,0)" fill="rgb(0,0,0)" d="M 1380.23 860.623 C 1360.35 853.088 1359.35 817.187 1363.88 799.918 L 1365.56 801.195 C 1364.64 822.49 1360.88 848.07 1383.46 858.988 L 1380.23 860.623 z"/>
<path transform="translate(0,0)" fill="rgb(0,0,0)" d="M 1379.4 817.707 C 1380.36 821.204 1378.47 827.377 1377.53 831 C 1379.57 837.448 1378.2 829.829 1382.65 834.511 L 1382.45 837.543 C 1377.58 836.424 1378.34 837.309 1375.04 834.376 C 1373.22 828.778 1376.87 823.181 1379.4 817.707 z"/>
<path transform="translate(0,0)" fill="rgb(0,0,0)" d="M 1393.81 839.089 L 1393.32 841.615 C 1389.12 845.651 1386.45 845.649 1380.58 845.957 C 1380.47 845.396 1380.64 844.269 1380.69 843.632 C 1385.93 842.271 1387.79 841.783 1392.74 839.576 L 1393.81 839.089 z"/>
<path transform="translate(0,0)" fill="rgb(37,69,246)" d="M 837.777 999.055 L 892.877 998.93 C 892.629 1019.85 892.587 1040.77 892.753 1061.7 C 881.245 1061.79 833.024 1062.82 823.715 1061.48 C 821.402 1058.79 821.468 1058.34 820.286 1055.07 C 821.554 1050.8 822.622 1049.02 824.701 1045.01 L 825.105 1048.8 C 825.052 1052.43 824.551 1055.59 826.196 1058.7 C 837.148 1060.09 875.789 1058.59 889.684 1058.79 C 889.635 1052.06 889.232 1045.33 888.898 1038.61 L 888.059 1038.89 L 888.08 1031.56 L 886.699 1009.6 C 884.652 1018.98 883.393 1025.78 883.946 1035.5 L 883.933 1037.88 L 883.319 1037.66 C 883.343 1042.28 884.106 1048.61 882.239 1052.46 C 880.955 1052.77 880.283 1053.04 878.977 1053.09 C 873.97 1052.96 868.619 1053.07 863.581 1053.08 L 832.57 1053.03 C 832.589 1047.8 832.412 1043.17 832.159 1037.98 C 832.645 1032.79 832.188 1026.98 831.36 1021.86 C 832.283 1017.61 834.022 1012.44 835.307 1008.19 L 836.969 1002.07 L 837.777 999.055 z"/>
<path transform="translate(0,0)" fill="rgb(37,69,246)" d="M 837.777 999.055 L 892.877 998.93 C 892.629 1019.85 892.587 1040.77 892.753 1061.7 C 881.245 1061.79 833.024 1062.82 823.715 1061.48 C 821.402 1058.79 821.468 1058.34 820.286 1055.07 C 821.554 1050.8 822.622 1049.02 824.701 1045.01 L 825.105 1048.8 C 825.052 1052.43 824.551 1055.59 826.196 1058.7 C 837.148 1060.09 875.789 1058.59 889.684 1058.79 C 889.635 1052.06 889.232 1045.33 888.898 1038.61 L 888.059 1038.89 L 888.08 1031.56 L 886.699 1009.6 C 884.652 1018.98 883.393 1025.78 883.946 1035.5 L 883.933 1037.88 L 883.319 1037.66 L 882.987 1008.88 C 872.623 1008.73 844.005 1009.82 835.307 1008.19 L 836.969 1002.07 L 837.777 999.055 z"/>
<path transform="translate(0,0)" fill="rgb(254,254,254)" d="M 836.969 1002.07 L 889.459 1002.06 C 889.473 1014.5 889.456 1026.18 888.898 1038.61 L 888.059 1038.89 L 888.08 1031.56 L 886.699 1009.6 C 884.652 1018.98 883.393 1025.78 883.946 1035.5 L 883.933 1037.88 L 883.319 1037.66 L 882.987 1008.88 C 872.623 1008.73 844.005 1009.82 835.307 1008.19 L 836.969 1002.07 z"/>
<path transform="translate(0,0)" fill="rgb(254,254,254)" d="M 997.989 1054.98 C 998.306 1083.52 998.791 1115.53 997.798 1143.93 L 829.929 1144.03 C 839.878 1141.75 835.212 1139.81 839.422 1136.76 C 849.926 1129.15 880.087 1131.73 892.324 1131.97 C 905.833 1133.62 907.764 1132.02 920.892 1130.94 C 936.432 1131.74 961.835 1131.1 978.035 1130.96 C 979.666 1130.94 981.543 1129.24 982.796 1128.12 L 984.427 1126.26 L 985.043 1125.94 C 987.081 1123.05 985.996 1101.89 985.87 1096.7 C 987.19 1092.17 989.398 1094.15 989.926 1091.06 C 990.783 1086.02 989.961 1081.85 991.036 1076.57 C 995.091 1072.32 997.229 1060.79 997.989 1054.98 z"/>
<path transform="translate(0,0)" fill="rgb(254,254,254)" d="M 831.36 1021.86 C 832.188 1026.98 832.645 1032.79 832.159 1037.98 C 831.759 1042.85 831.395 1047.72 831.068 1052.59 C 828.726 1051.66 829.374 1050.38 826.943 1047.42 L 825.105 1048.8 L 824.701 1045.01 C 826.101 1037.08 828.834 1029.51 831.36 1021.86 z"/>
<path transform="translate(0,0)" fill="rgb(254,254,254)" d="M 1323.03 989.815 C 1317.36 987.598 1303.19 982.379 1305.83 974.672 C 1308.59 974.068 1308.99 974.365 1311.85 974.626 C 1322.72 980.305 1331.38 984.736 1341.21 992.321 C 1353.68 998.973 1415.66 1012.53 1432.35 1017.38 C 1435.16 1018.2 1443.96 1019.14 1446.31 1017.16 C 1453.34 1011.24 1454.6 989.486 1455.5 980.843 C 1475.13 983.23 1494.73 985.824 1514.31 988.622 C 1502.73 1127.46 1416.85 1073.48 1332.85 1035.31 C 1323.46 1036.83 1293.71 1040.27 1291.66 1027.21 L 1295.63 1024.99 L 1295.36 1023.42 C 1292.27 1020.59 1288.86 1018.83 1290.16 1014.57 L 1294.7 1012.36 L 1294.58 1010.65 C 1283.07 1002 1293.73 1002.38 1295.33 997.657 C 1290.45 993.839 1275.72 994.89 1269 986.583 L 1269.47 985.067 C 1277.46 981.81 1310.34 988.974 1323.03 989.815 z"/>
<path transform="translate(0,0)" fill="rgb(37,69,246)" d="M 622.468 1085.52 C 660.759 1081.84 708.109 1043.81 724.837 1043.08 C 721.409 1047.52 716.556 1063.24 716.672 1069.46 C 716.701 1071.02 717.779 1071.58 719.119 1073.08 C 724.198 1078.87 758.484 1076.2 768.095 1076.06 C 769.585 1088.86 771.272 1101.88 772.158 1114.72 C 725.041 1126.92 663.787 1122.53 616.855 1110.48 C 618.51 1102.12 620.381 1093.79 622.468 1085.52 z"/>
<path transform="translate(0,0)" fill="rgb(37,69,246)" d="M 1108.86 838.062 L 1195.22 838.132 C 1212.34 838.108 1233.02 838.552 1249.82 837.449 C 1261.32 837.666 1287.09 838.689 1297.69 837.435 L 1303.36 838.373 C 1303.57 847.107 1303.48 854.734 1303.2 863.471 C 1282.32 862.324 1241.9 862.669 1220.94 863.229 C 1183.61 863.053 1146.27 863.073 1108.93 863.29 C 1108.51 854.006 1108.47 847.343 1108.86 838.062 z"/>
<path transform="translate(0,0)" fill="rgb(254,254,254)" d="M 1268 845.446 C 1270.38 844.655 1272.97 845.748 1274.07 848.002 C 1275.16 850.256 1274.42 852.973 1272.32 854.352 C 1270.7 855.42 1268.61 855.453 1266.96 854.436 C 1265.31 853.419 1264.39 851.538 1264.62 849.61 C 1264.84 847.683 1266.16 846.059 1268 845.446 z"/>
<path transform="translate(0,0)" fill="rgb(254,254,254)" d="M 1284.62 846.633 C 1286.73 844.946 1289.8 845.285 1291.49 847.389 C 1293.19 849.494 1292.86 852.571 1290.76 854.27 C 1288.65 855.976 1285.56 855.645 1283.86 853.531 C 1282.16 851.418 1282.5 848.326 1284.62 846.633 z"/>
<path transform="translate(0,0)" fill="rgb(254,254,254)" d="M 730.899 799.42 C 734.793 804.448 738.79 809.15 740.752 815.288 C 750.141 844.666 738.045 893.255 698.046 870.037 L 696.861 870.851 C 697.832 877.065 711.884 884.294 717.44 886.524 C 717.644 891.201 717.998 896.129 717.724 900.778 C 707.37 917.251 683.303 907.048 681.274 888.447 C 682.915 880.314 685.004 858.588 682.027 850.883 C 681.25 848.872 663.941 843.628 673.92 831.457 C 678.644 828.927 684.286 830.57 689.675 830.637 C 712.015 830.913 722.78 817.499 730.899 799.42 z"/>
<path transform="translate(0,0)" fill="rgb(0,0,0)" d="M 727.929 833.466 L 730.131 834.848 C 732.417 840.078 735.43 848.321 732.02 853.258 C 729.642 852.362 730.383 852.812 728.371 851.242 C 729.993 846.139 728.629 838.861 727.929 833.466 z"/>
<path transform="translate(0,0)" fill="rgb(0,0,0)" d="M 715.304 854.745 C 717.834 855.648 728.965 859.548 730.043 860.557 C 722.921 863.8 718.997 860.601 715.304 854.745 z"/>
<path transform="translate(0,0)" fill="rgb(254,254,254)" d="M 602.605 1496.3 C 613.093 1496.91 624.631 1496.8 635.209 1496.92 L 634.818 1501.51 C 633.382 1518.4 637.226 1519.43 638.014 1532.05 L 637.085 1532.71 L 630.247 1530.56 C 618.267 1526.1 608.358 1529.3 596.682 1532.55 C 599.664 1519.47 601.386 1509.62 602.605 1496.3 z"/>
<path transform="translate(0,0)" fill="rgb(254,254,254)" fill-opacity="0.952941" d="M 715.434 1496.55 C 727.352 1496.87 739.636 1496.53 751.584 1496.37 C 751.548 1502.45 751.57 1505.01 752.512 1511.22 C 750.577 1516.87 750.623 1514.62 751.74 1519.99 C 753.72 1522.27 753.116 1522.11 755.572 1523.46 L 757.053 1523.3 C 761.759 1528.9 764.067 1529.09 771.351 1531.22 C 757.338 1530.93 730.053 1520.21 716.384 1514.7 L 715.434 1496.55 z"/>
<path transform="translate(0,0)" fill="rgb(254,254,254)" fill-opacity="0.152941" d="M 1235.67 864.006 C 1244.23 863.321 1259.36 864.101 1268.41 864.35 L 1268.83 864.937 C 1268.33 866.94 1268.19 868.431 1268.13 870.495 C 1260.75 878.944 1242.37 876.77 1231.41 879.54 C 1205.07 879.274 1178.64 880.005 1152.23 879.669 C 1158.45 876.231 1214.11 881.571 1225.93 877.523 L 1227.1 876.197 L 1227.22 876.319 C 1224.68 876.048 1225.05 875.985 1222.57 875.06 C 1221.28 872.55 1221.33 873.84 1222.04 871.147 L 1224.99 869.719 L 1225.59 867.59 L 1224.72 866.116 L 1225.07 865.558 C 1230.03 865.512 1231.01 865.573 1235.67 864.006 z"/>
<path transform="translate(0,0)" fill="rgb(250,248,249)" fill-opacity="0.54902" d="M 1220.94 863.229 C 1241.9 862.669 1282.32 862.324 1303.2 863.471 L 1302.95 878.657 L 1301.48 874.343 L 1297.71 874.815 C 1296.26 872.148 1296.55 867.758 1296.47 864.514 C 1292.95 863.61 1290.18 864.112 1286.55 864.388 C 1285.94 867.63 1289.11 871.997 1290.93 874.696 L 1291.47 875.477 L 1290.89 879.38 C 1273.16 880.074 1249.52 879.497 1231.41 879.54 C 1242.37 876.77 1260.75 878.944 1268.13 870.495 C 1268.19 868.431 1268.33 866.94 1268.83 864.937 L 1268.41 864.35 C 1259.36 864.101 1244.23 863.321 1235.67 864.006 L 1220.94 863.229 z"/>
<path transform="translate(0,0)" fill="rgb(250,248,249)" fill-opacity="0.243137" d="M 1478.9 1498.14 L 1513.97 1498.09 C 1514.02 1502.04 1515.19 1510.72 1513.92 1513.79 L 1512.51 1512.81 C 1500.83 1506.75 1491.02 1507.64 1480.25 1514.69 L 1478.9 1498.14 z"/>
<path transform="translate(0,0)" fill="rgb(254,254,254)" fill-opacity="0.203922" d="M 1312.39 944.801 C 1317.32 952.336 1337.87 976.907 1336.38 983.849 C 1330.3 982.715 1323.55 976.505 1316.78 974.575 C 1313.98 972.636 1312.85 972.671 1312.36 969.084 C 1311.24 960.956 1312.95 952.953 1312.39 944.801 z"/>
<path transform="translate(0,0)" fill="rgb(254,254,254)" d="M 794.267 992.915 C 810.71 993.011 809.766 1007.08 797.044 1015.37 C 779.46 1015.53 781.619 1001.28 794.267 992.915 z"/>
<path transform="translate(0,0)" fill="rgb(254,254,254)" fill-opacity="0.8" d="M 1264.06 825.082 C 1272.96 824.267 1282.23 824.676 1291.18 824.854 C 1292.7 829.503 1291.67 830.926 1289.29 835.69 C 1291.45 837.477 1294.68 837.22 1297.69 837.435 C 1287.09 838.689 1261.32 837.666 1249.82 837.449 C 1253.52 837.394 1261.43 837.742 1264.36 836.287 C 1264.68 832.32 1263.68 829.323 1264.06 825.082 z"/>
<path transform="translate(0,0)" fill="rgb(254,254,254)" fill-opacity="0.984314" d="M 1389.45 1512.99 C 1383.18 1514.44 1365.69 1516.33 1361.36 1510.63 C 1359.96 1508.77 1359.52 1506.35 1360.17 1504.11 C 1360.71 1502.34 1361.35 1501.29 1361.89 1498.89 L 1373.6 1499.6 C 1371.53 1501.18 1370.62 1501.11 1368 1501.85 L 1368.42 1502.95 L 1369.84 1503.25 C 1381.84 1518.86 1378.5 1507.34 1389.45 1512.99 z"/>
<path transform="translate(0,0)" fill="rgb(37,69,246)" fill-opacity="0.890196" d="M 1172.13 928.467 C 1180.58 928.711 1196.33 927.262 1203.66 929.738 L 1204.11 931.244 C 1201.04 934.137 1202.87 933.294 1198.25 933.398 C 1191.36 933.474 1168.29 934.74 1163.28 931.473 L 1163.57 929.975 C 1167.34 927.799 1167.11 928.559 1172.13 928.467 z M 1190 931.505 C 1181.7 931.059 1172.76 930.085 1164.69 931.504 C 1171.77 932.629 1182.56 931.804 1190 931.505 z"/>
<path transform="translate(0,0)" fill="rgb(37,69,246)" fill-opacity="0.321569" d="M 1164.69 931.504 C 1172.76 930.085 1181.7 931.059 1190 931.505 C 1182.56 931.804 1171.77 932.629 1164.69 931.504 z"/>
<path transform="translate(0,0)" fill="rgb(254,254,254)" fill-opacity="0.956863" d="M 1396.04 1501.86 C 1398.54 1505.79 1397.88 1509.5 1394.52 1512.62 C 1393.21 1512.72 1390.65 1513.01 1389.45 1512.99 C 1378.5 1507.34 1381.84 1518.86 1369.84 1503.25 C 1375.17 1505.8 1392.65 1504.32 1396.04 1501.86 z"/>
<path transform="translate(0,0)" fill="rgb(254,254,254)" fill-opacity="0.0117647" d="M 1158.43 1059.31 C 1165.41 1058.6 1209.77 1058.24 1214.61 1059.6 L 1214.91 1063.39 C 1199.77 1059.2 1174.93 1063.32 1159.38 1062.65 L 1158.43 1059.31 z"/>
<path transform="translate(0,0)" fill="rgb(254,254,254)" fill-opacity="0.360784" d="M 1291.18 824.854 C 1294.82 824.689 1298.93 824.001 1301.89 825.761 C 1304.05 828.853 1303.17 834.226 1303.36 838.373 L 1297.69 837.435 C 1294.68 837.22 1291.45 837.477 1289.29 835.69 C 1291.67 830.926 1292.7 829.503 1291.18 824.854 z"/>
<path transform="translate(0,0)" fill="rgb(250,248,249)" fill-opacity="0.776471" d="M 1361.89 1498.89 C 1367.76 1498.18 1390.73 1496.87 1395.44 1499.25 L 1396.04 1501.86 C 1392.65 1504.32 1375.17 1505.8 1369.84 1503.25 L 1368.42 1502.95 L 1368 1501.85 C 1370.62 1501.11 1371.53 1501.18 1373.6 1499.6 L 1361.89 1498.89 z"/>
<path transform="translate(0,0)" fill="rgb(254,254,254)" fill-opacity="0.376471" d="M 1290.89 879.38 L 1291.47 875.477 L 1290.93 874.696 C 1289.11 871.997 1285.94 867.63 1286.55 864.388 C 1290.18 864.112 1292.95 863.61 1296.47 864.514 C 1296.55 867.758 1296.26 872.148 1297.71 874.815 L 1301.48 874.343 L 1302.95 878.657 L 1302.78 892.511 L 1302.7 890.962 C 1302.46 886.217 1303.05 882.498 1299.82 879.586 C 1296 879.226 1294.69 879.154 1290.89 879.38 z"/>
<path transform="translate(0,0)" fill="rgb(254,254,254)" fill-opacity="0.517647" d="M 724.837 1043.08 L 727.635 1043.66 C 728.273 1048.65 721.139 1067.46 719.119 1073.08 C 717.779 1071.58 716.701 1071.02 716.672 1069.46 C 716.556 1063.24 721.409 1047.52 724.837 1043.08 z"/>
<path transform="translate(0,0)" fill="rgb(37,69,246)" fill-opacity="0.00784314" d="M 1234.31 997.579 C 1237.63 997.1 1241.01 996.059 1243.74 997.538 L 1243.53 1001.11 C 1239.51 1001.99 1222.11 1000.94 1217.11 1000.81 C 1214.21 1000.7 1213.24 1000.39 1210.43 999.768 L 1210.77 998.955 C 1218.89 997.951 1225.01 998.544 1232.34 997.796 L 1234.31 997.579 z"/>
<path transform="translate(0,0)" fill="rgb(254,254,254)" fill-opacity="0.027451" d="M 1455.9 940.199 L 1458.21 941.572 C 1459.73 947.94 1455.04 970.148 1453.97 978.54 L 1452.86 978.567 C 1451.48 975.847 1455.08 944.596 1455.9 940.199 z"/>
<path transform="translate(0,0)" fill="rgb(37,69,246)" fill-opacity="0.0862745" d="M 1164.61 942.405 C 1180.79 939.682 1200.39 944.53 1216.06 943.038 L 1216.31 944.487 C 1208.99 942.723 1176.32 944.963 1165.72 944.394 L 1164.61 942.405 z"/>
<path transform="translate(0,0)" fill="rgb(254,254,254)" fill-opacity="0.0666667" d="M 1223.54 1059.43 C 1229.74 1058.78 1246.76 1058.23 1252.65 1059.81 L 1252.9 1062.6 C 1244.34 1062.04 1231.88 1063.06 1225.21 1062 L 1223.54 1059.43 z"/>
<path transform="translate(0,0)" fill="rgb(37,69,246)" fill-opacity="0.0235294" d="M 1162.36 917.297 C 1171.08 917.512 1180.77 917.516 1189.35 918.554 L 1189.74 919.59 L 1186.25 920.091 C 1179.84 920.152 1163.37 921.497 1158.16 919.953 C 1159.37 917.493 1158.57 918.633 1162.36 917.297 z"/>
<path transform="translate(0,0)" fill="rgb(37,69,246)" fill-opacity="0.192157" d="M 1198.18 918.497 C 1203.85 917.585 1230.77 917.721 1236.57 918.64 L 1237.27 920.327 C 1230.67 920.151 1200.68 920.962 1198.43 920.587 L 1198.18 918.497 z"/>
<path transform="translate(0,0)" fill="rgb(37,69,246)" fill-opacity="0.027451" d="M 1146.74 995.875 C 1154.16 1001.81 1155.66 1004.8 1157.02 1013.96 L 1152.88 1013.23 C 1151.24 1011.78 1149.38 1001.93 1147.31 997.151 L 1146.74 995.875 z"/>
<path transform="translate(0,0)" fill="rgb(250,248,249)" fill-opacity="0.976471" d="M 752.512 1511.22 C 756.482 1517.49 758.574 1519.3 764.297 1523.99 C 760.666 1522.95 760.655 1523.09 757.053 1523.3 L 755.572 1523.46 C 753.116 1522.11 753.72 1522.27 751.74 1519.99 C 750.623 1514.62 750.577 1516.87 752.512 1511.22 z"/>
<path transform="translate(0,0)" fill="rgb(250,248,249)" fill-opacity="0.0509804" d="M 757.053 1523.3 C 760.655 1523.09 760.666 1522.95 764.297 1523.99 C 767.767 1525.93 770.266 1527.4 773.57 1529.6 L 773.578 1530.81 L 771.351 1531.22 C 764.067 1529.09 761.759 1528.9 757.053 1523.3 z"/>
<path transform="translate(0,0)" fill="rgb(77,104,226)" fill-opacity="0.0588235" d="M 1157.8 987.464 C 1162.7 986.285 1179.29 986.518 1184.47 987.031 L 1184.62 988.422 C 1177.11 988.18 1163.17 990.673 1157.8 987.464 z"/>
<path transform="translate(0,0)" fill="rgb(37,69,246)" d="M 1042.51 494.433 C 1111.6 488.385 1184.83 528.217 1221.02 586.235 C 1242.6 620.852 1249.01 647.396 1252.88 687.074 L 1211.33 687.005 C 1210.87 654.679 1200.05 623.354 1180.46 597.639 C 1152.34 560.573 1113.56 541.409 1068.25 535.062 C 1065.49 534.952 1062.74 534.856 1059.98 534.774 C 970.773 532.187 896.858 596.629 894.834 687.114 C 881.647 686.75 867.279 687.039 854 687.064 C 860.063 580.307 935.203 501.636 1042.51 494.433 z"/>
<path transform="translate(0,0)" fill="rgb(0,0,0)" d="M 1005.82 602.255 C 1026.01 602.045 1046.21 601.94 1066.41 601.942 C 1078.45 601.913 1091.65 601.384 1103.55 602.825 C 1112.22 603.874 1124.9 614.549 1125.45 623.922 C 1127.13 652.841 1125.77 682.314 1126.31 711.29 C 1126.49 721.28 1126.72 730.378 1120.18 738.26 C 1114.67 744.901 1109.13 748.183 1100.76 749.339 C 1086.02 750.667 1067.45 750.231 1051.47 749.935 C 1034.21 749.616 1005.83 753.119 990.664 744.028 C 986.696 741.65 980.245 732.684 979.923 728.056 C 977.632 695.085 978.45 660.908 979.465 627.826 C 979.938 613.189 992.204 604.594 1005.82 602.255 z"/>
<path transform="translate(0,0)" fill="rgb(37,69,246)" d="M 1027.77 637.704 C 1037.13 638.245 1091.14 669.396 1091.01 678.139 C 1086.95 684.298 1074.15 690.891 1067.34 694.882 C 1060.42 698.928 1034.18 716.178 1027.48 714.006 C 1024.86 710.711 1022.87 704.18 1023.2 700.266 C 1024.38 686.267 1019.29 647.616 1027.77 637.704 z"/>
<path transform="translate(0,0)" fill="rgb(0,0,0)" d="M 852.183 1259.87 C 859.63 1260.44 872.949 1259.97 880.826 1259.95 L 880.364 1272.99 C 917.015 1273.34 954.159 1272.64 990.992 1272.9 C 992.239 1287.34 991.352 1307.11 991.015 1322.07 C 1006.05 1322 1096.76 1320.57 1104.62 1323.03 L 1105.08 1324.94 C 1103.3 1326.53 1102.23 1325.92 1099.07 1325.99 L 987.989 1326.01 C 988.111 1309.42 988.134 1292.83 988.06 1276.24 C 952.449 1275.81 916.263 1276.24 880.534 1276.04 C 880.577 1279.62 880.871 1283.68 881.045 1287.31 C 871.601 1287.06 861.654 1287.17 852.168 1287.13 L 852.183 1259.87 z"/>
<path transform="translate(0,0)" fill="rgb(0,0,0)" d="M 1018.11 1231.35 C 994.258 1216.83 1022.77 1203.08 1031.02 1217.47 C 1031.82 1223.66 1027.16 1228.36 1022 1230.93 C 1021.73 1255.62 1021.66 1280.31 1021.78 1305.01 C 1091.22 1305.11 1163.18 1303.69 1232.31 1304.97 C 1232.74 1322.37 1232.82 1339.77 1232.54 1357.17 L 1231.78 1359.84 L 1229.33 1360.88 C 1228.53 1344.62 1229.08 1324.73 1229.12 1308.21 C 1160.22 1310.78 1086.75 1306.59 1018.51 1308.88 L 1018.11 1231.35 z"/>
<path transform="translate(0,0)" fill="rgb(0,0,0)" d="M 966.199 1288.5 C 966.747 1289.05 967.294 1289.59 967.842 1290.13 C 969.578 1309.28 968.433 1344.78 968.939 1362.98 C 1034.55 1363.19 1103.13 1361.28 1168.36 1362.79 C 1168.75 1361.8 1169.73 1359.38 1170.27 1358.57 C 1172.04 1355.94 1174.94 1354.28 1178.12 1354.09 C 1186.4 1353.6 1188.63 1361.5 1189.03 1367.96 C 1185.66 1373.62 1182.32 1376.13 1175.43 1375.34 C 1168.85 1372.36 1171.98 1366.24 1162.66 1366.45 C 1144.45 1366.86 1126.28 1366.64 1108.06 1366.51 C 1060.44 1366.17 1012.81 1366.14 965.19 1366.42 C 964.552 1355.98 964.225 1295.43 966.199 1288.5 z"/>
<path transform="translate(0,0)" fill="rgb(0,0,0)" d="M 944.879 1300.63 C 948.684 1301.03 949.292 1300.87 952.165 1303.48 C 955.084 1308.86 950.467 1314.83 949.871 1320.5 C 949.58 1323.27 949.641 1326.37 949.753 1329.15 L 949.844 1331.14 L 880.532 1330.9 L 880.92 1343.85 C 871.686 1343.61 861.285 1345.12 853.05 1342.85 C 850.507 1340.22 851.319 1341.07 851.15 1336.25 C 851.416 1329.1 851.396 1322.12 851.392 1314.97 C 860.361 1315.4 871.698 1315.06 880.842 1315.04 L 880.856 1327.86 C 902.522 1328.12 924.734 1327.87 946.443 1327.89 L 946.41 1326.53 C 945.954 1314.08 943.635 1317.66 940.584 1307.52 C 941.154 1303.81 942.206 1303.27 944.879 1300.63 z M 854.841 1340.17 C 859.42 1340.39 873.505 1341.63 877.026 1339.72 L 877.164 1318.28 C 871.053 1318.36 860.595 1318.79 854.877 1318.21 L 854.841 1340.17 z"/>
<path transform="translate(0,0)" fill="rgb(0,0,0)" d="M 1182.63 1391.95 C 1207.08 1391.6 1193.22 1425.28 1177.72 1404.38 L 1176.84 1403.18 C 1159.08 1402.48 1139.57 1402.98 1121.64 1402.81 L 952.84 1402.37 C 946.274 1402.26 936.364 1402.31 930.195 1400.69 C 960.17 1398.03 995.935 1399.04 1026.56 1399.02 L 1177.09 1398.96 C 1179.2 1395.4 1179.7 1394.96 1182.63 1391.95 z"/>
<path transform="translate(0,0)" fill="rgb(37,69,246)" d="M 936.518 1380.3 C 950.964 1379.28 1120.39 1379.54 1123.33 1380.69 L 1124.81 1384.24 C 1118.23 1385.64 940.654 1385.23 938.135 1384.4 L 936.518 1380.3 z"/>
<path transform="translate(0,0)" fill="rgb(254,254,254)" d="M 981.795 1011.87 L 982.268 1019.98 L 982.618 1023.28 C 960.593 1024.48 937.132 1023.12 914.956 1023.79 C 911.485 1023.89 907.226 1024.18 904.993 1021.96 L 906.046 1020.51 L 908.8 1017.43 C 921.794 1014.68 945.099 1014.9 958.337 1015.35 C 961.231 1016.37 974.021 1016.59 977.345 1015.5 C 973.726 1013.75 964.144 1013.65 959.508 1013.41 L 949.596 1012.71 C 956.949 1011.65 973.736 1011.91 981.795 1011.87 z"/>
<path transform="translate(0,0)" fill="rgb(77,104,226)" d="M 906.046 1020.51 C 927.647 1019.06 959.716 1020.1 982.268 1019.98 L 982.618 1023.28 C 960.593 1024.48 937.132 1023.12 914.956 1023.79 C 911.485 1023.89 907.226 1024.18 904.993 1021.96 L 906.046 1020.51 z"/>
<path transform="translate(0,0)" fill="rgb(37,69,246)" d="M 1229.33 1360.88 L 1231.78 1359.84 L 1232.54 1357.17 C 1233.27 1361.39 1248.24 1370.49 1241.1 1379.06 C 1230.94 1391.26 1201.49 1368.51 1229.33 1360.88 z"/>
<path transform="translate(0,0)" fill="rgb(0,0,0)" d="M 819.406 623.608 L 820.836 624.666 C 820.844 624.696 813.838 660.298 812.777 663.899 C 807.903 680.439 821.369 712.794 820.157 723.4 L 817.941 722.095 C 805.347 698.907 805.595 645.885 819.406 623.608 z"/>
<path transform="translate(0,0)" fill="rgb(0,0,0)" d="M 1285.18 623.394 C 1285.58 623.644 1285.99 623.894 1286.39 624.145 C 1302.29 644.744 1299.22 706.243 1287.13 723.528 C 1283.46 718.367 1289.98 709.299 1291.32 700.692 C 1294.3 681.626 1295.12 664.959 1290.9 645.963 C 1289.29 638.728 1284.34 629.952 1285.18 623.394 z"/>
<path transform="translate(0,0)" fill="rgb(37,69,246)" d="M 1048.22 1284.5 C 1055.58 1284.07 1105.33 1283.22 1109.23 1284.93 L 1109.54 1286.86 L 1107.92 1289.08 L 1105.25 1289.28 C 1096.72 1289.44 1049.43 1290.8 1044.4 1289.12 L 1043.81 1287.23 L 1045.07 1284.98 L 1048.22 1284.5 z"/>
<path transform="translate(0,0)" fill="rgb(77,104,226)" d="M 909.084 1007.81 C 927.427 1008.28 966.994 1006.63 982.256 1008.3 L 981.795 1011.87 C 973.736 1011.91 956.949 1011.65 949.596 1012.71 C 943.842 1012.8 908.921 1012.23 907.178 1013.36 L 906.731 1015.07 C 905.541 1011.63 904.495 1010.86 905.594 1008.44 L 909.084 1007.81 z"/>
<path transform="translate(0,0)" fill="rgb(254,254,254)" fill-opacity="0.756863" d="M 982.263 978.948 C 981.808 990.329 976.702 993.708 978.348 1003.9 L 976.965 1006.93 C 973.666 1007.21 962.066 1006.69 957.497 1006.77 C 959.595 991.221 963.65 991.279 977.181 986.694 C 980.306 985.636 981.09 981.858 982.263 978.948 z"/>
<path transform="translate(0,0)" fill="rgb(254,254,254)" fill-opacity="0.168627" d="M 810.068 1115.45 C 810.419 1108.33 813.532 1096.14 815.096 1088.62 C 815.816 1096.11 816.113 1103.89 816.797 1111.52 L 817.11 1128.83 C 823.033 1128.72 829.788 1128.39 835.632 1128.79 C 831.223 1131.17 829.7 1132.75 826.284 1136.4 L 825.356 1137.41 C 819.871 1136.73 819.795 1134.56 814.761 1133.95 C 812.095 1131.56 810.493 1119.23 810.068 1115.45 z"/>
<path transform="translate(0,0)" fill="rgb(77,104,226)" d="M 906.715 1038.09 C 905.194 1034.23 905.017 1035.79 905.571 1032.42 C 913.551 1031.56 926.395 1031.95 934.681 1031.94 C 950.551 1031.84 966.421 1031.92 982.29 1032.18 C 981.84 1034.14 982.144 1034.42 981.096 1035.56 C 972.675 1035.68 924.911 1034.76 922.057 1036.85 C 917.488 1036.37 912.746 1035.51 908.322 1036.38 L 906.715 1038.09 z"/>
<path transform="translate(0,0)" fill="rgb(0,0,0)" d="M 972.11 1417.39 C 981.495 1416.37 1065.64 1416.16 1071.59 1417.59 L 1072.79 1419.91 L 1001.12 1419.68 C 996.248 1419.69 976.676 1420.34 973.224 1419.61 L 972.11 1417.39 z"/>
<path transform="translate(0,0)" fill="rgb(254,254,254)" fill-opacity="0.929412" d="M 922.057 1036.85 C 924.911 1034.76 972.675 1035.68 981.096 1035.56 L 982.404 1038.07 L 981.657 1039.66 C 980.169 1039.8 973.401 1040.4 972.218 1040.39 C 960.283 1039.03 947.854 1041.78 934.779 1039.84 L 934.621 1038.83 C 931.725 1037.11 925.841 1037.17 922.057 1036.85 z"/>
<path transform="translate(0,0)" fill="rgb(0,0,0)" d="M 834.374 642.746 L 835.579 644.614 C 835.625 651.447 832.503 657.1 832.061 665.541 C 831.681 672.372 831.918 679.225 832.77 686.014 C 833.401 690.938 835.812 700.734 833.719 704.6 C 825.232 693.602 827.01 654.635 834.374 642.746 z"/>
<path transform="translate(0,0)" fill="rgb(0,0,0)" d="M 1269.96 644.314 C 1282.45 646.645 1278.84 694.055 1273.45 704.017 L 1271.69 702.949 C 1271.29 697.368 1274.28 689.683 1274.9 683.574 C 1276.35 669.168 1273.03 657.92 1269.96 644.314 z"/>
<path transform="translate(0,0)" fill="rgb(254,254,254)" fill-opacity="0.439216" d="M 982.359 1006.85 L 983.672 1005.28 C 985.274 1006.11 986.916 1006.62 988.645 1007.12 L 988.459 1006.06 L 989.898 1007.31 L 990.11 1012.21 C 990.297 1016.22 990.917 1019.17 989.121 1022.66 C 986.375 1024.89 986.544 1024.76 983.171 1025.89 L 982.618 1023.28 L 982.268 1019.98 L 981.795 1011.87 L 982.256 1008.3 L 982.359 1006.85 z"/>
<path transform="translate(0,0)" fill="rgb(1,35,183)" d="M 1203.45 1264.33 C 1207.07 1263.56 1210.64 1265.83 1211.48 1269.44 C 1212.32 1273.04 1210.12 1276.66 1206.53 1277.57 C 1204.15 1278.17 1201.62 1277.44 1199.93 1275.65 C 1198.24 1273.87 1197.64 1271.31 1198.37 1268.96 C 1199.1 1266.61 1201.04 1264.84 1203.45 1264.33 z"/>
<path transform="translate(0,0)" fill="rgb(254,254,254)" fill-opacity="0.0901961" d="M 906.731 1015.07 L 907.178 1013.36 C 908.921 1012.23 943.842 1012.8 949.596 1012.71 L 959.508 1013.41 L 958.337 1015.35 C 945.099 1014.9 921.794 1014.68 908.8 1017.43 L 906.731 1015.07 z"/>
<path transform="translate(0,0)" fill="rgb(0,0,0)" d="M 915.629 1394.98 C 921.282 1394.51 923.881 1393.72 927.398 1398.8 C 927.531 1403.44 927.667 1401.8 925.117 1406.3 C 920.154 1407.11 918.498 1407.49 915.143 1403.5 C 914.064 1399.64 914.522 1399.03 915.629 1394.98 z"/>
<path transform="translate(0,0)" fill="rgb(254,254,254)" fill-opacity="0.329412" d="M 803.823 1075.12 C 812.617 1078.23 807.273 1083.88 806.496 1091.97 L 805.289 1092.4 C 803.49 1089.22 804.614 1080.25 803.823 1075.12 z"/>
<path transform="translate(0,0)" fill="rgb(250,248,249)" fill-opacity="0.27451" d="M 959.508 1013.41 C 964.144 1013.65 973.726 1013.75 977.345 1015.5 C 974.021 1016.59 961.231 1016.37 958.337 1015.35 L 959.508 1013.41 z"/>
<path transform="translate(0,0)" fill="rgb(0,0,0)" fill-opacity="0.0470588" d="M 1024.23 1113.05 C 1026.64 1116.94 1026.54 1116.79 1027.53 1121.28 L 1025.62 1123.8 L 1022.87 1121.86 C 1022.47 1115.93 1021.61 1117.04 1024.23 1113.05 z"/>
<path transform="translate(0,0)" fill="rgb(254,254,254)" fill-opacity="0.133333" d="M 922.057 1036.85 C 925.841 1037.17 931.725 1037.11 934.621 1038.83 L 934.779 1039.84 L 921.2 1040.15 L 922.057 1036.85 z"/>
<path transform="translate(0,0)" fill="rgb(0,0,0)" fill-opacity="0.0117647" d="M 1025.62 1123.8 L 1027.99 1125.44 C 1027.19 1126.13 1027.63 1125.88 1026.68 1126.23 L 1027.04 1128.98 L 1027.76 1127.95 L 1028.7 1129.4 L 1027.6 1130.06 L 1026.3 1129.74 L 1021.07 1130.74 L 1019.47 1129.31 L 1022.56 1130.32 L 1018.5 1130.32 C 1020.59 1127.84 1020.64 1128.24 1023.76 1126.86 L 1025.62 1123.8 z"/>
</svg>