<svg version="1.1" xmlns="http://www.w3.org/2000/svg" style="display: block;" viewBox="0 0 2048 2048" width="1024" height="1024" preserveAspectRatio="none">
<path transform="translate(0,0)" fill="rgb(0,0,0)" d="M 1253.89 602.327 C 1290.32 602.357 1302.1 644.84 1267.86 657.541 C 1271.59 680.297 1274.45 724.695 1256.72 743.54 C 1248.92 751.839 1237.65 751.519 1227.02 751.068 C 1225.31 756.087 1223.68 761.131 1222.12 766.197 C 1248.5 782.735 1268.82 804.123 1290.34 826.317 C 1372.96 911.546 1364.16 942.888 1425.28 826.988 C 1422.85 804.658 1421.58 801.174 1439.57 786.286 C 1443.05 775.639 1457.57 720.363 1473.84 724.741 C 1491.02 729.359 1475.23 757.575 1474.35 766.658 C 1478.89 767.045 1485.82 766.543 1487.39 771.346 C 1488.67 778.795 1499.29 774.682 1500.85 777.696 C 1506.22 788.07 1513.15 786.203 1518.63 790.634 C 1520.01 792.957 1520.74 794.65 1520.82 797.393 C 1521.44 817.356 1478.77 900.12 1466.99 919.649 C 1458.12 934.351 1448.41 948.932 1436.77 961.593 C 1420.26 979.565 1398.07 996.142 1372.73 996.999 C 1332.95 998.344 1301.29 967.477 1273.63 942.968 C 1257.39 928.682 1241.4 914.113 1225.67 899.268 C 1221.56 908.04 1217.06 922.982 1213.31 932.729 L 1181.39 1016.08 C 1177.44 1026.46 1172.93 1039.4 1168.02 1049.54 C 1166.64 1052.38 1164.36 1049.84 1160.51 1051.71 C 1199.54 1081.75 1249.87 1122.68 1280.92 1160.87 C 1318.24 1206.76 1352.87 1270.41 1382.28 1323.02 C 1394.07 1343.89 1405.52 1364.95 1416.62 1386.2 C 1421.68 1395.86 1429.02 1408.4 1432.58 1418.47 L 1419.49 1421.67 L 1428.67 1439.99 C 1455.58 1441.69 1493.52 1433.78 1514.5 1452.13 C 1516.33 1453.73 1516.06 1455.48 1515.81 1457.48 C 1510.53 1460.65 1495.55 1466.35 1489.31 1468.89 C 1466.99 1478.07 1444.44 1486.67 1421.67 1494.67 C 1415.74 1491.72 1409.59 1489.3 1403.47 1486.77 C 1404.73 1491.38 1406.48 1496.25 1408.01 1500.82 C 1401.79 1503.01 1392.58 1507.44 1386.34 1510.22 C 1414.16 1508.54 1460.6 1509.63 1490.47 1509.1 C 1491.11 1509.58 1491.75 1510.06 1492.4 1510.53 L 1492.53 1513.54 C 1488.43 1516.04 1338.7 1514.98 1320.19 1514.98 L 657.51 1514.94 L 521.393 1514.93 C 514.944 1514.93 474.978 1515.51 471.047 1514.32 L 470.368 1512.73 L 471.362 1510.49 C 479.038 1508.18 559.089 1509.19 573.648 1509.2 L 838.55 1509.25 L 1182.32 1509.26 L 1305.89 1509.26 C 1328.92 1509.27 1354.96 1508.6 1377.72 1509.81 C 1366.34 1481.79 1358.35 1467.24 1345.61 1440.54 C 1336.4 1443.02 1329.62 1444.79 1320.12 1446.36 C 1280.71 1374.06 1239.78 1286.41 1183.97 1225.64 C 1162.67 1202.45 1125.7 1174.58 1099.51 1157.37 C 1085.78 1156.86 1075.23 1157.86 1060.52 1156.9 C 1034.4 1205.44 987.82 1255.72 938.949 1280.99 C 889.945 1306.34 835.318 1309.2 781.69 1301.81 C 769.236 1300.1 753.873 1296.64 741.502 1296.68 L 521.719 1297.2 C 512.307 1297.18 462.206 1297.88 457.254 1296.32 L 456.545 1294.79 L 458.205 1292.96 C 466.108 1290.92 507.272 1292.29 518.156 1292.29 L 664.5 1292.03 L 730.225 1292.17 C 704.011 1285.98 677.462 1277.54 651.895 1268.97 C 653.263 1261.15 655.939 1254.11 658.528 1246.62 C 648.616 1243.12 638.782 1239.4 629.033 1235.46 C 624.776 1240.36 619.518 1244.96 615.162 1249.88 C 593.208 1274.68 581.495 1285.27 546.971 1283.66 L 555.596 1266.94 L 505.624 1267.05 C 496.873 1267.05 483.013 1267.41 474.746 1266.15 L 474.478 1264.73 C 476.63 1263.41 483.121 1261.67 485.538 1261.73 C 509.669 1262.27 534.162 1261.44 558.259 1261.97 C 566.453 1244.54 574.683 1229.23 583.371 1212.18 C 566.077 1212.14 451.437 1213.61 445.194 1211.19 L 445.241 1208.89 C 445.99 1208.43 446.74 1207.96 447.49 1207.49 C 487.56 1206.41 548.499 1207.89 586.608 1206.89 C 587.91 1203.25 589.715 1199.58 591.345 1196.05 C 598.644 1192.74 604.931 1190.79 612.564 1188.3 C 606.962 1184.75 604.537 1182.92 599.469 1178.68 C 603.299 1171.51 606.929 1164.23 610.354 1156.85 C 596.122 1157.15 507.232 1158.75 500.66 1155.5 L 500.256 1153.72 C 500.871 1153.17 501.149 1152.84 502.017 1152.54 C 506.646 1150.94 613.109 1150.73 619.133 1152.38 C 639.713 1158 658.259 1170.71 678.793 1177.09 C 679.214 1177.22 679.637 1177.34 680.059 1177.47 C 681.666 1172.92 682.616 1166.53 683.526 1161.66 C 769.609 1189.48 839.858 1229.84 917.875 1157.28 C 915.16 1157.52 912.44 1157.7 909.718 1157.82 C 864.307 1159.76 817.114 1156.4 771.537 1158.25 C 767.104 1158.43 757.493 1158.7 754.237 1155.69 L 754.757 1153.73 C 761.607 1150.5 904.222 1152.79 922.744 1152.47 C 928.317 1145.99 933.844 1139.46 939.327 1132.89 C 923.946 1132.7 852.326 1134.16 843.621 1130.13 C 849.342 1127.17 929.177 1128.22 942.077 1128.01 C 946.521 1121.73 950.764 1114.46 954.808 1107.83 C 939.246 1107.92 806.182 1108.96 801.298 1106.98 C 801.201 1104.08 800.677 1105.28 802.555 1103.16 C 813.212 1101.95 831.514 1103.1 843.105 1102.73 C 880.541 1101.55 920.402 1103.97 957.587 1102.62 C 960.037 1096.52 964.217 1089.3 967.419 1083.4 C 915.926 1085.44 862.767 1082.34 811.137 1083.56 C 805.464 1083.69 788.773 1083.79 784.319 1080.71 C 792.84 1075.03 896.411 1079.66 913.844 1078.01 C 922.078 1077.23 959.201 1077.89 969.233 1078.5 C 971.392 1073.32 975.708 1064.63 974.595 1059.37 C 970.048 1057.14 922.954 1057.98 914.792 1057.98 L 736.304 1058.05 C 723.057 1058.07 640.87 1059.32 635.634 1056.4 L 636.569 1054.74 C 644.205 1051.55 674.709 1052.96 684.958 1052.93 L 781.035 1052.8 C 843.63 1052.76 909.134 1051.65 971.415 1052.71 C 968.479 1039.72 967.258 1030.82 968.957 1017.59 C 944.932 1013.78 909.792 1017.22 884.811 1016.12 C 876.153 1015.74 861.584 1017.15 853.592 1014.3 C 862.372 1008.65 937.217 1010.79 953.146 1010.78 C 957.143 1003.67 960.854 997.038 964.479 989.738 C 947.751 989.601 930.674 990.501 914.097 989.045 L 912.785 987.361 L 911.235 988.323 L 912.594 988.828 L 912.563 987.37 C 924.02 982.904 953.198 984.92 967.634 984.721 C 970.53 978.028 974.064 971.351 977.386 964.839 L 928.234 965.02 C 921.734 965.045 905.516 966.683 900.958 962.438 L 900.974 960.746 C 905.395 958.42 967.929 960.057 979.169 959.256 L 981.027 959.116 L 990.951 939.886 C 983.846 939.612 938.679 940.566 936.19 938.515 L 936.287 935.778 C 940.28 933.692 984.975 934.863 993.841 934.753 L 1004.05 914.745 C 965.06 915.074 926.07 915.135 887.081 914.929 C 881.549 923.902 873.328 935.719 870.056 945.758 C 869.27 948.172 869.639 956.206 869.538 959.268 C 869.179 970.174 871.793 1001.73 852.229 994.246 C 848.751 992.901 846.975 987.052 845.801 983.78 C 839.415 994.845 832.188 1020.41 818.215 1021.64 C 815.027 1020.83 813.743 1018.85 811.455 1016.4 L 810.414 1015.27 C 804.735 1014.58 792.931 1027.01 790.155 1008.11 C 789.498 1003.63 783.404 1008.47 777.626 1003.27 C 775.796 999.08 776.335 995.181 776.4 990.509 C 772.997 986.544 764.454 987.28 766.323 977.991 C 769.103 965.215 775.953 950.535 781.402 938.408 C 809.779 875.245 841.099 817.895 893.264 771.208 C 824.19 772.338 754.393 769.914 685.242 771.181 C 683.158 771.219 683.687 771.378 681.406 770.953 L 680.791 768.515 L 682.1 766.517 C 688.395 763.669 879.247 764.376 900.465 765.604 C 915.134 756.159 921.818 751.506 938.276 745.032 C 919.99 744.926 839.473 746.282 827.992 742.15 L 828.014 741.042 C 838.138 737.926 877.508 739.711 890.194 739.614 C 908.824 739.472 929.107 739.394 947.91 739.303 C 963.126 739.23 977.246 734.045 991.339 733.151 C 1043.96 729.81 1119.58 727.371 1168.22 746.358 C 1170.63 736.505 1175.86 724.67 1178.94 713.856 C 1160.73 694.733 1145.76 653.952 1173.12 636.258 L 1174.27 632.531 C 1182.31 606.334 1202.79 609.097 1223.2 619.193 C 1233.43 609.857 1240.08 604.167 1253.89 602.327 z M 797.184 998.142 C 795.102 1004.23 794.698 1006.05 797.485 1011.77 C 808.63 1018.68 817.838 978.255 827.144 969.546 L 828.956 969.328 C 832.27 979.011 805.036 1008.98 817.513 1016.64 C 828.975 1013.61 844.815 971.358 852.828 959.536 C 852.321 967.612 851.661 971.087 849.942 979.053 C 851.554 983.938 851.664 985.521 855.067 989.121 L 857.438 989.813 C 861.21 987.571 861.699 984.052 862.838 979.899 C 865.884 968.788 863.173 952.727 865.03 942.121 C 865.686 938.372 875.206 923.135 877.766 918.656 C 895.047 888.42 916.032 856.543 945.598 837.126 C 966.784 823.213 990.266 822.348 1014.93 822.925 C 1015.2 794.207 1016.61 766.05 1016.7 736.793 C 1013.66 736.874 1004.15 736.922 1001.69 737.428 C 942.692 742.931 903.023 761.37 864.963 807.711 C 826.511 854.528 800.282 908.572 776.73 964.04 C 774.487 969.322 769.676 978.877 775.073 983.38 C 784.984 981.719 787.055 958.121 795.681 954.108 L 797.468 954.836 C 798.201 962.936 775.61 991.152 784.34 1000.43 C 797.371 1000.75 800.701 966.902 811.505 961.127 L 812.775 961.385 C 813.976 966.857 800.264 991.606 797.184 998.142 z M 1443.56 804.579 L 1444.95 804.654 C 1454.22 805.207 1467.62 808.917 1475.06 806.278 C 1477.18 803.838 1477.13 804.065 1477.64 800.891 C 1474.04 791.969 1451.26 791.446 1442.77 792.262 C 1425.86 801.678 1427.24 811.148 1431.47 828.172 C 1416.14 849.898 1390.83 928.827 1355.11 903.323 C 1343.91 895.323 1329.94 878.721 1320.5 867.868 C 1302.09 888.385 1283.14 906.68 1264.96 926.583 C 1289.44 950.957 1322.65 981.045 1356.2 990.102 C 1424.22 1001.51 1464.7 914.379 1489.22 864.289 C 1493.92 854.696 1501.16 840.678 1504.37 830.671 L 1502.78 829.401 C 1493.16 831.667 1494.01 832.278 1487.32 824.784 C 1483.84 823.537 1481.34 824.09 1477.63 824.386 C 1474.64 821.018 1469.56 814.455 1465.95 813.099 C 1465.64 820.912 1472.6 833.58 1466.41 841.197 L 1463.74 841.916 L 1462.41 840.89 C 1464.15 817.688 1461.48 816.978 1443.56 804.579 z M 926.853 860.187 C 960.096 860.141 993.384 860.092 1026.63 860.222 C 1033.56 860.249 1033.08 859.583 1035.93 853.454 C 1037.9 849.915 1040.12 845.653 1042.19 842.257 C 1034.96 842.624 990.699 843.796 985.444 842.677 L 983.607 840.789 L 984.134 839.127 C 991.725 837.255 1033.66 838.208 1044.35 838.03 L 1047.54 829.215 C 1034.87 828.656 1006.51 826.93 995.1 828.429 C 966.465 830.592 946.329 837.899 926.853 860.187 z M 890.14 909.53 L 1003.1 909.51 C 1005.94 909.146 1006.44 909.705 1007.97 907.423 C 1011.28 902.462 1014.34 895.735 1016.96 890.355 C 981.914 889.887 936.222 891.782 902.563 889.833 C 897.914 896.72 894.18 902.303 890.14 909.53 z M 906.006 884.487 C 942.778 885.603 981.913 883.652 1018.12 885.159 C 1021.87 883.033 1027.69 869.917 1030 865.285 C 1001.32 867.081 969.091 863.768 940.048 864.794 C 934.541 864.988 927.023 865.181 921.606 864.896 C 916.86 870.814 910.251 878.495 906.006 884.487 z M 656.762 1240.31 L 659.524 1240.85 C 660.858 1239.79 675.835 1189.46 678.097 1182.35 C 673.73 1180.73 660.637 1175.51 656.522 1174.5 C 648.462 1192.06 639.523 1214.6 630.841 1231.19 C 639.497 1234.18 648.137 1237.22 656.762 1240.31 z M 1262.08 721.244 C 1263.3 713.79 1265.77 697.239 1264.3 690.095 C 1261.91 689.404 1260.72 689.302 1258.27 688.973 L 1256.34 689.206 C 1258.24 695.73 1261.16 702.14 1258.83 708.254 C 1255.11 711.538 1254.35 711.15 1248.98 711.028 C 1245.07 714.829 1246.35 721.849 1250.33 725.718 C 1253.97 726.509 1256.16 725.189 1259.71 723.853 L 1262.08 721.244 z M 1069.19 1140.1 C 1064.98 1136.89 1047.14 1127.54 1041.8 1124.95 C 1015.5 1112.19 1009.76 1104.63 990.902 1084.86 C 990.655 1103.68 1057.83 1144.32 1069.19 1140.1 z M 1070.55 1140.72 C 1067.77 1144.88 1065.76 1148.25 1063.29 1152.56 C 1070.53 1152.39 1077.77 1152.28 1085.02 1152.25 L 1088.61 1151.74 C 1087.65 1148.61 1074.15 1142.37 1070.55 1140.72 z M 1482.62 805.681 C 1480 808.552 1477.32 810.798 1476.57 814.548 C 1478.15 819.1 1480.33 819.048 1484.76 820.124 C 1490.78 812.194 1511.03 784.925 1492.69 780.362 C 1486.46 787.225 1483.4 796.566 1482.62 805.681 z M 1477.7 791.55 L 1479.99 791.209 C 1484.33 785.189 1487 778.221 1480.73 772.577 C 1478.96 772.298 1477.2 771.995 1475.42 771.795 C 1471.08 776.204 1468.23 782.864 1465.49 788.544 L 1477.7 791.55 z M 1413.84 1423.36 C 1393.38 1427.45 1370.6 1434.32 1349.93 1439.34 C 1354.21 1447.71 1358.55 1456.05 1362.92 1464.37 C 1369.74 1466.19 1411.84 1445.31 1423.16 1441.82 C 1421.5 1437.9 1416.69 1425.89 1413.84 1423.36 z M 1501.11 825.647 C 1507.72 818.58 1519.77 803.028 1513.56 793.526 C 1510.61 791.878 1510.82 791.853 1507.49 791.53 C 1503.27 799.151 1492.7 815.664 1493.65 823.154 C 1496.17 826.548 1496.62 826.48 1501.11 825.647 z M 1192.91 692.93 C 1194.69 693.979 1194.22 693.606 1196.53 693.8 C 1199.04 691.283 1198.29 692.814 1198.38 688.846 C 1192.5 677.212 1186.51 675.843 1177.13 684.816 L 1178.92 685.093 C 1186.46 685.315 1188.54 686.896 1192.91 692.93 z M 1470.59 729.412 C 1468.93 730.801 1465.62 733.813 1464.85 735.689 C 1460.75 745.643 1445.85 776.419 1446.22 785.615 C 1448.64 786.435 1448.98 786.58 1451.5 786.892 C 1455.41 786.96 1457.93 787.64 1461.02 785.979 C 1466.52 776.29 1477.67 743.802 1475.33 732.703 C 1472.98 729.622 1474.45 730.754 1470.59 729.412 z"/>
<path transform="translate(0,0)" fill="rgb(43,75,238)" d="M 1021.95 736.335 C 1065.74 734.482 1124.88 734.951 1165.46 750.981 C 1169.99 766.762 1186.88 803.256 1210.09 793.197 C 1216.44 790.446 1219.24 778.154 1220.89 771.771 C 1248.44 787.753 1296.24 838.4 1318.02 862.868 C 1299.49 884.019 1280.17 904.453 1260.08 924.126 C 1253.79 919.462 1252.64 918.187 1247.95 912.339 C 1247.98 885.539 1247.85 860.872 1242.48 834.366 C 1238.99 845.288 1236.22 856.992 1232.21 867.789 C 1220.38 899.626 1208.17 931.5 1196.03 963.21 C 1186.92 988.665 1174.66 1020.85 1164.31 1045.65 C 1096.3 1038.82 1026.7 1020.59 959.81 1011.59 C 964.675 997.79 988.264 955.583 996.606 940.327 C 1007.75 919.952 1023.62 886.687 1035.43 867.813 C 1061.59 856.592 1086.96 843.604 1111.36 828.939 C 1088.22 825.774 1044.46 824.988 1019.95 823.824 C 1020.82 794.666 1021.49 765.502 1021.95 736.335 z"/>
<path transform="translate(0,0)" fill="rgb(254,254,254)" d="M 1198.38 688.846 C 1201.83 689.739 1202.18 690.18 1205.53 688.968 C 1213.67 680.891 1196.41 651.6 1231.28 657.57 C 1238.86 658.868 1254.74 659.344 1262.67 658.988 C 1263.58 665.907 1265.48 676.83 1264.45 683.288 C 1260.53 681.724 1262.16 681.486 1259.13 682.549 C 1257.81 685.329 1258.12 685.899 1258.27 688.973 L 1256.34 689.206 C 1258.24 695.73 1261.16 702.14 1258.83 708.254 C 1255.11 711.538 1254.35 711.15 1248.98 711.028 C 1245.07 714.829 1246.35 721.849 1250.33 725.718 C 1253.97 726.509 1256.16 725.189 1259.71 723.853 L 1262.08 721.244 C 1254.51 759.997 1220.35 747.186 1197.59 731.298 C 1202.78 745.746 1207.92 749.498 1219.19 759.548 C 1216.67 769.364 1212.38 798.305 1196.13 788.896 C 1184.28 782.043 1174.97 765.726 1171.06 752.792 C 1173.38 744.035 1183.28 718.205 1187.3 710.198 C 1176.11 705.031 1166.83 696.654 1177.13 684.816 L 1178.92 685.093 C 1186.46 685.315 1188.54 686.896 1192.91 692.93 C 1194.69 693.979 1194.22 693.606 1196.53 693.8 C 1199.04 691.283 1198.29 692.814 1198.38 688.846 z"/>
<path transform="translate(0,0)" fill="rgb(0,0,0)" d="M 1247.94 676.499 C 1250.74 680.344 1252.92 684.763 1255.19 688.97 L 1256.34 689.206 C 1258.24 695.73 1261.16 702.14 1258.83 708.254 C 1255.11 711.538 1254.35 711.15 1248.98 711.028 L 1247.66 707.619 L 1248.48 705.897 C 1250.4 705.662 1251.54 705.483 1253.43 705.063 C 1255.11 700.889 1249.26 683.875 1247.94 676.499 z"/>
<path transform="translate(0,0)" fill="rgb(0,0,0)" d="M 1178.92 685.093 C 1186.46 685.315 1188.54 686.896 1192.91 692.93 L 1192.26 695.994 L 1190.17 696.552 C 1184.94 694.734 1183.23 692.7 1179.06 688.919 L 1178.92 685.093 z"/>
<path transform="translate(0,0)" fill="rgb(0,0,0)" d="M 1229.09 710.548 C 1233.76 712.593 1237.47 716.756 1243 719.19 L 1244.47 719.862 L 1245.5 720.315 L 1245.75 722.802 C 1236.3 724.182 1230.37 720.005 1229.09 710.548 z"/>
<path transform="translate(0,0)" fill="rgb(254,254,254)" fill-opacity="0.988235" d="M 1413.84 1423.36 C 1416.69 1425.89 1421.5 1437.9 1423.16 1441.82 C 1411.84 1445.31 1369.74 1466.19 1362.92 1464.37 C 1358.55 1456.05 1354.21 1447.71 1349.93 1439.34 C 1370.6 1434.32 1393.38 1427.45 1413.84 1423.36 z"/>
<path transform="translate(0,0)" fill="rgb(0,0,0)" d="M 483.511 796.838 C 528.936 793.184 568.706 827.083 572.292 872.513 C 575.879 917.943 541.92 957.663 496.485 961.181 C 451.145 964.692 411.528 930.821 407.95 885.487 C 404.371 840.153 438.183 800.485 483.511 796.838 z M 500.479 955.141 C 542.711 949.405 572.203 910.387 566.199 868.192 C 560.196 825.998 520.993 796.754 478.837 803.024 C 437.057 809.239 408.13 848.017 414.08 889.835 C 420.03 931.654 458.624 960.825 500.479 955.141 z"/>
<path transform="translate(0,0)" fill="rgb(0,0,0)" d="M 482.612 835.143 C 499.182 833.575 504.933 839.481 513.115 852.572 C 537.617 852.538 544.074 875.95 523.918 890.808 C 523.605 890.839 523.293 890.87 522.98 890.901 L 521.416 891.028 C 511.227 891.923 501.932 891.284 491.736 890.87 L 492.13 913.338 C 495.508 909.295 497.801 905.479 502.87 904.451 L 503.789 905.735 C 503.013 909.366 500.753 911.189 498.21 914.015 L 489.707 922.612 C 483.915 917.749 479.636 913.889 476.997 906.769 L 478.092 905.737 C 481.537 906.643 484.049 909.582 486.736 912.099 L 487.326 891.002 C 469.427 891.046 435.127 896.567 446.158 862.852 C 448.375 857.583 453.175 856.927 457.116 855.269 C 472.764 848.687 462.596 841.29 482.612 835.143 z"/>
<path transform="translate(0,0)" fill="rgb(43,75,238)" d="M 483.096 840.113 C 498.626 839.344 502.696 845.256 509.325 858.262 C 523.809 857.741 538.893 866.431 525.394 881.447 C 519.206 888.331 502.631 886.707 493.552 885.816 L 492.698 884.571 C 491.921 879.509 492.837 879.897 489.917 877.089 L 488.748 877.75 C 488.165 880.419 487.508 883.071 486.779 885.704 C 480.644 888.092 458.064 887.073 453.233 881.225 C 442.957 868.786 452.775 859.723 466.687 860.096 C 467.585 857.651 468.525 855.221 469.507 852.808 C 472.669 845.157 475.711 843.158 483.096 840.113 z"/>
<path transform="translate(0,0)" fill="rgb(0,0,0)" d="M 644.867 568.402 C 685.513 569.515 726.815 567.794 767.46 569.187 C 772.4 569.357 775.308 574.282 777.85 577.927 C 778.412 608.343 778.015 640.354 777.571 670.826 C 777.451 679.106 771.924 682.668 764.249 684.068 C 739.783 683.863 715.315 683.849 690.848 684.025 C 676.922 684.09 646.83 685.973 635.764 680.426 C 627.323 669.548 632.773 597.449 632.067 580.498 C 631.733 572.461 637.656 569.542 644.867 568.402 z M 767.804 677.647 C 769.051 676.208 771.599 673.136 771.794 671.365 C 774.327 648.392 772.591 619.778 773.025 596.571 C 735.226 594.57 695.509 597.058 657.552 596.058 C 650.93 595.883 642.983 595.878 636.387 596.225 C 636.18 608.025 634.346 669.419 640.502 675.606 C 642.55 677.665 649.773 677.961 652.758 678.165 C 674.514 679.653 697.039 678.471 718.9 678.496 C 733.661 678.513 749.855 679.991 764.399 678.262 C 765.538 678.127 766.683 677.89 767.804 677.647 z"/>
<path transform="translate(0,0)" fill="rgb(0,0,0)" d="M 683.207 617.603 L 685.181 618.544 C 688.242 625.242 668.215 633.607 662.884 636.525 C 668.09 639.374 686.816 648.486 685.997 654.6 L 683.232 655.19 C 676.399 651.501 656.588 642.863 655.374 635.887 C 657.734 631.036 676.769 621.615 683.207 617.603 z"/>
<path transform="translate(0,0)" fill="rgb(0,0,0)" d="M 724.909 617.725 C 730.679 619.129 753.769 631.674 755.435 637.208 C 753.293 643.151 737.72 649.569 729.778 654.819 C 727.328 655.729 728.178 655.615 725.704 655.503 C 724.944 654.107 724.143 653.473 724.806 652.383 C 727.657 647.692 743.653 639.704 748.485 636.925 C 741.865 633.393 729.328 627.717 724.912 622.071 C 723.871 620.741 724.526 619.896 724.909 617.725 z"/>
<path transform="translate(0,0)" fill="rgb(0,0,0)" d="M 714.073 606.405 L 717.411 607.239 L 717.973 608.643 C 715.749 618.72 701.779 657.122 696.708 666.782 C 694.43 666.144 695.152 666.601 693.512 664.908 C 693.186 658.252 710.176 613.743 714.073 606.405 z"/>
<path transform="translate(0,0)" fill="rgb(43,75,238)" d="M 642.321 573.38 C 645.604 573.234 658.975 572.736 661.398 573.087 C 680.511 575.858 756.112 570.092 769.362 575.942 C 772.645 579.766 774.718 586.419 771.415 590.729 L 768.25 591.056 L 636.174 591.052 C 636.354 583.231 635.387 578.11 642.321 573.38 z"/>
<path transform="translate(0,0)" fill="rgb(0,0,0)" d="M 962.922 552.491 C 998.19 549.027 1029.65 574.662 1033.37 609.903 C 1037.1 645.144 1011.7 676.792 976.49 680.782 C 940.905 684.813 908.848 659.085 905.081 623.471 C 901.314 587.857 927.281 555.992 962.922 552.491 z M 978.707 674.553 C 1010.79 669.343 1032.54 639.061 1027.22 606.995 C 1021.91 574.929 991.558 553.28 959.51 558.697 C 927.607 564.088 906.077 594.272 911.366 626.193 C 916.655 658.113 946.77 679.74 978.707 674.553 z"/>
<path transform="translate(0,0)" fill="rgb(0,0,0)" d="M 954.232 577.239 C 961.023 576.419 965.102 576.749 971.927 577.09 C 971.943 588.784 971.59 602 972.882 613.513 C 985.84 614.286 997.257 617.363 1001.49 631.203 C 1005.49 644.261 995.307 652.429 984.34 655.913 C 972.972 657.769 965.251 658.941 966.191 643.55 C 966.692 635.353 966.892 627.533 966.953 619.325 C 952.713 621.275 944.98 617.02 938.17 604.804 C 937.94 599.987 938.128 594.797 938.195 589.947 C 943.686 582.304 945.39 581.006 954.232 577.239 z M 972.965 652.068 C 980.759 651.616 983.914 651.454 990.862 647.374 C 1004.02 628.24 990.482 620.256 971.889 618.879 C 972.889 630.187 972.865 640.738 972.965 652.068 z"/>
<path transform="translate(0,0)" fill="rgb(43,75,238)" d="M 957.085 582.221 C 960.49 582.244 962.641 581.795 965.201 583.889 C 968.925 590.634 967.087 605.303 967.015 614.089 C 962.987 614.05 958.701 613.833 954.65 613.703 C 949.671 611.601 946.446 609.249 944.464 603.905 C 942.945 599.713 943.24 595.079 945.278 591.114 C 947.912 586.033 951.814 583.752 957.085 582.221 z"/>
<path transform="translate(0,0)" fill="rgb(0,0,0)" d="M 1438.16 1085.12 C 1445.25 1084.78 1457.39 1082.57 1462.02 1088.34 C 1462.27 1092.02 1462.3 1096.67 1465.02 1099.07 C 1477.52 1110.1 1477.46 1096.1 1487.44 1096.57 C 1491.47 1098.8 1499.91 1105.98 1501.06 1109.73 C 1505.02 1122.74 1488.7 1118.62 1500.31 1134.64 L 1501.19 1135.83 C 1510.21 1136.17 1515.71 1136.17 1515.36 1147.07 L 1515 1160.37 C 1509.97 1161.18 1505.07 1161.52 1500 1161.96 L 1494.4 1173.34 C 1507.65 1187.67 1498.54 1191.55 1485.89 1201.39 C 1482.09 1199.08 1478.21 1195.56 1474.74 1192.67 C 1471.32 1194.06 1467.43 1195.27 1463.9 1196.48 C 1463.31 1201.74 1462.59 1206.47 1461.75 1211.69 C 1452.92 1211.84 1446.2 1211.9 1437.43 1211.25 C 1436.35 1205.91 1436.19 1201.94 1435.83 1196.54 C 1431.15 1195.45 1429.06 1194.82 1424.59 1193.08 C 1421.06 1196.45 1417.77 1198.91 1413.94 1201.89 C 1400.66 1191.36 1391.59 1189.28 1403.62 1173.73 L 1399.36 1162.61 L 1384.63 1160.67 C 1384.06 1153.95 1384.2 1144.1 1384.09 1137.14 C 1391.92 1136.01 1396.82 1136.06 1402.65 1130.59 C 1405.41 1122.83 1398.96 1122.12 1397.04 1113.44 C 1397.92 1107.16 1407.48 1099.94 1412.56 1095.38 C 1418.74 1098.81 1419.71 1099.56 1424.86 1104.2 C 1428.47 1103.03 1432.41 1101.36 1435.97 1099.95 C 1436.3 1094.15 1436.14 1090.6 1438.16 1085.12 z M 1468.73 1158.63 C 1472.68 1151.36 1472.21 1142.49 1467.52 1135.68 C 1462.82 1128.87 1454.69 1125.29 1446.49 1126.41 C 1438.3 1127.53 1431.43 1133.17 1428.73 1140.99 C 1425.01 1151.77 1430.18 1163.6 1440.62 1168.2 C 1451.05 1172.81 1463.27 1168.64 1468.73 1158.63 z"/>
<path transform="translate(0,0)" fill="rgb(43,75,238)" d="M 1441.96 1089.28 C 1457.95 1088.47 1455.53 1088.62 1461.35 1102.47 C 1463.18 1106.83 1471.72 1108.49 1476.3 1109.73 C 1479.42 1107.49 1482.8 1104.75 1485.87 1102.37 C 1490.25 1105.67 1493.52 1109.17 1497.37 1113.03 C 1493.15 1117.16 1491.94 1118.67 1488.51 1123.5 C 1491.15 1130.47 1493.43 1134.13 1497.19 1140.57 L 1509.9 1141.29 C 1510.08 1146.36 1511.09 1151.58 1508.14 1155.4 C 1504.27 1157.52 1500.83 1157.09 1496.31 1157.18 C 1493.27 1163.41 1491.36 1167.79 1488.89 1174.26 L 1497.37 1184.36 C 1493.19 1189.27 1490.58 1191.55 1485.78 1195.82 L 1475.12 1186.75 C 1469.77 1189.04 1464.68 1190.94 1459.23 1192.96 C 1458.99 1197.44 1458.32 1202.5 1457.83 1207.01 L 1441.04 1206.91 L 1440.82 1193.23 C 1434.91 1190.93 1428.86 1188.97 1422.84 1186.95 L 1414.37 1195.54 C 1409.59 1191.93 1406.72 1188.92 1402.54 1184.72 C 1405.09 1181.06 1407.59 1177.2 1410.07 1173.48 L 1402.71 1157.43 C 1398.49 1157.09 1393.5 1157.04 1389.21 1156.88 L 1389.11 1141.4 C 1393.57 1140.8 1398.04 1140.26 1402.51 1139.8 C 1405.04 1134.46 1408.24 1128.73 1410.93 1123.21 C 1407.97 1118.55 1406.16 1116.81 1402.44 1112.82 C 1406.59 1107.71 1408.53 1105.93 1413.36 1101.57 L 1423.87 1110.02 C 1430.62 1108.1 1434.89 1106.36 1440.8 1102.55 L 1441.96 1089.28 z M 1468.73 1158.63 C 1472.68 1151.36 1472.21 1142.49 1467.52 1135.68 C 1462.82 1128.87 1454.69 1125.29 1446.49 1126.41 C 1438.3 1127.53 1431.43 1133.17 1428.73 1140.99 C 1425.01 1151.77 1430.18 1163.6 1440.62 1168.2 C 1451.05 1172.81 1463.27 1168.64 1468.73 1158.63 z"/>
<path transform="translate(0,0)" fill="rgb(7,8,35)" d="M 1424.61 1136.97 C 1428.75 1127.69 1437.7 1121.47 1447.84 1120.8 C 1457.98 1120.13 1467.66 1125.13 1472.99 1133.79 C 1478.31 1142.45 1478.41 1153.35 1473.24 1162.1 C 1465.85 1174.62 1449.97 1179.18 1437.05 1172.51 C 1424.14 1165.84 1418.68 1150.24 1424.61 1136.97 z M 1468.73 1158.63 C 1472.68 1151.36 1472.21 1142.49 1467.52 1135.68 C 1462.82 1128.87 1454.69 1125.29 1446.49 1126.41 C 1438.3 1127.53 1431.43 1133.17 1428.73 1140.99 C 1425.01 1151.77 1430.18 1163.6 1440.62 1168.2 C 1451.05 1172.81 1463.27 1168.64 1468.73 1158.63 z"/>
<path transform="translate(0,0)" fill="rgb(0,0,0)" d="M 1424.61 1136.97 C 1424.8 1139.28 1424.97 1141.04 1425.33 1143.32 C 1427.8 1142.9 1426.59 1143.31 1428.73 1140.99 C 1425.01 1151.77 1430.18 1163.6 1440.62 1168.2 C 1451.05 1172.81 1463.27 1168.64 1468.73 1158.63 C 1470.18 1157.76 1471.37 1156.72 1472.59 1155.56 L 1473.07 1156.01 L 1472.1 1156.85 L 1473.41 1158.22 L 1473.24 1162.1 C 1465.85 1174.62 1449.97 1179.18 1437.05 1172.51 C 1424.14 1165.84 1418.68 1150.24 1424.61 1136.97 z"/>
<path transform="translate(0,0)" fill="rgb(0,0,0)" d="M 1606.78 948.142 C 1618.57 949.019 1696.66 946.84 1700.67 951.017 C 1702.29 958.762 1702.03 1025.62 1701.11 1034.75 C 1664.06 1035.48 1625.56 1033.84 1588.2 1034.72 C 1588.13 1026.74 1586.67 986.195 1590.86 982.747 C 1594.64 986.875 1593.88 991.039 1593.6 996.232 C 1593.54 1003.05 1593.61 1009.86 1593.82 1016.67 C 1600.99 1009.58 1612.18 996.266 1619.61 991.044 C 1627.71 995.805 1636.98 1004.62 1643.83 1011.24 C 1649.11 1004.78 1663.18 986.301 1670.15 984.857 C 1676.82 985.92 1690.71 1002.88 1696.61 1009.09 C 1696.8 992.848 1695.55 969.254 1696.72 953.954 L 1638.97 953.484 C 1633.4 953.484 1611.26 953.86 1607.43 953.222 L 1606.78 948.142 z"/>
<path transform="translate(0,0)" fill="rgb(43,75,238)" d="M 1670.84 989.74 C 1676.84 994.676 1690.46 1010.24 1695.92 1016.41 L 1696.46 1029.2 L 1598.75 1029.09 C 1595.14 1028.95 1596.2 1029.68 1594.05 1027.99 C 1594.44 1020.05 1614.12 1003.36 1620.49 997.358 C 1628.56 1004.38 1636.75 1011.79 1645.37 1018.09 C 1651.24 1009.97 1663.74 996.838 1670.84 989.74 z"/>
<path transform="translate(0,0)" fill="rgb(0,0,0)" d="M 444.371 1034.37 C 464.442 1031.76 482.918 1045.68 485.948 1065.69 C 488.978 1085.7 475.449 1104.46 455.504 1107.91 C 442.228 1110.2 428.749 1105.14 420.268 1094.67 C 411.788 1084.2 409.633 1069.96 414.634 1057.45 C 419.635 1044.94 431.01 1036.11 444.371 1034.37 z"/>
<path transform="translate(0,0)" fill="rgb(43,75,238)" d="M 441.055 1040.64 C 458.096 1036.21 475.478 1046.52 479.767 1063.6 C 484.055 1080.68 473.607 1097.98 456.497 1102.13 C 439.579 1106.23 422.516 1095.93 418.276 1079.04 C 414.035 1062.16 424.205 1045.01 441.055 1040.64 z"/>
<path transform="translate(0,0)" fill="rgb(0,0,0)" d="M 734.518 1344.19 C 747.753 1341.7 761.3 1346.57 769.913 1356.92 C 778.527 1367.28 780.855 1381.48 775.995 1394.04 C 771.135 1406.6 759.852 1415.55 746.513 1417.4 C 726.56 1420.19 708.033 1406.54 704.775 1386.66 C 701.518 1366.77 714.721 1347.93 734.518 1344.19 z"/>
<path transform="translate(0,0)" fill="rgb(43,75,238)" d="M 735.744 1349.54 C 752.954 1346.49 769.362 1358.02 772.329 1375.24 C 775.297 1392.46 763.692 1408.82 746.454 1411.7 C 729.331 1414.57 713.11 1403.06 710.162 1385.95 C 707.215 1368.84 718.648 1352.57 735.744 1349.54 z"/>
<path transform="translate(0,0)" fill="rgb(0,0,0)" d="M 663.901 824.082 C 691.097 825.13 720.867 823.208 747.396 825.064 C 743.034 835.217 728.969 856.592 722.493 868.433 C 717.209 876.672 711.059 889.249 705.553 898.453 C 699.998 890.206 665.415 831.272 663.901 824.082 z"/>
<path transform="translate(0,0)" fill="rgb(43,75,238)" d="M 671.71 829.016 C 693.767 829.215 715.825 829.199 737.882 828.969 C 731.224 842.247 724.227 853.949 716.651 866.747 C 712.287 874.401 709.324 880.11 705.632 888.105 C 693.879 868.508 683.162 848.748 671.71 829.016 z"/>
<path transform="translate(0,0)" fill="rgb(0,0,0)" d="M 1018.93 1322.5 C 1020.88 1323.45 1058.61 1389.96 1061.62 1395.89 C 1048.2 1395.2 1034.54 1395.24 1021.09 1395.11 C 1006.5 1395.05 991.904 1395.19 977.316 1395.51 C 980.779 1386.51 991.402 1370.73 996.72 1361.35 C 1003.9 1348.69 1011.29 1334.65 1018.93 1322.5 z"/>
<path transform="translate(0,0)" fill="rgb(43,75,238)" d="M 1018.53 1332.46 C 1023.14 1335.45 1048.28 1382.86 1052.52 1390.95 L 1020.09 1390.9 C 1008.72 1390.98 997.354 1390.94 985.986 1390.79 C 997.184 1370.76 1007.75 1353.03 1018.53 1332.46 z"/>
<path transform="translate(0,0)" fill="rgb(0,0,0)" d="M 631.199 955.671 C 646.001 952.386 660.64 961.81 663.777 976.644 C 666.914 991.478 657.344 1006.02 642.479 1009.01 C 627.823 1011.96 613.527 1002.55 610.434 987.925 C 607.341 973.298 616.604 958.909 631.199 955.671 z M 641.257 1003.33 C 652.864 1001.07 660.498 989.895 658.383 978.261 C 656.268 966.626 645.191 958.855 633.531 960.827 C 625.86 962.124 619.479 967.446 616.826 974.76 C 614.174 982.074 615.66 990.25 620.717 996.162 C 625.774 1002.08 633.62 1004.81 641.257 1003.33 z"/>
<path transform="translate(0,0)" fill="rgb(0,0,0)" d="M 1655.13 934.526 C 1662.53 934.304 1708.45 932.635 1711.45 936.492 C 1720.79 948.509 1715.67 990.393 1716.76 1007.48 C 1717.48 1018.74 1717.69 1039.36 1710.79 1047.56 C 1699.89 1052.44 1639.71 1047.37 1624.85 1049.1 C 1614.93 1050.26 1595.55 1048.56 1584.79 1049.15 C 1582.29 1049.28 1576.58 1046.3 1575.69 1043.77 C 1572.58 1033.49 1572.95 986.763 1574.52 978.32 C 1576.8 976.94 1575.56 977.191 1578.24 977.601 C 1580.32 981.699 1579.21 993.126 1579.02 998.239 C 1578.93 1007.77 1576.86 1031.19 1580.06 1039.08 C 1580.78 1040.85 1582.03 1041.34 1583.76 1041.92 C 1594.89 1045.64 1682.16 1045 1698.04 1043.74 C 1701.78 1043.45 1705.22 1042.95 1708.65 1041.32 C 1713.03 1033.78 1713.36 948.804 1709.06 942.078 C 1702.4 938.067 1632.18 940.098 1618.79 939.767 C 1617.18 937.279 1617.45 938.606 1618.01 935.645 C 1624.22 934.107 1647.34 934.543 1655.13 934.526 z"/>
<path transform="translate(0,0)" fill="rgb(0,0,0)" d="M 1550.17 922.883 L 1569.66 922.745 C 1569.6 928.025 1569.85 933.656 1569.98 938.964 C 1575.3 938.919 1580.62 938.922 1585.94 938.973 L 1586.16 922.757 L 1605.96 922.963 C 1606.44 930 1606.44 935.318 1606.31 942.391 L 1588.91 941.896 L 1589.38 957.047 L 1605.93 957.109 L 1605.97 976.098 C 1599.63 977.033 1593.15 976.326 1586.73 975.929 L 1586.65 960.022 L 1569.04 959.897 L 1569.02 976.903 C 1562.2 976.667 1556.65 976.47 1549.81 976.819 C 1548.3 957.99 1546.58 956.373 1565.95 956.611 L 1565.91 942.246 L 1550.04 941.885 L 1550.17 922.883 z M 1600.57 937.53 C 1600.98 934.367 1601.7 932.104 1600.32 929.336 C 1597.42 927.469 1595.45 927.956 1591.95 928.085 C 1591.94 932.808 1591.17 933.439 1593.15 936.951 C 1596.22 937.898 1597.41 937.659 1600.57 937.53 z"/>
<path transform="translate(0,0)" fill="rgb(43,75,238)" d="M 1571.77 943.723 C 1575.31 943.809 1579.87 943.409 1582.67 945.238 C 1584.52 948.139 1584.01 951.358 1584.01 954.963 C 1580.32 955.138 1576.62 955.712 1573.33 954.26 C 1571.14 951.486 1571.74 947.478 1571.77 943.723 z"/>
<path transform="translate(0,0)" fill="rgb(43,75,238)" d="M 1555.21 927.783 C 1558.47 927.764 1560.85 927.392 1563.71 928.853 C 1565.55 932.636 1564.82 932.484 1564.57 937.337 C 1561.38 937.738 1559.17 938.357 1556.17 937.292 C 1554.36 934.117 1555.11 931.906 1555.21 927.783 z"/>
<path transform="translate(0,0)" fill="rgb(43,75,238)" fill-opacity="0.988235" d="M 1591.95 928.085 C 1595.45 927.956 1597.42 927.469 1600.32 929.336 C 1601.7 932.104 1600.98 934.367 1600.57 937.53 C 1597.41 937.659 1596.22 937.898 1593.15 936.951 C 1591.17 933.439 1591.94 932.808 1591.95 928.085 z"/>
<path transform="translate(0,0)" fill="rgb(43,75,238)" d="M 1555.66 963.879 C 1557.52 961.901 1560.61 961.767 1562.63 963.577 C 1564.66 965.386 1564.86 968.478 1563.1 970.541 C 1561.92 971.919 1560.09 972.551 1558.32 972.193 C 1556.54 971.835 1555.1 970.542 1554.54 968.816 C 1553.99 967.09 1554.42 965.2 1555.66 963.879 z"/>
<path transform="translate(0,0)" fill="rgb(0,0,0)" d="M 1321.6 1029.72 C 1328.38 1027.5 1335.83 1029.12 1341.08 1033.96 C 1346.32 1038.79 1348.54 1046.08 1346.89 1053.02 C 1345.23 1059.96 1339.95 1065.46 1333.09 1067.4 C 1322.77 1070.32 1312.01 1064.45 1308.88 1054.19 C 1305.75 1043.93 1311.41 1033.05 1321.6 1029.72 z M 1330.07 1062.24 C 1337.64 1060.96 1342.78 1053.84 1341.59 1046.25 C 1340.41 1038.67 1333.34 1033.45 1325.74 1034.55 C 1320.75 1035.27 1316.53 1038.62 1314.69 1043.32 C 1312.86 1048.02 1313.69 1053.34 1316.87 1057.26 C 1320.06 1061.17 1325.1 1063.08 1330.07 1062.24 z"/>
<path transform="translate(0,0)" fill="rgb(0,0,0)" d="M 864.235 505.723 C 873.251 504.327 881.698 510.482 883.133 519.491 C 884.567 528.501 878.447 536.975 869.444 538.447 C 860.387 539.927 851.852 533.763 850.409 524.7 C 848.966 515.637 855.166 507.128 864.235 505.723 z M 870.5 531.923 C 874.173 530.676 876.886 527.543 877.596 523.729 C 878.305 519.916 876.9 516.016 873.922 513.531 C 870.943 511.047 866.855 510.364 863.231 511.746 C 857.768 513.829 854.98 519.902 856.961 525.402 C 858.943 530.903 864.964 533.803 870.5 531.923 z"/>
<path transform="translate(0,0)" fill="rgb(0,0,0)" d="M 1383.1 724.551 C 1388.8 722.875 1394.96 724.423 1399.18 728.593 C 1403.41 732.764 1405.04 738.899 1403.44 744.617 C 1401.84 750.335 1397.26 754.734 1391.48 756.105 C 1385.19 757.598 1378.61 755.235 1374.7 750.079 C 1370.79 744.923 1370.3 737.946 1373.44 732.29 C 1375.52 728.542 1378.99 725.762 1383.1 724.551 z M 1390.46 750.382 C 1396.12 749.032 1399.65 743.398 1398.41 737.716 C 1397.16 732.034 1391.59 728.399 1385.89 729.544 C 1382.1 730.303 1379.03 733.045 1377.84 736.714 C 1376.65 740.384 1377.53 744.41 1380.15 747.243 C 1382.77 750.077 1386.71 751.277 1390.46 750.382 z"/>
<path transform="translate(0,0)" fill="rgb(0,0,0)" d="M 731.95 790.174 C 753.572 789.757 775.993 790.063 797.66 789.997 C 807.594 789.967 828.306 789.426 837.306 790.512 C 839.625 793.413 838.953 791.722 838.723 795.986 C 824.727 795.382 736.254 796.886 732.69 794.477 L 731.95 790.174 z"/>
<path transform="translate(0,0)" fill="rgb(0,0,0)" d="M 1636.89 961.702 C 1641.57 960.639 1646.46 962.175 1649.69 965.722 C 1652.93 969.269 1654 974.281 1652.51 978.843 C 1651.02 983.405 1647.19 986.813 1642.49 987.765 C 1635.33 989.215 1628.34 984.638 1626.81 977.5 C 1625.28 970.362 1629.77 963.319 1636.89 961.702 z M 1641.42 982.528 C 1645.52 981.782 1648.23 977.849 1647.46 973.758 C 1646.7 969.666 1642.75 966.977 1638.66 967.762 C 1634.6 968.542 1631.93 972.456 1632.69 976.519 C 1633.45 980.583 1637.36 983.268 1641.42 982.528 z"/>
<path transform="translate(0,0)" fill="rgb(43,75,238)" fill-opacity="0.984314" d="M 1638.66 967.762 C 1642.75 966.977 1646.7 969.666 1647.46 973.758 C 1648.23 977.849 1645.52 981.782 1641.42 982.528 C 1637.36 983.268 1633.45 980.583 1632.69 976.519 C 1631.93 972.456 1634.6 968.542 1638.66 967.762 z"/>
<path transform="translate(0,0)" fill="rgb(0,0,0)" d="M 417.909 1234.27 C 422.354 1234.13 436.986 1233.62 440.759 1233.96 C 451.833 1234.95 522.364 1231.87 527.393 1235.3 L 527.632 1238.1 C 517.946 1238.12 422.173 1239.73 418.261 1238.04 L 417.909 1234.27 z"/>
<path transform="translate(0,0)" fill="rgb(0,0,0)" d="M 1521.72 1509.43 C 1532.81 1509.29 1570.28 1507.88 1578.77 1510.01 C 1581.14 1512.45 1580.42 1510.98 1580.53 1514.77 C 1566.49 1515.03 1534.76 1515.87 1521.86 1514.6 C 1520.51 1511.91 1521.02 1513.29 1521.72 1509.43 z"/>
<path transform="translate(0,0)" fill="rgb(0,0,0)" d="M 346.208 1292.49 C 361.943 1292.15 392.976 1291.15 407.852 1292.36 C 409.821 1295.04 409.06 1293.53 408.697 1297.99 C 399.458 1297.39 351.258 1298.25 347.193 1296.42 L 346.208 1292.49 z"/>
<path transform="translate(0,0)" fill="rgb(0,0,0)" d="M 626.908 765.434 C 632.212 764.873 641.147 763.836 644.824 768.184 L 643.798 769.885 C 639.766 771.914 635.42 771.386 630.75 771.405 C 624.512 771.515 619.454 772.355 614.147 769.104 L 614.242 767.575 C 618.161 765.117 622.115 765.589 626.908 765.434 z"/>
<path transform="translate(0,0)" fill="rgb(0,0,0)" d="M 365 1207.33 C 371.924 1207.58 392.536 1205.32 396.835 1209.49 L 396.583 1212.63 C 388.755 1212.83 370.261 1214.29 364.621 1210.77 L 365 1207.33 z"/>
<path transform="translate(0,0)" fill="rgb(0,0,0)" d="M 727.757 1103.03 C 736.062 1102.91 751.487 1101.69 759.622 1103.8 C 761.011 1104.16 760.867 1105.73 761.398 1107.82 C 752.992 1107.95 737.963 1109.14 729.728 1107.05 C 728.251 1106.68 728.388 1105.21 727.757 1103.03 z"/>
<path transform="translate(0,0)" fill="rgb(0,0,0)" d="M 584.218 1053.29 C 592.128 1052.87 603.937 1051.74 611.487 1053.72 C 613.189 1054.17 613.23 1055.54 614.325 1057.78 C 607.479 1058.12 590.809 1059.55 585.279 1056.92 L 584.218 1053.29 z"/>
</svg>