<svg version="1.1" xmlns="http://www.w3.org/2000/svg" style="display: block;" viewBox="0 0 2048 2048" width="1024" height="1024" preserveAspectRatio="none">
<defs>
	<linearGradient id="Gradient1" gradientUnits="userSpaceOnUse" x1="827.771" y1="1385.82" x2="850.358" y2="1389.36">
		<stop class="stop0" offset="0" stop-opacity="0.94902" stop-color="rgb(8,10,27)"/>
		<stop class="stop1" offset="1" stop-opacity="1" stop-color="rgb(0,0,0)"/>
	</linearGradient>
	<linearGradient id="Gradient2" gradientUnits="userSpaceOnUse" x1="782.721" y1="789.837" x2="803.846" y2="624.508">
		<stop class="stop0" offset="0" stop-opacity="0.890196" stop-color="rgb(255,255,254)"/>
		<stop class="stop1" offset="1" stop-opacity="1" stop-color="rgb(255,255,255)"/>
	</linearGradient>
	<linearGradient id="Gradient3" gradientUnits="userSpaceOnUse" x1="794.921" y1="961.576" x2="597.611" y2="987.378">
		<stop class="stop0" offset="0" stop-opacity="0.819608" stop-color="rgb(255,255,254)"/>
		<stop class="stop1" offset="1" stop-opacity="1" stop-color="rgb(255,255,255)"/>
	</linearGradient>
</defs>
<path transform="translate(0,0)" fill="rgb(0,0,1)" d="M 1394.74 675.818 C 1423.18 664.306 1451.95 649.925 1479.74 636.646 L 1591.03 583.724 C 1609.33 574.984 1638.59 559.151 1656.54 552.421 C 1657.76 563.122 1662.3 581.945 1664.61 592.99 L 1678.61 660.985 L 1701.17 769.417 C 1705.48 789.839 1709.96 813.145 1715.26 833.191 C 1687.24 821.218 1653.02 802.388 1624.84 788.487 C 1591.89 856.709 1557.99 924.466 1523.15 991.739 L 1494.51 1048.32 C 1489.29 1058.54 1482.95 1069.43 1478.83 1080.01 C 1513.84 1081.36 1550.78 1079.71 1585.94 1080.3 C 1600.91 1080.83 1618.16 1079.19 1632.91 1081.27 C 1653.66 1084.72 1657.8 1118.51 1645.01 1131.46 C 1635.62 1140.97 1618.42 1139.43 1606.17 1139.36 C 1593.33 1139.28 1580.34 1139.2 1567.48 1139.14 C 1572.73 1171.65 1576.06 1207.07 1579.89 1240 L 1598.59 1401.8 C 1607.49 1481.03 1619.45 1564.71 1626.37 1643.52 C 1632.65 1643.4 1660.5 1642.16 1664.64 1644.43 L 1664.91 1646.57 C 1663.06 1648.11 1663.7 1648.01 1660.93 1648 C 1633.68 1647.88 1606.15 1647.86 1578.92 1647.86 L 1406.57 1647.87 L 635.288 1647.79 L 422.01 1647.87 L 362.133 1647.88 C 355.722 1647.9 334.572 1649.46 331.326 1645.56 L 332.62 1644.29 C 345.044 1642.89 360.177 1643.3 372.702 1643.84 C 374.239 1622.38 378.397 1594.59 381.023 1572.49 L 400.76 1415.09 L 433.921 1139.43 C 412.406 1139.02 390.852 1140.42 369.496 1138.78 C 339 1136.43 342.624 1082.5 367.32 1081.53 C 438.698 1078.75 512.691 1081.54 584.061 1080.14 C 586.82 1059.02 594.818 1041.35 597.723 1021.15 C 598.489 1015.82 593.767 998.38 593.571 988.842 C 592.866 954.443 598.491 923.08 606.714 889.84 C 602.074 885.184 597.869 880.113 594.15 874.692 C 581.609 856.421 576.95 833.87 581.223 812.124 C 590.711 765.911 638.391 756.725 664.499 726.65 C 700.511 684.698 686.043 619.899 738.539 587.698 C 768.77 569.155 787.207 568.439 819.654 580.101 C 841.248 587.863 856.887 590.008 869.039 612.522 C 903.931 677.171 864.289 748 848.746 810.682 C 857.426 824.726 886.286 879.244 889.485 892.875 C 888.611 895.73 885.763 897.073 883.128 898.913 C 888.561 907.998 902.906 947.624 906.603 959.182 C 911.573 967.077 914.767 977.159 922.559 982.671 C 943.494 997.484 996.041 989.034 1021.34 985.721 C 1027.16 969.354 1034.88 951.655 1041.17 935.388 C 1045.93 923.081 1055.72 893.295 1064.7 885.67 C 1082.44 881.361 1115.53 883.17 1134.92 883.181 L 1236.42 883.267 L 1290.84 883.26 C 1301.58 883.235 1322.77 882.544 1332.21 884.801 C 1337.12 889.033 1337.29 894.62 1335.12 900.438 C 1330.42 913.065 1325.08 925.544 1319.97 938.02 C 1309.98 962.292 1300.13 986.622 1290.43 1011.01 C 1283.38 1028.73 1276.61 1048.61 1268.2 1065.9 C 1266.59 1069.2 1267.74 1073.75 1264.61 1079.78 C 1266.39 1080.8 1301.1 1080.23 1305.65 1080.22 C 1320.02 1050.27 1335.7 1021.22 1350.52 991.534 L 1486.18 720.784 C 1461.85 705.937 1421.53 690.555 1394.74 675.818 z M 903.494 963.097 C 896.259 950.002 885.476 916.236 880.058 900.671 C 872.793 904.084 863.54 908.733 856.193 911.479 C 852.635 924.806 848.514 933.898 844.216 946.421 C 840.013 958.666 839.85 980.834 840.149 993.626 C 855.229 994.837 870.298 996.179 885.355 997.649 C 920.955 1001.2 944.981 1006 969.153 1034.76 C 973.563 1040 978.932 1045.98 979.96 1052.8 C 976.782 1061.04 970.874 1055.47 966.719 1060.92 C 969.543 1064.47 985.195 1063.03 990.166 1062.93 C 998.427 1044.51 1012.65 1009.66 1018.78 990.705 C 980.97 994.57 920.119 1009.67 903.494 963.097 z M 595.636 1582.36 C 605.5 1579.55 667.532 1580 681.071 1580.48 C 682.709 1560.98 678.687 1459.4 681.792 1453.14 C 684.594 1453.14 686.496 1453.12 689.326 1452.91 C 690.545 1448.96 690.176 1413.81 690.11 1407.36 C 689.8 1376.78 690.418 1345.53 689.863 1314.99 C 667.522 1313.33 645.745 1314.45 623.44 1314.65 C 609.497 1314.77 589.714 1316.43 576.498 1313.08 C 568.676 1311.14 561.686 1306.74 556.56 1300.52 C 540.568 1281.47 545.242 1250.53 564.105 1235.16 C 576.227 1225.28 590.054 1224.9 604.844 1225.88 C 582.844 1199.28 578.954 1173.83 580.9 1140.09 C 569.04 1138.75 553.464 1139.25 541.139 1139.27 L 481.502 1139.27 C 480.231 1157.09 475.76 1182.93 473.002 1201.24 L 456.326 1311.5 L 408.789 1643.3 C 470.583 1643.28 535.86 1644.83 597.342 1643.49 C 583.764 1631.25 584.824 1620.29 594.929 1606.1 C 589.479 1606.77 589.769 1607.63 585.652 1605.66 C 583.18 1600.68 585.291 1595.68 586.662 1589.99 C 590.427 1586.16 591.224 1585.22 595.636 1582.36 z M 1245.28 1299.86 C 1245.6 1304.22 1246.08 1307.82 1246.7 1312.15 L 1247.38 1312.58 C 1248.53 1305.45 1248.02 1298.62 1247.78 1291.41 C 1250.36 1285.59 1251.44 1284.63 1256.79 1281.17 C 1271.07 1280.91 1408.74 1281.29 1412 1280.03 L 1412.34 1276 C 1407.78 1272.56 1272.91 1276.67 1254.33 1273.24 C 1245.61 1271.63 1247.44 1250.49 1247.65 1244.51 C 1246.82 1218.21 1251.15 1220.15 1274.19 1220.02 L 1372.01 1219.9 C 1387.65 1219.9 1422.49 1218.01 1437.04 1222.86 C 1441.98 1224.5 1444.66 1267.92 1436.72 1272.21 C 1430.43 1275.61 1419.66 1273.21 1417.97 1278.82 L 1418.71 1280.07 C 1431.74 1281.93 1432.28 1276.84 1440.93 1289.02 C 1441.07 1297.32 1443.13 1324.73 1438.57 1331.09 C 1433.6 1338.03 1419.48 1332.88 1417.86 1337.94 C 1420.82 1345.36 1438.04 1340.51 1440.14 1349.79 C 1442.36 1359.58 1442.27 1381.99 1439.19 1391.81 C 1436.56 1400.18 1421.81 1395.68 1418.44 1398.71 C 1419.29 1402.56 1418.29 1401.1 1421.36 1403.34 C 1446.82 1406.35 1438.48 1406.9 1441.34 1426.97 C 1447.05 1467.06 1421.83 1455.7 1417.66 1461.4 C 1418.5 1464.21 1417.77 1462.99 1420.33 1464.78 C 1431.45 1466.15 1433.56 1463.21 1440.84 1472.84 C 1441.06 1483.35 1442.58 1505.43 1439.23 1514.47 C 1432.08 1521.5 1412.69 1519.47 1402.68 1519.44 L 1354.96 1519.25 L 1354.67 1586.01 C 1354.59 1595.64 1353.69 1612.9 1354.72 1621.55 C 1372.31 1621.47 1390.04 1621.13 1407.62 1621.44 C 1427.1 1621.78 1428.78 1626.34 1428.02 1643.28 C 1479.82 1643.62 1539.53 1645 1590.79 1643.19 L 1520.1 1139.19 L 1225.64 1139.24 C 1227.24 1155.74 1230.01 1172.71 1232.08 1189.26 L 1241.34 1268 C 1242.55 1278.18 1244.45 1289.83 1245.28 1299.86 z M 1259.75 1063.56 C 1262.26 1063.3 1264.31 1063.68 1265.88 1061.31 C 1267.87 1058.28 1330.29 900.38 1331.75 892.797 C 1330.85 890.942 1330.97 889.912 1328.92 889.217 C 1319.34 885.973 1223.75 887.858 1206.09 887.852 C 1164.68 887.839 1122.47 886.18 1081.14 888.036 C 1069.65 905.364 1061.51 930.22 1053.34 950.205 C 1037.82 987.623 1022.69 1025.2 1007.94 1062.93 C 1030.23 1064.23 1055.55 1063.67 1078.05 1063.35 C 1138.1 1062.47 1199.92 1065.32 1259.75 1063.56 z M 1199.36 1549.23 C 1182.82 1548.99 1166.27 1548.9 1149.72 1548.95 L 1158.72 1584.95 C 1175.71 1597.94 1201.67 1613.77 1220.15 1625.12 C 1224.53 1627.97 1226.55 1629.11 1230.33 1632.82 L 1233.67 1643.04 L 1248.43 1643.04 C 1226.92 1499.73 1210.04 1354.87 1188.32 1211.49 C 1184.72 1187.71 1182.35 1162.95 1178.7 1139.39 L 1069.59 1139.1 C 1054.51 1139.07 1027.94 1138.18 1013.59 1139.21 C 1048.42 1154.38 1070.65 1168.56 1084.68 1205.37 C 1095.02 1232.49 1102.71 1261.89 1112.44 1289.26 C 1142.96 1375.16 1169.32 1463.33 1199.36 1549.23 z M 702.923 1069.17 C 719.308 1070.94 744.316 1069.42 761.215 1068.29 C 781.137 1066.79 801.043 1065.08 820.932 1063.19 C 860.619 1059.63 864.981 1059.68 901.403 1042.11 C 913.084 1045.54 934.464 1060.86 941.625 1058.96 C 946.252 1046.22 918.313 1033.7 909.713 1028 L 909.592 1026.89 C 931.908 1028.2 952.711 1062 962.815 1058.55 C 967.364 1041.49 920.178 1019.83 918.259 1015.15 L 919.817 1014.3 C 941.861 1017.8 955.956 1040.37 968.504 1052.94 C 970.977 1053.95 972.606 1053.48 975.272 1053.17 L 975.768 1052.04 C 972.656 1046.55 969.122 1041.3 965.198 1036.35 C 943.454 1008.97 918.233 1005.73 886.006 1002.4 C 870.725 1000.95 855.452 999.402 840.189 997.771 L 840.392 997.157 L 831.752 996.56 C 830.678 996.121 825.625 995.636 824.154 995.457 C 804.788 993.712 707.116 983.804 696.856 976.007 C 685.489 967.369 704.523 920.091 701.097 906.765 L 698.32 905.401 C 672.175 901.606 636.638 894.587 610.773 888.752 C 601.022 928.869 586.405 995.158 608.707 1031.88 C 619.99 1050.46 638.553 1058.65 658.868 1063.52 C 673.321 1066.91 688.083 1068.8 702.923 1069.17 z M 712.706 1643.13 C 721.005 1643.49 730.878 1643.21 739.296 1643.19 L 810.72 1139.02 L 771.118 1138.96 C 770.465 1145.54 769.685 1152.11 768.777 1158.66 C 767.74 1167.55 760.52 1238.24 758.381 1242.76 C 756.952 1266.14 752.58 1293.27 750.271 1317.07 C 739.756 1425.44 723.342 1534.87 712.706 1643.13 z M 1595.35 1643.19 C 1604.34 1643.14 1613.34 1643.24 1622.32 1643.48 L 1591.63 1379.09 C 1582.27 1301.35 1570.52 1216.47 1563.65 1139.17 L 1523.9 1139.23 C 1531.53 1183.55 1536.8 1230 1543.08 1274.6 L 1570.16 1461.63 L 1586.64 1578.21 C 1589.18 1595.98 1594.2 1625.87 1595.35 1643.19 z M 1280.25 1643.25 C 1275.9 1610.28 1272.66 1574.21 1268.68 1540.72 L 1221.17 1139.18 L 1182.73 1139.23 C 1185.54 1172.36 1193.37 1218.46 1198.26 1252.28 L 1225.46 1443.09 L 1244.35 1577.49 C 1246.51 1593.27 1250.08 1629.29 1253.36 1643.08 L 1280.25 1643.25 z M 405.701 1633.76 L 454.286 1296.51 C 459.159 1261.82 464.216 1227.16 469.456 1192.52 C 471.966 1175.7 474.366 1155.93 477.611 1139.48 C 464.458 1139.19 451.302 1139.08 438.146 1139.15 L 397.926 1473.53 C 391.205 1528.52 385.12 1589.22 376.957 1643.46 C 385.951 1643.3 395.62 1642.94 404.548 1643.4 L 405.701 1633.76 z M 971.409 1549.61 C 953.732 1549.05 935.73 1549.68 918.254 1549.04 C 916.11 1557.67 910.701 1577.58 907.516 1585.69 C 918.582 1594.35 929.881 1602.72 941.399 1610.78 C 955.006 1620.31 970.711 1626.38 974.66 1643.3 C 1005.07 1644.41 1041.69 1641.77 1070.95 1643.5 C 1070.99 1626.22 1072.01 1599.81 1070.01 1583.4 C 1069.39 1578.35 1061.32 1557.09 1059.36 1549.23 C 1048.82 1549.31 1036.99 1549.13 1026.56 1549.65 C 1023.63 1540.54 1020.83 1531.39 1018.16 1522.2 C 1016.56 1513.51 995.149 1443.72 992.338 1442.2 C 984.622 1474.2 978.457 1516.13 971.409 1549.61 z M 998.18 1079.52 C 999.038 1075.63 999.974 1071.66 1000.7 1067.74 C 989.415 1066.85 978.495 1067.56 967.335 1067.17 C 930.832 1065.89 890.609 1068.75 854.549 1067.04 C 852.52 1070.17 851.428 1071.29 850.985 1075.02 C 851.529 1076.57 852.103 1079.04 853.988 1079.09 C 892.685 1080.02 962.603 1081.73 998.18 1079.52 z M 1280.73 1469.5 C 1275.49 1469.71 1270.24 1469.82 1265 1469.86 C 1265.91 1478.11 1266.7 1486.85 1268.24 1494.97 C 1272.05 1496.5 1272.02 1494.24 1276.57 1495.41 C 1277.24 1498.86 1277.12 1498.69 1276.46 1502.19 C 1271.23 1507.76 1267.9 1499.97 1270.09 1515.03 L 1418.25 1514.93 C 1423.43 1515.08 1434.68 1516.41 1435.86 1509.7 C 1437.65 1499.54 1438.41 1481.72 1434.52 1472.4 C 1428.04 1467.34 1301.19 1470.58 1280.91 1469.48 C 1280.85 1469.49 1280.79 1469.5 1280.73 1469.5 z M 1069.36 888.469 C 1066.86 890.216 1064.41 892.159 1063.09 894.942 C 1052.61 916.925 1043.52 941.474 1034.4 964.043 C 1025.24 986.396 1016.35 1008.86 1007.75 1031.43 C 1004.52 1039.75 998.33 1053.85 996.096 1061.53 C 998.565 1062.59 999.432 1062.77 1002.07 1063.42 C 1008.15 1051.96 1015.77 1031.56 1020.84 1019.01 L 1056.33 930.325 C 1057.27 928.013 1072.82 889.035 1072.82 889.297 C 1071.09 888.735 1071.15 888.639 1069.36 888.469 z M 865.263 1282.86 C 861.818 1281.53 861.656 1281.24 857.865 1281.27 C 853.836 1283.59 849.845 1297.88 845.318 1302.66 C 831.566 1317.18 808.181 1315.64 789.503 1314.39 C 785.505 1351.74 778.533 1393.68 773.142 1431.26 L 752.572 1580.22 C 780.746 1580.94 806.776 1570.65 811.923 1605.89 C 807.691 1606.1 801.921 1606.57 797.82 1606.42 C 809.585 1620.32 808.02 1631.9 794.483 1643.61 L 809.766 1643.16 C 813.883 1600.22 815.958 1590.18 829.874 1549.43 C 818.996 1549.43 805.423 1549.83 794.761 1549.33 C 797.805 1537.83 801.046 1524.18 804.459 1512.96 C 805.578 1505.7 812.682 1481.37 815.16 1473.67 C 815.92 1480.19 814.382 1487.9 811.492 1493.8 C 813.021 1490.89 815.213 1486.04 817.059 1483.67 C 817.732 1482.13 820.555 1471.7 821.62 1468.72 C 822.316 1463.35 825.116 1453.74 826.579 1448.15 C 829.637 1438.05 849.419 1351.68 853.005 1350.16 C 854.705 1349.44 854.921 1351.04 857.335 1349.5 C 856.725 1347.48 854.542 1340 854.805 1338.34 C 857.424 1321.88 868.513 1294.61 868.843 1278.87 L 865.69 1280.56 C 865.611 1281.09 865.479 1282.46 865.263 1282.86 z M 749.713 1602.03 L 806.782 1602.04 C 807.63 1578.62 768.068 1584.79 751.857 1585 L 749.713 1602.03 z M 714.336 1585.29 C 678.648 1585.19 639.755 1584.3 604.26 1585.19 C 596.35 1587.36 589.259 1590.77 589.568 1600.43 C 592.698 1603.14 685.775 1601.56 697.751 1601.88 L 712.581 1602.15 C 713.015 1596.03 713.346 1591.37 714.336 1585.29 z M 749.221 1606.27 C 747.62 1617.62 745.9 1632.45 743.55 1643.49 C 752.531 1643.6 763.584 1643.43 772.391 1644.06 C 758.129 1633.19 758.712 1620.16 768.208 1606.45 C 760.682 1606.8 756.693 1606.92 749.221 1606.27 z M 1002.31 1079.83 L 1184.17 1079.98 C 1197.48 1079.95 1249.02 1080.9 1259.42 1078.4 C 1262.16 1074.3 1262.52 1073.96 1263.82 1069.33 L 1262.96 1068.03 L 1084.84 1067.82 L 1035.8 1067.8 C 1028.81 1067.79 1012.58 1067.96 1005.94 1066.99 L 1002.31 1079.83 z M 624.293 1606.57 C 634.906 1621.52 633.937 1631.63 620.345 1643.94 C 646.886 1643.7 678.955 1642.62 705.247 1643.47 L 707.485 1642.6 C 709.671 1636.63 710.553 1615.74 712.524 1606.7 C 682.415 1605.83 652.997 1607.21 624.293 1606.57 z M 899.902 1046.91 C 887.012 1053.6 877.531 1057.85 863.659 1063.05 L 898.75 1063.31 L 935.92 1062.97 C 924.363 1058.31 910.137 1047.34 899.902 1046.91 z M 1349.91 1465.06 C 1349.66 1460.45 1350.43 1461.27 1348.01 1458.45 C 1344.21 1457.79 1341.84 1458.13 1337.96 1458.35 C 1337.97 1462.82 1337.22 1462.28 1339.47 1464.69 C 1343.9 1465.5 1345.69 1464.94 1349.91 1465.06 z M 970.73 1139.12 L 955.258 1139 C 958.656 1140.84 959.317 1141.23 962.979 1142.28 C 966.564 1142.3 970.251 1142.14 973.845 1142.04 L 974.088 1141.01 L 970.73 1139.12 z M 1350.69 1621.38 C 1350.47 1601.11 1350.36 1580.84 1350.38 1560.57 C 1350.44 1550.95 1351.21 1529.51 1350.18 1520.83 C 1346.54 1519.23 1343.17 1519.45 1339.15 1519.27 C 1339.27 1530.74 1338.4 1615.24 1340.48 1620.64 C 1344.28 1621.1 1346.86 1621.28 1350.69 1621.38 z M 1353.14 1396.91 C 1353.67 1400.23 1353.29 1401.76 1355.15 1403.84 C 1370.34 1404.61 1398.28 1405.06 1413.37 1403.78 C 1413.33 1400.12 1414.05 1399.27 1412.2 1397.3 C 1396.45 1395.85 1370.03 1397.14 1353.14 1396.91 z M 1349.53 1404.19 C 1348.98 1399.16 1349.89 1399.75 1347.07 1397.09 C 1343.25 1396.55 1340.52 1396.78 1336.65 1396.9 C 1337.23 1401.55 1336.39 1401.25 1339 1403.82 C 1343.4 1404.65 1345.33 1404.06 1349.53 1404.19 z M 1263.04 1457.95 C 1263.82 1461.34 1263.49 1462.88 1265.58 1464.71 C 1283.47 1466.32 1314.16 1464.79 1333.21 1465.08 C 1332.96 1462.2 1333.35 1459.76 1331.8 1458.14 C 1315.12 1456.71 1281.08 1457.81 1263.04 1457.95 z M 1248.56 1329.47 C 1249.04 1332.53 1250.42 1343.51 1251.22 1345.44 C 1256.03 1345.04 1252.89 1342.45 1260.84 1342.31 C 1275.85 1342.06 1291.17 1342.45 1306.17 1342.38 C 1341.12 1342.09 1376.07 1342 1411.03 1342.1 C 1413.32 1340.49 1412.43 1341.56 1413.11 1338.29 C 1412.28 1336.76 1412.25 1335.84 1410.87 1335.68 C 1403.09 1334.78 1392.4 1335.33 1384.53 1335.34 L 1293.2 1335.15 C 1281.8 1335.13 1267.73 1335.4 1256.21 1334.62 C 1254.12 1334.47 1250.37 1331.03 1248.56 1329.47 z M 1412.49 1465.12 L 1412.46 1459.51 C 1409.7 1457.01 1361.72 1458.25 1354.76 1458.21 C 1354.33 1462 1353.52 1462.61 1355.16 1464.97 C 1374.35 1465.84 1392.38 1463.16 1412.49 1465.12 z M 967.144 1545.38 C 968.747 1540.44 969.604 1535.56 970.642 1530.48 C 966.886 1530.49 964.589 1530.01 961.685 1532.26 C 961.124 1536.15 963.551 1538.18 966.233 1540.65 C 966.429 1541.77 966.817 1544.44 967.144 1545.38 z M 786.856 794.082 C 800.828 788.526 799.814 775.437 801.737 762.097 C 794.901 757.409 775.77 743.357 776.409 734.557 L 778.027 734.245 C 829.657 767.285 853.563 730.41 857.696 681.776 C 860.092 653.585 856.407 646.837 839.123 625.164 C 822.005 649.789 798.654 665.671 767.406 665.567 C 760.602 665.545 752.467 660.739 745.925 664.696 C 728.697 675.115 735.251 695.419 754.695 699.355 C 752.622 716.556 745.78 746.811 742.279 765.157 C 743.698 767.884 745.541 770.802 747.141 773.47 C 755.4 782.358 761.074 787.831 772.87 792.167 C 778.729 793.998 780.89 793.891 786.856 794.082 z M 1255.44 1395.95 C 1256.32 1400.3 1255.69 1400.86 1258.19 1403.66 C 1265.89 1404.28 1328.35 1404.93 1333.6 1403.37 L 1332.41 1397.61 C 1325.12 1394.85 1269.26 1397.42 1255.44 1395.95 z M 722.919 1505.73 C 724.313 1500.27 725.723 1494.48 725.697 1488.79 L 746.436 1314.47 C 736.334 1314.04 724.418 1314.22 714.175 1314.14 C 714.526 1331.01 713.808 1449.23 715.388 1452.62 C 718.558 1452.85 719.134 1452.74 722.183 1453.82 C 723.702 1457.08 723.242 1469.85 723.324 1474.39 C 723.185 1484.75 722.927 1495.39 722.919 1505.73 z M 1129.22 1642.92 C 1122.34 1637.52 1116.45 1633.92 1109.07 1629.34 L 1108.25 1643.02 C 1115.12 1643.01 1122.39 1643.11 1129.22 1642.92 z M 867.408 1643.84 C 867.116 1640.5 853.625 1631.74 850.437 1629.51 L 848.62 1643.61 C 854.645 1643.56 861.474 1643.3 867.408 1643.84 z M 1396.25 1330.77 C 1401.55 1330.84 1409.79 1330.78 1414.84 1330.97 C 1435.99 1331.78 1437.11 1330.32 1437.3 1308.7 C 1437.35 1302.7 1437.92 1292.53 1433.66 1287.54 C 1423.64 1284.75 1377.37 1286.18 1362.6 1286.01 C 1342.77 1285.79 1317.7 1285.43 1297.57 1285.46 C 1258.96 1286.82 1249.02 1275.98 1252.61 1321.67 C 1252.81 1324.21 1253.49 1325.8 1254.62 1327.98 C 1261 1332.66 1304.33 1330.94 1314.33 1330.87 L 1396.25 1330.77 z M 1431.92 1269.69 C 1440.09 1263.11 1436.34 1255.15 1436.93 1245.69 C 1437.32 1239.39 1437.89 1232.36 1434.64 1226.8 C 1427.72 1222.75 1277.42 1223.51 1256.33 1224.06 C 1252.82 1227.21 1251.23 1230.04 1251.29 1234.84 C 1251.4 1243.66 1249.62 1259.61 1253.92 1267.13 C 1259.32 1271.32 1289.49 1270.18 1297.51 1270.11 C 1342.25 1269.72 1387.2 1270.65 1431.92 1269.69 z M 693.715 1314.33 C 693.39 1359.16 693.347 1408.28 694.051 1453.03 L 710.115 1453.3 C 710.191 1409.27 709.116 1357.93 710.751 1314.37 L 693.715 1314.33 z M 1282.93 1625.76 C 1283.31 1631.52 1283.66 1637.38 1284.12 1643.13 L 1424.07 1643.15 C 1424.16 1636.26 1425.18 1626.88 1415.65 1626.44 C 1371.81 1624.42 1326.66 1627.41 1282.93 1625.76 z M 833.574 1549.57 C 830.042 1558.84 826.878 1572.57 823.24 1583.11 C 850.191 1583.33 877.143 1583.26 904.092 1582.92 C 907.081 1573.19 911.848 1558.95 914.038 1549.39 C 888.49 1548.96 857.753 1550.46 833.574 1549.57 z M 1063.66 1549.05 C 1067.48 1560.42 1071.46 1571.73 1075.61 1582.99 C 1101.31 1584.21 1128.16 1582.82 1154 1583.07 C 1151.11 1571.84 1148.06 1560.5 1145.6 1549.18 C 1118.41 1548.89 1090.6 1549.56 1063.66 1549.05 z M 685.067 1456.87 C 685.466 1496.04 684.486 1542.6 686.033 1580.75 C 692.076 1580.71 708.896 1581 714.023 1580.06 C 715.067 1578.2 714.849 1579 715.082 1577.79 C 721.29 1537.82 717.918 1498.32 718.741 1457.21 C 710.44 1458.27 693.531 1457.54 685.067 1456.87 z M 1270.83 1519.19 C 1273.21 1551.87 1278.58 1588.8 1282.29 1621.77 C 1298.32 1621.56 1318.82 1620.72 1334.5 1621.42 C 1335.43 1611.75 1334.81 1595.71 1334.8 1585.35 L 1334.8 1519.91 C 1313.06 1518.81 1292.17 1519.77 1270.83 1519.19 z M 1430.74 1392.44 C 1437.67 1389.46 1437.17 1384.29 1436.97 1377.53 C 1436.69 1368.38 1438.88 1357.65 1434.68 1349.4 C 1430.76 1346.39 1414.24 1347.2 1408.54 1347.27 C 1358.01 1347.88 1307.14 1345.91 1256.66 1347.05 C 1248.44 1356.13 1254.01 1380.24 1255.74 1391.73 C 1277.28 1392.82 1298.79 1392.53 1320.34 1392.41 C 1357.14 1392.2 1393.93 1392.99 1430.74 1392.44 z M 1257.72 1408.29 C 1259.16 1423.42 1260.78 1438.54 1262.59 1453.63 L 1371.66 1453.88 C 1381.88 1453.94 1429.6 1455.72 1435.55 1451.57 C 1437.16 1445.37 1440.24 1410.71 1431.72 1409.86 C 1412.29 1407.94 1391.42 1408.61 1371.82 1408.54 C 1333.79 1408.15 1295.76 1408.07 1257.72 1408.29 z"/>
<path transform="translate(0,0)" fill="rgb(6,6,16)" d="M 880.058 900.671 L 882.014 900.453 L 883.128 898.913 C 888.561 907.998 902.906 947.624 906.603 959.182 L 906.011 958.508 C 903.342 955.419 902.798 954.418 900.895 950.814 L 901.734 951.424 L 900.601 950.525 C 902.244 954.119 903.822 959.147 903.494 963.097 C 896.259 950.002 885.476 916.236 880.058 900.671 z"/>
<path transform="translate(0,0)" fill="rgb(39,73,247)" d="M 952.142 1142.83 C 953.48 1141.08 953.314 1141.16 953.78 1139.04 L 955.258 1139 C 958.656 1140.84 959.317 1141.23 962.979 1142.28 C 966.564 1142.3 970.251 1142.14 973.845 1142.04 L 974.088 1141.01 L 970.73 1139.12 C 977.398 1138.95 989.685 1138.44 995.956 1139.22 C 1016.84 1141.82 1041.12 1154.76 1056.33 1169.01 C 1064.39 1176.56 1074.67 1190.84 1078.85 1201.03 C 1085.53 1217.29 1091.34 1236.02 1096.94 1252.82 L 1126.04 1340.43 L 1169.43 1471.7 C 1177.32 1495.35 1186.8 1521.71 1193.95 1545.35 C 1157.63 1544.95 1121.3 1544.8 1084.97 1544.9 C 1074.39 1506.01 1063.27 1467.27 1051.62 1428.69 C 1046.95 1412.83 1042.61 1395.87 1037.78 1380.25 L 1034.94 1383.6 C 1049.26 1437.47 1066.7 1491.37 1080.6 1544.97 L 1028.82 1545.2 C 1025.91 1535 1023.1 1525 1019.75 1514.92 L 1018.16 1522.2 C 1016.56 1513.51 995.149 1443.72 992.338 1442.2 L 990.109 1439 C 982.353 1462.63 973.934 1505.86 970.642 1530.48 C 966.886 1530.49 964.589 1530.01 961.685 1532.26 C 961.124 1536.15 963.551 1538.18 966.233 1540.65 C 966.429 1541.77 966.817 1544.44 967.144 1545.38 C 958.76 1544.43 937.09 1545.1 928.044 1545.15 L 862.097 1544.97 C 864.52 1530.58 866.69 1512.19 875.594 1501.31 C 877.207 1499.33 874.939 1495.97 873.971 1493.95 C 876.981 1480.97 901.118 1371.78 903.613 1368.07 L 907.757 1368.52 L 908.936 1367.02 C 908.137 1361.42 904.103 1365.62 904.522 1362.56 C 913.882 1294.16 960.009 1217.09 851.819 1211.49 C 841.928 1210.98 816.489 1206.97 805.858 1204.8 C 808.771 1183.02 812.152 1161.07 815.336 1139.31 C 841.207 1138.46 931.362 1136.43 952.142 1142.83 z"/>
<path transform="translate(0,0)" fill="rgb(39,73,247)" d="M 970.73 1139.12 C 977.398 1138.95 989.685 1138.44 995.956 1139.22 C 1016.84 1141.82 1041.12 1154.76 1056.33 1169.01 C 1064.39 1176.56 1074.67 1190.84 1078.85 1201.03 C 1085.53 1217.29 1091.34 1236.02 1096.94 1252.82 L 1126.04 1340.43 L 1169.43 1471.7 C 1177.32 1495.35 1186.8 1521.71 1193.95 1545.35 C 1157.63 1544.95 1121.3 1544.8 1084.97 1544.9 C 1074.39 1506.01 1063.27 1467.27 1051.62 1428.69 C 1046.95 1412.83 1042.61 1395.87 1037.78 1380.25 C 1032.87 1363.02 1023.53 1333.7 1020.9 1315.19 C 1020.6 1308.44 1022.35 1299.64 1023.88 1293.23 C 1040.53 1223.73 1035.7 1170.1 962.979 1142.28 C 966.564 1142.3 970.251 1142.14 973.845 1142.04 L 974.088 1141.01 L 970.73 1139.12 z"/>
<path transform="translate(0,0)" fill="rgb(39,73,247)" d="M 995.372 1435.14 C 996.245 1427.08 998.47 1417.51 1000.32 1409.45 C 1006.83 1381.03 1011.38 1351.92 1017.79 1323.56 C 1023.2 1337.72 1030.54 1367.93 1034.94 1383.6 C 1049.26 1437.47 1066.7 1491.37 1080.6 1544.97 L 1028.82 1545.2 C 1025.91 1535 1023.1 1525 1019.75 1514.92 C 1018.22 1507.2 1013.37 1492.9 1010.93 1484.52 C 1006.32 1468.67 1001.95 1450.05 995.372 1435.14 z"/>
<path transform="translate(0,0)" fill="rgb(6,6,16)" d="M 952.142 1142.83 C 953.48 1141.08 953.314 1141.16 953.78 1139.04 L 955.258 1139 C 958.656 1140.84 959.317 1141.23 962.979 1142.28 C 1035.7 1170.1 1040.53 1223.73 1023.88 1293.23 C 1022.35 1299.64 1020.6 1308.44 1020.9 1315.19 C 1023.53 1333.7 1032.87 1363.02 1037.78 1380.25 L 1034.94 1383.6 C 1030.54 1367.93 1023.2 1337.72 1017.79 1323.56 C 1011.38 1351.92 1006.83 1381.03 1000.32 1409.45 C 998.47 1417.51 996.245 1427.08 995.372 1435.14 C 1001.95 1450.05 1006.32 1468.67 1010.93 1484.52 C 1013.37 1492.9 1018.22 1507.2 1019.75 1514.92 L 1018.16 1522.2 C 1016.56 1513.51 995.149 1443.72 992.338 1442.2 L 990.109 1439 C 997.535 1409.78 1003.48 1377.9 1009.33 1348.18 C 1026.15 1262.74 1060.75 1176.74 952.142 1142.83 z"/>
<path transform="translate(0,0)" fill="rgb(14,27,123)" d="M 885.726 1513.53 C 887.063 1512.99 888.586 1513.22 889.704 1514.13 C 890.823 1515.04 891.363 1516.48 891.114 1517.9 C 890.865 1519.32 889.867 1520.49 888.506 1520.96 C 886.469 1521.67 884.241 1520.62 883.486 1518.6 C 882.731 1516.58 883.725 1514.33 885.726 1513.53 z"/>
<path transform="translate(0,0)" fill="rgb(14,27,123)" d="M 985.129 1395.62 C 986.289 1394.7 987.867 1394.51 989.21 1395.14 C 990.553 1395.76 991.432 1397.08 991.484 1398.56 C 991.536 1400.04 990.752 1401.42 989.456 1402.13 C 987.669 1403.12 985.425 1402.57 984.296 1400.87 C 983.167 1399.17 983.529 1396.89 985.129 1395.62 z"/>
<path transform="translate(0,0)" fill="rgb(14,27,123)" d="M 915.977 1413.51 C 917.286 1413 918.768 1413.25 919.841 1414.15 C 920.913 1415.06 921.405 1416.48 921.123 1417.85 C 920.841 1419.23 919.83 1420.34 918.487 1420.75 C 916.513 1421.36 914.415 1420.29 913.739 1418.34 C 913.063 1416.39 914.052 1414.25 915.977 1413.51 z"/>
<path transform="translate(0,0)" fill="rgb(14,27,123)" d="M 962.541 1327.54 C 963.668 1326.7 965.174 1326.57 966.427 1327.21 C 967.68 1327.84 968.466 1329.14 968.454 1330.54 C 968.443 1331.95 967.637 1333.22 966.373 1333.84 C 964.656 1334.67 962.584 1334.07 961.591 1332.43 C 960.598 1330.8 961.01 1328.68 962.541 1327.54 z"/>
<path transform="translate(0,0)" fill="rgb(14,27,123)" d="M 929.753 1428.77 C 931.544 1427.94 933.672 1428.69 934.556 1430.45 C 935.441 1432.22 934.761 1434.37 933.022 1435.3 C 931.851 1435.93 930.429 1435.88 929.311 1435.16 C 928.193 1434.43 927.556 1433.16 927.648 1431.84 C 927.74 1430.51 928.546 1429.34 929.753 1428.77 z"/>
<path transform="translate(0,0)" fill="rgb(14,27,123)" d="M 934.006 1361.61 C 935.008 1360.8 936.371 1360.59 937.572 1361.06 C 938.773 1361.54 939.624 1362.62 939.8 1363.9 C 939.975 1365.18 939.447 1366.45 938.419 1367.23 C 936.864 1368.41 934.653 1368.13 933.448 1366.59 C 932.244 1365.06 932.492 1362.84 934.006 1361.61 z"/>
<path transform="translate(0,0)" fill="rgb(39,73,247)" d="M 1650.15 559.898 L 1651.96 560.02 C 1655.23 564.13 1702.66 798.578 1709.7 826.764 C 1680.97 812.097 1652.09 797.74 1623.05 783.696 C 1617.97 795.111 1612.35 805.933 1606.85 817.119 C 1563.52 905.238 1517.18 992.178 1473.76 1080.19 C 1426.57 1081.31 1375.28 1080.36 1327.8 1080.42 L 1310.67 1080.16 C 1322.43 1054.94 1337.48 1026.67 1350.03 1001.52 L 1457.17 787.851 C 1468.51 765.108 1481.08 741.734 1491.97 719.034 C 1483.81 714.126 1467.25 706.732 1458.17 702.38 C 1440.58 694.033 1423.14 685.353 1405.87 676.345 C 1413.18 672.272 1425.83 666.908 1433.73 663.185 L 1492.78 635.311 L 1650.15 559.898 z"/>
<path transform="translate(0,0)" fill="rgb(0,0,1)" d="M 1169.98 961.227 C 1203.18 957.954 1201.6 988.978 1174.53 1002.43 C 1143.24 1007.23 1143.96 971.542 1169.98 961.227 z M 1170.79 999.157 C 1194.81 990.65 1197.68 963.262 1174.3 964.152 C 1152 972.5 1146.81 1000.74 1170.79 999.157 z"/>
<path transform="translate(0,0)" fill="rgb(39,73,247)" fill-opacity="0.960784" d="M 1174.3 964.152 C 1197.68 963.262 1194.81 990.65 1170.79 999.157 C 1146.81 1000.74 1152 972.5 1174.3 964.152 z"/>
<path transform="translate(0,0)" fill="rgb(39,73,247)" d="M 692.552 769.684 C 707.544 766.55 721.798 764.82 737.133 765.237 C 751.941 789.555 793.942 819.677 804.001 775.53 C 813.153 778.991 823.741 782.104 827.688 792.014 C 836.042 812.987 841.122 835.857 847.832 857.264 C 854.386 878.175 859.578 901.732 849.394 922.527 C 836.905 948.028 836.929 965.593 835.977 993.32 L 840.392 997.157 L 831.752 996.56 C 830.678 996.121 825.625 995.636 824.154 995.457 C 804.788 993.712 707.116 983.804 696.856 976.007 C 685.489 967.369 704.523 920.091 701.097 906.765 L 698.32 905.401 L 701.024 904.741 C 703.698 906.377 702.565 906.164 705.431 906.29 L 707.924 903.562 C 699.311 901.194 683.496 898.673 674.337 896.957 L 610.019 885.157 C 619.747 844.661 640.789 784.183 685.86 773.093 C 698.162 775.861 703.301 777.598 712.822 785.783 C 714.194 785.571 713.338 785.801 715.217 784.625 C 714.125 782.944 713.07 781.239 712.051 779.512 C 705.453 774.798 699.997 772.782 692.552 769.684 z"/>
<path transform="translate(0,0)" fill="rgb(39,73,247)" d="M 685.86 773.093 C 698.162 775.861 703.301 777.598 712.822 785.783 C 732.494 809.139 726.284 831.408 721.856 859.437 C 720.85 865.807 715.053 902.07 713.612 904.351 C 710.828 904.947 710.702 904.561 707.924 903.562 C 699.311 901.194 683.496 898.673 674.337 896.957 L 610.019 885.157 C 619.747 844.661 640.789 784.183 685.86 773.093 z"/>
<path transform="translate(0,0)" fill="rgb(6,6,16)" d="M 712.051 779.512 C 727.604 791.416 733.128 812.968 730.012 831.351 C 725.876 855.744 722.663 885.459 716.769 909.377 L 706.025 907.101 C 704.151 917.327 693.865 964.348 698.301 971.618 C 703.044 979.39 795.762 988.325 812.087 990.261 C 819.149 991.098 829.411 990.895 835.977 993.32 L 840.392 997.157 L 831.752 996.56 C 830.678 996.121 825.625 995.636 824.154 995.457 C 804.788 993.712 707.116 983.804 696.856 976.007 C 685.489 967.369 704.523 920.091 701.097 906.765 L 698.32 905.401 L 701.024 904.741 C 703.698 906.377 702.565 906.164 705.431 906.29 L 707.924 903.562 C 710.702 904.561 710.828 904.947 713.612 904.351 C 715.053 902.07 720.85 865.807 721.856 859.437 C 726.284 831.408 732.494 809.139 712.822 785.783 C 714.194 785.571 713.338 785.801 715.217 784.625 C 714.125 782.944 713.07 781.239 712.051 779.512 z"/>
<path transform="translate(0,0)" fill="rgb(6,6,16)" d="M 799.517 922.731 C 799.887 923.103 800.618 924.47 800.924 924.992 C 800.591 930.348 798.751 931.919 795.369 935.958 C 781.506 952.512 763.98 954.261 744.139 954.477 C 742.803 953.77 743.581 954.301 742.099 952.523 L 742.906 951.321 C 772.641 949.941 782.103 948.759 799.517 922.731 z"/>
<path transform="translate(0,0)" fill="url(#Gradient3)" d="M 610.773 888.752 C 636.638 894.587 672.175 901.606 698.32 905.401 L 701.097 906.765 C 704.523 920.091 685.489 967.369 696.856 976.007 C 707.116 983.804 804.788 993.712 824.154 995.457 C 811.861 997.763 810.652 996.554 799.032 997.271 C 765.46 1012.26 805.335 1023.28 803.885 1033.58 L 802.068 1035.24 C 800.256 1040.37 799.737 1041.88 794.648 1044.48 L 793.505 1044.46 C 779.91 1044.99 766.59 1053.15 754.129 1057.21 C 743.723 1060.61 732.947 1063.76 722.465 1067.06 L 722.101 1067.82 L 723.591 1068.42 C 715.611 1069.55 710.451 1068.7 702.923 1069.17 C 688.083 1068.8 673.321 1066.91 658.868 1063.52 C 638.553 1058.65 619.99 1050.46 608.707 1031.88 C 586.405 995.158 601.022 928.869 610.773 888.752 z"/>
<path transform="translate(0,0)" fill="rgb(39,73,247)" d="M 805.333 1208.69 C 817.203 1209.97 840.988 1214.38 851.24 1214.81 C 888.223 1216.38 927.311 1231.63 917.921 1276.32 C 913.919 1295.37 884.628 1444.08 879.052 1449.93 C 876.973 1448.97 876.613 1448.74 874.732 1447.42 C 872.418 1449.21 873.454 1448.22 872.643 1452.29 L 873.741 1453.5 L 878.355 1452.9 C 879.676 1458.39 859.54 1534.26 857.312 1545.3 L 800.319 1545.15 C 802.738 1535.84 805.115 1526.05 807.727 1516.84 C 806.917 1513.74 807.667 1515.17 804.459 1512.96 C 805.578 1505.7 812.682 1481.37 815.16 1473.67 C 815.92 1480.19 814.382 1487.9 811.492 1493.8 C 813.021 1490.89 815.213 1486.04 817.059 1483.67 C 817.732 1482.13 820.555 1471.7 821.62 1468.72 C 822.316 1463.35 825.116 1453.74 826.579 1448.15 C 829.637 1438.05 849.419 1351.68 853.005 1350.16 C 854.705 1349.44 854.921 1351.04 857.335 1349.5 C 856.725 1347.48 854.542 1340 854.805 1338.34 C 857.424 1321.88 868.513 1294.61 868.843 1278.87 C 854.439 1277.25 828.828 1276.81 813.331 1276.03 C 807.817 1275.85 800.95 1276.43 796.733 1273.4 C 795.283 1269.89 795.967 1269.92 796.479 1265.54 C 797.536 1260.05 799.981 1243.3 801.453 1239.15 C 804.125 1238 803.021 1238.24 806.064 1238.58 C 807.491 1236.22 807.072 1237.55 806.504 1234.29 C 804.07 1232.46 804.084 1232.87 802.574 1230.31 C 803.113 1222.52 804.079 1216.43 805.333 1208.69 z"/>
<path transform="translate(0,0)" fill="rgb(12,16,59)" d="M 804.459 1512.96 C 805.578 1505.7 812.682 1481.37 815.16 1473.67 C 815.92 1480.19 814.382 1487.9 811.492 1493.8 C 813.021 1490.89 815.213 1486.04 817.059 1483.67 C 814.367 1493.58 814.414 1492.55 817.976 1502.5 C 818.149 1502.99 812.452 1506.65 811.547 1507.41 C 809.616 1509.03 808.487 1514.12 807.727 1516.84 C 806.917 1513.74 807.667 1515.17 804.459 1512.96 z"/>
<path transform="translate(0,0)" fill="rgb(49,71,220)" d="M 826.579 1448.15 C 832.506 1451.25 831.577 1452.85 838.756 1454.65 L 839.696 1456.04 C 838.365 1460.1 838.34 1460.12 836.014 1463.72 L 835.115 1464.01 C 835.452 1461.25 835.258 1462.27 836.778 1459.69 C 828.688 1457.17 824.597 1460.31 823.2 1468.34 L 822.14 1468.99 L 821.62 1468.72 C 822.316 1463.35 825.116 1453.74 826.579 1448.15 z"/>
<path transform="translate(0,0)" fill="rgb(49,71,220)" d="M 813.331 1276.03 C 807.817 1275.85 800.95 1276.43 796.733 1273.4 C 795.283 1269.89 795.967 1269.92 796.479 1265.54 L 799.855 1267.81 C 804.227 1266.53 803.752 1265.95 807.538 1268.03 C 808.522 1270.31 809.242 1272.14 810.081 1274.48 L 813.331 1276.03 z"/>
<path transform="translate(0,0)" fill="rgb(14,27,123)" d="M 903.013 1244.2 C 906.343 1245.27 906.089 1245.27 908.406 1247.95 C 908.582 1251.74 909.125 1250.06 906.461 1253.06 C 902.116 1252.63 903.891 1253.45 900.751 1251.01 C 900.617 1247.02 900.694 1248.22 903.013 1244.2 z"/>
<path transform="translate(0,0)" fill="rgb(14,27,123)" d="M 818.548 1249.57 C 819.834 1248.92 821.375 1249.05 822.537 1249.9 C 823.698 1250.75 824.285 1252.18 824.056 1253.6 C 823.827 1255.02 822.82 1256.2 821.45 1256.64 C 819.543 1257.26 817.484 1256.3 816.723 1254.45 C 815.963 1252.59 816.758 1250.47 818.548 1249.57 z"/>
<path transform="translate(0,0)" fill="rgb(14,27,123)" d="M 842.651 1412.64 C 843.782 1411.93 845.209 1411.89 846.377 1412.54 C 847.545 1413.18 848.271 1414.41 848.273 1415.74 C 848.276 1417.08 847.554 1418.31 846.388 1418.96 C 844.648 1419.93 842.451 1419.34 841.437 1417.62 C 840.423 1415.9 840.962 1413.69 842.651 1412.64 z"/>
<path transform="translate(0,0)" fill="rgb(39,73,247)" d="M 635.038 1140.09 L 637.995 1140.74 L 639.61 1144.47 C 642.814 1145.04 641.321 1145.21 644.261 1144.05 C 644.061 1142.66 643.885 1141.26 643.731 1139.86 C 648.953 1138.28 666.298 1138.86 672.846 1138.93 C 670.693 1141.08 667.824 1143.25 667.315 1146.01 L 668.72 1147.67 L 670.596 1147.68 L 671.104 1146.77 C 672.649 1144.06 675.24 1139.56 678.473 1139.26 C 683.157 1138.81 693.967 1137.8 697.664 1140.09 L 696.964 1143.98 L 697.98 1144.99 L 701.293 1144.61 C 702.943 1141.81 701.302 1139.28 704.316 1139.22 C 722.066 1138.82 751.687 1138.5 768.336 1139.13 C 769.617 1147.03 766.499 1151.24 768.777 1158.66 C 767.74 1167.55 760.52 1238.24 758.381 1242.76 L 757.299 1241.29 C 757.091 1243.24 756.961 1244.4 756.606 1246.35 L 755.748 1245.12 C 754.77 1246.79 750.664 1268.01 749.527 1272.55 C 743.367 1272.25 736.384 1271.93 730.2 1271.4 C 727.307 1271.16 726.753 1268.74 725.335 1266.13 L 723.91 1266.22 L 720.624 1270.25 C 716.849 1270.61 708.676 1269.38 704.584 1269.03 C 675.964 1266.55 643.822 1256.3 621.34 1238.02 C 599.954 1220.63 586.602 1193.78 584.668 1166.39 C 584.311 1161.32 582.604 1144.13 585.696 1140.43 C 588.07 1142.72 588.26 1143.79 590.783 1143.99 L 591.167 1140.7 C 594.616 1138.72 613.157 1138.83 616.696 1140.41 L 616.857 1143.74 L 618.367 1144.54 L 619.762 1143.63 C 626.329 1139.43 624.291 1139.72 632.91 1139.38 L 635.038 1140.09 z"/>
<path transform="translate(0,0)" fill="rgb(39,73,247)" d="M 635.038 1140.09 L 637.995 1140.74 L 639.61 1144.47 C 642.814 1145.04 641.321 1145.21 644.261 1144.05 C 644.061 1142.66 643.885 1141.26 643.731 1139.86 C 648.953 1138.28 666.298 1138.86 672.846 1138.93 C 670.693 1141.08 667.824 1143.25 667.315 1146.01 L 668.72 1147.67 L 670.596 1147.68 L 671.104 1146.77 C 672.649 1144.06 675.24 1139.56 678.473 1139.26 C 683.157 1138.81 693.967 1137.8 697.664 1140.09 L 696.964 1143.98 L 697.98 1144.99 L 701.293 1144.61 C 702.943 1141.81 701.302 1139.28 704.316 1139.22 C 722.066 1138.82 751.687 1138.5 768.336 1139.13 C 769.617 1147.03 766.499 1151.24 768.777 1158.66 C 767.74 1167.55 760.52 1238.24 758.381 1242.76 L 757.299 1241.29 C 757.091 1243.24 756.961 1244.4 756.606 1246.35 L 755.748 1245.12 C 754.619 1242.11 753.525 1240.02 754.285 1236.87 C 757.185 1224.86 758.868 1214.96 759.718 1202.61 C 723.995 1192.49 683.065 1197.06 650.336 1168.34 C 642.321 1161.3 633.771 1150.25 632.91 1139.38 L 635.038 1140.09 z"/>
<path transform="translate(0,0)" fill="rgb(6,6,16)" d="M 632.91 1139.38 L 635.038 1140.09 C 638.166 1151.54 655.589 1173.39 667.322 1175.42 L 667.571 1174.01 C 667.862 1172.44 668.065 1171.57 668.481 1170.06 C 671.213 1170.09 669.97 1169.75 672.144 1171.48 C 671.528 1174.7 671.864 1173.5 669.842 1176.4 C 672.781 1181.37 707.162 1191.19 713.093 1189.31 L 715.358 1186.35 L 717.147 1186.6 C 719.828 1190.7 719.175 1191.3 723.478 1192.34 C 734.775 1195.09 748.968 1196 759.958 1198.83 C 760.905 1191.56 766.859 1142.95 768.336 1139.13 C 769.617 1147.03 766.499 1151.24 768.777 1158.66 C 767.74 1167.55 760.52 1238.24 758.381 1242.76 L 757.299 1241.29 C 757.091 1243.24 756.961 1244.4 756.606 1246.35 L 755.748 1245.12 C 754.619 1242.11 753.525 1240.02 754.285 1236.87 C 757.185 1224.86 758.868 1214.96 759.718 1202.61 C 723.995 1192.49 683.065 1197.06 650.336 1168.34 C 642.321 1161.3 633.771 1150.25 632.91 1139.38 z"/>
<path transform="translate(0,0)" fill="rgb(14,27,123)" d="M 711.013 1249.62 C 712.873 1248.86 715.006 1249.67 715.889 1251.47 C 716.772 1253.28 716.104 1255.46 714.36 1256.46 C 713.125 1257.17 711.598 1257.14 710.399 1256.37 C 709.199 1255.6 708.528 1254.22 708.657 1252.81 C 708.786 1251.39 709.694 1250.16 711.013 1249.62 z"/>
<path transform="translate(0,0)" fill="url(#Gradient2)" d="M 839.123 625.164 C 856.407 646.837 860.092 653.585 857.696 681.776 C 853.563 730.41 829.657 767.285 778.027 734.245 L 776.409 734.557 C 775.77 743.357 794.901 757.409 801.737 762.097 C 799.814 775.437 800.828 788.526 786.856 794.082 C 784.007 793.381 785.109 794.162 783.174 792.249 L 784.804 791.851 C 782.112 786.198 777.185 785.104 771.458 782.941 C 760.422 785.621 756.026 767.687 749.523 765.469 C 747.14 768.184 747.78 769.119 747.141 773.47 C 745.541 770.802 743.698 767.884 742.279 765.157 C 745.78 746.811 752.622 716.556 754.695 699.355 C 735.251 695.419 728.697 675.115 745.925 664.696 C 752.467 660.739 760.602 665.545 767.406 665.567 C 798.654 665.671 822.005 649.789 839.123 625.164 z"/>
<path transform="translate(0,0)" fill="rgb(0,0,1)" d="M 833.236 670.389 L 835.176 671.316 C 838.386 677.247 839.691 695.64 837.788 703.058 C 834.732 706.231 835.607 705.253 830.695 706.551 C 828.3 705.439 828.046 705.423 826.039 703.768 L 826.277 702.533 C 829.918 702.348 830.677 702.395 834.284 701.288 C 835.72 698.786 832.859 676.791 833.236 670.389 z"/>
<path transform="translate(0,0)" fill="rgb(0,0,1)" d="M 800.976 707.898 C 806.593 709.556 806.986 718.036 815.292 718.781 C 815.878 718.834 821.227 720.119 822.247 720.354 L 822.965 722.604 C 813.29 724.6 800.132 718.999 800.976 707.898 z"/>
<path transform="translate(0,0)" fill="rgb(0,0,1)" d="M 809.768 670.242 C 812.989 671.246 812.795 671.1 815.111 673.542 C 816.098 676.815 814.919 679.219 813.937 682.604 C 809.861 681.814 809.983 682.264 807.989 679.144 C 807.85 675.019 808.364 674.257 809.768 670.242 z"/>
<path transform="translate(0,0)" fill="rgb(0,0,1)" d="M 844.865 675.143 C 849.084 676.085 848.539 676.064 850.464 678.658 C 850.968 682.401 850.001 683.911 848.635 687.428 C 844.461 685.926 846.04 687.198 843.658 683.567 C 843.149 679.59 843.551 679.087 844.865 675.143 z"/>
<path transform="translate(0,0)" fill="rgb(0,0,1)" d="M 742.055 671.141 L 742.761 671.08 C 753.508 670.069 756.588 673.977 757.892 684.251 C 751.689 680.141 753.343 676.267 742.055 671.141 z"/>
<path transform="translate(0,0)" fill="rgb(0,0,1)" d="M 1266.72 1250.91 C 1270.15 1250.78 1272.3 1250.52 1275.69 1251.25 C 1277.8 1254.48 1277 1255.14 1277.02 1259.83 C 1273.6 1259.95 1272.24 1260.2 1268.91 1259.2 C 1266.52 1255.97 1267.24 1255.6 1266.72 1250.91 z"/>
<path transform="translate(0,0)" fill="rgb(0,0,1)" d="M 1267.24 1235.21 C 1270.66 1234.95 1272.81 1234.46 1276.01 1235.67 C 1277.84 1238.95 1277 1239.46 1276.64 1244.05 L 1268.34 1243.44 C 1266.24 1240.69 1267.13 1239.73 1267.24 1235.21 z"/>
<path transform="translate(0,0)" fill="rgb(0,0,1)" d="M 1323.78 1250.95 C 1327.31 1250.88 1328.27 1250.73 1331.77 1251.66 C 1333.77 1255 1333.05 1254.91 1333.05 1259.52 C 1330.52 1259.49 1327.98 1259.47 1325.45 1259.47 C 1322.92 1256.74 1323.87 1255.99 1323.78 1250.95 z"/>
<path transform="translate(0,0)" fill="rgb(0,0,1)" d="M 1305.07 1250.85 C 1308.24 1250.71 1309.8 1250.42 1312.86 1251.38 C 1314.82 1254.5 1314.06 1255.47 1314.07 1259.9 C 1310.7 1259.89 1310.07 1259.94 1306.64 1259.31 C 1304.38 1255.99 1305.19 1255.7 1305.07 1250.85 z"/>
<path transform="translate(0,0)" fill="rgb(0,0,1)" d="M 1327.13 1234.43 L 1331.12 1235.09 C 1333.26 1237.06 1333.08 1236.95 1333.71 1239.83 C 1332.48 1243.79 1333.56 1242.25 1330.6 1244.81 L 1326.49 1244.18 C 1323.61 1241.98 1324.75 1243.34 1323.27 1239.71 C 1324.77 1235.35 1323.48 1237.02 1327.13 1234.43 z"/>
<path transform="translate(0,0)" fill="rgb(0,0,1)" d="M 1289.28 1250.6 C 1291.7 1249.68 1294.42 1250.78 1295.52 1253.12 C 1296.62 1255.47 1295.71 1258.27 1293.45 1259.53 C 1291.83 1260.43 1289.85 1260.36 1288.31 1259.33 C 1286.77 1258.31 1285.93 1256.51 1286.13 1254.67 C 1286.34 1252.83 1287.55 1251.26 1289.28 1250.6 z"/>
<path transform="translate(0,0)" fill="rgb(0,0,1)" d="M 1307.09 1235.42 C 1309.29 1234 1312.21 1234.58 1313.71 1236.72 C 1315.21 1238.86 1314.74 1241.81 1312.65 1243.38 C 1311.23 1244.45 1309.34 1244.66 1307.72 1243.93 C 1306.1 1243.19 1305.01 1241.63 1304.88 1239.86 C 1304.75 1238.09 1305.6 1236.38 1307.09 1235.42 z"/>
<path transform="translate(0,0)" fill="rgb(0,0,1)" d="M 1288.11 1235.57 C 1289.53 1234.54 1291.4 1234.35 1292.99 1235.09 C 1294.58 1235.83 1295.65 1237.37 1295.78 1239.12 C 1295.91 1240.87 1295.07 1242.56 1293.61 1243.52 C 1291.41 1244.95 1288.48 1244.38 1286.99 1242.22 C 1285.5 1240.07 1285.99 1237.12 1288.11 1235.57 z"/>
<path transform="translate(0,0)" fill="rgb(0,0,1)" d="M 1307.47 1357.47 C 1309.87 1356.29 1312.76 1357.17 1314.11 1359.47 C 1315.45 1361.78 1314.78 1364.73 1312.58 1366.24 C 1311.01 1367.31 1308.97 1367.41 1307.29 1366.51 C 1305.62 1365.6 1304.59 1363.84 1304.63 1361.94 C 1304.67 1360.03 1305.76 1358.31 1307.47 1357.47 z"/>
<path transform="translate(0,0)" fill="rgb(0,0,1)" d="M 1324.06 1373.05 C 1329.96 1372.66 1331.25 1371.98 1334.1 1377.37 C 1333.63 1380.03 1333.95 1379.24 1331.67 1381.46 C 1328.57 1381.64 1327.39 1381.93 1324.42 1380.91 C 1322.77 1377.43 1323.5 1377.63 1324.06 1373.05 z"/>
<path transform="translate(0,0)" fill="rgb(0,0,1)" d="M 1288.76 1357.43 C 1290.41 1356.6 1292.37 1356.76 1293.87 1357.84 C 1295.37 1358.91 1296.15 1360.72 1295.9 1362.55 C 1295.65 1364.37 1294.41 1365.91 1292.68 1366.54 C 1290.2 1367.44 1287.45 1366.26 1286.41 1363.83 C 1285.37 1361.41 1286.4 1358.6 1288.76 1357.43 z"/>
<path transform="translate(0,0)" fill="rgb(0,0,1)" d="M 1269.02 1357.04 C 1273.5 1356.97 1274.12 1356.53 1276.87 1358.86 C 1277.61 1362.32 1276.98 1363.61 1276.11 1367.02 C 1272.93 1366.54 1270.57 1366.63 1268.37 1364.44 C 1267.44 1361.23 1268.06 1360.24 1269.02 1357.04 z"/>
<path transform="translate(0,0)" fill="rgb(0,0,1)" d="M 1323.24 1358.14 C 1326.68 1357.89 1329.75 1357.14 1332.53 1358.83 C 1333.98 1361.61 1333.19 1363.54 1332.61 1366.71 C 1328.93 1366.76 1329.09 1366.81 1325.58 1365.72 C 1323.06 1362.47 1323.84 1362.9 1323.24 1358.14 z"/>
<path transform="translate(0,0)" fill="rgb(0,0,1)" d="M 1267.87 1373.04 C 1270.93 1373.05 1272.4 1373.08 1275.52 1373.41 C 1277.85 1376.4 1276.92 1377.29 1276.9 1382.2 C 1273.87 1382.12 1273 1382.02 1270.01 1381.49 C 1267.55 1378.45 1268.32 1377.81 1267.87 1373.04 z"/>
<path transform="translate(0,0)" fill="rgb(0,0,1)" d="M 1287.89 1373.75 C 1289.26 1372.56 1291.17 1372.23 1292.86 1372.89 C 1294.55 1373.56 1295.73 1375.1 1295.93 1376.91 C 1296.13 1378.71 1295.31 1380.47 1293.8 1381.49 C 1291.66 1382.92 1288.78 1382.45 1287.21 1380.4 C 1285.64 1378.35 1285.94 1375.44 1287.89 1373.75 z"/>
<path transform="translate(0,0)" fill="rgb(0,0,1)" d="M 1307.54 1373.26 C 1309.99 1372.14 1312.87 1373.23 1313.99 1375.67 C 1315.1 1378.12 1314.02 1381.01 1311.57 1382.12 C 1309.12 1383.24 1306.23 1382.16 1305.12 1379.71 C 1304.01 1377.26 1305.09 1374.37 1307.54 1373.26 z"/>
<path transform="translate(0,0)" fill="rgb(0,0,1)" d="M 1325.54 1311.36 C 1330.05 1311.8 1330.95 1311.33 1333.53 1315.13 C 1333.29 1318.11 1333.41 1317.94 1331.77 1320.4 C 1327.08 1320.4 1324.97 1320.64 1322.65 1316.26 C 1323.27 1313.27 1323.29 1313.49 1325.54 1311.36 z"/>
<path transform="translate(0,0)" fill="rgb(6,6,16)" d="M 1309.03 1295.25 C 1311.5 1294.88 1313.86 1296.43 1314.5 1298.84 C 1315.15 1301.25 1313.89 1303.77 1311.57 1304.69 C 1309.81 1305.39 1307.8 1305.02 1306.41 1303.73 C 1305.02 1302.45 1304.49 1300.47 1305.05 1298.66 C 1305.61 1296.85 1307.16 1295.52 1309.03 1295.25 z"/>
<path transform="translate(0,0)" fill="rgb(0,0,1)" d="M 1269.26 1296.81 C 1270.56 1295.59 1272.43 1295.19 1274.11 1295.75 C 1275.8 1296.32 1277.04 1297.77 1277.33 1299.53 C 1277.63 1301.29 1276.93 1303.06 1275.52 1304.15 C 1273.48 1305.73 1270.57 1305.42 1268.9 1303.46 C 1267.23 1301.5 1267.39 1298.58 1269.26 1296.81 z"/>
<path transform="translate(0,0)" fill="rgb(0,0,1)" d="M 1267.82 1311.9 C 1271.07 1311.6 1272.24 1311.3 1275.48 1312.07 C 1277.59 1314.94 1276.84 1315.7 1277 1320.09 C 1273.92 1320.18 1272.16 1320.44 1269.18 1319.51 C 1267.37 1316.6 1267.99 1315.9 1267.82 1311.9 z"/>
<path transform="translate(0,0)" fill="rgb(0,0,1)" d="M 1289.04 1311.46 C 1290.64 1310.75 1292.5 1310.96 1293.89 1312.03 C 1295.28 1313.09 1295.97 1314.83 1295.69 1316.56 C 1295.42 1318.29 1294.21 1319.73 1292.56 1320.3 C 1290.15 1321.14 1287.51 1319.94 1286.57 1317.57 C 1285.62 1315.2 1286.71 1312.51 1289.04 1311.46 z"/>
<path transform="translate(0,0)" fill="rgb(0,0,1)" d="M 1287.82 1296.73 C 1289.03 1295.54 1290.8 1295.09 1292.44 1295.56 C 1294.07 1296.04 1295.33 1297.35 1295.72 1299.01 C 1296.11 1300.67 1295.58 1302.41 1294.33 1303.57 C 1292.43 1305.31 1289.48 1305.22 1287.71 1303.35 C 1285.93 1301.48 1285.98 1298.54 1287.82 1296.73 z"/>
<path transform="translate(0,0)" fill="rgb(0,0,1)" d="M 1305.01 1311.66 C 1308.57 1311.62 1308.8 1311.54 1312.43 1312.35 C 1314.61 1315.46 1313.85 1315.28 1313.94 1319.92 C 1310.89 1320.18 1309.17 1320.58 1306.22 1319.67 C 1304.42 1316.54 1305.09 1315.86 1305.01 1311.66 z"/>
<path transform="translate(0,0)" fill="rgb(0,0,1)" d="M 1325.97 1296.32 C 1327.53 1295.43 1329.46 1295.52 1330.94 1296.54 C 1332.41 1297.57 1333.17 1299.34 1332.89 1301.11 C 1332.61 1302.88 1331.34 1304.34 1329.62 1304.86 C 1327.34 1305.54 1324.92 1304.4 1323.98 1302.22 C 1323.05 1300.03 1323.9 1297.49 1325.97 1296.32 z"/>
<path transform="translate(0,0)" fill="rgb(6,6,16)" fill-opacity="0.792157" d="M 1320 1290.46 C 1322.56 1290.15 1323.92 1290.11 1326.51 1290.08 L 1326.72 1291.44 C 1323.26 1292.22 1322.36 1292.72 1320 1290.46 z"/>
<path transform="translate(0,0)" fill="rgb(0,0,1)" d="M 1288.1 1418.72 C 1289.66 1417.65 1291.67 1417.5 1293.36 1418.35 C 1295.05 1419.19 1296.15 1420.89 1296.23 1422.77 C 1296.32 1424.66 1295.36 1426.44 1293.75 1427.43 C 1291.35 1428.89 1288.22 1428.18 1286.69 1425.82 C 1285.16 1423.46 1285.79 1420.31 1288.1 1418.72 z"/>
<path transform="translate(0,0)" fill="rgb(0,0,1)" d="M 1305.18 1418.01 C 1308.49 1417.98 1310.37 1417.61 1313.2 1419.28 C 1315.04 1421.98 1314.59 1423.56 1314.46 1426.86 C 1311.19 1427.28 1309.18 1427.84 1306.03 1426.87 C 1304.18 1423.51 1305 1422.58 1305.18 1418.01 z"/>
<path transform="translate(0,0)" fill="rgb(0,0,1)" d="M 1323.45 1434.45 C 1326.99 1434.46 1329.34 1434.22 1332.71 1435.37 C 1334.54 1438.45 1333.87 1438.76 1333.93 1442.96 C 1330.36 1443.12 1328.75 1443.37 1325.21 1442.58 C 1323.06 1439.58 1323.76 1438.85 1323.45 1434.45 z"/>
<path transform="translate(0,0)" fill="rgb(0,0,1)" d="M 1270.76 1433.84 C 1273.35 1432.85 1276.26 1434.13 1277.29 1436.7 C 1278.31 1439.28 1277.08 1442.21 1274.52 1443.27 C 1272.83 1443.98 1270.89 1443.71 1269.45 1442.59 C 1268 1441.46 1267.28 1439.64 1267.55 1437.83 C 1267.82 1436.02 1269.05 1434.49 1270.76 1433.84 z"/>
<path transform="translate(0,0)" fill="rgb(0,0,1)" d="M 1269.71 1418.8 C 1272.06 1417.26 1275.21 1417.93 1276.73 1420.29 C 1278.25 1422.65 1277.55 1425.8 1275.18 1427.3 C 1272.83 1428.78 1269.73 1428.09 1268.23 1425.76 C 1266.73 1423.42 1267.39 1420.32 1269.71 1418.8 z"/>
<path transform="translate(0,0)" fill="rgb(0,0,1)" d="M 1323.81 1418.99 C 1327.19 1418.83 1328.75 1418.78 1332.09 1419.08 C 1334.32 1421.8 1333.55 1422.27 1333.78 1426.71 C 1330.54 1427.15 1328.71 1427.65 1325.52 1426.82 C 1323.23 1423.5 1324 1423.81 1323.81 1418.99 z"/>
<path transform="translate(0,0)" fill="rgb(0,0,1)" d="M 1305.2 1433.75 C 1308.71 1433.96 1309.18 1433.8 1312.52 1435.11 C 1314.79 1438.56 1314.01 1438.08 1314.11 1443 C 1310.64 1443.2 1309.2 1443.55 1305.91 1442.34 C 1304.24 1438.93 1304.99 1438.15 1305.2 1433.75 z"/>
<path transform="translate(0,0)" fill="rgb(0,0,1)" d="M 1288.16 1434.68 C 1290.29 1433.08 1293.32 1433.49 1294.95 1435.61 C 1296.58 1437.73 1296.19 1440.76 1294.09 1442.41 C 1291.96 1444.08 1288.87 1443.69 1287.22 1441.54 C 1285.57 1439.39 1285.99 1436.31 1288.16 1434.68 z"/>
<path transform="translate(0,0)" fill="rgb(0,0,1)" d="M 1323.94 1494.95 C 1327.24 1495.01 1329.36 1494.75 1332.33 1496.17 C 1334.39 1499.57 1333.69 1499.39 1333.84 1503.99 C 1330.36 1504.26 1328.15 1504.78 1324.93 1503.46 C 1323.08 1499.9 1323.82 1499.62 1323.94 1494.95 z"/>
<path transform="translate(0,0)" fill="rgb(0,0,1)" d="M 1287.94 1495.85 C 1289.45 1494.75 1291.44 1494.57 1293.12 1495.39 C 1294.8 1496.2 1295.89 1497.87 1295.97 1499.73 C 1296.05 1501.6 1295.09 1503.35 1293.49 1504.3 C 1291.16 1505.67 1288.17 1504.98 1286.68 1502.72 C 1285.2 1500.46 1285.75 1497.44 1287.94 1495.85 z"/>
<path transform="translate(0,0)" fill="rgb(0,0,1)" d="M 1308.13 1479.43 C 1310.64 1478.65 1313.33 1479.95 1314.29 1482.4 C 1315.24 1484.86 1314.13 1487.63 1311.74 1488.75 C 1310.05 1489.55 1308.05 1489.33 1306.56 1488.19 C 1305.08 1487.05 1304.35 1485.18 1304.68 1483.33 C 1305.01 1481.49 1306.34 1479.98 1308.13 1479.43 z"/>
<path transform="translate(0,0)" fill="rgb(0,0,1)" d="M 1305.42 1494.8 C 1308.66 1495.05 1310.27 1494.89 1313.07 1496.55 C 1314.69 1500.06 1314.04 1499.76 1313.7 1504.22 C 1310.46 1504.6 1309.22 1505.01 1306.1 1503.98 C 1304.16 1500.41 1305.06 1499.72 1305.42 1494.8 z"/>
<path transform="translate(0,0)" fill="rgb(0,0,1)" d="M 1289.12 1479.49 C 1291.56 1478.51 1294.35 1479.61 1295.46 1482 C 1296.58 1484.39 1295.63 1487.23 1293.31 1488.47 C 1291.69 1489.34 1289.72 1489.24 1288.2 1488.21 C 1286.68 1487.19 1285.84 1485.4 1286.04 1483.58 C 1286.23 1481.75 1287.41 1480.18 1289.12 1479.49 z"/>
<path transform="translate(0,0)" fill="rgb(0,0,1)" d="M 1323.82 1480.09 C 1327.29 1479.95 1328.37 1479.84 1331.9 1480.42 C 1333.96 1483.42 1333.19 1483.61 1333.2 1488.09 C 1329.79 1488.38 1329.03 1488.48 1325.51 1488.2 C 1323.24 1485.08 1324.02 1484.8 1323.82 1480.09 z"/>
<path transform="translate(0,0)" fill="rgb(0,0,1)" d="M 1268.31 1479.89 C 1273.19 1479.6 1273.55 1479.35 1276.81 1481.81 C 1277.54 1484.84 1277.13 1485.4 1276.43 1488.44 C 1272.29 1489.25 1273.05 1489.71 1269.53 1488.59 C 1267.78 1486.06 1268.29 1483.14 1268.31 1479.89 z"/>
<path transform="translate(0,0)" fill="rgb(0,0,1)" fill-opacity="0.403922" d="M 1325.06 1473.35 C 1329.14 1473.81 1329.46 1473.82 1333.3 1475.13 C 1331.01 1476.37 1332.25 1475.93 1329.23 1475.66 C 1324.97 1475.96 1321.44 1476.66 1317.54 1475.16 C 1319.76 1473.43 1322.16 1473.61 1325.06 1473.35 z"/>
<path transform="translate(0,0)" fill="rgb(0,0,1)" fill-opacity="0.760784" d="M 1272.16 1474.47 C 1275.83 1473.9 1278.33 1473.28 1281.25 1475.6 C 1277.93 1476.04 1274.55 1476.91 1272.16 1474.47 z"/>
<path transform="translate(0,0)" fill="rgb(39,73,247)" d="M 600.964 1025.52 C 603.57 1029.97 606.753 1035.84 609.768 1039.88 C 653.994 1090.26 774.536 1070.51 836.881 1065.67 L 837.764 1080.32 C 755.434 1079.07 670.017 1080.05 587.457 1079.99 C 589.951 1067.24 593.939 1052.45 597.092 1039.66 L 600.964 1025.52 z"/>
<path transform="translate(0,0)" fill="rgb(6,6,16)" fill-opacity="0.0509804" d="M 1103.55 1072.52 C 1114.35 1071.77 1219.57 1071.03 1225.62 1073.39 C 1212.37 1074.82 1111.49 1075.06 1103.55 1072.52 z"/>
<path transform="translate(0,0)" fill="rgb(0,0,1)" fill-opacity="0.670588" d="M 697.004 1347.54 C 698.429 1353.62 698.336 1361.68 697.332 1367.83 L 696.43 1368 L 696.248 1366.56 C 697.525 1360.4 697.083 1353.89 697.004 1347.54 z"/>
<path transform="translate(0,0)" fill="rgb(0,0,1)" fill-opacity="0.482353" d="M 697.498 1324.49 L 698.537 1324.89 C 698.47 1329.72 697.321 1333.36 696.186 1338.04 C 696.093 1332.57 695.787 1329.62 697.498 1324.49 z"/>
<path transform="translate(0,0)" fill="rgb(6,6,16)" fill-opacity="0.921569" d="M 696.248 1366.56 C 695.823 1360.47 695.505 1353.43 697.004 1347.54 C 697.083 1353.89 697.525 1360.4 696.248 1366.56 z"/>
<path transform="translate(0,0)" fill="rgb(254,254,254)" fill-opacity="0.34902" d="M 831.752 996.56 L 840.392 997.157 L 840.189 997.771 L 835.917 998.179 C 828.425 1015.97 843.088 1040.85 826.638 1049.76 C 809.289 1059.15 769.636 1052.72 754.837 1066.72 L 755.505 1067.94 C 752.969 1068.54 746.658 1068.42 744.16 1067.59 L 743.859 1066.16 C 754.725 1053.9 794.195 1056.51 808.84 1046.75 C 810.172 1045.97 811.48 1045.14 812.759 1044.27 C 818.894 1040.02 828.729 1030.6 822.787 1022.82 C 814.743 1011.59 810.522 1018.09 804.484 1009.53 L 805.433 1008.42 C 811.34 1008.11 817.243 1007.72 823.139 1007.24 C 827.294 1003.68 831.407 1002.43 831.752 996.56 z"/>
<path transform="translate(0,0)" fill="url(#Gradient1)" d="M 868.843 1278.87 C 868.513 1294.61 857.424 1321.88 854.805 1338.34 C 854.542 1340 856.725 1347.48 857.335 1349.5 C 854.921 1351.04 854.705 1349.44 853.005 1350.16 C 849.419 1351.68 829.637 1438.05 826.579 1448.15 C 825.116 1453.74 822.316 1463.35 821.62 1468.72 C 820.555 1471.7 817.732 1482.13 817.059 1483.67 C 815.213 1486.04 813.021 1490.89 811.492 1493.8 C 814.382 1487.9 815.92 1480.19 815.16 1473.67 C 816.743 1464.85 821.068 1449.68 823.486 1440.48 C 829.415 1417.78 835.547 1395.13 841.882 1372.54 C 849.647 1343.96 856.697 1310.62 865.263 1282.86 C 865.479 1282.46 865.611 1281.09 865.69 1280.56 L 868.843 1278.87 z"/>
<path transform="translate(0,0)" fill="rgb(254,254,254)" fill-opacity="0.647059" d="M 793.505 1044.46 C 800.484 1046.42 802.082 1043.04 806.665 1044.19 L 808.84 1046.75 C 794.195 1056.51 754.725 1053.9 743.859 1066.16 L 744.16 1067.59 C 746.658 1068.42 752.969 1068.54 755.505 1067.94 L 761.215 1068.29 C 744.316 1069.42 719.308 1070.94 702.923 1069.17 C 710.451 1068.7 715.611 1069.55 723.591 1068.42 L 722.101 1067.82 L 722.465 1067.06 C 732.947 1063.76 743.723 1060.61 754.129 1057.21 C 766.59 1053.15 779.91 1044.99 793.505 1044.46 z"/>
<path transform="translate(0,0)" fill="rgb(254,254,254)" fill-opacity="0.607843" d="M 802.068 1035.24 L 803.885 1033.58 C 805.335 1023.28 765.46 1012.26 799.032 997.271 C 806.867 1008.19 792.34 1016.47 818.015 1021.29 C 813.378 1022.54 812.686 1021.89 809.949 1024.81 C 809.229 1030.99 809.599 1033.63 802.068 1035.24 z"/>
<path transform="translate(0,0)" fill="rgb(254,254,254)" fill-opacity="0.427451" d="M 824.154 995.457 C 825.625 995.636 830.678 996.121 831.752 996.56 C 831.407 1002.43 827.294 1003.68 823.139 1007.24 C 817.243 1007.72 811.34 1008.11 805.433 1008.42 L 804.484 1009.53 C 810.522 1018.09 814.743 1011.59 822.787 1022.82 L 818.015 1021.29 C 792.34 1016.47 806.867 1008.19 799.032 997.271 C 810.652 996.554 811.861 997.763 824.154 995.457 z"/>
<path transform="translate(0,0)" fill="rgb(254,254,254)" fill-opacity="0.494118" d="M 818.015 1021.29 L 822.787 1022.82 C 828.729 1030.6 818.894 1040.02 812.759 1044.27 C 811.48 1045.14 810.172 1045.97 808.84 1046.75 L 806.665 1044.19 C 802.082 1043.04 800.484 1046.42 793.505 1044.46 L 794.648 1044.48 C 799.737 1041.88 800.256 1040.37 802.068 1035.24 C 809.599 1033.63 809.229 1030.99 809.949 1024.81 C 812.686 1021.89 813.378 1022.54 818.015 1021.29 z"/>
<path transform="translate(0,0)" fill="rgb(254,254,254)" fill-opacity="0.603922" d="M 747.141 773.47 C 747.78 769.119 747.14 768.184 749.523 765.469 C 756.026 767.687 760.422 785.621 771.458 782.941 C 772.957 786.513 774.296 788.488 772.87 792.167 C 761.074 787.831 755.4 782.358 747.141 773.47 z"/>
<path transform="translate(0,0)" fill="rgb(254,254,254)" fill-opacity="0.717647" d="M 771.458 782.941 C 777.185 785.104 782.112 786.198 784.804 791.851 L 783.174 792.249 C 785.109 794.162 784.007 793.381 786.856 794.082 C 780.89 793.891 778.729 793.998 772.87 792.167 C 774.296 788.488 772.957 786.513 771.458 782.941 z"/>
<path transform="translate(0,0)" fill="rgb(49,71,220)" fill-opacity="0.988235" d="M 967.144 1545.38 C 966.817 1544.44 966.429 1541.77 966.233 1540.65 C 963.551 1538.18 961.124 1536.15 961.685 1532.26 C 964.589 1530.01 966.886 1530.49 970.642 1530.48 C 969.604 1535.56 968.747 1540.44 967.144 1545.38 z"/>
<path transform="translate(0,0)" fill="rgb(254,254,254)" fill-opacity="0.0588235" d="M 723.324 1474.39 C 724.879 1480.36 723.739 1485.69 725.697 1488.79 C 725.723 1494.48 724.313 1500.27 722.919 1505.73 C 722.927 1495.39 723.185 1484.75 723.324 1474.39 z"/>
<path transform="translate(0,0)" fill="rgb(39,73,247)" fill-opacity="0.870588" d="M 955.258 1139 L 970.73 1139.12 L 974.088 1141.01 L 973.845 1142.04 C 970.251 1142.14 966.564 1142.3 962.979 1142.28 C 959.317 1141.23 958.656 1140.84 955.258 1139 z"/>
<path transform="translate(0,0)" fill="rgb(254,254,254)" fill-opacity="0.027451" d="M 1245.28 1299.86 C 1247.12 1296.85 1247.06 1295.01 1247.78 1291.41 C 1248.02 1298.62 1248.53 1305.45 1247.38 1312.58 L 1246.7 1312.15 C 1246.08 1307.82 1245.6 1304.22 1245.28 1299.86 z"/>
<path transform="translate(0,0)" fill="rgb(0,0,1)" d="M 1007.82 661.144 C 1059.33 659.581 1117.86 661.05 1170.09 661.088 L 1250.17 661.015 C 1265.44 660.96 1280.91 660.368 1296.15 660.983 C 1300.75 661.169 1305.01 661.495 1309.22 663.508 C 1314.75 666.155 1317.68 669.689 1319.52 675.52 C 1324.25 690.566 1321.32 767.529 1321.22 788.319 C 1321.17 799.719 1322.34 811.497 1321.5 822.842 C 1321.19 827.098 1320.33 831.277 1318.31 835.072 C 1315.17 840.971 1309.99 843.865 1303.83 845.853 C 1213.74 847.642 1122.93 844.986 1032.75 846.096 C 1022.04 846.146 991.797 849.058 990.292 831.516 C 986.25 784.374 989.671 732.331 988.291 684.548 C 987.878 670.218 995.515 664.174 1007.82 661.144 z M 1302.76 841.265 C 1308.14 839.389 1312.07 837.135 1314.49 831.742 C 1316 828.372 1316.65 824.641 1316.92 820.983 C 1318.19 804.331 1316.71 786.494 1316.79 769.668 C 1316.9 743.055 1318.5 715.531 1316.93 689.032 C 1316.66 684.424 1315.84 679.525 1314.09 675.237 C 1312.55 671.471 1310.06 669.236 1306.29 667.787 C 1297.57 664.439 1044.84 665.24 1008.75 666.035 C 998.586 669.032 993.188 673.668 993.093 685.005 C 992.724 729.348 993.424 773.713 992.821 818.061 C 992.716 826.002 995.635 833.748 1001.52 839.212 C 1014.98 843.076 1061.58 841.766 1078.72 841.748 L 1178.38 841.705 L 1262.39 841.829 C 1273.54 841.789 1292.09 842.244 1302.76 841.265 z"/>
<path transform="translate(0,0)" fill="rgb(0,0,1)" d="M 1206.48 680.31 C 1253.67 678.463 1275.86 726.235 1248.23 763.113 C 1265.77 767.45 1272.62 780.461 1285.38 792.373 C 1290.62 797.267 1299.18 808.52 1291.64 815.075 C 1279.81 825.354 1273.43 816.11 1265.37 807.666 C 1260.55 802.18 1243.85 785.659 1241.24 781.804 C 1240.76 777.51 1241.1 775.03 1238.13 772.611 C 1232.31 774.713 1222.21 778.957 1216.45 779.718 C 1189.16 783.32 1165.82 763.391 1161.66 737.888 C 1159.44 724.409 1162.83 710.611 1171.04 699.693 C 1180.53 687.068 1191.65 682.713 1206.48 680.31 z M 1214.51 763.132 C 1232.56 760.958 1245.47 744.638 1243.44 726.578 C 1241.4 708.517 1225.19 695.476 1207.11 697.367 C 1188.83 699.279 1175.61 715.718 1177.67 733.98 C 1179.72 752.242 1196.27 765.331 1214.51 763.132 z"/>
<path transform="translate(0,0)" fill="rgb(49,71,220)" d="M 1205.26 684.628 C 1230.43 681.5 1253.37 699.387 1256.48 724.566 C 1259.58 749.744 1241.67 772.666 1216.49 775.743 C 1191.34 778.816 1168.46 760.937 1165.36 735.794 C 1162.26 710.651 1180.12 687.751 1205.26 684.628 z M 1214.51 763.132 C 1232.56 760.958 1245.47 744.638 1243.44 726.578 C 1241.4 708.517 1225.19 695.476 1207.11 697.367 C 1188.83 699.279 1175.61 715.718 1177.67 733.98 C 1179.72 752.242 1196.27 765.331 1214.51 763.132 z"/>
<path transform="translate(0,0)" fill="rgb(0,0,1)" d="M 1206.41 693.654 C 1226.73 691.137 1245.24 705.574 1247.75 725.896 C 1250.26 746.217 1235.82 764.724 1215.49 767.225 C 1195.18 769.724 1176.69 755.289 1174.18 734.98 C 1171.67 714.67 1186.1 696.17 1206.41 693.654 z M 1214.51 763.132 C 1232.56 760.958 1245.47 744.638 1243.44 726.578 C 1241.4 708.517 1225.19 695.476 1207.11 697.367 C 1188.83 699.279 1175.61 715.718 1177.67 733.98 C 1179.72 752.242 1196.27 765.331 1214.51 763.132 z"/>
<path transform="translate(0,0)" fill="rgb(0,0,1)" d="M 1206.73 703.161 C 1206.83 708.811 1202.63 709.017 1198.04 711.62 C 1190.51 715.896 1190.4 722.45 1186.7 729.619 L 1186.29 730.389 C 1180.57 717.49 1196.24 706.718 1206.73 703.161 z"/>
<path transform="translate(0,0)" fill="rgb(39,73,247)" d="M 1255.64 769.617 C 1259.39 770.604 1270.94 782.751 1274.18 786.143 C 1280.2 792.445 1292.27 802.255 1289.37 811.723 C 1286.75 815.203 1286.3 815.203 1282.18 817.072 C 1274.56 813.446 1250.64 786.702 1245.31 779.339 C 1249.09 775.136 1251.4 773.185 1255.64 769.617 z"/>
<path transform="translate(0,0)" fill="rgb(0,0,1)" d="M 1108.14 697.771 C 1117.76 698.743 1134.03 698.09 1144 697.952 C 1144.51 738.975 1143.25 781.851 1144.88 822.354 C 1136.89 821.879 1115.69 821.361 1108.09 822.781 L 1108.14 697.771 z"/>
<path transform="translate(0,0)" fill="rgb(39,73,247)" d="M 1112.77 702.53 C 1121.16 702.914 1130.96 702.782 1139.46 702.883 C 1139.93 713.865 1140.88 814.201 1138.7 817.76 L 1112.44 817.851 C 1113.54 781.568 1112.56 739.432 1112.77 702.53 z"/>
<path transform="translate(0,0)" fill="rgb(0,0,1)" d="M 1060.98 746.259 C 1071.41 747.121 1085.07 746.07 1097.08 746.869 C 1096.89 771.962 1096.85 797.055 1096.96 822.148 C 1087.73 821.925 1069.8 821.461 1061.05 822.802 L 1060.98 746.259 z"/>
<path transform="translate(0,0)" fill="rgb(0,0,1)" d="M 1013.73 788.842 C 1025.75 788.806 1037.78 788.853 1049.8 788.982 C 1049.83 800.022 1049.95 811.063 1050.17 822.102 C 1042.28 822.044 1020.66 821.414 1014.05 822.839 C 1014.13 811.506 1014.03 800.172 1013.73 788.842 z"/>
<path transform="translate(0,0)" fill="rgb(0,0,1)" d="M 425.59 755.39 L 434.84 754.725 C 436.268 761.774 437.877 768.785 439.666 775.752 L 457.572 781.005 C 463.114 775.556 465.727 771.434 472.36 765.525 C 483.53 772.841 491.186 779.115 500.908 788.273 C 496.824 795.812 493.958 799.355 488.61 806.198 C 492.438 811.941 495.02 817.744 498 823.956 C 507.588 823.768 521.363 821.088 521.932 833.658 C 522.316 842.149 522.743 850.781 523.13 859.265 L 502.431 863.349 C 500.488 869.278 498.511 875.196 496.501 881.103 C 502.002 886.278 508.107 891.606 512.47 897.7 C 506.193 906.906 497.946 916.589 490.856 925.333 C 484.045 922.335 477.956 917.299 471.984 912.79 C 465.514 916.449 461.472 918.619 454.668 921.505 C 454.818 928.54 454.899 935.576 454.914 942.612 C 445.8 945.05 436.594 945.802 427.238 946.788 C 422.868 946.928 423.51 947.534 420.108 945.792 C 416.497 939.965 416.337 932.974 415.236 925.859 C 407.662 924.49 403.695 923.506 396.714 920.362 C 391.508 926.362 387.646 931.293 381.289 936.045 C 373.893 930.865 365.689 925.718 358.532 920.357 C 350.077 914.025 360.177 902.281 364.401 895.82 C 360.809 890.002 357.864 885.399 354.978 879.186 C 348.246 879.657 340.292 879.608 333.448 879.727 C 331.736 867.715 330.679 855.618 330.281 843.491 L 351.891 839.25 L 356.742 821.142 C 333.489 800.135 346.188 799.077 363.822 777.644 L 382.191 789.133 C 386.89 786.402 394.691 782.966 399.819 780.537 C 399.065 774.652 398.873 765.198 398.572 759.013 C 406.669 757.276 417.197 756.355 425.59 755.39 z M 402.897 762.366 L 404.154 783.421 C 395.939 787.646 389.586 790.811 381.906 796.051 L 365.185 783.56 C 359.892 790.029 352.525 798.513 347.773 805.129 C 351.798 810.586 356.828 814.932 361.781 819.576 C 359.975 827.647 357.552 835.563 355.23 843.502 L 334.898 847.524 C 335.135 857.731 335.419 864.911 337.539 874.95 C 344.297 874.765 350.943 874.66 357.68 874.053 C 361.533 881.291 365.496 888.47 369.569 895.586 C 365.89 901.856 362.257 907.07 358.516 913.099 C 365.913 918.777 373.733 925.019 381.24 930.456 C 385.957 925.596 391.411 919.695 396.34 915.219 C 404.377 918.671 409.606 920.161 418.304 921.777 C 419.731 927.973 420.757 938.861 424.972 942.08 L 428.154 942.243 L 450.61 939.411 L 449.886 918.217 C 459.429 914.26 462.648 912.35 471.362 906.841 C 478.293 911.098 483.041 914.457 489.584 919.337 C 494.096 913.939 503.737 903.302 507.11 898.01 C 501.426 891.872 497.462 887.892 491.238 882.336 C 493.788 875.015 496.829 866.911 498.65 859.468 L 519.149 855.677 C 518.375 846.753 517.115 836.742 516.627 827.974 C 509.409 828.916 502.554 828.756 495.285 828.773 C 491.243 820.65 488.034 814.016 483.085 806.352 C 486.826 801.22 492.588 794.23 495.755 789.199 C 488.86 783.686 480.252 776.394 473.18 771.414 C 467.865 776.721 463.891 781.625 458.974 786.767 C 452.01 784.573 443.026 781.462 436.07 779.913 C 434.888 774.752 433.255 763.522 431.282 759.667 L 429.49 759.344 C 420.668 760.696 411.797 761.704 402.897 762.366 z"/>
<path transform="translate(0,0)" fill="rgb(0,0,1)" d="M 417.644 811.456 C 439.78 806.623 461.62 820.735 466.309 842.903 C 470.998 865.07 456.744 886.817 434.546 891.362 C 412.552 895.865 391.048 881.77 386.402 859.806 C 381.756 837.842 395.71 816.246 417.644 811.456 z M 429.518 886.917 C 449.165 885.178 463.687 867.85 461.964 848.202 C 460.241 828.554 442.923 814.018 423.274 815.726 C 403.603 817.436 389.047 834.776 390.773 854.446 C 392.498 874.116 409.85 888.658 429.518 886.917 z"/>
<path transform="translate(0,0)" fill="rgb(0,0,1)" d="M 913.528 391.427 C 947.817 385.656 988.459 421.381 992.46 454.401 C 994.315 469.709 994.973 484.827 985.82 498.077 C 990.15 502.498 995.752 507.493 998.185 512.941 L 997.445 514.855 C 992.283 516.913 983.888 516.035 977.916 515.936 C 977.691 528.323 977.599 540.712 977.641 553.101 L 946.834 552.764 C 946.844 549.122 947.34 543.439 945.746 540.474 L 943.775 540.924 C 937.367 543.12 931.996 544.74 925.222 545.552 C 904.554 548.203 883.696 542.341 867.435 529.312 C 850.819 516.043 840.986 496.613 838.925 475.553 C 836.893 454.651 843.429 433.818 857.039 417.823 C 871.979 400.021 891.136 393.364 913.528 391.427 z M 918.207 502.869 C 922.226 503.821 926.583 504.755 930.529 505.867 L 949.357 484.838 L 950.308 483.717 C 954.121 479.17 954.995 477.914 957.955 472.603 C 965.815 471.242 978.99 489.058 983.468 495.406 C 986.553 487.024 988.02 479.269 989.475 470.462 C 980.363 470.35 970.589 470.984 961.956 468.662 C 960.728 468.332 960.903 468.405 959.636 468.323 C 958.639 469.045 957.411 469.935 955.952 470.993 C 944.19 471.073 929.604 470.395 918.094 470.437 L 918.207 502.869 z M 918.117 428.943 C 927.619 429.179 936.265 427.774 945.651 426.538 C 947.439 415.576 929.151 398.707 918.143 395.381 C 918.018 406.364 917.675 418.021 918.117 428.943 z M 973.081 511.322 C 978.61 511.21 984.639 510.981 990.136 511.029 C 987.39 507.235 965.161 480.03 962.097 478.663 C 953.701 487.016 941.035 500.702 933.768 510.096 C 939.552 510.409 945.347 510.873 951.121 510.45 L 950.982 548.657 L 963.751 548.408 L 973.03 548.384 L 973.081 511.322 z M 904.972 538.675 C 907.757 540.006 909.301 541.202 912.23 540.515 C 917.118 534.729 913.089 515.768 912.854 507.98 C 910.293 508.063 903.973 508.08 901.734 508.36 C 896.071 509.274 890.993 509.952 885.493 511.701 C 891.009 523.737 894.247 530.289 904.972 538.675 z M 935.755 530.326 C 940.394 524.575 941.609 522.479 945.167 515.994 C 938.482 516.036 931.795 516.633 925.563 514.582 L 924.475 513.16 L 925.542 509.686 C 923.838 507.4 920.86 507.855 917.983 507.816 C 917.947 515.525 916.405 533.45 920.167 539.11 C 925.886 541.89 932.052 534.616 935.755 530.326 z M 951.752 426.233 L 966.739 420.354 L 968.34 419.172 C 965.523 412.564 950.51 404.091 943.867 401.438 C 941.056 400.303 938.174 399.351 935.239 398.59 C 943.887 408.244 946.249 414.692 951.752 426.233 z M 878.645 470.165 C 879.276 485.918 880.213 491.327 884.469 506.469 C 895.829 504.745 901.886 504.17 913.207 503.701 C 915.466 498.905 913.591 477.619 913.004 471.036 C 901.738 469.89 889.992 470.018 878.645 470.165 z M 875.398 448.273 L 879.731 429.184 C 872.698 427.408 865.497 425.957 859.131 422.448 C 848.542 436.985 845.064 447.451 843.134 465.256 C 849.184 465.884 870.077 467.362 874.266 464 L 875.871 462.921 L 878.903 465.711 C 890.591 466.048 902.286 466.045 913.973 465.699 C 913.759 454.33 912.946 446.016 913.266 434.125 C 905.062 433.712 892.553 431.686 884.105 430.581 C 882.201 437.98 880.629 443.909 879.487 451.441 C 877.006 450.358 877.186 450.356 875.398 448.273 z M 913.937 429.089 C 914.018 424.125 914.26 399.182 911.962 395.973 C 901.355 399.243 888.466 413.142 887.224 424.017 L 888.065 425.801 L 891.251 426.636 C 899.653 428.104 905.335 428.946 913.937 429.089 z M 935.828 539.102 C 941.682 537.515 943.62 537.842 946.971 533.474 C 947.586 529.998 947.455 525.057 946.654 521.699 C 944.131 527.068 935.867 537.515 935.828 539.102 z M 972.044 423.107 C 964.535 426.241 960.218 427.957 952.433 430.103 C 956.121 443.485 957.017 450.587 957.995 464.511 C 962.188 464.959 966.8 465.348 970.937 465.91 C 976.277 465.717 983.761 465.658 988.844 464.967 C 987.4 453.472 981.847 430.074 972.044 423.107 z M 881.547 424.762 C 884.452 415.854 889.23 408.685 894.194 400.75 C 893.186 399.782 893.756 399.986 892.57 399.933 C 879.407 405.236 872.843 408.73 862.779 418.759 L 871.972 422.1 C 875.125 423.006 878.372 423.995 881.547 424.762 z M 880.791 512.259 C 874.672 514.005 868.568 515.804 862.48 517.654 C 870.937 526.523 872.915 528.307 883.808 534.251 L 897.365 539.382 C 890.029 531.257 883.668 515.238 880.791 512.259 z M 842.821 470.939 C 844.45 482.573 847.443 503.283 858.001 511.794 C 860.157 513.533 862.39 512.236 865.262 511.457 L 879.688 507.251 C 875.728 492.237 874.665 485.893 873.861 470.411 C 870.692 470.428 860.195 470.249 857.526 470.523 L 842.821 470.939 z M 944.539 431.414 C 935.534 432.427 927.065 433.39 917.998 433.931 C 917.863 442.062 916.061 458.573 919.84 464.803 C 922.697 466.3 923.508 466.001 926.75 466.024 C 935.714 465.999 944.678 465.846 953.638 465.568 C 953.075 457.421 952.567 436.167 946.997 431.125 L 944.539 431.414 z"/>
<path transform="translate(0,0)" fill="rgb(6,6,16)" fill-opacity="0.988235" d="M 875.398 448.273 C 877.186 450.356 877.006 450.358 879.487 451.441 C 879.282 456.093 878.962 461.087 878.903 465.711 L 875.871 462.921 L 874.266 464 C 874.323 457.74 874.604 454.466 875.398 448.273 z"/>
<path transform="translate(0,0)" fill="rgb(0,0,1)" d="M 1414.63 398.349 C 1444 400.029 1465.03 418.575 1469.31 447.819 C 1472.44 447.285 1475.57 446.812 1478.72 446.398 C 1513.45 442.061 1534.67 484.86 1511.19 509.695 C 1506.05 515.099 1499.43 518.872 1492.17 520.544 C 1483.81 522.452 1466.53 521.672 1457.41 521.568 C 1440.56 521.236 1423.71 521.19 1406.87 521.429 C 1392.34 521.524 1349.59 522.903 1337.8 520.929 C 1326.3 519.095 1316.06 512.635 1309.46 503.053 C 1303.04 493.613 1300.95 481.153 1303.41 470.066 C 1305.91 459.331 1312.54 450.019 1321.88 444.164 C 1335.71 435.346 1347.57 436.226 1362.41 439.843 C 1370.6 413.985 1387.81 400.389 1414.63 398.349 z M 1365.33 445.36 C 1350.8 441.613 1338.98 439.358 1325.05 447.985 C 1316.29 453.436 1310.1 462.205 1307.91 472.292 C 1305.99 482.051 1308.03 492.173 1313.57 500.43 C 1326.62 519.453 1346.46 516.791 1366.42 516.795 C 1381.71 516.798 1397.29 516.142 1412.55 516.52 C 1437.78 516.707 1467.82 518.196 1492.77 515.199 C 1506.81 513.513 1517.08 497.404 1516.52 483.085 C 1516.22 473.739 1511.98 464.955 1504.86 458.895 C 1497.55 452.813 1488.03 450.062 1478.59 451.305 C 1474 451.897 1469.9 453.215 1465.58 454.801 C 1463.66 438.634 1459.48 425.154 1446.18 414.28 C 1436.54 406.556 1424.39 402.662 1412.06 403.343 C 1384.5 407.008 1373.82 420.796 1365.33 445.36 z"/>
<path transform="translate(0,0)" fill="rgb(0,0,1)" d="M 467.592 542.277 L 469.424 542.162 C 507.261 539.966 551.357 542.78 589.638 542.569 C 599.563 542.514 604.008 555.247 603.777 564.152 C 603.116 589.56 605.341 616.332 602.706 641.67 C 601.56 652.272 587.147 653.064 579.605 652.994 L 579.29 665.75 L 579.03 681.989 C 569.231 673.556 557.089 661.25 547.516 652.103 L 497.34 652.177 C 488.596 652.187 479.242 652.917 470.602 651.642 C 466.192 650.991 459.279 649.162 456.978 644.85 C 453.19 637.751 452.434 559.501 455.805 551.738 C 457.967 546.759 462.873 544.31 467.592 542.277 z M 458.97 638.589 C 461.183 641.335 463.389 644.239 465.901 646.689 C 491.638 650.031 525.231 645.754 550.078 648.18 C 557.829 654.445 567.522 664.143 574.812 671.289 C 574.878 664.754 575.133 657.181 574.83 650.748 L 575.497 648.584 C 581.16 647.293 594.85 648.396 597.077 642.825 C 603.702 626.26 598.419 598.329 600.155 580.413 C 600.877 572.958 600.482 560.832 599.242 556.309 C 598.269 552.721 595.768 549.742 592.402 548.162 C 587.981 546.136 477.327 546.353 466.762 547.132 C 461.744 551.394 459.029 553.439 458.972 560.404 C 458.763 585.808 458.358 613.275 458.97 638.589 z"/>
<path transform="translate(0,0)" fill="rgb(0,0,1)" d="M 529.209 562.836 C 533.102 566.571 561.884 617.072 565.927 624.869 C 555.855 624.97 543.088 624.224 532.739 624.003 L 493.484 624.122 C 496.06 616.855 523.949 570.082 529.209 562.836 z"/>
<path transform="translate(0,0)" fill="rgb(39,73,247)" d="M 529.203 570.757 C 534.005 576.832 554.196 613.464 557.626 620.638 C 549.168 620.559 540.709 620.538 532.25 620.573 C 521.575 620.596 510.9 620.467 500.228 620.185 C 507.927 605.131 520.355 585.616 529.203 570.757 z"/>
<path transform="translate(0,0)" fill="rgb(0,0,1)" d="M 1079.79 483.154 C 1117.61 480.839 1159.7 483.541 1197.86 483.27 C 1203.6 483.229 1207.61 488.864 1210.82 492.958 C 1212.49 512.319 1211.16 552.884 1210.99 573.853 C 1201.67 588.548 1187.5 584.307 1171.5 584.139 L 1121.61 584.173 C 1116.27 589.569 1100.41 608.979 1094.4 608.76 C 1090.51 604.074 1092.23 591.568 1092.59 585.004 C 1079.3 584.121 1075.38 584.852 1068.65 572.732 C 1068.16 549.6 1067.38 517.566 1069.26 494.168 C 1069.65 489.177 1075.78 485.57 1079.79 483.154 z M 1073.81 494.531 C 1072.5 510.11 1072.52 553.802 1073.28 571.109 C 1081.29 581.57 1084.25 580.024 1097.01 579.964 C 1097.17 587.11 1097.56 595.35 1097.42 602.407 C 1104.45 594.945 1111.53 587.527 1118.66 580.154 C 1136.11 579 1158.43 579.648 1176.25 579.69 C 1183.26 579.832 1198.39 581.745 1203.28 576.124 C 1209.76 568.673 1206.91 508.273 1206.87 495.72 C 1204.85 493.297 1202.53 490.329 1200.41 488.063 C 1166.4 485.617 1118.48 487.373 1083.28 487.314 C 1078.49 489.278 1077.47 490.819 1073.81 494.531 z"/>
<path transform="translate(0,0)" fill="rgb(6,6,16)" d="M 1138.37 501.337 C 1141.75 503.172 1147.51 515.782 1150.46 520.687 C 1155.59 522.103 1166.75 523.53 1172.46 524.41 C 1168.69 529.871 1161.43 536.924 1156.61 541.912 C 1158.32 549.595 1158.91 554.829 1159.74 562.712 C 1152.51 559.454 1147.41 556.825 1140.5 552.949 C 1136.63 553.004 1124.04 560.026 1119.71 562.196 C 1120.27 554.853 1121.5 547.607 1122.62 540.328 C 1116.58 534.515 1110.73 531.775 1107 523.985 C 1114.05 523.15 1122.56 522.42 1129.26 520.495 C 1132.29 513.586 1134.75 507.937 1138.37 501.337 z"/>
<path transform="translate(0,0)" fill="rgb(49,71,220)" d="M 1138.56 512.525 C 1142.16 515.087 1144.34 520.207 1146.43 524.177 L 1163.09 527.787 C 1158.82 532.075 1155.72 535.123 1151.97 539.881 C 1152.22 544.567 1152.78 549.593 1153.21 554.294 L 1140.68 548.41 C 1135.96 548.904 1130.08 551.707 1125.51 553.557 C 1126.48 548.763 1126.75 544.787 1127.18 539.945 C 1124.31 536.252 1120.23 531.736 1117.15 528.04 C 1121.99 527.174 1126.87 525.743 1131.63 524.469 C 1134.09 520.615 1136.31 516.512 1138.56 512.525 z"/>
</svg>