<svg version="1.1" xmlns="http://www.w3.org/2000/svg" style="display: block;" viewBox="0 0 2048 2048" width="1024" height="1024" preserveAspectRatio="none">
<defs>
	<linearGradient id="Gradient1" gradientUnits="userSpaceOnUse" x1="1022.77" y1="431.363" x2="1018.11" y2="443.963">
		<stop class="stop0" offset="0" stop-opacity="0" stop-color="rgb(242,240,243)"/>
		<stop class="stop1" offset="1" stop-opacity="0.0352941" stop-color="rgb(230,229,232)"/>
	</linearGradient>
</defs>
<path transform="translate(0,0)" fill="rgb(0,0,0)" d="M 746.578 535.875 C 746.603 530.175 746.622 524.244 747.181 518.58 C 751.473 476.352 772.413 437.574 805.369 410.825 C 850.974 373.942 915.537 365.719 969.243 388.627 C 996.155 400.106 1016.11 417.228 1034.18 439.881 L 1035.37 441.498 C 1039.05 447.115 1042.49 452.393 1045.9 458.179 C 1066.04 457.115 1079.96 458.081 1088.29 478.706 C 1090.64 487.7 1093.03 496.681 1095.47 505.649 L 1095.75 506.343 L 1101.38 531.155 L 1100.94 541.201 C 1130.67 557.812 1132.8 580.725 1142.54 610.999 C 1182.77 604.033 1228.35 598.518 1269.09 593.172 C 1275.41 587.962 1286.4 579.712 1293.25 575.318 C 1313.71 562.199 1367.18 522.67 1390.73 529.001 C 1397.66 523.344 1406.99 469.496 1411.9 460.333 C 1413.4 458.038 1415.55 457.97 1417.91 457.899 C 1434.06 457.413 1431.23 482.79 1430.86 492.592 C 1436.29 484.686 1465.56 436.537 1469.85 435.276 C 1502.4 425.699 1468.73 479.636 1463.81 489.096 C 1474 478.722 1491.62 454.472 1505.46 448.781 C 1512.53 445.874 1520.34 456.352 1514.99 464.773 C 1511.02 471.018 1507.32 476.661 1501.9 482.636 L 1486.22 502.378 C 1492.79 497.869 1499.82 491.588 1505.99 486.365 C 1513.52 480.492 1522.54 472.777 1532.13 480.073 C 1534.23 484.275 1534.2 488.785 1531.73 492.951 C 1528.64 495.993 1525.48 499.034 1522.54 502.207 C 1515.59 508.77 1502.64 519.429 1497.22 525.696 C 1505.41 521.655 1524.07 510.629 1532.99 513.419 C 1538.97 515.292 1540.71 523.66 1535.88 529.292 C 1525.99 540.812 1503.36 546.146 1493.91 556.603 L 1492.22 558.138 C 1486.2 564.1 1465.87 583.87 1459.68 585.585 C 1430.46 593.674 1449.47 593.637 1435.93 610.215 C 1416.36 634.178 1389.95 657.588 1365.54 677.092 C 1325.63 708.942 1280.5 733.644 1232.16 750.102 C 1220.74 753.997 1202.38 759.364 1192 763.643 C 1193.71 769.793 1195.34 776.236 1197.54 782.202 C 1205.91 810.9 1215.2 839.641 1223.6 868.353 C 1235.24 908.196 1251.17 940.164 1213.99 972.534 C 1263.54 1019.29 1305.8 1073.21 1339.36 1132.5 C 1346.93 1145.76 1356.82 1162.47 1361.96 1176.5 C 1376.19 1215.28 1384.51 1261 1391.03 1301.82 C 1396.08 1333.47 1402.22 1377.36 1403.05 1409.5 C 1403.11 1412.02 1403.09 1414.53 1403 1417.04 C 1400.77 1420.04 1398.86 1422.76 1396.28 1425.49 C 1418.93 1439.82 1463.55 1453.85 1479.9 1471.87 C 1485.25 1477.76 1488.62 1485.46 1490.4 1493.15 C 1493.06 1504.7 1493.43 1520.37 1487.09 1530.7 C 1482.49 1538.2 1476.46 1542.34 1467.99 1544.17 C 1443.77 1549.4 1346.26 1542.1 1327.16 1530.66 C 1314.16 1522.87 1303.84 1462.78 1300.53 1447.28 C 1295.74 1444.88 1290.12 1442.39 1287.53 1437.59 C 1279.45 1422.61 1273.25 1402.95 1267.42 1386.88 C 1257.52 1359.43 1247.41 1332.07 1237.07 1304.79 C 1229.11 1284.08 1219.17 1258.53 1208.06 1239.37 C 1199.95 1225.39 1181.65 1207.21 1170.49 1194.87 C 1147.77 1169.78 1123.19 1145.48 1100.79 1120.13 C 1092.09 1122.49 1086.58 1123.82 1077.48 1124.46 C 1076.91 1158.63 1072.48 1273.49 1083.19 1300.34 C 1090.52 1318.72 1103.17 1335.6 1114.17 1351.97 C 1129.42 1374.66 1144.91 1397.18 1160.64 1419.54 C 1168.35 1430.54 1178.52 1443.05 1183.93 1455.21 C 1185.92 1459.69 1185.03 1465.27 1184.36 1470.11 C 1197.6 1482.6 1240.38 1519.96 1241.55 1535.78 C 1243.17 1557.76 1198.63 1645.24 1181.99 1663.03 C 1175.49 1669.99 1168.82 1674.73 1158.97 1674.8 C 1146.25 1674.88 1130.82 1665.1 1122.16 1656.12 C 1111.67 1645.25 1108.48 1632.81 1108.86 1618.13 C 1109.57 1590.71 1117.59 1564 1115.66 1536.35 C 1111.19 1536.63 1106.59 1536.98 1102.12 1537.12 C 1052.58 1503.8 958.183 1416.47 930.02 1364.66 C 915.449 1337.86 907.772 1307.2 902.007 1277.41 C 890.597 1218.43 887.686 1155.56 890.819 1095.71 C 890.759 1086.6 891.895 1076.17 892.668 1066.98 C 884.13 1067.01 881.261 1066.91 872.877 1065.49 C 856.526 1060.51 840.559 1052.42 832.587 1036.08 C 823.044 1016.52 817.796 992.865 811.309 971.974 C 799.349 933.459 789.02 894.247 776.324 855.955 C 749.708 855.971 726.051 854.624 699.49 852.485 C 695.759 851.712 686.935 850.89 682.787 850.372 C 670.569 847.799 657.543 846.879 645.747 844.002 C 602.335 833.418 561.124 815.146 522.414 792.823 C 512.818 787.289 486.398 772.061 481.911 760.128 C 482.221 759.814 481.28 755.843 481.293 755.844 C 456.879 753.243 441.688 742.961 420.746 731.335 C 408.709 724.652 386.162 724.336 375.641 713.773 C 371.599 709.715 371.988 703.039 377.599 700.113 C 387.157 696.243 401.892 701.319 412.05 703.383 C 403.025 697.982 377.218 685.783 370.965 675.415 C 366.785 669.875 373.703 661.151 379.449 662.08 C 391.678 664.058 407.617 674.654 418.941 679.534 C 408.458 668.47 392.134 660.128 383.472 647.519 C 375.602 636.063 385.863 629.358 397.792 633.49 C 405.93 639.329 417.797 648.513 425.767 653.64 C 429.055 656.721 433.524 659.33 437.366 661.808 L 430.582 651.901 C 421.048 641.875 410.459 630.744 407.66 617.234 C 410.403 614.124 412.882 610.719 417.395 610.505 C 427.108 610.045 462.438 651.414 471.559 660.09 C 468.363 648.426 462.606 629.477 475.052 621.554 C 489.294 620 493.534 650.512 501.29 661.046 C 505.104 668.723 509.295 676.206 513.848 683.468 C 515.552 682.381 518.675 680.631 519.877 679.25 C 552.639 677.757 612.352 699.434 642.816 712.873 C 673.262 707.807 703.75 702.992 734.276 698.429 C 728.052 675.623 724.097 657.249 739.712 636.687 C 731.55 622.69 729.414 608.808 724.475 594.132 C 714.724 565.151 717.614 549.872 746.578 535.875 z M 1175.93 612.49 C 1175.79 617.389 1175.7 621.548 1174.52 626.451 C 1167.24 656.709 1125.01 665.136 1104.37 643.621 C 1098.69 637.698 1097.07 632.996 1094.92 625.318 C 1089.38 626.212 1083.71 627.192 1078.18 627.995 C 1077.43 635.116 1073.37 644.25 1069.77 650.549 C 1023.06 732.387 895.339 760.791 816.651 710.307 C 811.895 707.256 806.422 702.845 802.427 698.827 C 771.567 699.872 725.814 705.848 694.751 711.447 C 707.443 757.451 703.782 799.912 685.326 843.604 C 726.948 850.75 784.827 849.281 827.58 849.041 C 839.083 825.831 844.025 803.896 842.437 778.226 C 842.152 773.61 841.241 767.049 844.762 764.968 C 845.788 765.219 847.77 765.317 847.964 766.499 C 853.008 797.098 845.563 830.241 830.479 856.619 C 835.623 875.3 847.755 922.211 856.021 937.766 L 857.488 938.323 C 860.004 936.417 859.955 936.423 861.873 933.897 C 872.781 918.575 892.184 894.009 901.469 879.192 L 885.487 826.268 C 881.703 813.709 873.434 793.513 878.839 781.241 C 883.265 771.192 904.08 767.413 913.955 764.529 L 962.843 750.299 C 987.226 743.224 1011.04 735.335 1035.54 728.124 C 1061.18 720.573 1066.18 749.112 1071.84 766.489 C 1077.77 784.688 1082.33 805.078 1088.95 822.864 L 1161.45 844.176 C 1159.63 829.627 1146.91 792.579 1140.1 779.268 L 1140.36 780.705 C 1108.8 765.509 1085.89 735.343 1073.46 702.997 C 1072.13 699.526 1072.2 700.153 1073.38 697.7 C 1076.28 696.41 1074.87 696.443 1077.73 697.378 C 1082.06 704.081 1085.81 713.664 1089.67 721.028 C 1100.81 742.316 1116.34 757.768 1136.31 770.723 C 1165.12 765.352 1227.61 745.778 1255.13 733.967 C 1233.16 700.565 1218.35 670.283 1214.24 629.539 C 1213.76 624.808 1212.87 613.875 1212.47 608.648 C 1211.82 608.378 1211.17 608.108 1210.52 607.838 L 1206.54 608.361 C 1196.43 609.729 1186.04 611.251 1175.93 612.49 z M 1016.24 978.082 L 1047.9 968.26 C 1044.66 958.877 1023.32 888.401 1020.94 887.107 C 1011.09 890.164 999.334 894.125 989.528 896.775 C 992.846 907.974 1011.88 973.448 1016.24 978.082 z M 792.763 692.3 L 802.508 692.186 L 803.763 677.582 C 792.491 666.057 787.022 660.626 777.561 647.293 C 764.155 648.811 756.223 648.438 744.12 641.09 C 731.739 664.685 734.409 673.002 740.886 697.476 L 792.763 692.3 z M 896.425 1034.23 C 886.345 1015.57 875.185 997.469 865.693 978.494 C 849.748 946.62 838.606 912.565 829.485 878.188 C 827.542 870.868 825.486 863.575 824.345 856.075 C 810.766 855.884 797.185 855.841 783.605 855.944 C 789.741 875.661 795.609 895.461 801.208 915.337 C 801.92 917.576 803.797 924.042 804.619 925.867 C 808.273 941.197 815.612 962.47 820.078 978.089 C 823.582 990.339 830.732 1016.3 835.439 1026.45 C 838.754 1033.77 843.506 1040.34 849.412 1045.78 C 863.08 1058.23 875.829 1060.34 893.385 1059.82 C 894.279 1051.28 895.293 1042.75 896.425 1034.23 z M 745.41 543.911 C 712.368 564.424 729.878 582.246 736.729 612.131 C 740.102 626.846 742.684 632.755 755.733 639.592 C 760.521 640.859 767.613 642.363 772.403 640.762 C 772.719 636.921 763.722 621.882 761.473 615.499 C 755.722 599.18 751.109 583.318 748.587 566.133 C 747.809 560.833 747.737 547.068 745.41 543.911 z M 1332.18 1476.84 C 1335.72 1485.41 1337.4 1486.24 1342.08 1493.73 C 1343.44 1495.92 1344.97 1505.16 1346.51 1508.45 C 1347.23 1493.45 1339.7 1469.61 1321.99 1468.9 C 1323.11 1473.97 1327.51 1474.76 1332.18 1476.84 z M 1214.83 1540.11 C 1213.54 1534.81 1199.78 1522.11 1193.83 1520.73 C 1197.67 1529.61 1203.35 1535.7 1211.83 1540.35 L 1214.83 1540.11 z M 905.055 1256.16 C 908.782 1276.9 911.694 1294.02 917.65 1314.37 C 932.143 1295.83 953.493 1283.92 976.878 1281.32 C 988.09 1280.07 995.747 1281.49 1005.39 1287.04 C 1019.96 1298.23 1026.11 1309.55 1034.9 1325.66 C 1046.28 1319.52 1066.19 1308.8 1076.61 1301.85 C 1069.94 1280.15 1070.16 1263.58 1070.39 1240.93 C 1044.77 1233.22 1010.23 1227.45 983.639 1231.4 C 955.954 1233.83 929.134 1242.28 905.055 1256.16 z M 1169.45 880.896 C 1168.56 870.035 1165.74 862.527 1164.43 852.706 C 1143.8 845.948 1111.42 835.491 1090.69 830.489 C 1095.16 842.743 1096.41 845.938 1093.33 858.962 C 1114.89 865.057 1149.26 876.454 1169.45 880.896 z M 1135.81 611.742 C 1127.13 586.415 1124.27 561.357 1098.28 547.941 C 1090.91 559.015 1086.19 562.909 1073.61 568.183 C 1071.62 582.978 1069.88 593.238 1065.9 607.832 C 1069.07 612.278 1072.16 616.786 1075.16 621.352 C 1083.75 620.788 1092.36 618.922 1100.84 617.308 C 1112.35 615.274 1124.22 612.95 1135.81 611.742 z M 873.009 974.228 C 886.6 953.934 903.663 931.898 918.284 912.034 C 904.685 900.731 910.309 900.593 903.559 887.862 C 889.12 908.746 874.734 928.041 859.693 948.443 C 861.826 953.81 868.589 971.367 872.161 974.616 L 873.009 974.228 z M 1074.07 561.066 C 1080.19 557.471 1082.13 556.488 1087.29 551.55 C 1101.53 532.89 1090.5 517.694 1086.25 496.508 C 1081.62 473.482 1074.42 463.275 1049.21 463.769 C 1066.28 502.78 1070.89 519.182 1074.07 561.066 z M 1431.23 1528.32 C 1422.41 1527.84 1413.59 1527.25 1404.79 1526.54 C 1398.18 1525.16 1366.62 1520.54 1361.25 1520.55 L 1323.26 1513.31 C 1331.72 1529.13 1334.57 1527.51 1352.11 1530.63 C 1360.54 1532.3 1391.26 1537.75 1398.82 1536.72 C 1408.64 1538.11 1418.53 1538.93 1428.44 1539.17 C 1438.27 1541.52 1474.96 1540.68 1479.25 1529.58 C 1481.47 1526.54 1481.73 1526.11 1483.36 1522.71 L 1482.18 1522.22 L 1479.36 1523.62 C 1453.55 1529.82 1453.06 1526.35 1431.23 1528.32 z M 924.757 914.337 C 908.79 937.5 892.289 960.29 875.265 982.688 C 878.605 988.736 882.034 995.217 885.715 1001.02 L 901.238 999.709 C 927.641 997.108 983.48 988.633 1008.63 979.898 C 1005.09 969.51 984.781 900.593 982.038 899.108 C 968.306 903.386 938.31 913.761 924.757 914.337 z M 1228.65 1524.71 C 1226.22 1531.93 1222.51 1541.68 1221.65 1549.01 C 1223.45 1545.57 1224.12 1543.43 1227.34 1541.28 L 1229.18 1541.41 C 1231.25 1548.49 1226.46 1553.22 1228.38 1557.81 C 1231.19 1551.26 1233.39 1542.61 1235.38 1535.61 C 1233.49 1531.82 1230.99 1528.27 1228.65 1524.71 z M 1180.85 917.338 C 1182.05 925.897 1182.65 934.629 1183.19 943.249 C 1191.57 950.492 1200.84 959.555 1209.03 967.238 C 1244 937.227 1227.97 906.67 1217.03 869.941 L 1185.22 765.182 C 1172.31 768.866 1159.36 772.426 1146.37 775.861 C 1164.07 821.018 1168.39 839.37 1177.45 886.772 C 1178.17 895.193 1179.09 909.507 1180.85 917.338 z M 1063.84 615.948 L 1058.09 628.728 C 1044.41 650.983 1029.81 666.489 1007.62 680.201 C 959.059 710.741 889.903 719.161 836.092 698.18 L 829.911 695.284 C 823.317 691.625 815.929 686.462 810.409 683.478 C 803.001 696.202 822.676 706.499 831.561 711.137 C 873.343 732.944 920.591 732.826 965.24 720.39 C 971.185 719.141 978.88 715.733 984.708 713.391 C 1007.98 705.114 1033.8 685.065 1049.94 666.394 C 1058.26 656.725 1063.2 648.573 1068.4 637.092 C 1073.38 627.437 1069.21 624.283 1063.84 615.948 z M 1429.08 505.204 C 1432.1 513.659 1434.61 520.184 1434.98 529.361 C 1435.28 536.816 1427.62 546.241 1429.72 551.653 C 1432.36 552.694 1431.32 552.626 1433.98 552.457 C 1442.18 541.637 1446.48 506.915 1429.08 505.204 z M 1036.64 454.498 C 1028.64 443.816 1022.36 434.786 1012.27 425.91 C 992.408 403.781 954.33 387.1 925.037 383.5 C 884.433 378.708 843.575 390.093 811.301 415.192 C 774.781 443.955 758.539 480.652 753.002 525.727 C 757.155 514.45 759.883 505.417 766.469 495.104 C 810.674 425.885 912.372 402.159 987.307 423.622 L 1000.13 429.384 C 1004.03 431.398 1008.61 433.935 1012.58 435.621 C 1017.05 439.979 1031.24 450.65 1036.64 454.498 z M 665.067 716.068 C 657.443 717.085 649.844 718.29 642.279 719.681 C 614.452 708.01 550.785 684.748 521.473 685.319 C 519.665 714.75 508.703 737.143 488.315 758.582 C 515.281 789.81 604.194 826.602 645.138 836.714 L 653.829 838.545 C 671.523 797.249 677.535 759.85 665.067 716.068 z M 958.86 998.461 C 933.655 1002.48 914.558 1005.21 889.035 1007.45 C 893.033 1014.97 896.707 1021 901.238 1028.23 C 967.971 1026.57 1053.98 1001.75 1115.31 975.263 C 1136.03 966.313 1156.79 954.554 1176.58 943.597 C 1175.93 935.12 1175.23 926.647 1174.46 918.179 C 1125.84 949.709 1042.32 981.037 985.639 992.693 C 976.742 994.748 967.815 996.671 958.86 998.461 z M 1436.65 596.255 C 1417.84 583.987 1402.67 571.67 1392.34 551.013 C 1389.18 544.699 1388.4 535.404 1383.09 534.086 C 1345.92 543.743 1304.63 576.884 1273.08 598.483 C 1269.87 600.68 1248.75 602.32 1243.07 603.288 C 1244.91 642.551 1257.54 691.007 1284.52 720.525 L 1292.98 715.955 C 1334.19 694.921 1412.79 634.998 1436.65 596.255 z M 470.247 670.216 C 463.74 683.616 465.579 711.217 480.991 717.2 C 481.358 715.977 481.726 714.755 482.094 713.532 C 478.733 706.586 473.44 696.711 471.947 689.173 C 471.28 685.801 474.979 676.73 473.382 671.561 C 472.13 670.955 471.581 670.602 470.247 670.216 z M 1170.59 888.658 L 1113.56 871.72 C 1109.98 870.662 1091.96 865.222 1089.08 864.946 C 1080.99 869.994 1039.23 882.565 1028.35 884.831 C 1035.47 906.901 1046.16 946.175 1054.21 966.054 C 1063.18 963.017 1088.95 954.188 1096.68 950.006 C 1125.09 937.187 1146.15 927.638 1173.2 911.096 C 1172.76 902.529 1172.1 897.145 1170.59 888.658 z M 899.387 1208.19 C 899.826 1213.29 900.463 1218.02 901.149 1223.06 C 903.245 1221.69 905.395 1220.4 907.592 1219.19 C 955.881 1193.09 1018.49 1192.76 1070.18 1208.65 L 1070.79 1123.8 C 1062.63 1122.63 1029.42 1112.94 1033.67 1102.75 C 1041.2 1100.7 1046.63 1108.95 1054 1112.24 C 1070.72 1119.72 1085.62 1117.81 1101.94 1112.51 C 1107.46 1116.62 1117.28 1127.62 1122.35 1132.99 L 1156.89 1169.66 C 1188.59 1115.47 1226.96 1082.38 1288.05 1065.46 C 1260.45 1030.13 1235.46 1003.16 1203.43 972.066 C 1199.87 967.845 1188.37 957.562 1184.05 953.575 C 1183.33 952.942 1180.64 950.056 1179.73 950.561 C 1105.27 992.073 988.442 1035.2 902.284 1035.1 C 898.557 1075.53 894.457 1115.2 896.451 1155.91 C 896.698 1160.96 896.924 1166.32 896.977 1171.37 C 897 1183.64 898.314 1195.96 899.387 1208.19 z M 964.193 424.857 C 949.535 421.465 929.329 421.72 914.448 423.017 C 866.596 426.992 815.929 446.427 782.697 483.326 C 731.616 540.045 759.602 631.429 812.605 676.08 C 873.059 727.008 991.899 703.142 1039.2 643.282 C 1075.32 598.906 1074.61 522.529 1044.83 475.102 C 1029.12 450.086 993.468 428.394 964.193 424.857 z"/>
<path transform="translate(0,0)" fill="rgb(0,0,0)" d="M 919.243 430.071 L 945.921 430.001 C 969.705 432.599 995.31 437.93 1014.54 452.939 C 1063.71 491.325 1074.42 588.063 1036.3 636.325 C 991.081 693.592 879.168 717.97 818.697 672.855 C 787.891 649.871 769.311 608.062 764.647 570.815 C 751.875 480 841.874 438.042 919.243 430.071 z M 808.478 605.436 C 810.577 604.372 814.252 603.223 814.423 600.551 C 816.059 575.102 815.797 550.936 831.823 529.095 C 835.514 524.096 839.493 519.316 843.742 514.781 C 850.737 507.445 872.19 493.066 865.896 482.837 C 861.899 480.569 860.654 480.835 855.902 481.095 C 812.748 496.514 792.212 530.82 797.148 576.385 C 798.059 584.792 800.015 601.864 808.478 605.436 z M 821.62 637.475 C 829.075 630.455 824.815 623.449 819 616.647 C 817.052 615.797 817.022 615.652 814.975 615.226 C 812.79 617.816 811.437 618.404 811.744 622.079 C 812.206 627.614 816.22 635.483 821.62 637.475 z"/>
<path transform="translate(0,0)" fill="rgb(238,126,86)" d="M 1263.23 1234.91 C 1265.52 1236.07 1273.04 1250.21 1274.87 1253.6 C 1296.71 1294.22 1345.5 1276.64 1375.25 1250.91 C 1384.61 1292.57 1396.58 1372.1 1397 1414.63 C 1389.97 1424.8 1383.18 1428.19 1372.49 1433.34 C 1357.39 1439.03 1300.85 1452.72 1292.31 1432.79 C 1266.91 1373.5 1249.06 1311.07 1222.05 1252.2 C 1235.86 1246.64 1249.59 1240.88 1263.23 1234.91 z"/>
<path transform="translate(0,0)" fill="rgb(238,126,86)" d="M 1078.25 1307.9 C 1081.17 1309.87 1095.15 1334.72 1098.96 1340.56 C 1122.67 1376.86 1147.93 1412.04 1172.6 1447.69 C 1181.78 1460.96 1179.8 1469.85 1170.77 1483.11 C 1154.98 1506.33 1133.2 1525.52 1105.21 1531.69 C 1098.55 1527.66 1093.72 1523.67 1087.62 1518.83 C 1051.05 1489.82 1018.31 1458.46 985.465 1425.41 C 1008.71 1419.67 1038.58 1407.41 1048.55 1383.25 C 1055.36 1366.76 1045.1 1346.81 1038.06 1331.65 C 1050.67 1323.71 1065.29 1315.54 1078.25 1307.9 z"/>
<path transform="translate(0,0)" fill="rgb(0,0,0)" d="M 1302.99 592.307 L 1307.27 592.885 C 1311.14 596.269 1311.69 613.368 1315.62 620.3 C 1320.36 628.648 1327.6 637.327 1332.77 645.532 C 1332.63 646.789 1332.5 648.046 1332.37 649.303 C 1316.44 649.271 1301.82 606.911 1302.99 592.307 z"/>
<path transform="translate(0,0)" fill="rgb(0,0,0)" d="M 607.178 722.596 L 610.55 723.099 C 621.404 733.281 608.054 771.917 600.947 783.528 C 598.233 782.699 599.131 783.148 596.928 781.425 C 595.841 778.004 600.796 767.625 602.427 765.223 C 609.341 755.035 604.933 728.643 607.178 722.596 z"/>
<path transform="translate(0,0)" fill="rgb(238,126,86)" d="M 979.168 752.158 C 979.229 752.176 979.302 752.173 979.351 752.213 C 983.439 755.558 1016.29 867.744 1020.28 880.66 C 1005.91 885.285 937.335 907.093 926.417 907.8 C 924.663 907.233 922.946 906.555 921.279 905.769 C 916.039 903.281 914.484 899.767 912.655 894.337 C 906.627 876.435 901.857 858.197 896.349 840.068 C 892.176 825.278 886.943 810.549 883.395 795.612 C 881.833 789.038 884.52 781.811 890.871 778.981 C 901.907 774.061 913.977 771.111 925.588 767.751 L 979.168 752.158 z"/>
<path transform="translate(0,0)" fill="rgb(0,0,0)" d="M 926.387 784.313 C 940.165 780.727 954.247 788.966 957.873 802.734 C 961.499 816.501 953.302 830.608 939.545 834.273 C 925.731 837.954 911.554 829.716 907.913 815.891 C 904.272 802.067 912.552 787.914 926.387 784.313 z"/>
<path transform="translate(0,0)" fill="rgb(238,126,86)" d="M 927.749 790.37 C 934.609 788.552 941.916 790.59 946.846 795.696 C 951.776 800.802 953.557 808.176 951.501 814.969 C 949.444 821.762 943.872 826.91 936.938 828.424 C 926.538 830.694 916.229 824.239 913.73 813.892 C 911.231 803.544 917.458 793.096 927.749 790.37 z"/>
<path transform="translate(0,0)" fill="rgb(0,0,0)" d="M 985.782 849.164 L 987.391 849.372 C 989.937 852.202 994.24 868.24 995.583 872.711 L 972.221 879.593 C 967.807 876.278 964.717 862.208 962.86 855.95 L 985.782 849.164 z"/>
<path transform="translate(0,0)" fill="rgb(238,126,86)" d="M 982.35 856.023 L 983.695 856.419 C 985.731 859.421 986.905 864.918 987.926 868.6 L 977.246 871.856 L 975.007 871.739 C 972.303 868.713 971.508 863.92 970.396 859.863 L 982.35 856.023 z"/>
<path transform="translate(0,0)" fill="rgb(0,0,0)" d="M 952.158 859.156 C 955.039 861.492 959.177 878.314 960.542 882.959 C 952.951 885.93 945.072 888.065 937.241 890.335 C 933.815 886.324 930.549 871.834 928.976 865.872 L 952.158 859.156 z"/>
<path transform="translate(0,0)" fill="rgb(238,126,86)" d="M 946.116 867.094 C 947.14 866.903 947.668 867.116 948.778 867.275 C 951.084 870.247 952.156 875.406 953.241 879.19 C 950.705 880.255 946.022 881.63 943.252 882.543 C 942.545 882.792 941.544 882.664 940.696 882.651 C 938.291 879.623 937.257 873.994 936.211 870.048 L 946.116 867.094 z"/>
<path transform="translate(0,0)" fill="rgb(238,126,86)" d="M 1314.39 1138.23 C 1324.12 1137.54 1326.92 1138.29 1335.78 1141.61 C 1354.33 1164.57 1369.21 1212.45 1373.52 1242.31 C 1359.86 1259.75 1338.49 1266.91 1317.56 1271.13 C 1309.68 1271.52 1301.83 1271.79 1294.83 1266.52 C 1275.12 1250.85 1264.67 1221.12 1257.83 1198.13 C 1247.63 1163.79 1285.83 1143.42 1314.39 1138.23 z"/>
<path transform="translate(0,0)" fill="rgb(238,126,86)" d="M 979.256 1287.33 C 1013.89 1283.76 1032.84 1333.74 1042.77 1359.48 C 1054.74 1390.53 1013.42 1412.04 988.969 1417.87 C 987.061 1418.26 982.187 1419.37 980.697 1418.18 C 952.895 1396 930.371 1356.91 920.142 1323.98 C 931.912 1301.22 954.818 1290.91 979.256 1287.33 z"/>
<path transform="translate(0,0)" fill="rgb(238,126,86)" d="M 1041.48 733.088 C 1046.35 733.373 1054.36 736.22 1056.16 740.885 C 1067.38 769.895 1074.95 801.054 1084.88 830.504 C 1094.91 860.217 1086.29 860.728 1059.53 869.16 C 1051.36 871.735 1042.37 874.239 1034.07 876.67 C 1030.65 878.091 1030.55 878.136 1026.9 878.703 C 1024.16 875.973 990.298 762.446 986.456 749.928 C 1004.7 743.993 1023.04 738.378 1041.48 733.088 z"/>
<path transform="translate(0,0)" fill="rgb(0,0,0)" d="M 1027.86 756.538 C 1039.1 754.942 1049.49 762.771 1051.06 774.008 C 1052.62 785.244 1044.77 795.617 1033.53 797.154 C 1022.33 798.685 1012 790.864 1010.44 779.669 C 1008.88 768.474 1016.67 758.127 1027.86 756.538 z"/>
<path transform="translate(0,0)" fill="rgb(238,126,86)" d="M 1028.46 762.468 C 1036.21 761.262 1043.5 766.47 1044.87 774.191 C 1046.24 781.912 1041.19 789.313 1033.5 790.847 C 1028.37 791.869 1023.1 790.041 1019.71 786.068 C 1016.32 782.095 1015.34 776.599 1017.16 771.701 C 1018.97 766.804 1023.3 763.272 1028.46 762.468 z"/>
<path transform="translate(0,0)" fill="rgb(0,0,0)" d="M 1044.41 813.282 C 1055.35 811.958 1065.36 819.556 1067.03 830.447 C 1068.7 841.337 1061.43 851.587 1050.6 853.602 C 1043.28 854.963 1035.8 852.23 1031.08 846.471 C 1026.36 840.712 1025.15 832.841 1027.93 825.933 C 1030.7 819.025 1037.02 814.176 1044.41 813.282 z"/>
<path transform="translate(0,0)" fill="rgb(238,126,86)" d="M 1044.3 819.438 C 1052.1 818.028 1059.57 823.218 1060.96 831.021 C 1062.35 838.824 1057.15 846.276 1049.34 847.653 C 1041.56 849.026 1034.13 843.839 1032.74 836.059 C 1031.35 828.279 1036.53 820.843 1044.3 819.438 z"/>
<path transform="translate(0,0)" fill="rgb(254,253,254)" d="M 1307 1093.27 C 1311.85 1096.53 1328.52 1126.45 1332.13 1132.81 C 1318.91 1131.37 1307.82 1131.8 1295.49 1136.98 C 1241.96 1159.49 1243.68 1182.56 1261.97 1228.71 C 1252.89 1232.24 1227.52 1244.35 1219.09 1245.51 C 1206.85 1223.61 1195.78 1212.97 1178.75 1194.66 C 1180.93 1190.43 1183.28 1186.29 1185.81 1182.26 C 1213.71 1137.11 1255.28 1105.57 1307 1093.27 z"/>
<path transform="translate(0,0)" fill="rgb(238,126,86)" d="M 988.972 1204.41 C 1016.17 1202.31 1044.59 1206.87 1070.27 1215.71 L 1070.26 1234.13 C 1036.14 1224.18 1008.87 1221.98 973.271 1226.33 C 948.07 1229.37 926.39 1237.68 904.179 1249.32 C 903.133 1243.65 902.421 1235.76 901.728 1229.87 C 930.031 1213.79 956.394 1206.46 988.972 1204.41 z"/>
<path transform="translate(0,0)" fill="rgb(238,126,86)" d="M 1288.37 1072.13 C 1295.36 1070.52 1300.57 1082.58 1303.78 1087.84 C 1301.19 1088.38 1298.62 1088.99 1296.07 1089.68 C 1242.57 1103.89 1202.75 1140.57 1175.56 1187.59 C 1175 1188.3 1175.43 1187.87 1173.89 1188.38 C 1169.06 1184.26 1165.42 1179.56 1161.36 1174.68 C 1161.73 1174.02 1162.1 1173.37 1162.47 1172.71 C 1191.58 1122.32 1231.42 1087.25 1288.37 1072.13 z"/>
<path transform="translate(0,0)" fill="rgb(238,126,86)" d="M 1233.75 604.507 L 1235.52 604.181 C 1237.92 606.515 1238 621.43 1238.57 626.127 C 1239.48 634.084 1240.9 641.975 1242.82 649.751 C 1250.27 679.948 1261.43 698.957 1278.67 723.867 C 1274.1 726.306 1268.14 728.833 1263.34 731.026 C 1262.1 731.236 1262.95 731.185 1260.85 730.49 C 1233.6 697.424 1220.24 648.703 1219.06 606.302 C 1223.68 605.363 1229.01 604.985 1233.75 604.507 z"/>
<path transform="translate(0,0)" fill="rgb(238,126,86)" d="M 686.292 712.429 L 687.846 712.632 C 690.947 717.471 692.982 731.17 693.903 737.048 C 699.96 775.727 692.956 807.959 678.083 843.4 L 665.231 840.898 C 662.749 840.667 659.565 839.749 661.122 836.455 C 679.254 798.08 682.782 755.484 670.952 714.654 L 686.292 712.429 z"/>
<path transform="translate(0,0)" fill="rgb(238,126,86)" d="M 1161.7 614.366 C 1171.76 612.935 1169.81 621.994 1167.1 628.53 C 1163.62 636.889 1156.91 643.492 1148.5 646.852 C 1136.87 651.498 1126.65 649.583 1115.72 644.72 C 1106.12 638.203 1104.7 634.288 1101.04 623.813 C 1119.69 619.677 1142.7 616.924 1161.7 614.366 z"/>
<path transform="translate(0,0)" fill="rgb(254,253,254)" d="M 1221.65 1549.01 C 1223.45 1545.57 1224.12 1543.43 1227.34 1541.28 L 1229.18 1541.41 C 1231.25 1548.49 1226.46 1553.22 1228.38 1557.81 C 1227.07 1572.62 1201.91 1618.47 1194.1 1634.27 C 1187.75 1647.13 1171.12 1672.02 1153.97 1667.42 C 1153.94 1666.96 1153.9 1666.5 1153.87 1666.03 C 1178.74 1645.59 1195.25 1606.07 1207.82 1578.46 C 1215.75 1561.06 1217.26 1559.18 1221.65 1549.01 z"/>
<path transform="translate(0,0)" fill="rgb(254,253,254)" fill-opacity="0.988235" d="M 1361.25 1520.55 C 1366.62 1520.54 1398.18 1525.16 1404.79 1526.54 L 1401.73 1527.56 C 1400.64 1534.68 1404.3 1531.51 1398.82 1536.72 C 1391.26 1537.75 1360.54 1532.3 1352.11 1530.63 C 1355.03 1526.51 1357.74 1524.9 1361.75 1521.81 L 1361.25 1520.55 z"/>
<path transform="translate(0,0)" fill="rgb(254,253,254)" fill-opacity="0.321569" d="M 1431.23 1528.32 C 1453.06 1526.35 1453.55 1529.82 1479.36 1523.62 L 1474.74 1528.1 L 1474.91 1529.38 L 1479.25 1529.58 C 1474.96 1540.68 1438.27 1541.52 1428.44 1539.17 C 1447.03 1537.2 1436.49 1538.38 1443.76 1529.49 C 1440 1529.41 1434.64 1529.69 1431.23 1528.32 z"/>
<path transform="translate(0,0)" fill="rgb(254,253,254)" fill-opacity="0.0627451" d="M 1321.99 1468.9 C 1339.7 1469.61 1347.23 1493.45 1346.51 1508.45 C 1344.97 1505.16 1343.44 1495.92 1342.08 1493.73 C 1337.4 1486.24 1335.72 1485.41 1332.18 1476.84 C 1327.51 1474.76 1323.11 1473.97 1321.99 1468.9 z"/>
<path transform="translate(0,0)" fill="url(#Gradient1)" d="M 1012.27 425.91 C 1022.36 434.786 1028.64 443.816 1036.64 454.498 C 1031.24 450.65 1017.05 439.979 1012.58 435.621 C 1012.33 434.684 1010.66 432.326 1010.01 431.223 C 1010.59 426.919 1009.62 428.508 1012.27 425.91 z"/>
<path transform="translate(0,0)" fill="rgb(202,202,201)" fill-opacity="0.0392157" d="M 1177.45 886.772 L 1179.13 885.361 C 1185.33 890.334 1184.94 910.42 1180.85 917.338 C 1179.09 909.507 1178.17 895.193 1177.45 886.772 z"/>
<path transform="translate(0,0)" fill="rgb(254,253,254)" fill-opacity="0.0745098" d="M 1193.83 1520.73 C 1199.78 1522.11 1213.54 1534.81 1214.83 1540.11 L 1211.83 1540.35 C 1203.35 1535.7 1197.67 1529.61 1193.83 1520.73 z"/>
<path transform="translate(0,0)" fill="rgb(254,253,254)" fill-opacity="0.0235294" d="M 1479.36 1523.62 L 1482.18 1522.22 L 1483.36 1522.71 C 1481.73 1526.11 1481.47 1526.54 1479.25 1529.58 L 1474.91 1529.38 L 1474.74 1528.1 L 1479.36 1523.62 z"/>
<path transform="translate(0,0)" fill="rgb(0,0,0)" d="M 1285.39 354.222 C 1308.2 352.323 1321.04 357.056 1337.87 371.819 C 1353.18 368.722 1401.39 351.94 1412.58 364.171 C 1416.13 380.796 1368.04 402.792 1355.51 408.553 C 1355.21 444.179 1340.75 471.904 1302.59 477.379 C 1278.36 479.987 1258.64 472.272 1244.3 452.186 C 1229.62 456.397 1185.22 470.034 1174.15 460.338 C 1171.49 453.493 1175.95 448.209 1181.21 444.083 C 1196.55 432.038 1215.27 422.515 1232.41 413.386 C 1236.12 380.91 1252.92 360.362 1285.39 354.222 z M 1347.69 404.802 C 1342.5 386.158 1331.91 371.129 1313.3 363.804 C 1300.32 358.711 1285.85 358.984 1273.06 364.562 C 1255.55 372.181 1247.09 384.883 1240.73 401.856 C 1239.14 410.279 1237.87 418.857 1240.52 427.197 C 1241.56 433.836 1243.9 437.927 1246.79 443.927 C 1254.99 441.94 1270.53 435.949 1278.6 432.919 C 1301.89 424.211 1324.93 414.835 1347.69 404.802 z M 1231.99 421.288 C 1216.94 429.263 1190.67 442.184 1180.23 455.525 L 1180.53 456.775 C 1184.11 457.061 1186.48 457.159 1190.06 457.132 C 1203.64 456.495 1226.62 450.604 1239.91 446.256 C 1236.65 437.716 1234.22 430.699 1232.4 421.686 L 1231.99 421.288 z M 1325.96 421.84 C 1322.7 423.16 1313.62 426.619 1310.94 428.079 C 1292.21 435.185 1269.72 444.25 1250.75 449.752 C 1269.07 472.119 1300.37 479.478 1324.39 461.586 C 1333.6 455.689 1342.65 444.879 1345.78 434.261 C 1348.42 425.85 1348.9 420.909 1348.37 412.281 C 1341.17 415.073 1333.13 418.756 1325.96 421.84 z M 1398.98 366.448 C 1379.16 367.442 1362.07 371.791 1343.37 378.187 C 1348.23 386.714 1350.62 391.114 1353.39 400.746 C 1359.97 401.081 1402.83 376.809 1403.98 367.807 C 1401.99 366.237 1401.62 366.562 1398.98 366.448 z"/>
<path transform="translate(0,0)" fill="rgb(89,85,93)" fill-opacity="0.0313725" d="M 1287.7 365.552 C 1292.33 365.143 1294.01 364.971 1298.58 365.324 L 1298.38 367.083 C 1294.77 367.083 1291.16 367.031 1287.56 366.927 L 1287.7 365.552 z"/>
<path transform="translate(0,0)" fill="rgb(0,0,0)" d="M 686.983 998.725 C 701.471 995.721 715.635 1005.09 718.543 1019.59 C 721.452 1034.1 711.992 1048.2 697.465 1051.02 C 683.074 1053.8 669.132 1044.45 666.251 1030.08 C 663.37 1015.7 672.63 1001.7 686.983 998.725 z M 697.484 1043.99 C 704.39 1042.18 709.789 1036.79 711.615 1029.89 C 713.442 1022.99 711.413 1015.64 706.305 1010.65 C 701.197 1005.66 693.801 1003.8 686.944 1005.79 C 676.532 1008.81 670.481 1019.64 673.365 1030.09 C 676.249 1040.54 686.997 1046.73 697.484 1043.99 z"/>
<path transform="translate(0,0)" fill="rgb(0,0,0)" d="M 603.857 489.188 C 604.863 489.324 607.951 490.012 608.2 490.735 C 609.944 495.79 611.979 504.001 614.646 508.455 C 618.055 514.148 628.453 513.874 633.835 518.614 C 632.274 522.831 622.116 524.233 616.84 527.168 C 611.611 535.23 610.913 539.644 608.898 548.843 C 607.834 548.701 605.236 548.487 604.802 547.289 C 601.979 539.494 601.736 534.415 597.048 527.284 C 591.961 524.321 582.164 522.527 579.785 518.107 C 597.654 512.112 601.491 507.349 603.857 489.188 z M 595.257 518.848 C 600.587 522.599 603.816 525.619 607.049 531.328 C 610.814 524.396 611.853 523.325 618.22 518.782 C 612.596 515.139 610.284 513.598 606.667 507.869 C 602.154 513.52 600.927 514.437 595.257 518.848 z"/>
<path transform="translate(0,0)" fill="rgb(0,0,0)" d="M 1404.71 758.192 L 1408.09 758.928 C 1411.28 761.497 1410.92 765.649 1412.51 769.517 C 1415.87 777.701 1424.74 773.078 1427.2 780.508 C 1423.53 788.2 1415.62 775.787 1409.52 801.1 L 1406.39 800.121 C 1402.78 797.37 1403.71 791.744 1401.94 789.021 C 1398.53 783.761 1386.95 782.17 1380.67 779.819 C 1397.62 772.124 1399.9 780.267 1404.71 758.192 z"/>
<path transform="translate(0,0)" fill="rgb(0,0,0)" d="M 1110.36 329.759 C 1105.96 328.91 1104.63 329.419 1101.74 326.942 L 1101.32 324.433 C 1105.2 319.91 1112.9 323.369 1115.3 315.849 C 1116.95 310.679 1117.57 305.782 1119.36 300.28 C 1122.15 306.233 1124.99 318.188 1129.49 320.053 C 1133 321.512 1137.1 320.155 1139.08 323.486 C 1138.49 330.858 1131.49 327.532 1128.12 330.882 C 1124.54 334.45 1125.47 341.212 1121.05 345.108 C 1116.63 343.558 1116.99 340.209 1116.18 335.763 C 1113.68 332.226 1113.83 332.214 1110.36 329.759 z"/>
<path transform="translate(0,0)" fill="rgb(202,202,201)" fill-opacity="0.0196078" d="M 1501.9 482.636 L 1505.99 486.365 C 1499.82 491.588 1492.79 497.869 1486.22 502.378 L 1501.9 482.636 z"/>
<path transform="translate(0,0)" fill="rgb(202,202,201)" fill-opacity="0.0196078" d="M 430.582 651.901 L 437.366 661.808 C 433.524 659.33 429.055 656.721 425.767 653.64 L 430.582 651.901 z"/>
</svg>